<?xml version="1.0" encoding="UTF-8" standalone="no"?>
<!-- Created with Inkscape (http://www.inkscape.org/) -->

<svg
   width="160mm"
   height="160mm"
   viewBox="0 0 160 160"
   version="1.1"
   id="svg973"
   sodipodi:docname="pydantic-popsicles.svg"
   inkscape:version="1.3.2 (091e20e, 2023-11-25)"
   xml:space="preserve"
   xmlns:inkscape="http://www.inkscape.org/namespaces/inkscape"
   xmlns:sodipodi="http://sodipodi.sourceforge.net/DTD/sodipodi-0.dtd"
   xmlns="http://www.w3.org/2000/svg"
   xmlns:svg="http://www.w3.org/2000/svg"><sodipodi:namedview
     id="namedview975"
     pagecolor="#ffffff"
     bordercolor="#666666"
     borderopacity="1.0"
     inkscape:pageshadow="2"
     inkscape:pageopacity="0.0"
     inkscape:pagecheckerboard="0"
     inkscape:document-units="mm"
     showgrid="false"
     fit-margin-top="0"
     fit-margin-left="0"
     fit-margin-right="0"
     fit-margin-bottom="0"
     inkscape:zoom="0.3475998"
     inkscape:cx="279.05655"
     inkscape:cy="520.71376"
     inkscape:window-width="1920"
     inkscape:window-height="1027"
     inkscape:window-x="0"
     inkscape:window-y="325"
     inkscape:window-maximized="0"
     inkscape:current-layer="layer1"
     inkscape:showpageshadow="2"
     inkscape:deskcolor="#d1d1d1" /><defs
     id="defs970"><filter
       style="color-interpolation-filters:sRGB"
       inkscape:label="Invert"
       id="filter7103"
       x="0"
       y="0"
       width="1"
       height="1"><feColorMatrix
         type="hueRotate"
         values="180"
         result="color1"
         id="feColorMatrix7099" /><feColorMatrix
         values="-1 0 0 0 1 0 -1 0 0 1 0 0 -1 0 1 -0.21 -0.72 -0.07 2 0 "
         result="color2"
         id="feColorMatrix7101" /></filter></defs><g
     inkscape:label="Layer 1"
     inkscape:groupmode="layer"
     id="layer1"
     transform="translate(-40.740792,-49.39412)"><rect
       style="fill:none;stroke:#0d0a0c;stroke-width:2.96254;stroke-linecap:round;stroke-linejoin:miter;stroke-miterlimit:4;stroke-dasharray:none;stroke-opacity:1;paint-order:stroke fill markers;stop-color:#000000"
       id="rect1259"
       width="157.03745"
       height="157.03746"
       x="41.692894"
       y="50.875389" /><g
       id="g5"
       transform="translate(6.0376741,-24.512168)"><g
         id="g12"><g
           id="g4"
           transform="matrix(0.64953962,0,0,0.64953962,36.277185,31.224676)"><rect
             style="fill:#000000;stroke-width:0.221154"
             id="rect3"
             width="24.835348"
             height="29.381002"
             x="108.32311"
             y="94.298401" /><circle
             style="fill:#000000;stroke-width:0.196147"
             id="circle3"
             cx="120.74062"
             cy="94.298401"
             r="12.4175" /><path
             id="path3"
             style="fill:#000000;stroke-width:0.0705072"
             d="m 117.94125,122.34729 v 1.33273 h 5.59914 v -1.33273 z m 0,2.55643 v 10.69082 h 5.59914 v -10.69082 z" /></g><circle
           style="fill:#ffffff;stroke-width:0.358687"
           id="path5"
           cx="114.57845"
           cy="92.071518"
           r="6.7665901" /><ellipse
           style="fill:#000000;stroke-width:0.389887"
           id="circle5"
           cx="115.27385"
           cy="93.354424"
           rx="7.2506061"
           ry="7.4612589" /></g></g><g
       id="g13"
       transform="translate(0.11901924,-0.52916667)"><g
         id="g9"
         transform="matrix(0.47252928,-0.47252928,0.47252928,0.47252928,9.8948634,106.01494)"><g
           id="g8"
           transform="matrix(0.64953962,0,0,0.64953962,36.277185,31.224676)"><rect
             style="fill:#000000;stroke-width:0.221154"
             id="rect7"
             width="24.835348"
             height="29.381002"
             x="108.32311"
             y="94.298401" /><circle
             style="fill:#000000;stroke-width:0.196147"
             id="circle8"
             cx="120.74062"
             cy="94.298401"
             r="12.4175" /><path
             id="path8"
             style="fill:#000000;stroke-width:0.0705072"
             d="m 117.94125,122.34729 v 1.33273 h 5.59914 v -1.33273 z m 0,2.55643 v 10.69082 h 5.59914 v -10.69082 z" /></g><circle
           style="fill:#ffffff;stroke-width:0.358687"
           id="circle9"
           cx="114.57845"
           cy="92.071518"
           r="6.7665901" /><ellipse
           style="fill:#000000;stroke-width:0.389887"
           id="ellipse9"
           cx="115.27385"
           cy="93.354424"
           rx="7.2506061"
           ry="7.4612589" /></g><g
         id="g11"
         transform="matrix(0.47252928,0.47252928,-0.47252928,0.47252928,122.94761,-2.3862162)"><g
           id="g10"
           transform="matrix(0.64953962,0,0,0.64953962,36.277185,31.224676)"><rect
             style="fill:#000000;stroke-width:0.221154"
             id="rect9"
             width="24.835348"
             height="29.381002"
             x="108.32311"
             y="94.298401" /><circle
             style="fill:#000000;stroke-width:0.196147"
             id="circle10"
             cx="120.74062"
             cy="94.298401"
             r="12.4175" /><path
             id="path10"
             style="fill:#000000;stroke-width:0.0705072"
             d="m 117.94125,122.34729 v 1.33273 h 5.59914 v -1.33273 z m 0,2.55643 v 10.69082 h 5.59914 v -10.69082 z" /></g><circle
           style="fill:#ffffff;stroke-width:0.358687"
           id="circle11"
           cx="114.57845"
           cy="92.071518"
           r="6.7665901" /><ellipse
           style="fill:#000000;stroke-width:0.389887"
           id="ellipse11"
           cx="115.27385"
           cy="93.354424"
           rx="7.2506061"
           ry="7.4612589" /></g></g><g
       id="g22"><g
         id="g16"
         transform="matrix(1,0,0,-1,6.0376741,283.34951)"><g
           id="g15"><g
             id="g14"
             transform="matrix(0.64953962,0,0,0.64953962,36.277185,31.224676)"><rect
               style="fill:#000000;stroke-width:0.221154"
               id="rect13"
               width="24.835348"
               height="29.381002"
               x="108.32311"
               y="94.298401" /><circle
               style="fill:#000000;stroke-width:0.196147"
               id="circle13"
               cx="120.74062"
               cy="94.298401"
               r="12.4175" /><path
               id="path13"
               style="fill:#000000;stroke-width:0.0705072"
               d="m 117.94125,122.34729 v 1.33273 h 5.59914 v -1.33273 z m 0,2.55643 v 10.69082 h 5.59914 v -10.69082 z" /></g><circle
             style="fill:#ffffff;stroke-width:0.358687"
             id="circle14"
             cx="114.57845"
             cy="92.071518"
             r="6.7665901" /><ellipse
             style="fill:#000000;stroke-width:0.389887"
             id="ellipse14"
             cx="115.27385"
             cy="93.354424"
             rx="7.2506061"
             ry="7.4612589" /></g></g><g
         id="g21"
         transform="matrix(1,0,0,-1,0.11901924,259.36651)"><g
           id="g18"
           transform="matrix(0.47252928,-0.47252928,0.47252928,0.47252928,9.8948634,106.01494)"><g
             id="g17"
             transform="matrix(0.64953962,0,0,0.64953962,36.277185,31.224676)"><rect
               style="fill:#000000;stroke-width:0.221154"
               id="rect16"
               width="24.835348"
               height="29.381002"
               x="108.32311"
               y="94.298401" /><circle
               style="fill:#000000;stroke-width:0.196147"
               id="circle16"
               cx="120.74062"
               cy="94.298401"
               r="12.4175" /><path
               id="path16"
               style="fill:#000000;stroke-width:0.0705072"
               d="m 117.94125,122.34729 v 1.33273 h 5.59914 v -1.33273 z m 0,2.55643 v 10.69082 h 5.59914 v -10.69082 z" /></g><circle
             style="fill:#ffffff;stroke-width:0.358687"
             id="circle17"
             cx="114.57845"
             cy="92.071518"
             r="6.7665901" /><ellipse
             style="fill:#000000;stroke-width:0.389887"
             id="ellipse17"
             cx="115.27385"
             cy="93.354424"
             rx="7.2506061"
             ry="7.4612589" /></g><g
           id="g20"
           transform="matrix(0.47252928,0.47252928,-0.47252928,0.47252928,122.94761,-2.3862162)"><g
             id="g19"
             transform="matrix(0.64953962,0,0,0.64953962,36.277185,31.224676)"><rect
               style="fill:#000000;stroke-width:0.221154"
               id="rect18"
               width="24.835348"
               height="29.381002"
               x="108.32311"
               y="94.298401" /><circle
               style="fill:#000000;stroke-width:0.196147"
               id="circle18"
               cx="120.74062"
               cy="94.298401"
               r="12.4175" /><path
               id="path18"
               style="fill:#000000;stroke-width:0.0705072"
               d="m 117.94125,122.34729 v 1.33273 h 5.59914 v -1.33273 z m 0,2.55643 v 10.69082 h 5.59914 v -10.69082 z" /></g><circle
             style="fill:#ffffff;stroke-width:0.358687"
             id="circle19"
             cx="114.57845"
             cy="92.071518"
             r="6.7665901" /><ellipse
             style="fill:#000000;stroke-width:0.389887"
             id="ellipse19"
             cx="115.27385"
             cy="93.354424"
             rx="7.2506061"
             ry="7.4612589" /></g></g></g><g
       id="g31"
       transform="rotate(60,121.071,129.53356)"><g
         id="g25"
         transform="matrix(1,0,0,-1,6.0376741,283.34951)"><g
           id="g24"><g
             id="g23"
             transform="matrix(0.64953962,0,0,0.64953962,36.277185,31.224676)"><rect
               style="fill:#000000;stroke-width:0.221154"
               id="rect22"
               width="24.835348"
               height="29.381002"
               x="108.32311"
               y="94.298401" /><circle
               style="fill:#000000;stroke-width:0.196147"
               id="circle22"
               cx="120.74062"
               cy="94.298401"
               r="12.4175" /><path
               id="path22"
               style="fill:#000000;stroke-width:0.0705072"
               d="m 117.94125,122.34729 v 1.33273 h 5.59914 v -1.33273 z m 0,2.55643 v 10.69082 h 5.59914 v -10.69082 z" /></g><circle
             style="fill:#ffffff;stroke-width:0.358687"
             id="circle23"
             cx="114.57845"
             cy="92.071518"
             r="6.7665901" /><ellipse
             style="fill:#000000;stroke-width:0.389887"
             id="ellipse23"
             cx="115.27385"
             cy="93.354424"
             rx="7.2506061"
             ry="7.4612589" /></g></g><g
         id="g30"
         transform="matrix(1,0,0,-1,0.11901924,259.36651)"><g
           id="g27"
           transform="matrix(0.47252928,-0.47252928,0.47252928,0.47252928,9.8948634,106.01494)"><g
             id="g26"
             transform="matrix(0.64953962,0,0,0.64953962,36.277185,31.224676)"><rect
               style="fill:#000000;stroke-width:0.221154"
               id="rect25"
               width="24.835348"
               height="29.381002"
               x="108.32311"
               y="94.298401" /><circle
               style="fill:#000000;stroke-width:0.196147"
               id="circle25"
               cx="120.74062"
               cy="94.298401"
               r="12.4175" /><path
               id="path25"
               style="fill:#000000;stroke-width:0.0705072"
               d="m 117.94125,122.34729 v 1.33273 h 5.59914 v -1.33273 z m 0,2.55643 v 10.69082 h 5.59914 v -10.69082 z" /></g><circle
             style="fill:#ffffff;stroke-width:0.358687"
             id="circle26"
             cx="114.57845"
             cy="92.071518"
             r="6.7665901" /><ellipse
             style="fill:#000000;stroke-width:0.389887"
             id="ellipse26"
             cx="115.27385"
             cy="93.354424"
             rx="7.2506061"
             ry="7.4612589" /></g><g
           id="g29"
           transform="matrix(0.47252928,0.47252928,-0.47252928,0.47252928,122.94761,-2.3862162)"><g
             id="g28"
             transform="matrix(0.64953962,0,0,0.64953962,36.277185,31.224676)"><rect
               style="fill:#000000;stroke-width:0.221154"
               id="rect27"
               width="24.835348"
               height="29.381002"
               x="108.32311"
               y="94.298401" /><circle
               style="fill:#000000;stroke-width:0.196147"
               id="circle27"
               cx="120.74062"
               cy="94.298401"
               r="12.4175" /><path
               id="path27"
               style="fill:#000000;stroke-width:0.0705072"
               d="m 117.94125,122.34729 v 1.33273 h 5.59914 v -1.33273 z m 0,2.55643 v 10.69082 h 5.59914 v -10.69082 z" /></g><circle
             style="fill:#ffffff;stroke-width:0.358687"
             id="circle28"
             cx="114.57845"
             cy="92.071518"
             r="6.7665901" /><ellipse
             style="fill:#000000;stroke-width:0.389887"
             id="ellipse28"
             cx="115.27385"
             cy="93.354424"
             rx="7.2506061"
             ry="7.4612589" /></g></g></g><g
       id="g40"
       transform="rotate(-120,120.55464,129.48611)"><g
         id="g34"
         transform="matrix(1,0,0,-1,6.0376741,283.34951)"><g
           id="g33"><g
             id="g32"
             transform="matrix(0.64953962,0,0,0.64953962,36.277185,31.224676)"><rect
               style="fill:#000000;stroke-width:0.221154"
               id="rect31"
               width="24.835348"
               height="29.381002"
               x="108.32311"
               y="94.298401" /><circle
               style="fill:#000000;stroke-width:0.196147"
               id="circle31"
               cx="120.74062"
               cy="94.298401"
               r="12.4175" /><path
               id="path31"
               style="fill:#000000;stroke-width:0.0705072"
               d="m 117.94125,122.34729 v 1.33273 h 5.59914 v -1.33273 z m 0,2.55643 v 10.69082 h 5.59914 v -10.69082 z" /></g><circle
             style="fill:#ffffff;stroke-width:0.358687"
             id="circle32"
             cx="114.57845"
             cy="92.071518"
             r="6.7665901" /><ellipse
             style="fill:#000000;stroke-width:0.389887"
             id="ellipse32"
             cx="115.27385"
             cy="93.354424"
             rx="7.2506061"
             ry="7.4612589" /></g></g><g
         id="g39"
         transform="matrix(1,0,0,-1,0.11901924,259.36651)"><g
           id="g36"
           transform="matrix(0.47252928,-0.47252928,0.47252928,0.47252928,9.8948634,106.01494)"><g
             id="g35"
             transform="matrix(0.64953962,0,0,0.64953962,36.277185,31.224676)"><rect
               style="fill:#000000;stroke-width:0.221154"
               id="rect34"
               width="24.835348"
               height="29.381002"
               x="108.32311"
               y="94.298401" /><circle
               style="fill:#000000;stroke-width:0.196147"
               id="circle34"
               cx="120.74062"
               cy="94.298401"
               r="12.4175" /><path
               id="path34"
               style="fill:#000000;stroke-width:0.0705072"
               d="m 117.94125,122.34729 v 1.33273 h 5.59914 v -1.33273 z m 0,2.55643 v 10.69082 h 5.59914 v -10.69082 z" /></g><circle
             style="fill:#ffffff;stroke-width:0.358687"
             id="circle35"
             cx="114.57845"
             cy="92.071518"
             r="6.7665901" /><ellipse
             style="fill:#000000;stroke-width:0.389887"
             id="ellipse35"
             cx="115.27385"
             cy="93.354424"
             rx="7.2506061"
             ry="7.4612589" /></g><g
           id="g38"
           transform="matrix(0.47252928,0.47252928,-0.47252928,0.47252928,122.94761,-2.3862162)"><g
             id="g37"
             transform="matrix(0.64953962,0,0,0.64953962,36.277185,31.224676)"><rect
               style="fill:#000000;stroke-width:0.221154"
               id="rect36"
               width="24.835348"
               height="29.381002"
               x="108.32311"
               y="94.298401" /><circle
               style="fill:#000000;stroke-width:0.196147"
               id="circle36"
               cx="120.74062"
               cy="94.298401"
               r="12.4175" /><path
               id="path36"
               style="fill:#000000;stroke-width:0.0705072"
               d="m 117.94125,122.34729 v 1.33273 h 5.59914 v -1.33273 z m 0,2.55643 v 10.69082 h 5.59914 v -10.69082 z" /></g><circle
             style="fill:#ffffff;stroke-width:0.358687"
             id="circle37"
             cx="114.57845"
             cy="92.071518"
             r="6.7665901" /><ellipse
             style="fill:#000000;stroke-width:0.389887"
             id="ellipse37"
             cx="115.27385"
             cy="93.354424"
             rx="7.2506061"
             ry="7.4612589" /></g></g></g><g
       id="g49"
       transform="rotate(120,120.82114,129.53807)"><g
         id="g43"
         transform="matrix(1,0,0,-1,6.0376741,283.34951)"><g
           id="g42"><g
             id="g41"
             transform="matrix(0.64953962,0,0,0.64953962,36.277185,31.224676)"><rect
               style="fill:#000000;stroke-width:0.221154"
               id="rect40"
               width="24.835348"
               height="29.381002"
               x="108.32311"
               y="94.298401" /><circle
               style="fill:#000000;stroke-width:0.196147"
               id="circle40"
               cx="120.74062"
               cy="94.298401"
               r="12.4175" /><path
               id="path40"
               style="fill:#000000;stroke-width:0.0705072"
               d="m 117.94125,122.34729 v 1.33273 h 5.59914 v -1.33273 z m 0,2.55643 v 10.69082 h 5.59914 v -10.69082 z" /></g><circle
             style="fill:#ffffff;stroke-width:0.358687"
             id="circle41"
             cx="114.57845"
             cy="92.071518"
             r="6.7665901" /><ellipse
             style="fill:#000000;stroke-width:0.389887"
             id="ellipse41"
             cx="115.27385"
             cy="93.354424"
             rx="7.2506061"
             ry="7.4612589" /></g></g><g
         id="g48"
         transform="matrix(1,0,0,-1,0.11901924,259.36651)"><g
           id="g45"
           transform="matrix(0.47252928,-0.47252928,0.47252928,0.47252928,9.8948634,106.01494)"><g
             id="g44"
             transform="matrix(0.64953962,0,0,0.64953962,36.277185,31.224676)"><rect
               style="fill:#000000;stroke-width:0.221154"
               id="rect43"
               width="24.835348"
               height="29.381002"
               x="108.32311"
               y="94.298401" /><circle
               style="fill:#000000;stroke-width:0.196147"
               id="circle43"
               cx="120.74062"
               cy="94.298401"
               r="12.4175" /><path
               id="path43"
               style="fill:#000000;stroke-width:0.0705072"
               d="m 117.94125,122.34729 v 1.33273 h 5.59914 v -1.33273 z m 0,2.55643 v 10.69082 h 5.59914 v -10.69082 z" /></g><circle
             style="fill:#ffffff;stroke-width:0.358687"
             id="circle44"
             cx="114.57845"
             cy="92.071518"
             r="6.7665901" /><ellipse
             style="fill:#000000;stroke-width:0.389887"
             id="ellipse44"
             cx="115.27385"
             cy="93.354424"
             rx="7.2506061"
             ry="7.4612589" /></g><g
           id="g47"
           transform="matrix(0.47252928,0.47252928,-0.47252928,0.47252928,122.94761,-2.3862162)"><g
             id="g46"
             transform="matrix(0.64953962,0,0,0.64953962,36.277185,31.224676)"><rect
               style="fill:#000000;stroke-width:0.221154"
               id="rect45"
               width="24.835348"
               height="29.381002"
               x="108.32311"
               y="94.298401" /><circle
               style="fill:#000000;stroke-width:0.196147"
               id="circle45"
               cx="120.74062"
               cy="94.298401"
               r="12.4175" /><path
               id="path45"
               style="fill:#000000;stroke-width:0.0705072"
               d="m 117.94125,122.34729 v 1.33273 h 5.59914 v -1.33273 z m 0,2.55643 v 10.69082 h 5.59914 v -10.69082 z" /></g><circle
             style="fill:#ffffff;stroke-width:0.358687"
             id="circle46"
             cx="114.57845"
             cy="92.071518"
             r="6.7665901" /><ellipse
             style="fill:#000000;stroke-width:0.389887"
             id="ellipse46"
             cx="115.27385"
             cy="93.354424"
             rx="7.2506061"
             ry="7.4612589" /></g></g></g><g
       id="g58"
       transform="rotate(-60,120.50506,129.53604)"><g
         id="g52"
         transform="matrix(1,0,0,-1,6.0376741,283.34951)"><g
           id="g51"><g
             id="g50"
             transform="matrix(0.64953962,0,0,0.64953962,36.277185,31.224676)"><rect
               style="fill:#000000;stroke-width:0.221154"
               id="rect49"
               width="24.835348"
               height="29.381002"
               x="108.32311"
               y="94.298401" /><circle
               style="fill:#000000;stroke-width:0.196147"
               id="circle49"
               cx="120.74062"
               cy="94.298401"
               r="12.4175" /><path
               id="path49"
               style="fill:#000000;stroke-width:0.0705072"
               d="m 117.94125,122.34729 v 1.33273 h 5.59914 v -1.33273 z m 0,2.55643 v 10.69082 h 5.59914 v -10.69082 z" /></g><circle
             style="fill:#ffffff;stroke-width:0.358687"
             id="circle50"
             cx="114.57845"
             cy="92.071518"
             r="6.7665901" /><ellipse
             style="fill:#000000;stroke-width:0.389887"
             id="ellipse50"
             cx="115.27385"
             cy="93.354424"
             rx="7.2506061"
             ry="7.4612589" /></g></g><g
         id="g57"
         transform="matrix(1,0,0,-1,0.11901924,259.36651)"><g
           id="g54"
           transform="matrix(0.47252928,-0.47252928,0.47252928,0.47252928,9.8948634,106.01494)"><g
             id="g53"
             transform="matrix(0.64953962,0,0,0.64953962,36.277185,31.224676)"><rect
               style="fill:#000000;stroke-width:0.221154"
               id="rect52"
               width="24.835348"
               height="29.381002"
               x="108.32311"
               y="94.298401" /><circle
               style="fill:#000000;stroke-width:0.196147"
               id="circle52"
               cx="120.74062"
               cy="94.298401"
               r="12.4175" /><path
               id="path52"
               style="fill:#000000;stroke-width:0.0705072"
               d="m 117.94125,122.34729 v 1.33273 h 5.59914 v -1.33273 z m 0,2.55643 v 10.69082 h 5.59914 v -10.69082 z" /></g><circle
             style="fill:#ffffff;stroke-width:0.358687"
             id="circle53"
             cx="114.57845"
             cy="92.071518"
             r="6.7665901" /><ellipse
             style="fill:#000000;stroke-width:0.389887"
             id="ellipse53"
             cx="115.27385"
             cy="93.354424"
             rx="7.2506061"
             ry="7.4612589" /></g><g
           id="g56"
           transform="matrix(0.47252928,0.47252928,-0.47252928,0.47252928,122.94761,-2.3862162)"><g
             id="g55"
             transform="matrix(0.64953962,0,0,0.64953962,36.277185,31.224676)"><rect
               style="fill:#000000;stroke-width:0.221154"
               id="rect54"
               width="24.835348"
               height="29.381002"
               x="108.32311"
               y="94.298401" /><circle
               style="fill:#000000;stroke-width:0.196147"
               id="circle54"
               cx="120.74062"
               cy="94.298401"
               r="12.4175" /><path
               id="path54"
               style="fill:#000000;stroke-width:0.0705072"
               d="m 117.94125,122.34729 v 1.33273 h 5.59914 v -1.33273 z m 0,2.55643 v 10.69082 h 5.59914 v -10.69082 z" /></g><circle
             style="fill:#ffffff;stroke-width:0.358687"
             id="circle55"
             cx="114.57845"
             cy="92.071518"
             r="6.7665901" /><ellipse
             style="fill:#000000;stroke-width:0.389887"
             id="ellipse55"
             cx="115.27385"
             cy="93.354424"
             rx="7.2506061"
             ry="7.4612589" /></g></g></g><g
       id="g60"
       transform="matrix(0.48423286,0,0,0.48423286,65.197749,71.09623)"><g
         id="g59"
         transform="matrix(0.64953962,0,0,0.64953962,36.277185,31.224676)"><rect
           style="fill:#000000;stroke-width:0.221154"
           id="rect58"
           width="24.835348"
           height="29.381002"
           x="108.32311"
           y="94.298401" /><circle
           style="fill:#000000;stroke-width:0.196147"
           id="circle58"
           cx="120.74062"
           cy="94.298401"
           r="12.4175" /><path
           id="path58"
           style="fill:#000000;stroke-width:0.0705072"
           d="m 117.94125,122.34729 v 1.33273 h 5.59914 v -1.33273 z m 0,2.55643 v 10.69082 h 5.59914 v -10.69082 z" /></g><circle
         style="fill:#ffffff;stroke-width:0.358687"
         id="circle59"
         cx="114.57845"
         cy="92.071518"
         r="6.7665901" /><ellipse
         style="fill:#000000;stroke-width:0.389887"
         id="ellipse59"
         cx="115.27385"
         cy="93.354424"
         rx="7.2506061"
         ry="7.4612589" /></g><g
       id="g62"
       transform="matrix(-0.48423286,0,0,-0.48423286,176.2838,187.69127)"><g
         id="g61"
         transform="matrix(0.64953962,0,0,0.64953962,36.277185,31.224676)"><rect
           style="fill:#000000;stroke-width:0.221154"
           id="rect60"
           width="24.835348"
           height="29.381002"
           x="108.32311"
           y="94.298401" /><circle
           style="fill:#000000;stroke-width:0.196147"
           id="circle60"
           cx="120.74062"
           cy="94.298401"
           r="12.4175" /><path
           id="path60"
           style="fill:#000000;stroke-width:0.0705072"
           d="m 117.94125,122.34729 v 1.33273 h 5.59914 v -1.33273 z m 0,2.55643 v 10.69082 h 5.59914 v -10.69082 z" /></g><circle
         style="fill:#ffffff;stroke-width:0.358687"
         id="circle61"
         cx="114.57845"
         cy="92.071518"
         r="6.7665901" /><ellipse
         style="fill:#000000;stroke-width:0.389887"
         id="ellipse61"
         cx="115.27385"
         cy="93.354424"
         rx="7.2506061"
         ry="7.4612589" /></g><g
       id="g64"
       transform="matrix(0,-0.48423286,0.48423286,0,61.562711,184.93713)"><g
         id="g63"
         transform="matrix(0.64953962,0,0,0.64953962,36.277185,31.224676)"><rect
           style="fill:#000000;stroke-width:0.221154"
           id="rect62"
           width="24.835348"
           height="29.381002"
           x="108.32311"
           y="94.298401" /><circle
           style="fill:#000000;stroke-width:0.196147"
           id="circle62"
           cx="120.74062"
           cy="94.298401"
           r="12.4175" /><path
           id="path62"
           style="fill:#000000;stroke-width:0.0705072"
           d="m 117.94125,122.34729 v 1.33273 h 5.59914 v -1.33273 z m 0,2.55643 v 10.69082 h 5.59914 v -10.69082 z" /></g><circle
         style="fill:#ffffff;stroke-width:0.358687"
         id="circle63"
         cx="114.57845"
         cy="92.071518"
         r="6.7665901" /><ellipse
         style="fill:#000000;stroke-width:0.389887"
         id="ellipse63"
         cx="115.27385"
         cy="93.354424"
         rx="7.2506061"
         ry="7.4612589" /></g><rect
       style="fill:none;stroke:#0d0a0c;stroke-width:2.96254;stroke-linecap:round;stroke-linejoin:miter;stroke-miterlimit:4;stroke-dasharray:none;stroke-opacity:1;paint-order:stroke fill markers;stop-color:#000000"
       id="rect64"
       width="157.03745"
       height="157.03746"
       x="-199.25949"
       y="-208.26385"
       transform="scale(-1)" /><g
       id="g66"
       transform="matrix(0,0.48423286,-0.48423286,0,179.91831,73.851079)"><g
         id="g65"
         transform="matrix(0.64953962,0,0,0.64953962,36.277185,31.224676)"><rect
           style="fill:#000000;stroke-width:0.221154"
           id="rect65"
           width="24.835348"
           height="29.381002"
           x="108.32311"
           y="94.298401" /><circle
           style="fill:#000000;stroke-width:0.196147"
           id="circle65"
           cx="120.74062"
           cy="94.298401"
           r="12.4175" /><path
           id="path65"
           style="fill:#000000;stroke-width:0.0705072"
           d="m 117.94125,122.34729 v 1.33273 h 5.59914 v -1.33273 z m 0,2.55643 v 10.69082 h 5.59914 v -10.69082 z" /></g><circle
         style="fill:#ffffff;stroke-width:0.358687"
         id="circle66"
         cx="114.57845"
         cy="92.071518"
         r="6.7665901" /><ellipse
         style="fill:#000000;stroke-width:0.389887"
         id="ellipse66"
         cx="115.27385"
         cy="93.354424"
         rx="7.2506061"
         ry="7.4612589" /></g></g></svg>
