<?xml version="1.0" encoding="UTF-8" standalone="no"?>
<!-- Created with Inkscape (http://www.inkscape.org/) -->

<svg
   width="36"
   height="54"
   viewBox="0 0 9.5249998 14.2875"
   version="1.1"
   id="svg5"
   inkscape:version="1.1.1 (3bf5ae0d25, 2021-09-20)"
   sodipodi:docname="_dropcap_template.svg"
   xmlns:inkscape="http://www.inkscape.org/namespaces/inkscape"
   xmlns:sodipodi="http://sodipodi.sourceforge.net/DTD/sodipodi-0.dtd"
   xmlns="http://www.w3.org/2000/svg"
   xmlns:svg="http://www.w3.org/2000/svg">
  <sodipodi:namedview
     id="namedview7"
     pagecolor="#ffffff"
     bordercolor="#666666"
     borderopacity="1.0"
     inkscape:pageshadow="2"
     inkscape:pageopacity="0"
     inkscape:pagecheckerboard="0"
     inkscape:document-units="mm"
     showgrid="false"
     units="px"
     width="36px"
     inkscape:zoom="5.6568543"
     inkscape:cx="-12.551145"
     inkscape:cy="39.244426"
     inkscape:window-width="1920"
     inkscape:window-height="1043"
     inkscape:window-x="0"
     inkscape:window-y="0"
     inkscape:window-maximized="1"
     inkscape:current-layer="layer4"
     inkscape:snap-global="true" />
  <defs
     id="defs2" />
  <g
     inkscape:label="bg"
     inkscape:groupmode="layer"
     id="layer1"
     style="display:inline">
    <rect
       style="fill:#000000;stroke:#020202;stroke-width:0.161356;stroke-linecap:round;stroke-linejoin:miter;stroke-dashoffset:36.9212;paint-order:stroke fill markers;stop-color:#000000"
       id="rect1289"
       width="9.3636436"
       height="14.126144"
       x="0.08067818"
       y="0.080677792" />
    <rect
       style="fill:#ffffff;stroke:#020202;stroke-width:0.981172;stroke-linecap:round;stroke-linejoin:miter;stroke-miterlimit:4;stroke-dasharray:none;stroke-dashoffset:36.9212;paint-order:stroke fill markers;stop-color:#000000"
       id="rect1289-6"
       width="8.5438309"
       height="13.306328"
       x="0.49058425"
       y="0.49058425" />
    <path
       style="fill:#000000;stroke-width:0.00865378"
       d="m 6.9530212,4.0269551 c -0.04899,-0.01763 -0.055688,-0.02599 -0.1075373,-0.134262 -0.1546973,-0.323028 -0.2622163,-0.63552 -0.306884,-0.891926 -0.036369,-0.20877 0.010785,-0.58407 0.1217731,-0.969226 0.018516,-0.06425 0.03246,-0.11807 0.030988,-0.11959 -0.00481,-0.005 -0.1130852,0.155985 -0.1807524,0.268675 -0.036376,0.06058 -0.09325,0.165014 -0.1263873,0.232079 l -0.06025,0.121935 0.00527,0.16167 c 0.0077,0.236098 -0.015327,0.472748 -0.058555,0.601689 -0.04393,0.131036 -0.1495676,0.309932 -0.286945,0.485938 -0.1417931,0.181664 -0.1805935,0.208607 -0.2479884,0.172205 -0.040666,-0.02197 -0.063055,-0.05753 -0.090424,-0.143643 -0.088319,-0.277873 -0.073091,-0.52838 0.047029,-0.773705 0.1050873,-0.214623 0.2931696,-0.433804 0.4691963,-0.546775 0.044388,-0.02849 0.054404,-0.04065 0.088701,-0.107662 0.021266,-0.04155 0.038663,-0.07952 0.038663,-0.08437 0,-0.0052 -0.026286,-0.0088 -0.064057,-0.0088 -0.062176,0 -0.064302,6.87e-4 -0.072394,0.02391 -0.024036,0.06895 -0.098161,0.117488 -0.1794133,0.117488 -0.1121699,0 -0.1947106,-0.08195 -0.1947106,-0.193325 0,-0.188466 0.2396952,-0.267326 0.3501273,-0.115192 l 0.026312,0.03625 0.073558,6.21e-4 c 0.040456,3.27e-4 0.08748,0.0029 0.104496,0.0057 0.030766,0.0051 0.031148,0.0048 0.06841,-0.05851 0.030171,-0.05123 0.129663,-0.200804 0.2078609,-0.312494 0.012146,-0.01735 0.011868,-0.01808 -0.00433,-0.01141 -0.1450781,0.05974 -0.3909784,0.126925 -0.5444189,0.148751 -0.1179087,0.01677 -0.2241815,0.01046 -0.3858652,-0.02293 -0.1632232,-0.0337 -0.5020739,-0.146812 -0.5395855,-0.180113 -0.058694,-0.05211 -0.05186,-0.121074 0.018277,-0.184438 0.1298707,-0.11733 0.3089249,-0.211975 0.4823672,-0.25497 0.32116,-0.07961 0.7454305,0.01658 1.0781424,0.244437 l 0.068525,0.04693 0.1189708,-0.119485 c 0.065434,-0.06572 0.1531701,-0.148101 0.1949689,-0.183077 0.041799,-0.03498 0.0749,-0.06442 0.073558,-0.06544 -0.00134,-10e-4 -0.037488,0.002 -0.080325,0.0066 -0.042836,0.0046 -0.2005521,0.0088 -0.3504791,0.0092 -0.2888773,7.81e-4 -0.3956644,-0.00843 -0.5488224,-0.047271 -0.1393356,-0.035335 -0.3276614,-0.121244 -0.5242406,-0.23914105 -0.2041329,-0.122429 -0.4908543,-0.332781 -0.5151887,-0.377967 -0.020566,-0.03819 -0.01361,-0.101722 0.014428,-0.131813 0.041046,-0.04405 0.226152,-0.122245 0.3854295,-0.16282 0.1052011,-0.0268 0.1111142,-0.02683 0.1373581,-5.89e-4 0.049084,0.04908 0.015108,0.09925 -0.082605,0.121959 -0.083599,0.01943 -0.224084,0.06803 -0.2834682,0.09806 l -0.046466,0.0235 0.093573,0.0698 c 0.3791459,0.282797 0.7000217,0.45008205 0.9416466,0.49091405 0.1659457,0.02805 0.4155646,0.03743 0.6317278,0.02376 l 0.086538,-0.0055 -0.1774031,-0.06386 C 6.3346159,0.84269705 6.2283461,0.79601205 6.2283461,0.75500505 c 0,-0.02485 0.020321,-0.05532 0.043219,-0.06481 0.021076,-0.0087 0.047705,-6.55e-4 0.2433473,0.07384 0.4386348,0.167013 0.6860643,0.25154805 0.6748263,0.23055703 -0.011868,-0.02217 -0.1783541,-0.18104103 -0.2545879,-0.24294603 -0.2247135,-0.182478 -0.5245608,-0.331535 -0.7588879,-0.37725 -0.040368,-0.0079 -0.1213074,-0.01656 -0.1798646,-0.0193 -0.086983,-0.0041 -0.1103431,-0.008 -0.1276437,-0.02164 -0.027591,-0.0217 -0.028892,-0.06826 -0.00265,-0.09451 0.017731,-0.01773 0.023823,-0.01831 0.1406244,-0.01336 0.2800885,0.01187 0.5532925,0.110366 0.8533245,0.30765 0.1692055,0.111259 0.37091,0.295345 0.4882114,0.44556603 l 0.057866,0.07411 0.056003,-0.03428 c 0.09067,-0.0555 0.2284722,-0.12155623 0.4407174,-0.21127023 0.1094706,-0.04627 0.2023291,-0.08727 0.2063524,-0.0911 0.00402,-0.0038 -0.025184,-0.005 -0.064904,-0.0025 -0.088681,0.0055 -0.2606276,-0.0096 -0.3618338,-0.03169 -0.3827346,-0.08353 -0.6528104,-0.352249 -0.7452588,-0.741506 -0.015831,-0.066659 -0.016024,-0.073473 -0.00298,-0.1060756 0.010599,-0.026485 0.022895,-0.039174 0.051274,-0.052914 0.045286,-0.021923 0.070976,-0.01746 0.1255239,0.021802 0.1249707,0.089952 0.3284143,0.1604466 0.6600169,0.2287026 0.1591911,0.03277 0.2436458,0.06497 0.3460143,0.131957 0.1138239,0.07448 0.2687838,0.233019 0.3532532,0.361418 l 0.013617,0.0207 0.1637855,-0.0847 c 0.090082,-0.04658 0.1670837,-0.08776 0.1711145,-0.0915 0.00403,-0.0037 -0.013493,-0.0222 -0.038942,-0.04103 -0.025448,-0.01882 -0.069033,-0.05366 -0.096855,-0.07742 l -0.050584,-0.04321 -0.061959,0.004 c -0.042775,0.0027 -0.071324,5.3e-5 -0.092204,-0.0087 -0.1317177,-0.05518 -0.1629803,-0.22588 -0.059394,-0.3243004 0.053304,-0.050645 0.1281006,-0.0661 0.1989419,-0.041106 0.098271,0.034672 0.152946,0.1483514 0.1186575,0.2467114 -0.00995,0.02854 -0.00938,0.02965 0.036779,0.07122 0.025785,0.02323 0.078928,0.06364 0.1180921,0.0898 l 0.071207,0.04757 0.1364843,-0.07981 c 0.075066,-0.04389 0.1843683,-0.110909 0.2428934,-0.148925 0.098223,-0.0637999972 0.1085285,-0.06851 0.1339552,-0.06122 0.036262,0.0104 0.056246,0.04517 0.044925,0.07816 -0.00977,0.02847 -0.1532947,0.126874 -0.3674619,0.251938 -0.097177,0.05675 -0.135655,0.08385 -0.1397617,0.09845 -0.00762,0.02708 -0.00792,0.228047 -3.924e-4,0.269762 0.00523,0.02902 0.010347,0.03477 0.040107,0.04498 0.043727,0.01502 0.073427,0.03721 0.097874,0.07313 0.078108,0.114766 0.019281,0.26697723 -0.1169727,0.30266723 -0.1166209,0.03055 -0.2386233,-0.06678 -0.2383067,-0.19010723 1.504e-4,-0.05874 0.017286,-0.100679 0.056872,-0.139202 l 0.030364,-0.02955 -0.00459,-0.135646 -0.00459,-0.135645 -0.1891634,0.09489 c -0.1040395,0.05219 -0.189163,0.09687 -0.189163,0.0993 0,0.0024 0.00618,0.01637 0.013745,0.03099 0.028451,0.05502 0.090991,0.219671 0.1156098,0.30437323 0.03486,0.119937 0.066529,0.283444 0.078979,0.407769 0.025305,0.252716 -0.01554,0.641915 -0.070452,0.671304 -0.029,0.01552 -0.069372,0.0066 -0.088915,-0.01973 -0.016151,-0.02173 -0.016727,-0.02734 -0.00679,-0.06612 0.054318,-0.211937 0.057792,-0.510408 0.00883,-0.75821 -0.017584,-0.08899 -0.06005,-0.249123 -0.064804,-0.244369 -0.00147,0.0015 -0.00895,0.05705 -0.016626,0.12352 -0.033568,0.29068 -0.15169,0.803321 -0.1918786,0.83274 -0.025498,0.01867 -0.071967,0.0098 -0.092332,-0.01757 -0.01745,-0.02347 -0.017505,-0.02501 -0.00285,-0.07788 0.099217,-0.357448 0.154176,-0.64697 0.168607,-0.8882232 0.00759,-0.12690103 0.011276,-0.12899403 -0.09474,0.05382 -0.1393467,0.240289 -0.2575448,0.510134 -0.2879379,0.657358 -0.04437,0.214928 -0.034155,0.527269 0.029451,0.900578 0.01366,0.08016 0.026626,0.147539 0.028817,0.149729 0.00626,0.0063 0.1077999,-0.08082 0.1777602,-0.152448 0.077044,-0.07888 0.1538578,-0.179287 0.2065598,-0.26999 0.043914,-0.07558 0.049119,-0.08124 0.082291,-0.08957 0.019046,-0.0048 0.028523,-9.15e-4 0.049711,0.02027 0.014399,0.0144 0.026178,0.03345 0.026178,0.04234 0,0.02246 -0.071702,0.144314 -0.1353529,0.230023 C 8.3199562,2.674873 8.1329348,2.851018 8.0639052,2.8717 8.0182672,2.88537 7.9736442,2.8756 7.9377946,2.84415 7.9017216,2.81248 7.8951916,2.79351 7.8680576,2.641597 7.8023796,2.273887 7.7890876,1.898915 7.8340596,1.682484 7.8742236,1.48919 8.0062869,1.190072 8.1741136,0.91227899 c 0.034042,-0.05635 0.061894,-0.104151 0.061894,-0.106231 0,-0.0021 -0.011217,0.002 -0.024929,0.0091 -0.013712,0.0071 -0.1354052,0.06008 -0.2704316,0.117744 C 7.7116496,1.0307021 7.5860315,1.0929341 7.4771661,1.1625261 c -0.035214,0.02251 -0.046873,0.0358 -0.054038,0.0616 -0.021083,0.07592 -0.00281,0.249672 0.040336,0.383286 0.015131,0.04687 0.015864,0.04758 0.055117,0.05318 0.052638,0.0075 0.084726,0.02503 0.1225513,0.06689 0.066306,0.07339 0.066033,0.180136 -6.54e-4,0.254099 -0.077594,0.08606 -0.2034723,0.09066 -0.2838858,0.01037 -0.044275,-0.04421 -0.058131,-0.0845 -0.053589,-0.155841 0.00281,-0.04414 0.0088,-0.06275 0.029768,-0.0925 l 0.02625,-0.03724 -0.020193,-0.05986 c -0.02709,-0.08031 -0.054747,-0.227011 -0.054747,-0.290402 0,-0.02832 -0.00291,-0.05146 -0.00649,-0.05143 -0.0145,1.18e-4 -0.1866251,0.152712 -0.2918216,0.258711 l -0.1122552,0.113111 0.035236,0.0369 c 0.1083712,0.113484 0.2296793,0.29578 0.3240024,0.486896 0.1130604,0.22908 0.1864275,0.483414 0.2071981,0.718266 0.030027,0.3395 -0.078969,0.701365 -0.3051322,1.013047 -0.069024,0.09512 -0.1151918,0.119335 -0.181827,0.09535 z M 7.056962,3.8165161 c 0.2450988,-0.358617 0.3124923,-0.739877 0.2054374,-1.162206 -0.04912,-0.193775 -0.1545988,-0.437081 -0.2587316,-0.596807 -0.051346,-0.07876 -0.053125,-0.0791 -0.039528,-0.0077 0.036186,0.190106 0.097307,0.876722 0.082263,0.924122 -0.00785,0.02474 -0.050634,0.04593 -0.078577,0.03892 -0.038847,-0.0098 -0.045111,-0.03219 -0.055318,-0.198159 -0.020412,-0.3319 -0.074992,-0.805718 -0.095482,-0.828895 -0.0033,-0.0037 -0.020193,0.04495 -0.037543,0.108173 -0.098784,0.359979 -0.1381557,0.633718 -0.1182458,0.822123 0.017816,0.168589 0.08942,0.422251 0.1845978,0.65395 0.065291,0.158942 0.1456775,0.330716 0.1527289,0.326358 0.00361,-0.0022 0.029886,-0.03819 0.058399,-0.0799 z M 5.8665831,3.7211971 c 0.1410887,-0.177703 0.2529355,-0.367157 0.2873754,-0.486777 0.00754,-0.02618 0.019559,-0.08849 0.026714,-0.138461 0.016429,-0.11472 0.026596,-0.400775 0.015687,-0.441344 l -0.00814,-0.03029 -0.116894,0.116826 c -0.3138858,0.313704 -0.4151476,0.634239 -0.3135103,0.992387 0.012593,0.04438 0.025599,0.08069 0.028902,0.08069 0.0033,0 0.039243,-0.04186 0.079866,-0.09303 z m 0.1562358,-1.440023 c 0.036004,-0.04255 0.00622,-0.10598 -0.049759,-0.10598 -0.052399,0 -0.081326,0.0518 -0.055684,0.09971 0.019533,0.0365 0.076977,0.03991 0.1054434,0.0063 z m 1.516973,-0.383374 c 0.011681,-0.01168 0.02124,-0.03133 0.02124,-0.04366 0,-0.01233 -0.00956,-0.03198 -0.02124,-0.04366 -0.05995,-0.05995 -0.1478158,0.02673 -0.08975,0.08854 0.024945,0.02655 0.062493,0.02604 0.08975,-0.0012 z m -1.422621,-0.105181 c 0.1454881,-0.02721 0.5005971,-0.140181 0.5005971,-0.159256 0,-0.02097 -0.2173389,-0.129355 -0.3455084,-0.172295 -0.1451369,-0.04863 -0.2407979,-0.06421 -0.3943918,-0.06427 -0.1229932,-4.3e-5 -0.1481284,0.0026 -0.224999,0.02315 -0.047837,0.01283 -0.1291097,0.04424 -0.1817299,0.07024 -0.096148,0.04752 -0.2182817,0.131755 -0.2140494,0.147638 0.00515,0.01934 0.2797896,0.10864 0.4390484,0.142766 0.1660059,0.03557 0.2780175,0.03877 0.421033,0.01202 z M 9.0238305,0.98860008 c 0.045625,-0.02359 0.045126,-0.08885 -8.503e-4,-0.11263003 -0.046874,-0.02424 -0.094634,0.0043 -0.094634,0.05654 0,0.03129 0.014578,0.05254 0.043269,0.06309 0.020566,0.0076 0.025295,0.0069 0.052227,-0.007 z M 8.2439925,0.56592105 c 0.040076,-0.0054 0.074187,-0.01386 0.075801,-0.01875 0.00465,-0.01411 -0.1265799,-0.159283 -0.1930862,-0.213596 -0.1243886,-0.101582 -0.195328,-0.133863 -0.3788443,-0.172392 -0.3265689,-0.06856 -0.4494427,-0.109061 -0.6737559,-0.222062 -0.012387,-0.0062 0.052379,0.161962 0.084436,0.219285 0.1364251,0.243951 0.3718363,0.385217 0.698553,0.419187 0.082889,0.0086 0.2810459,0.0026 0.3868968,-0.01167 z m 0.3643335,-0.507789 c 0.022584,-0.0422 -0.00992,-0.103504 -0.054872,-0.103504 -0.070091,0 -0.09288,0.09859 -0.028997,0.12545 0.031037,0.01305 0.070693,0.0027 0.083869,-0.02195 z"
       id="path835" />
    <path
       style="fill:#000000;stroke:#020202;stroke-width:0.00873125;stroke-miterlimit:4;stroke-dasharray:none;stroke-opacity:1"
       d="m 2.5750809,10.262429 c 0.04899,0.01763 0.055688,0.02599 0.1075373,0.134262 0.1546973,0.323028 0.2622163,0.63552 0.306884,0.891926 0.036369,0.20877 -0.010785,0.58407 -0.1217731,0.969226 -0.018516,0.06425 -0.03246,0.11807 -0.030988,0.11959 0.00481,0.005 0.1130852,-0.155985 0.1807524,-0.268675 0.036376,-0.06058 0.09325,-0.165014 0.1263873,-0.232079 l 0.06025,-0.121935 -0.00527,-0.16167 c -0.0077,-0.236098 0.015327,-0.472748 0.058555,-0.601689 0.04393,-0.131036 0.1495676,-0.309932 0.286945,-0.485938 0.1417931,-0.181664 0.1805935,-0.208607 0.2479884,-0.172205 0.040666,0.02197 0.063055,0.05753 0.090424,0.143643 0.088319,0.277873 0.073091,0.52838 -0.047029,0.773705 -0.1050873,0.214623 -0.2931696,0.433804 -0.4691963,0.546775 -0.044388,0.02849 -0.054404,0.04065 -0.088701,0.107662 -0.021266,0.04155 -0.038663,0.07952 -0.038663,0.08437 0,0.0052 0.026286,0.0088 0.064057,0.0088 0.062176,0 0.064302,-6.87e-4 0.072394,-0.02391 0.024036,-0.06895 0.098161,-0.117488 0.1794133,-0.117488 0.1121699,0 0.1947106,0.08195 0.1947106,0.193325 0,0.188466 -0.2396952,0.267326 -0.3501273,0.115192 l -0.026312,-0.03625 -0.073558,-6.21e-4 c -0.040456,-3.27e-4 -0.08748,-0.0029 -0.104496,-0.0057 -0.030766,-0.0051 -0.031148,-0.0048 -0.06841,0.05851 -0.030171,0.05123 -0.129663,0.200804 -0.2078609,0.312494 -0.012146,0.01735 -0.011868,0.01808 0.00433,0.01141 0.1450781,-0.05974 0.3909784,-0.126925 0.5444189,-0.148751 0.1179087,-0.01677 0.2241815,-0.01046 0.3858652,0.02293 0.1632232,0.0337 0.5020739,0.146812 0.5395855,0.180113 0.058694,0.05211 0.05186,0.121074 -0.018277,0.184438 -0.1298707,0.11733 -0.3089249,0.211975 -0.4823672,0.25497 -0.32116,0.07961 -0.7454305,-0.01658 -1.0781424,-0.244437 l -0.068525,-0.04693 -0.1189708,0.119485 c -0.065434,0.06572 -0.1531701,0.148101 -0.1949689,0.183077 -0.041799,0.03498 -0.0749,0.06442 -0.073558,0.06544 0.00134,10e-4 0.037488,-0.002 0.080325,-0.0066 0.042836,-0.0046 0.2005521,-0.0088 0.3504791,-0.0092 0.2888773,-7.81e-4 0.3956644,0.0084 0.5488224,0.04727 0.1393356,0.03533 0.3276614,0.121244 0.5242406,0.239141 0.2041329,0.122429 0.4908543,0.332781 0.5151887,0.377967 0.020566,0.03819 0.01361,0.101722 -0.014428,0.131813 -0.041046,0.04405 -0.226152,0.122245 -0.3854295,0.16282 -0.1052011,0.0268 -0.1111142,0.02683 -0.1373581,5.89e-4 -0.049084,-0.04908 -0.015108,-0.09925 0.082605,-0.121959 0.083599,-0.01943 0.224084,-0.06803 0.2834682,-0.09806 l 0.046466,-0.0235 -0.093573,-0.0698 C 3.7800454,13.423179 3.4591696,13.255894 3.2175447,13.215062 3.051599,13.187012 2.8019801,13.177632 2.5858169,13.191302 l -0.086538,0.0055 0.1774031,0.06386 c 0.5168042,0.186025 0.623074,0.23271 0.623074,0.273717 0,0.02485 -0.020321,0.05532 -0.043219,0.06481 -0.021076,0.0087 -0.047705,6.55e-4 -0.2433473,-0.07384 -0.4386348,-0.167013 -0.6860643,-0.251548 -0.6748263,-0.230557 0.011868,0.02217 0.1783541,0.181041 0.2545879,0.242946 0.2247135,0.182478 0.5245608,0.331535 0.7588879,0.37725 0.040368,0.0079 0.1213074,0.01656 0.1798646,0.0193 0.086983,0.0041 0.1103431,0.008 0.1276437,0.02164 0.027591,0.0217 0.028892,0.06826 0.00265,0.09451 -0.017731,0.01773 -0.023823,0.01831 -0.1406244,0.01336 -0.2800885,-0.01187 -0.5532925,-0.110366 -0.8533245,-0.30765 -0.1692055,-0.111259 -0.37091,-0.295345 -0.4882114,-0.445566 l -0.057866,-0.07411 -0.056003,0.03428 c -0.09067,0.0555 -0.2284722,0.121556 -0.4407174,0.21127 -0.1094706,0.04627 -0.2023291,0.08727 -0.2063524,0.0911 -0.00402,0.0038 0.025184,0.005 0.064904,0.0025 0.088681,-0.0055 0.2606276,0.0096 0.3618338,0.03169 0.3827346,0.08353 0.6528104,0.352249 0.7452588,0.741506 0.015831,0.06666 0.016024,0.07347 0.00298,0.106076 -0.010599,0.02649 -0.022895,0.03917 -0.051274,0.05291 -0.045286,0.02192 -0.070976,0.01746 -0.1255239,-0.0218 C 2.2921064,14.396054 2.0886628,14.325559 1.7570602,14.257303 1.5978691,14.224533 1.5134144,14.192333 1.4110459,14.125346 1.297222,14.050866 1.1422621,13.892327 1.0577927,13.763928 l -0.013617,-0.0207 -0.16378547,0.0847 c -0.090082,0.04658 -0.1670837,0.08776 -0.1711145,0.0915 -0.00403,0.0037 0.013493,0.0222 0.038942,0.04103 0.025448,0.01882 0.069033,0.05366 0.096855,0.07742 l 0.050584,0.04321 0.061959,-0.004 c 0.042775,-0.0027 0.071324,-5.3e-5 0.092204,0.0087 0.1317177,0.05518 0.1629803,0.22588 0.059394,0.324301 -0.053304,0.05065 -0.12810033,0.0661 -0.19894159,0.04111 -0.098271,-0.03467 -0.152946,-0.148352 -0.1186575,-0.246712 0.00995,-0.02854 0.00938,-0.02965 -0.036779,-0.07122 -0.025785,-0.02323 -0.078928,-0.06364 -0.1180921,-0.0898 l -0.071207,-0.04757 -0.1364843,0.07981 c -0.075066,0.04389 -0.1843683,0.110909 -0.2428934,0.148925 -0.098223,0.0638 -0.1085285,0.06851 -0.1339552,0.06122 -0.036262,-0.0104 -0.056246,-0.04517 -0.044925,-0.07816 0.00977,-0.02847 0.1532947,-0.126874 0.3674619,-0.251938 0.097177,-0.05675 0.135655,-0.08385 0.1397617,-0.09845 0.00762,-0.02708 0.00792,-0.228047 3.924e-4,-0.269762 -0.00523,-0.02902 -0.010347,-0.03477 -0.040107,-0.04498 -0.043727,-0.01502 -0.073427,-0.03721 -0.097874,-0.07313 -0.078108,-0.114766 -0.019281,-0.266977 0.1169727,-0.302667 0.1166209,-0.03055 0.2386233,0.06678 0.2383067,0.190107 -1.504e-4,0.05874 -0.017286,0.100679 -0.056872,0.139202 l -0.030364,0.02955 0.00459,0.135646 0.00459,0.135645 0.1891634,-0.09489 c 0.10403946,-0.05219 0.18916269,-0.09687 0.18916269,-0.0993 0,-0.0024 -0.00618,-0.01637 -0.013745,-0.03099 -0.028451,-0.05502 -0.090991,-0.219671 -0.11560949,-0.304373 -0.03486,-0.119937 -0.066529,-0.283444 -0.078979,-0.407769 -0.025305,-0.252716 0.01554,-0.641915 0.070452,-0.671304 0.029,-0.01552 0.069372,-0.0066 0.088915,0.01973 0.016151,0.02173 0.0167269,0.02734 0.00679,0.06612 -0.054318,0.211937 -0.057792,0.510408 -0.00883,0.75821 0.017584,0.08899 0.0600499,0.249123 0.064804,0.244369 0.00147,-0.0015 0.00895,-0.05705 0.016626,-0.12352 0.033568,-0.29068 0.15169,-0.803321 0.1918786,-0.83274 0.025498,-0.01867 0.071967,-0.0098 0.092332,0.01757 0.01745,0.02347 0.017505,0.02501 0.00285,0.07788 -0.099217,0.357448 -0.154176,0.64697 -0.168607,0.888223 -0.00759,0.126901 -0.011276,0.128994 0.09474,-0.05382 0.1393467,-0.240289 0.2575448,-0.510134 0.287938,-0.657358 0.04437,-0.214928 0.034155,-0.527269 -0.029451,-0.900578 -0.01366,-0.08016 -0.026626,-0.147539 -0.028817,-0.149729 -0.00626,-0.0063 -0.1078,0.08082 -0.1777603,0.152448 -0.077044,0.07888 -0.1538577,0.179287 -0.2065598,0.26999 -0.043914,0.07558 -0.049119,0.08124 -0.082291,0.08957 -0.019046,0.0048 -0.028523,9.15e-4 -0.0497111,-0.02027 -0.014399,-0.0144 -0.026178,-0.03345 -0.026178,-0.04234 0,-0.02246 0.071702,-0.144314 0.13535269,-0.230023 0.1095432,-0.147506 0.2965646,-0.323651 0.3655942,-0.344333 0.045638,-0.01367 0.090261,-0.0039 0.1261106,0.02755 0.036073,0.03167 0.042603,0.05064 0.069737,0.202553 0.065678,0.36771 0.07897,0.742682 0.033998,0.959113 -0.040164,0.193294 -0.1722273,0.492412 -0.340054,0.770205 -0.034042,0.05635 -0.061894,0.104151 -0.061894,0.106231 0,0.0021 0.011217,-0.002 0.024929,-0.0091 0.013712,-0.0071 0.1354052,-0.06008 0.2704316,-0.117744 0.2289974,-0.09781 0.3546155,-0.160042 0.4634809,-0.229634 0.035214,-0.02251 0.046873,-0.0358 0.054038,-0.0616 0.021083,-0.07592 0.00281,-0.249672 -0.040336,-0.383286 -0.015131,-0.04687 -0.015864,-0.04758 -0.055117,-0.05318 -0.052638,-0.0075 -0.084726,-0.02503 -0.1225513,-0.06689 -0.066306,-0.07339 -0.066033,-0.180136 6.54e-4,-0.254099 0.077594,-0.08606 0.2034723,-0.09066 0.2838858,-0.01037 0.044275,0.04421 0.058131,0.0845 0.053589,0.155841 -0.00281,0.04414 -0.0088,0.06275 -0.029768,0.0925 l -0.02625,0.03724 0.020193,0.05986 c 0.02709,0.08031 0.054747,0.227011 0.054747,0.290402 0,0.02832 0.00291,0.05146 0.00649,0.05143 0.0145,-1.18e-4 0.1866251,-0.152712 0.2918216,-0.258711 l 0.1122552,-0.113111 -0.035236,-0.0369 C 2.5109801,12.4625 2.389672,12.280204 2.2953489,12.089088 2.1822885,11.860008 2.1089214,11.605674 2.0881508,11.370822 c -0.030027,-0.3395 0.078969,-0.701365 0.3051322,-1.013047 0.069024,-0.09512 0.1151918,-0.119335 0.181827,-0.09535 z m -0.1039408,0.210439 c -0.2450988,0.358617 -0.3124923,0.739877 -0.2054374,1.162206 0.04912,0.193775 0.1545988,0.437081 0.2587316,0.596807 0.051346,0.07876 0.053125,0.0791 0.039528,0.0077 -0.036186,-0.190106 -0.097307,-0.876722 -0.082263,-0.924122 0.00785,-0.02474 0.050634,-0.04593 0.078577,-0.03892 0.038847,0.0098 0.045111,0.03219 0.055318,0.198159 0.020412,0.3319 0.074992,0.805718 0.095482,0.828895 0.0033,0.0037 0.020193,-0.04495 0.037543,-0.108173 0.098784,-0.359979 0.1381557,-0.633718 0.1182458,-0.822123 -0.017816,-0.168589 -0.08942,-0.422251 -0.1845978,-0.65395 -0.065291,-0.158942 -0.1456775,-0.330716 -0.1527289,-0.326358 -0.00361,0.0022 -0.029886,0.03819 -0.058399,0.0799 z m 1.1903789,0.09532 c -0.1410887,0.177703 -0.2529355,0.367157 -0.2873754,0.486777 -0.00754,0.02618 -0.019559,0.08849 -0.026714,0.138461 -0.016429,0.11472 -0.026596,0.400775 -0.015687,0.441344 l 0.00814,0.03029 0.116894,-0.116826 c 0.3138858,-0.313704 0.4151476,-0.634239 0.3135103,-0.992387 -0.012593,-0.04438 -0.025599,-0.08069 -0.028902,-0.08069 -0.0033,0 -0.039243,0.04186 -0.079866,0.09303 z m -0.1562358,1.440023 c -0.036004,0.04255 -0.00622,0.10598 0.049759,0.10598 0.052399,0 0.081326,-0.0518 0.055684,-0.09971 -0.019533,-0.0365 -0.076977,-0.03991 -0.1054434,-0.0063 z m -1.516973,0.383374 c -0.011681,0.01168 -0.02124,0.03133 -0.02124,0.04366 0,0.01233 0.00956,0.03198 0.02124,0.04366 0.05995,0.05995 0.1478158,-0.02673 0.08975,-0.08854 -0.024945,-0.02655 -0.062493,-0.02604 -0.08975,0.0012 z m 1.422621,0.105181 c -0.1454881,0.02721 -0.5005971,0.140181 -0.5005971,0.159256 0,0.02097 0.2173389,0.129355 0.3455084,0.172295 0.1451369,0.04863 0.2407979,0.06421 0.3943918,0.06427 0.1229932,4.3e-5 0.1481284,-0.0026 0.224999,-0.02315 0.047837,-0.01283 0.1291097,-0.04424 0.1817299,-0.07024 0.096148,-0.04752 0.2182817,-0.131755 0.2140494,-0.147638 -0.00515,-0.01934 -0.2797896,-0.10864 -0.4390484,-0.142766 -0.1660059,-0.03557 -0.2780175,-0.03877 -0.421033,-0.01202 z m -2.90665957,0.804019 c -0.045625,0.02359 -0.045126,0.08885 8.503e-4,0.11263 0.046874,0.02424 0.094634,-0.0043 0.094634,-0.05654 0,-0.03129 -0.014578,-0.05254 -0.043269,-0.06309 -0.020566,-0.0076 -0.025295,-0.0069 -0.052227,0.007 z m 0.77983797,0.422679 c -0.040076,0.0054 -0.074187,0.01386 -0.075801,0.01875 -0.00465,0.01411 0.1265799,0.159283 0.1930862,0.213596 0.1243886,0.101582 0.195328,0.133863 0.3788443,0.172392 0.3265689,0.06856 0.4494427,0.10906 0.6737559,0.222061 0.012387,0.0062 -0.052379,-0.161962 -0.084436,-0.219285 -0.1364251,-0.243951 -0.3718363,-0.385217 -0.698553,-0.419187 -0.082889,-0.0086 -0.2810459,-0.0026 -0.3868968,0.01167 z m -0.36433347,0.507789 c -0.022584,0.0422 0.00992,0.103504 0.054872,0.103504 0.070091,0 0.09288,-0.09859 0.028997,-0.12545 -0.031037,-0.01305 -0.070693,-0.0027 -0.083869,0.02195 z"
       id="path835-3" />
  </g>
  <g
     inkscape:groupmode="layer"
     id="layer2"
     inkscape:label="letter outline"
     style="display:inline">
    <text
       xml:space="preserve"
       style="font-size:12.6332px;line-height:1.25;font-family:'Shining NFI Demo';-inkscape-font-specification:'Shining NFI Demo';letter-spacing:0px;display:inline;fill:#800000;fill-opacity:1;stroke:#800000;stroke-width:0.529167;stroke-miterlimit:4;stroke-dasharray:none;stroke-opacity:1"
       x="1.339445"
       y="10.795303"
       id="text21789-2"
       transform="scale(0.88712253,1.12724)"><tspan
         sodipodi:role="line"
         id="tspan21787-0"
         style="font-style:normal;font-variant:normal;font-weight:normal;font-stretch:normal;font-family:'Libre Caslon Display';-inkscape-font-specification:'Libre Caslon Display';fill:#800000;fill-opacity:1;stroke:#800000;stroke-width:0.529167;stroke-miterlimit:4;stroke-dasharray:none;stroke-opacity:1"
         x="1.339445"
         y="10.795303"
         rotate="0 0">A</tspan></text>
  </g>
  <g
     inkscape:groupmode="layer"
     id="layer3"
     inkscape:label="letter fill"
     style="display:inline">
    <text
       xml:space="preserve"
       style="font-size:12.6332px;line-height:1.25;font-family:'Shining NFI Demo';-inkscape-font-specification:'Shining NFI Demo';letter-spacing:0px;display:inline;fill:#ffffff;fill-opacity:1;stroke-width:0.0561189"
       x="1.3394567"
       y="10.795303"
       id="text21789"
       transform="scale(0.88712254,1.12724)"><tspan
         sodipodi:role="line"
         id="tspan21787"
         style="font-style:normal;font-variant:normal;font-weight:normal;font-stretch:normal;font-family:'Libre Caslon Display';-inkscape-font-specification:'Libre Caslon Display';fill:#ffffff;fill-opacity:1;stroke-width:0.0561189"
         x="1.3394567"
         y="10.795303"
         rotate="0 0">A</tspan></text>
  </g>
  <g
     inkscape:groupmode="layer"
     id="layer4"
     inkscape:label="frame overlay">
    <rect
       style="display:inline;fill:none;stroke:#020202;stroke-width:0.49095;stroke-linecap:round;stroke-linejoin:miter;stroke-miterlimit:4;stroke-dasharray:none;stroke-dashoffset:36.9212;stroke-opacity:1;paint-order:stroke fill markers;stop-color:#000000"
       id="rect1289-6-6"
       width="9.03405"
       height="13.79655"
       x="0.24547499"
       y="0.24547499" />
  </g>
</svg>
