<svg width="36" height="54" viewBox="0 0 9.52 14.29" xmlns="http://www.w3.org/2000/svg"><defs><linearGradient id="a"><stop style="stop-color:#ededed;stop-opacity:1" offset="0"/><stop style="stop-color:#ededed;stop-opacity:0" offset="1"/></linearGradient></defs><g style="display:inline"><path style="fill:none;stroke:#020202;stroke-width:.161356;stroke-linecap:round;stroke-linejoin:miter;stroke-dashoffset:36.9212;paint-order:stroke fill markers;stop-color:#000" d="M.08.08h9.36v14.13H.08z"/><path style="fill:#89b582;fill-opacity:1;stroke:#f6deed;stroke-width:.0106446;stroke-opacity:1" d="M.08.08v.2C.14.25.18.19.22.14A.41.41 0 0 1 .24.08zm.2 0L.26.11a.52.52 0 0 1-.18.21v1.32c.02-.02.06-.01.14 0a.8.8 0 0 0 .24.04c.15 0 .15 0 .24-.04a2 2 0 0 0 .51-.29l.14-.1a.24.24 0 0 0 .07-.05l.06-.05.1-.08c.05-.05.09-.05.1 0 .01.01 0 .07-.02.25l-.05.3c-.03.1-.1.21-.15.25-.09.06-.2.1-.24.07-.03-.01-.02-.02-.06.12-.03.1-.1.18-.21.22-.06.02-.08.02-.14 0-.04-.02-.06-.06-.06-.1 0-.01-.03-.01-.06.01l-.1.02c-.06 0-.08 0-.1-.03-.05-.03-.07-.09-.07-.15v-.05H.37C.28 2 .13 1.94.08 1.86v-.01.99a.6.6 0 0 1 .06 0c.15.03.27.03.35 0a.8.8 0 0 0 .48-.35 3.68 3.68 0 0 1 .2-.29l.1-.14c.15-.15.25-.21.28-.16a2.27 2.27 0 0 1-.24.98c-.04.1-.08.12-.13.13-.04 0-.04 0-.05.08 0 .04-.02.1-.03.11-.05.1-.16.15-.23.1-.03-.03-.04-.03-.08.01-.06.07-.2.1-.28.06-.03-.01-.03-.02-.03 0 0 .04-.12.13-.2.14H.24l.05.04.15.06a.9.9 0 0 1 .32.18l.04-.05a3.46 3.46 0 0 0 .54-.8l.04-.1.06-.15.06-.17c.05-.14.1-.43.13-.72.03-.2.03-.22.12-.65.06-.33.16-.53.34-.74a2.79 2.79 0 0 1 .37-.28l.08-.04H2.4c0 .02 0 .03-.03.05a1.4 1.4 0 0 0-.54.61c-.1.2-.11.21-.18.24a.19.19 0 0 1-.18 0L1.45.96l-.02.03a.19.19 0 0 1-.11.09.33.33 0 0 1-.07.02.28.28 0 0 1-.13-.07L1.1 1l-.06.03C.92 1.08.86 1.07.78 1 .76.98.76.97.76.89V.8C.8.8.78.77.73.76.62.73.56.68.53.56L.54.44A.21.21 0 0 1 .6.34C.65.3.65.32.78.4c.1.09.23.1.43.07.14-.02.25-.06.5-.19A3.52 3.52 0 0 1 2.14.1L2.2.08h-.48a1.1 1.1 0 0 0-.07.07.69.69 0 0 1-.18.14l-.1.05c-.02.02-.07 0-.09-.03-.02-.05-.01-.13.02-.2A.16.16 0 0 0 1.3.09h-.03c-.02 0-.03 0-.05.02-.15.05-.19.05-.36 0C.85.1.86.1.9.13c.12.1.23.23.23.28 0 .03-.04.06-.07.06C1.02.47 1 .45.96.39A1.06 1.06 0 0 0 .78.21.8.8 0 0 0 .5.09H.45zm.3 0C.62.1.75.15.8.2c.06.05.13.13.18.2.04.05.08.06.1.03C1.1.36.93.19.76.08Zm.3 0c.08.03.16.05.2.04.04 0 .1-.02.14-.04h-.06a.33.33 0 0 1-.24 0zm.46 0c-.07.08-.08.19-.03.24a.1.1 0 0 0 .03.02l.11-.06a.74.74 0 0 0 .2-.15L1.7.08h-.02l-.04.03a.7.7 0 0 1-.16.13l-.1.06c-.03.03-.06.03-.07 0-.03-.06 0-.16.06-.22zm.92 0a1.79 1.79 0 0 0-.3.1L1.72.3l-.28.13c-.1.04-.27.07-.4.07a.4.4 0 0 1-.3-.1C.66.33.64.33.6.38.49.52.57.72.73.74.8.75.8.76.78.8a.26.26 0 0 0-.01.1c0 .06 0 .06.04.1l.04.05.07-.01c.04 0 .09-.02.1-.03.06-.03.07-.03.1 0l.07.05c.06.03.18 0 .21-.06.04-.07.04-.07.08-.04.04.03.1.04.15.02.07-.03.1-.06.18-.22.13-.26.27-.43.45-.56L2.4.08h-.03c0 .01-.04.05-.1.09-.03.02-.17.13-.22.19-.07.07-.18.24-.25.38-.07.15-.12.21-.19.22-.04.01-.1 0-.12-.02-.02-.03-.06-.02-.08.03a.16.16 0 0 1-.11.08.22.22 0 0 1-.05.01L1.14 1a.16.16 0 0 0-.05-.03L1.02 1a.4.4 0 0 1-.12.03c-.04 0-.05 0-.08-.04C.79.96.79.95.79.9.79.87.79.83.8.8.83.76.8.74.75.73.63.7.58.65.57.54L.58.42C.61.36.64.34.68.37l.2.13c.1.03.17.03.34 0 .14-.02.26-.06.5-.19a2.92 2.92 0 0 1 .61-.23zm.34 0c-.17.1-.4.24-.45.3-.06.06-.16.2-.2.28-.06.1-.13.26-.15.37-.07.32-.11.54-.14.8A3.23 3.23 0 0 1 .9 3.65c-.11.12-.14.19-.11.22.03.03.1 0 .22-.11l.14-.12a3.92 3.92 0 0 1 1.42-.6 6.3 6.3 0 0 0 .49-.1 2.23 2.23 0 0 0 .3-.04l.18-.04c.24-.04.42-.1.56-.18.32-.18.56-.55.62-.94l.02-.1c.02-.02.05 0 .06.06l.04.2c.05.16.11.3.18.38a1.3 1.3 0 0 0 .7.53 5.84 5.84 0 0 0 1.07.18l.2.03.12.03a2.37 2.37 0 0 1 .59.19c.05 0 .32.14.46.24.05.03.1.07.14.08l.17.13c.12.1.24.18.27.16l.02-.04c0-.03-.04-.1-.1-.17a3.15 3.15 0 0 1-.22-.27 3.04 3.04 0 0 1-.55-1.3 4.18 4.18 0 0 1-.1-.64l-.03-.2a1.95 1.95 0 0 0-.14-.5.84.84 0 0 0-.12-.22 1.63 1.63 0 0 0-.2-.2.9.9 0 0 0-.26-.2C7 .12 6.99.1 6.96.09H6.7a1.63 1.63 0 0 1 .62.36c.02 0 .12.12.16.2a1.48 1.48 0 0 1 .15.41 2.37 2.37 0 0 1 .1.53v.05a2.14 2.14 0 0 0 .05.35l.02.12.04.12a2.62 2.62 0 0 0 .28.78 3.95 3.95 0 0 0 .43.64c0 .01 0 .02-.02.03l-.12-.08a3.98 3.98 0 0 0-.81-.47L7.24 3c-.3-.08-.41-.1-.66-.12a4.23 4.23 0 0 1-.85-.16l-.3-.13a.97.97 0 0 1-.25-.25 1.6 1.6 0 0 1-.23-.4 2.77 2.77 0 0 1-.09-.37c-.01-.13 0-1.03.02-1.06l.1-.06.12-.07c.04-.02.1-.07.1-.09l.02-.06.07-.12.01-.03h-.13a.41.41 0 0 1-.09.13c-.06.07-.12.1-.17.1l-.07.03a.24.24 0 0 1-.06.01.62.62 0 0 1-.26-.07.33.33 0 0 1-.16-.17V.08h-.14l.02.05c0 .03.04.08.06.11a.3.3 0 0 1 .03.07c0 .02.07.06.16.1.14.07.14.08.16.1.03.07 0 1.02-.03 1.19a1.72 1.72 0 0 1-.2.52.81.81 0 0 1-.2.24.85.85 0 0 1-.24.18c-.15.08-.26.11-.58.17a6.37 6.37 0 0 0-.38.07l-.33.05a15.7 15.7 0 0 1-.3.05l-.16.05a2.45 2.45 0 0 0-.8.36 3.9 3.9 0 0 0-.37.28c-.02.01-.05.02-.06 0-.02-.01 0-.05.05-.1l.13-.2.05-.07c.21-.28.34-.56.44-.94.05-.22.06-.27.08-.44a3.1 3.1 0 0 1 .1-.63c.04-.26.07-.36.15-.52a1.45 1.45 0 0 1 .86-.69zm1.9 0c.04.06.08.1.13.13.05.02.08.02.14.02.12 0 .18-.02.24-.08a.31.31 0 0 0 .05-.07h-.02a.25.25 0 0 1-.12.11.44.44 0 0 1-.12.03c-.13 0-.21-.03-.28-.14zm.04 0c.03.04.06.08.1.1.05.02.07.02.16.02.1 0 .14-.02.2-.09l.02-.03zm2.49 0 .16.1c.04.02.1.06.12.1l.08.07c.02 0 .13.14.19.23a1.93 1.93 0 0 1 .2.63 5.53 5.53 0 0 1 .14.83l.03.12-.01-.13c-.03-.17 0-.21.09-.16.09.05.23.2.37.4l.17.23c.06.09.21.2.3.25.13.06.31.08.52.04h.05V1.8a.32.32 0 0 1-.03.05c-.07.06-.11.08-.23.08H9.1V2c0 .06 0 .07-.04.1a.21.21 0 0 1-.09.05h-.1a.17.17 0 0 1-.06-.03c-.02-.02-.04 0-.04.03-.01.04-.02.05-.05.07-.1.04-.17.02-.28-.07a.64.64 0 0 1-.14-.25c0-.02 0-.03-.03-.02-.13.03-.25-.04-.32-.2-.04-.08-.07-.15-.1-.28 0-.06-.02-.15-.04-.2-.02-.13-.02-.15 0-.17.04-.01.08 0 .16.07a1.57 1.57 0 0 0 .24.17 8.52 8.52 0 0 0 .24.16c.1.07.21.12.3.15.23.06.23.06.35.06l.19-.03c.07-.02.12-.03.15-.02V.3a.75.75 0 0 1-.16-.2h-.32c-.06.02-.12.04-.17.08a.88.88 0 0 0-.23.2c-.04.06-.1.08-.14.05C8.4.4 8.4.37 8.45.28c.05-.09.1-.15.17-.2h-.44c.03.05.04.1.03.16-.02.1-.05.1-.13.05a.72.72 0 0 1-.26-.2h-.4l.34.15.38.17c.2.07.44.06.56-.02a.84.84 0 0 0 .1-.07l.08-.05c.03 0 .08.06.1.14.01.06.02.08 0 .12-.03.1-.14.2-.23.2H8.7l.02.04c.02.06.02.12-.01.18-.03.04-.05.05-.12.06-.09 0-.13 0-.17-.05L8.39.94c0 .03-.05.08-.1.1-.06.02-.06.02-.1 0a.2.2 0 0 1-.12-.09L8.04.92C8 .98 7.9 1 7.84.96c-.04-.02-.1-.1-.14-.2C7.62.54 7.5.37 7.25.18 7.2.13 7.17.1 7.17.08Zm.16 0c0 .02.02.04.06.08.11.09.27.25.33.33.05.09.14.25.14.28 0 .04.1.16.14.18.06.03.1.02.15-.02.04-.04.04-.04.08.03l.07.05c.05.03.07.03.12.01a.13.13 0 0 0 .1-.08c.01-.04.02-.04.04 0 .03.04.1.06.17.06.05-.01.06-.02.1-.05.03-.04.04-.05.04-.1 0-.02 0-.06-.02-.08C8.7.71 8.7.7 8.73.71c.07.01.19-.06.23-.15.04-.1-.01-.27-.09-.27l-.05.03a.51.51 0 0 1-.23.13c-.11.03-.32.02-.44-.02-.05-.01-.23-.1-.4-.18a5.02 5.02 0 0 0-.37-.17H7.3c.08.01.18.05.4.17.46.22.48.23.68.24.11 0 .14 0 .22-.02.09-.03.14-.05.22-.13.05-.05.07-.05.1.01.03.04.04.14.03.19-.01.04-.08.11-.13.13a.26.26 0 0 1-.09.02c-.05 0-.06.02-.04.07l.02.1c0 .04 0 .06-.03.07a.15.15 0 0 1-.12.05.15.15 0 0 1-.13-.06C8.4.87 8.38.88 8.36.93c-.02.04-.03.05-.06.07-.09.03-.17 0-.2-.08L8.04.87 8 .91c-.03.03-.04.04-.08.04-.08 0-.14-.07-.2-.24-.07-.16-.17-.3-.32-.44a2.78 2.78 0 0 0-.17-.15C7.21.1 7.2.1 7.22.08Zm.64 0 .02.02c.08.08.15.13.27.2h.04c.04-.01.05-.14.02-.2L8.17.08h-.02c.02.03.03.06.03.11l-.02.08-.02.02a1.47 1.47 0 0 1-.28-.2zm.84 0a.75.75 0 0 0-.2.21c-.05.08-.05.1 0 .11.02 0 .03 0 .06-.03.14-.15.24-.23.35-.29Zm.64 0c.02.05.08.12.13.17V.08ZM5.9.2h-.22l-.43.01h.4a4.63 4.63 0 0 1 .96.08l.08.04c.06.01.21.09.28.14.04.02.12.1.18.15.08.09.12.13.15.2a1.2 1.2 0 0 1 .11.4l.01.1.03.17a3.32 3.32 0 0 1 .04.35 7.59 7.59 0 0 1 .07.38 3.75 3.75 0 0 0 .18.52c.02.06.2.32.31.45l.03.05s-.04-.01-.14-.1a2.36 2.36 0 0 0-.65-.33 3.07 3.07 0 0 0-.7-.14 7 7 0 0 1-.81-.14l-.11-.07a1.48 1.48 0 0 1-.42-.5 1.55 1.55 0 0 1-.16-.8 13.73 13.73 0 0 0 0 .4c.02.09.06.23.11.35.1.24.3.48.5.6l.15.07a.2.2 0 0 1 .07 0 14.24 14.24 0 0 1 .48.08 11.11 11.11 0 0 1 .65.1c.31.07.69.24.9.4l.08.07c.05.04.06.04.07 0 0 0 0-.03-.03-.05a2.15 2.15 0 0 1-.56-1.33 3.82 3.82 0 0 1-.07-.53c0-.13-.07-.4-.13-.52a1.26 1.26 0 0 0-.7-.53c-.05-.02-.1-.03-.37-.06A2.4 2.4 0 0 0 5.9.2ZM4.25.22h-.52c-.5.01-.52.01-.78.07a.95.95 0 0 0-.4.17 1.35 1.35 0 0 0-.4.48c-.05.09-.09.27-.14.74a3.24 3.24 0 0 1-.07.4 2.18 2.18 0 0 1-.33.9.94.94 0 0 1-.17.2l-.04.08c.01.02.04 0 .07-.03.06-.06.25-.19.34-.23l.2-.08a3.16 3.16 0 0 1 1-.24l.2-.03c.4-.04.6-.1.76-.22.1-.08.28-.27.31-.35.18-.4.2-.45.2-1.13a26.9 26.9 0 0 0-.03.3c0 .3-.02.44-.1.6l-.04.11c-.03.1-.09.2-.19.3a.9.9 0 0 1-.28.23c-.12.06-.15.07-.43.12a4.13 4.13 0 0 1-.43.06l-.18.02a3.09 3.09 0 0 0-1.24.45.46.46 0 0 0-.07.05c-.05.04-.06.03-.02 0l.15-.21.07-.12a1.8 1.8 0 0 0 .24-.65l.02-.11a4.25 4.25 0 0 1 .08-.46l.02-.14.01-.11a1.43 1.43 0 0 1 .13-.5.85.85 0 0 1 .2-.27C2.5.5 2.64.4 2.77.35c.05-.02.21-.06.37-.08A14.53 14.53 0 0 1 4.26.22h-.01zm1.68 0a10.57 10.57 0 0 1-.57.02c-.1 0-.12 0-.12.02s.2.25.22.24l.01-.06c0-.09.03-.13.1-.16.04-.01.06-.02.2-.01.19 0 .35.03.36.05l.01.04c0 .04 0 .04.06 0a.37.37 0 0 1 .07-.05.43.43 0 0 1 .2 0c.02.01.02.04 0 .07-.01.03 0 .03.06 0a.33.33 0 0 1 .2.01c.2.06.25.13.18.22a.2.2 0 0 1-.14.08L6.75.7l.04.01a.4.4 0 0 1 .22.07c.14.09.28.24.29.33 0 .04 0 .04-.04.09a.26.26 0 0 1-.23.07h-.07c0 .01.01.02.03.02l.23.08c.09.05.14.13.18.3.02.1.03.16 0 .18-.02.02-.11.04-.19.03h-.07l.1.05c.12.05.18.1.21.16l.06.15c.04.15.16.42.22.53.06.1.07.13.05.15l-.04.02-.18-.09a1.13 1.13 0 0 0-.26-.1 1.3 1.3 0 0 1-.31-.1.56.56 0 0 1-.22-.2l-.03-.06v.07c-.02.1-.04.1-.14.1a.69.69 0 0 1-.29-.09.53.53 0 0 1-.16-.25c-.01-.03-.01-.03-.03.04-.04.1-.05.14-.1.18-.07.05-.09.04-.27-.11a.67.67 0 0 1-.19-.25.46.46 0 0 1-.01-.1c0-.03-.02-.04-.04 0a.5.5 0 0 1-.05.06c-.04.04-.05.05-.08.05h-.04l.06.08a1.36 1.36 0 0 0 .35.32c.02.02.1.05.12.05a3.94 3.94 0 0 1 .61.1A2.57 2.57 0 0 1 8 3.15l-.04-.06a2.3 2.3 0 0 1-.47-1.23 2.76 2.76 0 0 1-.03-.28 1.3 1.3 0 0 1-.04-.25A1.43 1.43 0 0 0 7.28.8c-.04-.07-.2-.24-.3-.3A1.3 1.3 0 0 0 6.6.3a26.58 26.58 0 0 0-.67-.07ZM3.5.27c-.27 0-.65.06-.79.13a1.1 1.1 0 0 0-.32.25.8.8 0 0 0-.19.24c0 .03-.03.08-.04.1-.04.09-.07.2-.13.7a4.2 4.2 0 0 1-.1.55l-.02.1a1.91 1.91 0 0 1-.3.66.97.97 0 0 1-.05.1c-.03.03 0 .02.05-.01.05-.04.16-.1.26-.14l.1-.04c.1-.06.24-.1.44-.15a5.11 5.11 0 0 1 .8-.13c.14-.02.4-.06.48-.09a.82.82 0 0 0 .38-.25 10.7 10.7 0 0 1 .16-.18v-.04l-.03.03c-.06.05-.13.03-.18-.07L4 1.96l-.02.07c-.01.1-.06.16-.17.29-.11.11-.17.15-.24.15-.03 0-.04 0-.1-.06a.52.52 0 0 1-.05-.08l-.02-.06-.01-.05-.03.08a.63.63 0 0 1-.06.13c-.07.09-.2.15-.37.16-.1.01-.14 0-.15-.11v-.06l-.03.05a.4.4 0 0 1-.14.16c-.06.03-.27.12-.31.12-.03 0-.23.07-.37.14a.74.74 0 0 1-.12.05c-.05 0-.06-.06-.02-.15.07-.14.15-.39.2-.58.03-.09.07-.15.17-.22a.46.46 0 0 0 .09-.07h-.06a.15.15 0 0 1-.07-.04c-.02-.02-.03-.03-.02-.1 0-.1.04-.18.1-.28.07-.1.11-.13.22-.16l.09-.03h-.05a.38.38 0 0 1-.21-.1c-.03-.03-.04-.04-.03-.08 0-.07.05-.13.18-.25.13-.11.2-.15.29-.15.04 0 .07-.01.07-.02L2.7.68c-.06-.03-.12-.1-.12-.13 0-.05.13-.14.25-.17.05 0 .17 0 .22.02V.37c0-.04.04-.06.12-.06.08 0 .14.03.26.12.07.07.1.08.12.06L3.5.45C3.43.42 3.4.37 3.4.34s.05-.05.16-.06c.1-.01.08-.02-.05-.02zm.58 0c-.16 0-.21 0-.13.02.02 0 .05.03.07.05.03.04.04.05.04.1l.01.06.11-.1c.13-.13.13-.13-.1-.13Zm1 .15v.2c0 .17 0 .19.01.16V.72a1 1 0 0 1 0-.17V.4zm1 0-.12.06V.5c.02.01.05 0 .1-.04.04-.04.04-.04.02-.04zm-1.66 0L4.35.5c-.05.04-.1.1-.13.11L4.2.64h.04A.2.2 0 0 1 4.4.7a.2.2 0 0 0 .04.03V.42zm.7.02-.01.13v.13s.03 0 .04-.02c.03-.02.05-.03.1-.03l.07-.01a4.8 4.8 0 0 1-.2-.2zm1.46.1-.13.03c-.2.06-.25.07-.38.08a1 1 0 0 1-.39-.06 1 1 0 0 0-.14-.02l-.12.01a.13.13 0 0 0-.04.05.33.33 0 0 0 0 .18l.05.15c.03.1.03.12.03.26a1 1 0 0 1-.06.39c-.04.09-.05.12-.03.14.01.03.03.02.07-.02a.38.38 0 0 0 .08-.18l.03-.12a1.12 1.12 0 0 0-.03-.56V.82l.04.02c.12.14.25.4.3.6a3.57 3.57 0 0 1 .01.62c.01.02.05-.01.07-.05.04-.07.05-.16.05-.34 0-.14 0-.2-.02-.27-.02-.12-.02-.14 0-.12a2.26 2.26 0 0 1 .44.73l.04.09.04.12c.03.07.06.1.08.07.02-.02 0-.11-.02-.2a3.16 3.16 0 0 1-.13-.39 4.81 4.81 0 0 0 .44.38 5.79 5.79 0 0 0 .5.46c.04.02.06.02.07 0 0-.04-.01-.07-.15-.2l-.19-.2a19.75 19.75 0 0 0-.6-.63l.1.05c.11.04.22.08.36.1l.13.04c.06.01.1 0 .1-.02 0-.03-.04-.04-.13-.07a2.64 2.64 0 0 1-.26-.1 2.69 2.69 0 0 1-.65-.36c-.06-.05-.07-.07-.01-.05l.19.02c.19.02.27.02.53-.03.07-.02.1-.04.06-.07C6.9 1 6.89 1 6.8 1a2.62 2.62 0 0 1-.64-.03C6.1.97 5.9.88 5.85.86L5.77.8c-.08-.04-.14-.1-.12-.1 0-.02.02-.02.04 0l.23.03c.12.01.4-.02.55-.07.06-.01.15-.08.15-.1 0-.02 0-.04-.03-.04zM2.92.55c-.03 0-.04 0-.04.02 0 .03.02.04.08.08.15.09.5.13.82.09h.05l-.04.03c-.1.09-.3.19-.5.24a1.98 1.98 0 0 1-.63.02c-.03 0-.04.05-.02.08s.08.04.3.05a1.26 1.26 0 0 0 .48-.05 2.9 2.9 0 0 1-.85.47c-.18.06-.24.1-.22.13 0 .03.05.04.12.02a2.36 2.36 0 0 0 .51-.16l-.68.7c-.23.23-.25.25-.2.29l.01.02a.5.5 0 0 0 .12-.07 15.26 15.26 0 0 0 .88-.82l-.03.08a4.94 4.94 0 0 0-.13.43c0 .06 0 .08.02.1.02.01.02.01.04-.01a3.13 3.13 0 0 1 .51-.98c.03-.03.05-.02.04.02a2.4 2.4 0 0 0-.03.44c0 .11.05.26.08.3h.04c.01-.01.02-.03.02-.09-.02-.42 0-.53.03-.64.05-.15.1-.25.17-.35.07-.11.11-.15.1-.1-.04.12-.04.4-.01.54.02.1.09.27.13.3.05.04.07-.02.03-.13a2.43 2.43 0 0 1-.06-.32 1.56 1.56 0 0 1 .07-.44c.04-.14.02-.22-.04-.27-.04-.01-.05-.02-.13-.01a.83.83 0 0 0-.2.04c-.16.05-.4.06-.54.03-.04 0-.13-.03-.19-.05a.49.49 0 0 0-.11-.03zm-1.28.5c-.03 0-.07.04-.14.1l-.12.1-.15.1c-.2.17-.48.3-.65.34a.87.87 0 0 1-.34-.02c-.13-.04-.14-.04-.16 0v.12l.01.04c.05.08.17.14.27.14h.06v.05c.01.07.04.12.08.15s.13.03.19 0c.05-.02.05-.02.07.03l.05.05c.02.02.05.03.07.03.06 0 .14-.05.2-.1a.28.28 0 0 0 .07-.15l.03-.1h.06c.1 0 .24-.07.3-.19.05-.07.07-.19.1-.4.04-.21.04-.3 0-.29zm6.18 0-.01.02s0 .09.05.28a4.9 4.9 0 0 1 .08.3c.07.17.2.27.32.22.04 0 .05 0 .06.06.04.14.14.26.26.3.07.03.16-.01.18-.09l.01-.04.07.02c.04.03.06.03.1.03.1-.02.15-.07.15-.18v-.05h.07c.12.01.2-.02.26-.1l.02-.04v-.05a.2.2 0 0 1-.07.12c-.05.04-.1.06-.2.05h-.09l-.01.08c0 .04 0 .07-.02.1-.04.05-.14.07-.22.03-.05-.03-.08-.03-.09 0 0 .06-.01.07-.05.1a.2.2 0 0 1-.07.02.45.45 0 0 1-.17-.1.65.65 0 0 1-.11-.22c-.01-.05-.03-.06-.09-.05-.08.02-.15 0-.22-.09a.83.83 0 0 1-.12-.28l-.03-.13c-.07-.31-.07-.3-.01-.28l.07.05c.05.05.58.4.66.43l.22.08c.16.04.16.04.28.04l.2-.03c.09-.03.13-.03.14 0v-.03c-.02-.02-.06-.01-.15.01a.8.8 0 0 1-.4.01 1.77 1.77 0 0 1-.33-.11 18.83 18.83 0 0 1-.74-.48Zm-6.19.02c.02 0 .03.01.02.06 0 .08-.04.34-.07.44-.04.19-.11.28-.26.33-.05.02-.06.02-.1 0-.04-.01-.05 0-.08.1a.66.66 0 0 1-.04.13c-.03.04-.1.1-.16.12-.06.02-.06.02-.1 0-.04-.01-.06-.03-.06-.07-.01-.04-.04-.05-.08-.03a.42.42 0 0 1-.11.02H.51l-.03-.04c-.02-.03-.03-.05-.03-.1v-.08H.36c-.16 0-.28-.1-.28-.23 0-.07.01-.07.1-.05.14.04.34.06.43.03a2.07 2.07 0 0 0 .75-.42 2.52 2.52 0 0 0 .26-.2zm2.8.02v.02l-.01.1c0 .07-.02.09-.05.09-.03 0-.04-.02-.08-.09-.04-.05-.05-.06-.07-.06v.05l.1.1c.06.08.1.14.1.2 0 .04 0 .03.01-.03a1.69 1.69 0 0 0 0-.38zm.88.06-.03.05c-.05.09-.11.13-.15.1l-.01.1v.1l.03-.07a.27.27 0 0 1 .04-.08.72.72 0 0 0 .13-.2zm-.2.02v.04-.04zm.09.45c-.04 0-.05 0-.05.02l.05.15c.01.03.01.03.02-.04l.01-.1c.02-.03.01-.03-.03-.03zm-.84.03c-.03 0-.04 0-.03.03v.08c.01.04.02.06.03.05l.05-.16h-.05zm.39.03v.01l-.04.2a.98.98 0 0 0-.02.09l.02-.03c.02-.03.03-.04.06-.04l.04-.01-.02-.07a.63.63 0 0 1-.02-.11l-.01-.04h-.01zm3.23.18c-.02 0-.03.01-.03.03-.02.05.01.27.06.43.13.46.2.62.32.62.04 0 .05.01.07.1.02.1.11.22.18.22.03 0 .07-.02.08-.04.01-.02.05-.02.06 0 .01.03.07.07.11.09.06.02.12.01.17 0a.14.14 0 0 0 .09-.15V3.1h.1c.1 0 .12-.01.16-.03a.36.36 0 0 0 .1-.08v-.02h-.01c-.08.09-.11.1-.25.1l-.13.01v.07c.01.06 0 .06-.02.1a.2.2 0 0 1-.05.03.29.29 0 0 1-.18 0 .34.34 0 0 1-.07-.07c-.05-.04-.06-.05-.1-.01-.03.03-.08.04-.12.01a.42.42 0 0 1-.11-.2c-.02-.09-.02-.1-.06-.1-.1 0-.19-.12-.27-.41l-.05-.18a2.34 2.34 0 0 1-.07-.42l.02-.03c.07 0 .25.2.43.47.17.24.3.35.45.43.06.03.12.05.16.05a1.35 1.35 0 0 0 .42-.01V2.8H9.4c-.14.04-.35.03-.45 0-.19-.06-.35-.21-.55-.5-.14-.2-.26-.34-.35-.4a.22.22 0 0 0-.07-.03ZM1.5 1.9a.32.32 0 0 0-.08.04.98.98 0 0 0-.25.27l-.08.13-.1.13a.85.85 0 0 1-.5.39.6.6 0 0 1-.32 0 .81.81 0 0 0-.1-.01v.01l.1.02c.3.05.54-.04.73-.27.04-.05.09-.1.1-.13l.1-.12.1-.16c.08-.13.27-.3.3-.28.04.01.02.22-.03.38l-.05.17c-.07.26-.12.4-.19.47a.15.15 0 0 1-.07.03l-.06.02v.07c-.02.12-.1.23-.17.23a.13.13 0 0 1-.06-.03.15.15 0 0 0-.04-.02l-.05.03a.43.43 0 0 1-.08.06c-.06.03-.15.03-.2 0-.04-.02-.07-.1-.06-.15l.01-.04h-.1l-.12-.01a.35.35 0 0 1-.16-.13v.03c.04.05.1.09.15.1.04.02.08.03.13.03h.07l.01.07c0 .07.03.1.09.13.07.03.2 0 .27-.08.03-.03.03-.03.08 0 .04.03.05.03.09.02.08-.02.15-.14.15-.25 0-.04.01-.06.06-.06.03 0 .04 0 .07-.04.08-.08.12-.2.25-.64.03-.13.06-.35.04-.4 0 0-.01-.02-.03-.01zm3.27.03c-.02 0-.04 0-.05.03v.44c-.01.53-.01.54-.14.63a.55.55 0 0 0-.17.2c-.07.1-.06.13.06.13.1 0 .18-.05.22-.12.01-.02.02-.02.02 0l-.02.04c-.02.04-.08.2-.09.26-.02.12.01.23.1.33l.07.05a.6.6 0 0 0 .15-.18.48.48 0 0 0 .02-.24l-.06-.15c-.05-.13-.06-.2-.02-.11.02.04.04.06.1.08.06.03.12.04.16.02.05-.01.05-.04 0-.14-.04-.1-.07-.12-.18-.2a.2.2 0 0 1-.08-.09c-.04-.09-.05-.12-.03-.38v-.55a.07.07 0 0 0-.06-.05Zm0 .02.02.01a2.2 2.2 0 0 1 .03.39 9.49 9.49 0 0 0 0 .52c.03.08.06.11.17.19.06.05.07.06.11.14l.04.1c0 .04-.13.04-.2 0a.18.18 0 0 1-.07-.1l-.04-.05c-.04 0-.02.06.04.2.05.12.05.15.06.22 0 .12-.01.16-.09.25a.55.55 0 0 1-.07.09c-.02 0-.1-.1-.12-.15-.06-.12-.05-.25.04-.43.04-.08.05-.16.03-.17 0 0-.03.02-.04.06-.04.08-.09.12-.2.12-.1 0-.11 0-.07-.08.05-.1.1-.16.17-.2.08-.06.1-.1.12-.16.02-.06.03-.29.03-.63 0-.28 0-.3.02-.32h.02zm-.09.08-.07.13a1.41 1.41 0 0 1-.53.58c-.05.02-.19.08-.33.11a4.17 4.17 0 0 1-.75.15 1.26 1.26 0 0 0-.22.03l-.05.01a3.43 3.43 0 0 0-1.02.31c-.16.06-.54.3-.68.44-.11.1-.2.14-.24.13-.03 0-.03 0-.05.02 0 .02-.02.03-.01.04l.05-.01c.06-.01.12 0 .16.04a.5.5 0 0 1 .14.23c0 .03.02.1.05.13.03.08.03.08.04.06.04-.09.05-.1.09-.15l.06-.04c.02 0 .02 0 0-.05-.03-.03-.03-.05-.04-.12 0-.1.03-.15.09-.18l.03-.02-.02-.02c-.06-.06-.04-.15.03-.2a.48.48 0 0 1 .2-.08c.05 0 .05 0 .05-.05 0-.02 0-.05.02-.06.02-.04.16-.11.31-.16.2-.07.72-.18.79-.17.02 0 .03.02.05.05 0 .02 0 .02.05 0a.87.87 0 0 1 .34-.11l.22-.04c.14-.04.22-.02.22.04l-.05.08a2.5 2.5 0 0 0-.26.32l-.2.3a.8.8 0 0 0-.09.66l.02.11c.01.08-.01.1-.1.1a.2.2 0 0 1-.12-.04c-.12-.06-.16-.13-.16-.26v-.07h-.06c-.08 0-.12-.02-.15-.07-.02-.04-.03-.14 0-.2a.2.2 0 0 0 0-.05l-.03-.01c-.05-.02-.09-.08-.09-.15 0-.04.01-.06.05-.1a.5.5 0 0 1 .24-.18c.1-.03.1-.03.08-.04-.02-.02-.02-.08-.01-.12v-.03l-.08.06a1.96 1.96 0 0 0-.23.17c-.39.3-.44.35-.5.48a.73.73 0 0 0-.06.53c.02.06.02.07.01.1s-.02.03-.07.03a.3.3 0 0 1-.22-.11.27.27 0 0 1-.08-.23v-.08h-.03c-.04 0-.04 0-.03.02v.04c0 .02-.05.1-.1.16-.04.03-.05.04-.09.03h-.03c.2.25.31.48.32.68 0 .1-.05.33-.1.44-.05.11-.23.3-.32.36-.04.02-.09.02-.1 0H1c-.01 0 .04.2.06.23l.09.18a.6.6 0 0 0 .23.29c.1.06.15.09.22.1.1.02.14.01.2-.01.07-.02.1-.06.13-.14.04-.09.1-.09.17.01.03.05.03.13 0 .18a.25.25 0 0 0-.02.05l.07.03c.13.06.29.19.34.3.05.08.08.21.07.3 0 .08-.06.19-.1.19-.03 0-.03-.02-.03-.1 0-.16-.1-.25-.33-.3a.76.76 0 0 1-.1-.03c-.01 0-.02 0-.02.05a.3.3 0 0 1-.1.2c-.05.06-.1.08-.15.08-.04 0-.05-.02-.04-.1.01-.13 0-.18-.06-.25a3.9 3.9 0 0 0-.17-.18 2.58 2.58 0 0 1-.3-.33c-.06-.12-.1-.19-.11-.18-.01 0 .04.17.09.28l.06.15a1.62 1.62 0 0 0 .12.3 1.35 1.35 0 0 0 .6.73c.03.02.2.09.27.1.04.02.12.02.23.02.14 0 .17 0 .28-.03l.32-.1a.97.97 0 0 0 .23-.22c.1-.16.13-.22.15-.44.02-.16.03-.18.08-.18.03 0 .1.04.13.08.04.04.11.17.13.24.02.08.02.23 0 .3-.02.1-.02.1.04.11.17.02.27.08.4.2.07.07.09.1.12.17.05.11.07.17.07.27 0 .2-.08.4-.14.35-.01 0-.02-.03-.02-.07a.64.64 0 0 0-.12-.28.88.88 0 0 0-.25-.19.59.59 0 0 0-.17-.04.78.78 0 0 0-.11-.01l.02.05c.02.03.02.06.02.12 0 .08 0 .09-.03.14a.31.31 0 0 1-.2.14c-.1.03-.14-.01-.09-.13.03-.06.03-.07.01-.1a.24.24 0 0 0-.14-.13c-.06-.02-.1-.03-.41-.03-.43-.01-.54-.03-.7-.11a.84.84 0 0 0-.08-.04c-.02 0 .07.07.14.11.04.03.1.06.11.08l.18.1.36.17a2.61 2.61 0 0 1 .33.15 1.26 1.26 0 0 1 .53.22l.1.05c.1.06.35.35.39.47l.01.05.02-.04a.3.3 0 0 1 .13-.12.36.36 0 0 1 .2-.01.3.3 0 0 1 .08.1v-.02c0-.06.03-.11.08-.15.03-.03.04-.03.13-.03.12 0 .17.02.2.08a.2.2 0 0 1 .02.07v.03l.05-.05c.03-.03.05-.04.08-.04.1-.02.25.05.28.11 0 .02.01.03.02.03l.03-.06A1.36 1.36 0 0 1 6 8.99a8.47 8.47 0 0 1 .67-.31l.1-.05.03-.02c.03 0 .24-.1.34-.16.18-.1.35-.23.34-.24l-.07.03a.98.98 0 0 1-.28.09H6.7c-.19 0-.2 0-.28.02-.1.03-.13.05-.13.08 0 .01-.01.02-.03 0-.02-.02-.04.03-.04.08 0 .03 0 .08.02.11.02.06.02.07 0 .09-.05.06-.25-.02-.3-.13a.38.38 0 0 1 0-.27h-.08a.57.57 0 0 0-.48.35 1.3 1.3 0 0 0-.05.14.2.2 0 0 1-.03.07c-.02.02-.02.02-.05 0a.26.26 0 0 1-.06-.1c-.03-.07-.03-.09-.03-.2 0-.12 0-.14.03-.22.06-.17.17-.3.33-.37.05-.03.22-.08.26-.08.03 0 .04-.02.01-.07a.58.58 0 0 1-.03-.28c.01-.09.06-.2.13-.28a.27.27 0 0 1 .1-.1c.06-.02.07-.02.1 0 .02.02.03.07 0 .15a.86.86 0 0 0 .53.72c.15.06.24.08.4.09.21 0 .34-.02.57-.13a.57.57 0 0 0 .18-.13 2.15 2.15 0 0 0 .5-.78 3.93 3.93 0 0 0 .17-.52l-.15.2c-.04.02-.32.33-.4.43-.09.12-.1.16-.1.25l-.01.1c-.03.03-.13 0-.19-.05-.05-.05-.07-.1-.07-.19v-.08l-.11.04c-.15.04-.25.09-.28.13a.57.57 0 0 0-.07.22c0 .05-.04.06-.07.03-.08-.07-.07-.33.02-.49a.83.83 0 0 1 .1-.12.51.51 0 0 1 .25-.15.38.38 0 0 0 .06-.02L7.4 6.8c-.06-.12-.01-.27.08-.27.04 0 .05.01.06.05.03.14.11.19.29.18.1 0 .15-.01.28-.1a1.06 1.06 0 0 0 .4-.7c0-.04 0-.04-.01-.02-.02.03-.06.03-.1 0a.86.86 0 0 1-.18-.14l-.06-.07a.75.75 0 0 1-.18-.5l.01-.22c.04-.17.1-.3.24-.48l.03-.04c-.04.01-.07-.01-.14-.1-.08-.1-.08-.14 0-.17.06-.03.1-.02.13.04.03.02.05.06.06.09l.02.03.02-.03a.54.54 0 0 0 .08-.15c0-.03.07-.17.11-.2.05-.06.1-.08.17-.07.08.01.1 0 .07-.05 0-.02-.01-.02-.04-.01-.04.01-.16-.05-.3-.17a.95.95 0 0 0-.15-.12 1.4 1.4 0 0 1-.16-.1 1 1 0 0 0-.12-.07l-.07-.04c-.05-.04-.22-.11-.24-.11l-.06-.02c-.12-.07-.2-.1-.44-.15a2.97 2.97 0 0 0-.4-.08 4 4 0 0 1-.54-.07 3.43 3.43 0 0 1-.73-.19 2.32 2.32 0 0 1-.18-.1.67.67 0 0 1-.2-.17l-.08-.1a1.2 1.2 0 0 1-.15-.23.51.51 0 0 0-.06-.1V2.52c-.02.24-.02.27 0 .32.02.08.05.13.09.15.02 0 .06.03.1.06.04.05.06.07.1.15.05.13.04.16-.08.17a.2.2 0 0 1-.1-.03c-.06-.03-.06-.03-.06 0l.03.07c.02.05.03.07.03.17l-.01.14c-.01.04 0 .04.08-.04.1-.1.18-.14.23-.13.03.01.04.01.04.06 0 .05 0 .05-.06.1-.25.21-.3.3-.35.52-.03.13-.02.15.08.2.1.05.16.11.25.25.15.21.19.26.28.36l.13.15c.07.12.08.31.03.4l-.03.03h.03c.02 0 .05.03.1.1a1.18 1.18 0 0 0 .17.16c.04.05.1.07.24.08h.18c.06-.02.19-.1.24-.14a.96.96 0 0 0 .16-.28c.02-.07 0-.08-.07-.1a.35.35 0 0 1-.3-.26 1.62 1.62 0 0 1-.03-.14c-.03-.14-.08-.2-.16-.18-.09.01-.12.01-.12-.01 0-.04.08-.11.17-.14.07-.02.09-.02.22 0 .14 0 .16 0 .22.04a.6.6 0 0 1 .28.34c.03.08.04.1.03.16 0 .06-.01.08-.04.1-.05.05-.06.07-.07.15l-.03.11c-.01.03-.02.05-.01.06l.11-.06a.27.27 0 0 0 .06-.07c.01-.03.02-.05.01-.13 0-.08 0-.09.02-.13.04-.07.1-.12.22-.18.16-.07.3-.17.4-.25l.1-.07.04.03c.04.05 0 .28-.07.41-.03.07-.16.24-.21.28a.58.58 0 0 1-.23.11h-.11l-.06-.01-.06.05a.67.67 0 0 1-.16.12 1 1 0 0 0-.08.02.21.21 0 0 0-.1.06.22.22 0 0 0-.05.05l.05.01.08.01h.07c.06-.04.12-.05.22-.05.2.01.27.04.42.19.13.13.18.2.22.3.04.09.04.13.03.15-.02.02-.02.02-.07 0l-.1-.03a.94.94 0 0 0-.32-.05c-.17 0-.26-.02-.35-.08-.1-.07-.12-.12-.14-.25 0-.05-.01-.07-.03-.08-.03-.02-.13-.02-.23.01-.15.04-.17.05-.27.06-.13.01-.2 0-.3-.06a1.55 1.55 0 0 1-.14-.07l.03.12.04.19c.01.09.06.17.14.24.04.04.05.06.05.09l-.02.04H6a.49.49 0 0 1-.18-.21l-.04-.08-.08.07-.13.13c-.08.06-.24.25-.24.28l.04.08c.06.08.07.15.05.28l-.04.15c-.02.07-.01.1.02.19.02.03.02.04 0 .05-.04.06-.24-.05-.32-.17a.48.48 0 0 1-.07-.2.45.45 0 0 1 0-.19c0-.04 0-.04-.01-.02a.7.7 0 0 0-.12.24c-.03.12-.02.15.04.28.08.15.09.2.08.3 0 .06-.02.1-.06.18l-.06.12a.6.6 0 0 0-.05.1c-.04.1-.1.1-.11.02a.29.29 0 0 0-.05-.08.18.18 0 0 1-.03-.05A1 1 0 0 0 4.6 8a.96.96 0 0 1-.06-.17c-.02-.09 0-.15.06-.3.06-.12.07-.15.07-.22.01-.16-.01-.2-.17-.38a.82.82 0 0 0-.18-.14c0 .02.04.06.1.1.09.05.14.18.13.32a.53.53 0 0 1-.15.28c-.07.07-.17.12-.23.12-.05 0-.06-.02-.03-.09a.72.72 0 0 0 0-.33.37.37 0 0 1 .06-.31l.02-.04c0-.06-.14-.21-.25-.3a.62.62 0 0 1-.17-.17c-.02-.03-.04-.04-.04-.01a.8.8 0 0 1-.13.23c-.06.06-.1.07-.13.05-.05-.02-.04-.06.03-.14.08-.08.13-.19.14-.27a2.52 2.52 0 0 1 .04-.22v-.05L3.67 6c-.09.08-.2.11-.36.1a.6.6 0 0 1-.21-.02 1.62 1.62 0 0 0-.14-.03.5.5 0 0 0-.2.02c-.02 0-.02.03-.03.06 0 .06-.04.16-.08.2-.06.08-.18.12-.39.13a.81.81 0 0 0-.36.08c-.1.04-.13.05-.15 0-.02-.04 0-.13.06-.23a4 4 0 0 0 .08-.12.68.68 0 0 1 .26-.23.8.8 0 0 1 .28-.08c.03 0 .08.01.14.04l.12.04.14-.03c.03 0 .03-.02-.01-.05a.26.26 0 0 0-.1-.05.83.83 0 0 1-.27-.15c-.05-.04-.07-.05-.09-.04h-.1c-.09 0-.1 0-.17-.03a.45.45 0 0 1-.21-.2 1.34 1.34 0 0 1-.15-.3.92.92 0 0 1-.01-.27c.01-.05.06-.05.08 0 .03.05.14.13.3.2l.16.07c.03.02.15.11.18.15.06.09.08.15.06.22-.01.05 0 .1.05.14l.14.08-.02-.07a.56.56 0 0 1-.04-.1.7.7 0 0 0-.09-.21c-.05-.1-.02-.24.1-.39.07-.1.18-.17.33-.2a.61.61 0 0 1 .33 0c.06.03.12.08.12.1 0 .02-.04.04-.08.04a.18.18 0 0 0-.07.03c-.04.03-.06.06-.1.23a.4.4 0 0 1-.33.33c-.1.01-.1.02-.07.1.01.05.04.1.09.17.08.1.1.12.18.17.16.1.33.1.5.03.04-.02.17-.15.26-.26.05-.06.06-.07.09-.07s.03 0 0-.04-.04-.23 0-.3c.01-.06.08-.16.17-.27.12-.14.15-.18.18-.24a.83.83 0 0 1 .25-.3.23.23 0 0 1 .08-.04c.04 0 .08-.05.08-.1l-.03-.17c-.03-.14-.03-.15-.08-.23a.4.4 0 0 0-.1-.1.86.86 0 0 1-.18-.16l-.02-.04v.07c.01.11.04.19.11.26.04.03.07.07.07.09.01.04-.04.08-.11.1-.1.03-.2 0-.27-.07a.22.22 0 0 1-.07-.14l-.02-.05-.04.02c-.1.04-.2 0-.24-.08-.04-.08-.03-.14.03-.21l.03-.03-.04-.02c-.05-.02-.07-.06-.08-.14 0-.06 0-.07.03-.1a.21.21 0 0 1 .07-.07l.04-.01-.03-.05c-.04-.05-.05-.11-.01-.17.03-.05.09-.09.21-.13a.38.38 0 0 0 .09-.04l.08-.04c.02 0 .25-.16.31-.21l.1-.11c.1-.12.14-.14.17-.1v.1l-.03.1-.18.37c-.14.23-.2.41-.22.56v.08l.03-.03c.05-.05.07-.04.19.08.15.15.2.23.26.4.03.1.04.13.04.2v.1c.02 0 .02-.01.02-.03 0-.12.01-.25.03-.3a.94.94 0 0 1 .1-.2l-.02.02a.65.65 0 0 0-.05.07c-.04.05-.07.05-.13-.02-.13-.12-.15-.3-.07-.49a.26.26 0 0 0 .02-.06l-.06.02c-.07.03-.18.03-.21.01-.04-.01-.04-.05-.02-.1.09-.12.14-.18.23-.25.08-.06.1-.1.1-.32a7.27 7.27 0 0 0 0-.66zm3.29.28c0 .03.02.14.06.24a1.33 1.33 0 0 1 .03.09l-.02-.1a5.44 5.44 0 0 1-.07-.23zm-3.06.01.06.06c.18.2.4.37.59.46.16.07.22.1.25.13s.05.03.08.03c.05-.01.2 0 .4.05a.8.8 0 0 1 .31.1c.06.04.06.04.06.01s.03-.04.08-.04a3.31 3.31 0 0 1 1.02.28c.04.03.07.08.06.12 0 .02.01.03.13.04.07 0 .14.06.16.1.02.07.02.13-.01.16l-.03.03.03.02c.08.05.12.2.07.27-.03.04-.11.09-.18.09h-.05l.02.05c.02.07.02.12-.02.2-.04.08-.09.12-.18.16-.06.03-.1.03-.13 0-.02-.01-.02-.02 0-.16l.01-.18a.5.5 0 0 0-.1-.33 1.43 1.43 0 0 0-.37-.37 2.86 2.86 0 0 1-.41-.29v.05l-.02.08c-.02.03 0 .04.06.05.1.01.25.12.3.21v.09l-.02.07c-.02.02-.08.05-.12.04-.04 0-.04 0 0 .04.02.06.05.17.04.22-.01.06-.06.09-.15.09h-.08v.07c.02.07 0 .12-.04.18-.06.08-.2.14-.28.12-.06-.02-.07-.07-.02-.2a.55.55 0 0 0 .03-.38.26.26 0 0 1-.02-.06 31.1 31.1 0 0 1-.22-.44c-.03-.04-.09-.1-.11-.15a3.09 3.09 0 0 0-.21-.24c-.03-.02-.04-.03-.04 0l-.03.04-.02.02.05.04c.05.05.07.1.07.15 0 .06-.05.13-.1.15H5.8l.03.04c.06.05.07.09.06.15 0 .07-.02.1-.08.13-.04.03-.07.03-.2 0-.02 0-.02 0-.02.03l-.03.1a.28.28 0 0 1-.25.13c-.11 0-.22-.06-.2-.13l.06-.07c.1-.09.14-.18.15-.33.01-.16-.02-.25-.23-.66-.2-.4-.25-.58-.19-.61h.01zm0 .02c-.06.01 0 .2.2.6l.17.36.03.08c.02.06.03.2.02.29a.46.46 0 0 1-.14.26.27.27 0 0 0-.06.1c0 .02.05.06.1.08a.3.3 0 0 0 .22-.03.27.27 0 0 0 .13-.19c0-.05 0-.05.07-.03l.1.01c.04 0 .05 0 .09-.04.03-.04.04-.04.04-.1 0-.07 0-.07-.05-.12a.23.23 0 0 1-.05-.05l.04-.03c.1-.03.13-.17.04-.25-.03-.03-.06-.04-.07-.04-.03 0-.02-.02.01-.05a.12.12 0 0 0 .04-.05c0-.02.02-.04.03-.04.01 0 .18.2.3.36.13.16.26.41.3.56a.6.6 0 0 1-.02.4c-.05.12-.05.14-.02.17.04.05.21 0 .27-.09.06-.07.08-.12.06-.19v-.07h.08c.05 0 .07 0 .1-.03.04-.02.04-.02.04-.1 0-.06 0-.08-.04-.14a.48.48 0 0 1-.03-.08h.05c.05 0 .06 0 .09-.03.03-.04.05-.12.03-.16a.5.5 0 0 0-.17-.15.84.84 0 0 0-.13-.05l-.07-.03.01-.04c.05-.08 0-.18-.1-.25a.93.93 0 0 0-.38-.13c-.2-.04-.3-.05-.35-.04-.04.01-.05.01-.08-.02a.74.74 0 0 0-.24-.13A1.8 1.8 0 0 1 5 2.42c-.04-.05-.08-.09-.1-.09zm0 .02.1.1a1.84 1.84 0 0 0 .56.41c.14.07.18.09.22.13.04.03.04.05.04.07 0 .05-.02.1-.06.13-.04.02-.03.04.02.06.13.03.15.2.03.25-.07.03-.07.05-.01.1.02.03.05.06.05.08.01.05 0 .1-.04.13-.04.04-.1.04-.19.02-.06-.03-.07-.02-.07.05 0 .08-.08.17-.16.2a.36.36 0 0 1-.18 0c-.08-.04-.09-.08-.02-.14.05-.05.1-.13.13-.2a.8.8 0 0 0 0-.39 8.28 8.28 0 0 0-.38-.81 3.05 3.05 0 0 0-.03-.1c-.01-.03-.02-.09 0-.09zm-.29.03c-.03 0-.06.03-.1.09-.08.1-.14.15-.29.24-.12.09-.2.13-.33.18l-.13.05c-.05.03-.08.08-.08.14 0 .05 0 .06.04.1l.04.04-.06.02c-.07.03-.09.08-.09.16 0 .06 0 .08.03.1l.06.04.04.02-.04.03c-.04.04-.07.1-.06.14.03.13.15.19.25.13.06-.03.06-.03.08.08 0 .05.07.12.13.15.09.04.2.03.27-.02.03-.03.02-.06-.04-.13-.12-.11-.15-.23-.12-.47.02-.14.06-.25.16-.43l.21-.42c.04-.09.07-.23.05-.24h-.02zm0 0c.04.04-.08.34-.2.55-.08.13-.14.27-.18.36a.96.96 0 0 0-.02.51c.03.06.05.1.12.17.06.06.05.08-.02.11a.22.22 0 0 1-.18 0c-.09-.03-.16-.11-.16-.2 0-.06-.02-.07-.08-.04a.15.15 0 0 1-.09.02c-.04 0-.06 0-.1-.04-.07-.07-.06-.18.02-.22.05-.03.05-.06 0-.08-.07-.02-.09-.04-.09-.12 0-.05 0-.08.02-.1a.15.15 0 0 1 .1-.05c.05 0 .06-.02.03-.05-.08-.05-.1-.1-.07-.17.02-.05.06-.08.2-.13.11-.04.2-.09.32-.17a1 1 0 0 0 .28-.24c.05-.06.08-.1.1-.1zm3.46.3.01.03.02.02-.01-.03-.02-.03zm.04.09a1.81 1.81 0 0 0 .35.6 2.57 2.57 0 0 1 .2.26l.06.06.04.06.05-.04c.04-.05.09-.07.34-.18l.1-.05c.01-.02.01-.02-.02-.02-.05 0-.18-.08-.2-.12-.01-.02-.02-.03-.04-.02h-.1c-.07 0-.09 0-.13-.02a.31.31 0 0 1-.07-.06l-.02-.03-.03.03c-.02.02-.04.03-.07.03-.06 0-.1-.03-.15-.1A.35.35 0 0 1 8.37 3c0-.03 0-.04-.03-.04-.06 0-.12-.05-.17-.14a.21.21 0 0 0-.04-.05zm-4.54.25c-.05 0-.15.01-.4.06-.2.04-.26.06-.35.14-.07.06-.12.17-.08.22l.02.04-.09.03c-.14.04-.27.15-.29.24-.02.08.04.17.1.17.05 0 .05 0 .02.06-.03.05-.03.17 0 .21.04.05.11.07.2.05.03 0 .03 0 .02.02-.03.1 0 .2.06.27.05.04.1.07.14.08.04.01.11 0 .13-.01.02-.02.01-.07-.02-.19a.82.82 0 0 1 .05-.57c.07-.14.37-.57.5-.7.06-.07.06-.1.03-.12h-.04zm2.36 0H6c.1 0 .42.07.49.1.09.02.19.1.22.15.02.04.02.12 0 .15-.02.04-.01.06.06.08.13.03.19.07.25.13.05.06.06.09.06.15-.01.06-.04.08-.11.08s-.08 0-.05.06c.03.05.06.16.06.2a.1.1 0 0 1-.02.05c-.01.03-.03.03-.11.03l-.1.01v.21a.25.25 0 0 1-.13.13c-.06.03-.16.04-.17.02-.02-.01 0-.07.02-.14a.75.75 0 0 0 .05-.31 1.2 1.2 0 0 0-.13-.38 2.66 2.66 0 0 0-.51-.7c0-.01.02-.02.07-.02zm3.5 0a.4.4 0 0 1-.06.06.42.42 0 0 1-.25.04H9.1v.05c0 .04 0 .04.03.04a.5.5 0 0 1 .2.1c.04.03.05.08.02.1 0 .01.03 0 .07-.04l.02-.01zm-5.87.02.06.01-.06.08a2.52 2.52 0 0 0-.22.29c-.18.23-.29.42-.33.57a.52.52 0 0 0-.02.23.88.88 0 0 0 .04.26v.1L3 4.6a.28.28 0 0 1-.22-.14.3.3 0 0 1-.01-.2c.02-.04 0-.05-.06-.03-.08.01-.14 0-.17-.05s-.02-.16.02-.21c.04-.06.04-.07-.02-.06a.11.11 0 0 1-.1-.06c-.05-.1.05-.25.25-.32a.42.42 0 0 1 .08-.02c.03 0 .04-.02.02-.07-.03-.07-.02-.11.05-.18.08-.09.19-.13.42-.17a4.78 4.78 0 0 0 .33-.05zm-3.5 0v.35l.05.03c.05.05.05.05.04 0-.02-.03 0-.07.05-.1.02 0 .05-.03.08-.05.05-.03.06-.03.1-.03.03.01.03 0 .02-.02v-.04c0-.01-.02-.02-.08-.01-.05 0-.08 0-.13-.03a.42.42 0 0 1-.13-.1zm6.63.1H6.7c0 .03.01.06.07.12.06.06.13.12.28.21.22.15.25.17.35.27.17.16.27.34.28.5 0 .07 0 .22-.03.31-.01.05-.01.05.01.07a.1.1 0 0 0 .04.02l.15-.07c.1-.07.15-.21.1-.32-.01-.05 0-.06.04-.05a.2.2 0 0 0 .16-.05c.03-.03.04-.05.04-.1.01-.08-.02-.14-.09-.18a.16.16 0 0 1-.04-.04l.03-.02c.08-.05.03-.2-.08-.24a.4.4 0 0 0-.07 0c-.1-.02-.14-.03-.13-.04.03-.02.01-.07-.03-.11a2.53 2.53 0 0 0-1.06-.29zm-3.94 0a3 3 0 0 0-.96.25c-.1.05-.13.08-.13.14v.04h-.06c-.14.02-.25.1-.25.19 0 .04.02.06.06.09.02.01.02.01-.01.03a.25.25 0 0 0-.07.05c-.03.03-.03.04-.04.1 0 .09.02.15.06.19.03.02.05.02.1.01.07 0 .08 0 .07.02a.38.38 0 0 0 0 .18c.02.1.12.2.22.23.07.02.07.02.1 0 .02-.02.02-.05-.01-.15-.06-.2.02-.5.18-.66.08-.08.31-.27.6-.48.13-.1.2-.16.2-.19s-.03-.05-.06-.04zm3.99 0h.07c.25.04.56.12.78.21.13.05.17.08.18.12v.05c-.05.04-.03.05.06.05.12 0 .16.02.2.06.06.06.07.16.01.17-.03 0-.05.03-.03.05l.02.01c.02 0 .08.06.1.09l.01.09c0 .05 0 .06-.02.09-.03.04-.1.06-.16.05-.07 0-.08.01-.05.06l.01.1c0 .11-.06.2-.17.26-.07.02-.1.03-.11 0v-.06c.02-.08.03-.27.03-.34a.8.8 0 0 0-.14-.3c-.07-.1-.27-.3-.4-.37a1.52 1.52 0 0 1-.42-.33c-.03-.04-.03-.06.03-.06Zm-4.01.01h.03c.03.02.02.06-.02.1l-.13.1c-.27.2-.52.4-.61.49-.1.1-.16.2-.19.36a.61.61 0 0 0 0 .3l.02.1c0 .04 0 .05-.02.05a.29.29 0 0 1-.12-.02.44.44 0 0 1-.14-.15c-.03-.06-.03-.08-.01-.24 0-.02 0-.03-.02-.03-.1.02-.11.02-.14 0-.05-.02-.07-.07-.07-.16 0-.08.02-.12.1-.15l.05-.04-.04-.03c-.13-.07-.01-.22.2-.24.08 0 .1-.02.08-.04-.03-.02-.02-.07 0-.1A.9.9 0 0 1 2 3.32c.18-.06.61-.15.75-.17zm6.38.08c-.02.01-.07.07-.07.1 0 .01.06.07.13.1.05.02.06.02.1 0 .06-.02.08-.06.05-.1-.02-.03-.18-.1-.2-.1zm.02.02.15.07c.04.03.05.07.01.1-.04.01-.08.01-.13-.02-.06-.03-.1-.06-.1-.08 0-.02.05-.07.07-.07zm-8.78.01a.33.33 0 0 0-.1.05c-.08.06-.08.06-.08.1 0 .03 0 .04.03.06l.06.02c.03 0 .1-.04.14-.07.03-.03.04-.04.04-.08 0-.03 0-.04-.03-.06-.02-.02-.04-.02-.06-.02zm.01.02c.03 0 .04 0 .05.03.02.05 0 .07-.06.12-.07.05-.1.05-.15.01-.04-.04-.04-.05.06-.11a.26.26 0 0 1 .1-.05zm9.06.1c-.1.08-.2.13-.34.2-.1.03-.19.08-.21.1-.06.03-.1.09-.1.14 0 .04.01.1.03.1V3.9l-.01-.07c0-.05 0-.06.04-.1a1 1 0 0 1 .29-.15c.1-.05.16-.07.28-.16l.02-.02zM.08 3.4v.02l.03.02c.1.08.2.14.32.18.25.1.3.14.3.23l-.01.07-.02.02c0 .02.03-.01.05-.04v-.08c0-.01 0-.03-.03-.06-.05-.05-.12-.1-.3-.16a1.03 1.03 0 0 1-.34-.2zm4.25.15a.04.04 0 0 0-.05.04c0 .02.12.14.18.18.03.01.06.05.1.11.06.09.06.1.09.22.03.15.03.25 0 .28a.2.2 0 0 1-.07.03c-.1.04-.2.14-.29.3-.04.08-.1.15-.2.26-.06.07-.16.22-.18.27a.39.39 0 0 0-.01.15c0 .1 0 .12.02.14.04.05.1.1.16.1.08 0 .1.02.1.1 0 .13.04.22.13.27.05.02.13.03.17.01.07-.03.09-.02.18.09a.2.2 0 0 0 .05.04h.08c.06 0 .12-.03.14-.08.03-.06.06-.07.1-.06h.22c.1-.03.14-.12.13-.25 0-.1 0-.1.09-.11.05 0 .08-.01.11-.04.08-.05.09-.07.09-.18 0-.17-.03-.23-.19-.4a1.14 1.14 0 0 1-.16-.19l-.11-.16a.6.6 0 0 0-.25-.24.22.22 0 0 1-.08-.05c-.03-.05 0-.2.03-.32a.83.83 0 0 1 .3-.37c.07-.05.07-.06.07-.1 0-.03 0-.03-.04-.03-.1 0-.3.22-.39.4a.6.6 0 0 0-.04.26c0 .07 0 .13-.03.14-.03.01-.04-.02-.05-.13a.8.8 0 0 0-.16-.44 1.17 1.17 0 0 0-.24-.24Zm4.54.36c-.03 0-.04.02-.06.04L8.8 4l.03.09c.03.08.03.1.03.2 0 .07 0 .13-.02.17-.03.1-.03.1.08.22.14.16.3.27.53.36v-1.1l-.13.01a.79.79 0 0 1-.35 0 .2.2 0 0 0-.1-.02zm-.18.03a.2.2 0 0 0-.13.05.67.67 0 0 0-.12.22l-.05.11a.77.77 0 0 0-.05.1l-.04.06c-.28.34-.37.62-.28.94.02.1.05.17.15.3.08.1.16.17.23.21.04.03.06.03.08 0 .03-.03.02-.08-.05-.16a.52.52 0 0 1-.12-.25c-.01-.06 0-.08.01-.17a.7.7 0 0 1 .07-.17.94.94 0 0 1 .2-.21l.03-.03c0-.02.04-.07.07-.1a.38.38 0 0 0 .06-.1l.04-.07c.02-.03.04-.06.03-.07l-.05.07c-.07.12-.16.24-.26.35a.61.61 0 0 0-.2.28.48.48 0 0 0 .1.48c.08.08.1.15.04.15a.6.6 0 0 1-.2-.14c-.16-.2-.18-.24-.22-.39-.07-.28 0-.54.22-.84.07-.08.2-.3.21-.34a.78.78 0 0 1 .1-.2.19.19 0 0 1 .17-.05c.05.01.05 0 0-.02H8.7zm-8.02.02c-.02 0-.05 0-.08.02L.4 4c-.1 0-.14 0-.21-.02a.37.37 0 0 0-.11-.01v1.1L.25 5c.13-.07.41-.31.46-.4v-.1a.77.77 0 0 1 .02-.46L.72 4C.7 3.98.69 3.97.67 3.97zm.13 0a.1.1 0 0 0-.03.01C.73 4 .75 4.01.79 4c.04-.01.1 0 .14.04.06.05.1.13.12.21l.06.14c.03.06.04.09.16.23.17.23.24.4.24.6 0 .14-.06.36-.12.47-.08.13-.26.3-.32.3-.04 0-.03-.07.01-.14a.65.65 0 0 0 .13-.25c.04-.18 0-.29-.23-.55a6.58 6.58 0 0 0 .03.07H.98c-.05 0-.06 0-.08.11a1.8 1.8 0 0 1-.05.15A20.48 20.48 0 0 1 .77 6c-.02 0-.1-.07-.14-.11C.6 5.85.6 5.83.6 5.8c.02-.12.02-.14 0-.15-.05-.01-.1 0-.15.04-.12.1-.12.29-.01.36.08.06.28.08.32.04.02-.01.02-.01.02.07l-.01.18-.02.17c-.01.24-.08.38-.29.58-.1.1-.1.1-.1.14 0 .06.02.08.07.06a.62.62 0 0 0 .17-.13l.03-.03c.01.01-.05.17-.11.3l-.1.22-.15.3a.76.76 0 0 0-.06.11s0 .03-.02.05c-.02.01-.06.08-.1.14v.06c.01-.04.03-.07.06-.11A2.41 2.41 0 0 0 .3 7.9a.64.64 0 0 0 .05-.09l.05-.1a4.98 4.98 0 0 0 .13-.3l.13-.3c0-.04-.03-.04-.07 0a.68.68 0 0 1-.2.16c-.02 0-.04-.04-.03-.07l.13-.14c.13-.12.18-.2.22-.31.04-.08.06-.34.08-.75a4.7 4.7 0 0 1 .12-.8c.01-.07.03-.1.06-.08.04.02.06.07.06.11 0 .02 0 .1-.02.16-.03.14-.06.47-.05.58.01.1.05.22.15.4.1.2.14.26.27.35.15.1.29.12.41.09a.23.23 0 0 0 .16-.14.31.31 0 0 1 .04-.06c.04-.03.1.05.1.11 0 .03-.01.07-.03.1-.02.03-.03.06-.02.07l.05.03c.08.02.16.07.26.15.06.05.08.08.11.14a.6.6 0 0 1 .07.29c0 .05-.04.14-.06.14V7.6c0-.04-.02-.09-.03-.11-.03-.1-.16-.18-.3-.2a.83.83 0 0 1-.13-.04c-.06-.03-.09-.02-.08.01.04.1-.05.28-.15.3-.03.02-.05.02-.05.01v-.12c-.01-.11-.01-.13-.04-.16A4.81 4.81 0 0 0 1.45 7a1.8 1.8 0 0 1-.4-.54c-.07-.12-.09-.1-.05.04a.7.7 0 0 0 .03.09l.03.1.06.16.05.13a2.26 2.26 0 0 0 .43.83l.32.24c.2.1.29.13.5.13.15 0 .18 0 .3-.04.3-.08.43-.15.57-.34a.7.7 0 0 0 .14-.36c.04-.25.03-.23.07-.23.07 0 .15.1.2.24.03.05.03.08.03.2 0 .1 0 .14-.03.2-.01.04-.02.07-.01.08h.07c.09.01.2.05.28.09l.13.11c.07.07.09.1.12.17.06.13.07.22.05.35-.02.1-.06.23-.08.21l-.02-.08a.64.64 0 0 0-.15-.3.68.68 0 0 0-.4-.2.65.65 0 0 0-.14-.01c-.03 0-.03.03 0 .09.03.04.03.06.03.12 0 .07 0 .08-.03.12-.06.08-.14.13-.2.13-.05 0-.06-.02-.03-.1a.37.37 0 0 0 .02-.09c0-.07-.07-.14-.17-.18-.08-.03-.09-.03-.42-.04-.42 0-.56-.03-.69-.1a1.1 1.1 0 0 0-.08-.05.97.97 0 0 1-.11-.07c-.08-.06-.1-.06-.1-.03s.22.22.34.3a5.43 5.43 0 0 1 1.06.53c.36.1.5.19.67.34.09.09.23.28.24.34.02.05-.02.08-.06.05a.28.28 0 0 1-.06-.08 1.26 1.26 0 0 0-.67-.5 24.28 24.28 0 0 1-.51-.22 8.03 8.03 0 0 1-.6-.3.74.74 0 0 1-.12-.1c-.07-.07-.11-.09-.13-.06l.04.07.06.11.06.13c.04.1.1.26.11.32l.14.3c.05.09.2.23.3.28l.1.04h.31l-.01.03c-.02.09-.1.15-.22.18a.33.33 0 0 1-.22 0 .26.26 0 0 1-.13-.09c-.05-.05-.06-.06-.07-.04l-.01.07c0 .06-.02.12-.07.19a.48.48 0 0 1-.16.16c-.09.05-.1.03-.07-.07.02-.08.04-.22.04-.3a.4.4 0 0 1 0-.1c.02-.04 0-.04-.06.02a.39.39 0 0 1-.21.1c-.14.04-.3-.02-.32-.11-.01-.03.02-.05.11-.06.1-.01.14-.03.2-.08.1-.08.15-.22.18-.42a.84.84 0 0 0-.1-.53c-.1-.22-.14-.3-.27-.48a4.88 4.88 0 0 1-.35-.53c-.05-.13-.08-.1-.06.08l.01.17c-.02.18.05.4.17.5.04.03.1.08.15.1l.08.07c0 .02-.03.04-.1.06-.1.03-.19.02-.28-.04-.05-.03-.06-.03-.1.05-.06.1-.13.15-.25.15-.08 0-.14-.02-.14-.04l.06-.06c.1-.08.12-.1.17-.18.1-.17.14-.36.14-.62a2.15 2.15 0 0 0-.1-.7.23.23 0 0 1-.02-.07 1.96 1.96 0 0 1-.1-.43C.91 6.56.9 6.52.87 6.54l-.01.16c0 .12-.01.18-.04.3a3.4 3.4 0 0 1-.07.22c-.04.12-.04.13 0 .2.06.13.08.23.1.48a1.54 1.54 0 0 1-.1.65.52.52 0 0 0-.04.31v.1c0 .02-.05.04-.06.03-.02-.01-.05-.1-.05-.15 0-.03-.03-.01-.08.05-.09.1-.19.2-.36.35l-.09.08v.02l.06-.05a2.72 2.72 0 0 0 .45-.43l.01.04.03.07c.02.04.06.05.1 0 .02-.01.02-.02.01-.07v-.15c0-.08 0-.1.03-.2a1.45 1.45 0 0 0 .11-.6c0-.27-.03-.37-.1-.54l-.05-.07.02-.05a2.99 2.99 0 0 0 .16-.7l.05.22c0 .05.03.12.04.15.03.08.11.42.13.56.02.13.01.45 0 .56a1.1 1.1 0 0 1-.16.4.62.62 0 0 1-.11.1c-.1.07-.12.1-.05.13.04.02.15.02.22 0 .05-.01.15-.1.17-.16.02-.04.04-.05.06-.03l.07.04c.09.04.29.02.33-.05.03-.03.03-.04-.08-.1a.51.51 0 0 1-.24-.24.46.46 0 0 1-.05-.19v-.15l-.02-.16c-.02-.17-.02-.18.04-.07a4.8 4.8 0 0 0 .42.64l.06.1c.06.1.17.33.2.42.04.12.05.24.03.35-.04.2-.08.3-.15.39-.06.06-.1.08-.21.09-.11.01-.14.02-.14.06 0 .05.05.1.11.13.05.02.08.03.15.03.12 0 .2-.03.27-.1.05-.04.08-.06.06-.03v.14l-.04.22c-.02.08-.02.1-.01.1.04.07.18-.02.27-.16a.32.32 0 0 0 .07-.18c0-.04.01-.07.02-.07l.04.04c.04.04.09.07.17.1h.14c.15-.02.25-.1.28-.2.02-.05 0-.07-.04-.06h-.13c-.09.01-.1.01-.17-.01a.65.65 0 0 1-.26-.19.7.7 0 0 1-.15-.21L2.2 8.9a3.66 3.66 0 0 0-.08-.22l-.06-.13a.91.91 0 0 0-.06-.1.32.32 0 0 1-.03-.06c0-.03.03 0 .08.05l.12.1a3.81 3.81 0 0 0 .64.32 8.17 8.17 0 0 1 .5.2 1.2 1.2 0 0 1 .64.48c.05.09.07.11.11.11.05 0 .07-.03.04-.09-.04-.1-.2-.31-.33-.41a1.87 1.87 0 0 0-.55-.27c-.1-.03-.2-.07-.23-.1a3.94 3.94 0 0 1-.91-.48c-.24-.16-.39-.3-.18-.16.15.1.25.14.4.17.13.03.15.03.42.03h.35c.14.04.24.1.26.17.01.03.01.05-.01.12-.04.1-.04.11.04.1.09 0 .15-.04.21-.12.06-.08.06-.15.01-.25-.04-.08-.03-.09.1-.07a.6.6 0 0 1 .38.19l.08.09c.04.06.1.2.1.24 0 .05 0 .07.03.07s.08-.12.1-.2a.6.6 0 0 0-.07-.4.5.5 0 0 0-.12-.17L4.05 8a.76.76 0 0 0-.35-.1l.03-.07a.58.58 0 0 0-.04-.45c-.05-.1-.1-.16-.15-.18-.04-.03-.07-.02-.1 0l-.01.14a.77.77 0 0 1-.08.3.75.75 0 0 1-.4.4c-.13.05-.28.1-.37.1-.1.02-.37 0-.43-.02a1.33 1.33 0 0 1-.62-.43c-.11-.17-.12-.2-.22-.42a13.95 13.95 0 0 0-.18-.43l-.05-.16a1.45 1.45 0 0 0-.05-.13l-.01-.1.17.28.25.27c.16.17.24.26.26.3.02.03.03.12.01.18-.01.09 0 .1.07.09a.31.31 0 0 0 .15-.13c.03-.06.05-.14.04-.18-.02-.03 0-.04.04-.02l.12.04c.17.03.3.12.32.22v.1c0 .09.04.09.08 0s.04-.13.01-.25a.5.5 0 0 0-.17-.3.64.64 0 0 0-.23-.14.52.52 0 0 1-.07-.03l.02-.05c.03-.07.03-.13 0-.18-.02-.05-.06-.07-.09-.06l-.05.07c-.06.11-.13.15-.28.14a.35.35 0 0 1-.17-.04.76.76 0 0 1-.25-.2A2.3 2.3 0 0 1 1 6.1c-.04-.16-.03-.44.04-.76v-.16l.03.02.07.12c.04.07.05.1.05.16 0 .1-.02.18-.07.27-.11.18-.13.21-.1.24.04.03.11 0 .23-.12a.78.78 0 0 0 .23-.41c.04-.16.05-.31.02-.42-.04-.15-.13-.3-.32-.54a.68.68 0 0 1-.11-.24.45.45 0 0 0-.12-.22c-.05-.05-.05-.05-.11-.06H.8zm7.38.26c-.03 0-.08.03-.1.05-.01.02-.01.02.02.08l.07.09.06.03c.04 0 .07-.04.07-.08a.44.44 0 0 0-.1-.17h-.02zm-6.85.01c-.03 0-.07.05-.1.12-.03.06-.03.08 0 .11.01.02.03.03.05.03.04 0 .18-.17.16-.2 0-.02-.07-.06-.1-.06zm6.84.01c.03 0 .04 0 .08.06.04.07.05.11.01.14a.1.1 0 0 1-.03.02l-.12-.13c-.03-.05-.02-.06.02-.08l.04-.01zm-6.82.01c.04.01.08.04.08.05 0 .02-.08.12-.11.15s-.06.03-.08 0c-.02-.02-.02-.06 0-.1.04-.07.08-.1.11-.1zm7.49.38-.04.04-.02.04.04.01.1.05a4.74 4.74 0 0 0 .3.23c.02.06-.05.1-.25.14-.13.03-.23.03-.3 0l-.05-.03.02.13a2.78 2.78 0 0 1 .05.32 6.04 6.04 0 0 1 .08.74l.02.24a.78.78 0 0 0 .35.56c.06.03.09.07.08.1-.01.05-.05.08-.09.08-.03 0-.1-.04-.14-.09-.07-.07-.06-.01.03.16l.06.14.06.14a9.41 9.41 0 0 1 .18.32l.12.21v-1.2a.66.66 0 0 1-.4-.37.85.85 0 0 1-.03-.27c.01-.02.03-.03.05-.02l.07.1c.06.12.1.17.2.23l.11.05V5.06c-.23-.1-.42-.22-.54-.37l-.06-.05zm-8.15.07-.05.04a.38.38 0 0 0-.06.07l.06-.05.05-.01c.04 0 .04 0 .03-.02 0-.02-.02-.03-.03-.03zm5.7 0c-.12 0-.18.03-.24.08l-.04.04h.04c.07-.01.1-.01.14.01.04.02.08.1.1.2.02.12.05.2.09.24.05.07.16.13.24.13.04 0 .08.04.08.08 0 .06-.1.25-.17.32-.1.1-.24.17-.35.18a.91.91 0 0 1-.3-.05 1.3 1.3 0 0 1-.25-.24c-.07-.09-.1-.07-.06.03.08.2.09.3.04.45-.05.15-.16.23-.36.29-.09.02-.12.02-.16-.02-.05-.04-.08-.05-.21-.1a.53.53 0 0 1-.11-.04c-.05-.03-.06-.04-.08 0-.01.01-.04.02-.04 0l-.02-.02c-.01-.02-.01-.02-.05 0a.58.58 0 0 1-.17.09.47.47 0 0 0-.17.1c-.06.04-.08.04-.16.01a.95.95 0 0 1-.31-.2c-.04-.05-.05-.1-.05-.24 0-.14-.01-.11.1-.35.01-.04 0-.08-.03-.08a.64.64 0 0 0-.13.12c-.17.2-.23.24-.4.25a.5.5 0 0 1-.34-.08.5.5 0 0 1-.17-.15c-.11-.15-.16-.28-.1-.31l.08-.02a.4.4 0 0 0 .27-.2l.05-.15.05-.15a.18.18 0 0 1 .11-.09c.08-.02.08-.02.06-.04a.28.28 0 0 0-.07-.04.69.69 0 0 0-.38 0 .55.55 0 0 0-.36.35c-.03.1-.02.16.03.23.03.04.07.15.07.19l.04.09c.05.1.02.12-.1.06a.34.34 0 0 1-.1-.08c-.03-.05-.03-.05-.03-.13.01-.08 0-.09-.02-.15a.48.48 0 0 0-.09-.1 1.03 1.03 0 0 0-.3-.17.84.84 0 0 1-.27-.2c-.02-.02-.04-.02-.05 0a.9.9 0 0 0 .02.25c.03.1.15.3.21.38.1.1.23.15.36.12.07-.01.08 0 .15.06.06.05.18.11.26.13.04.01.07.03.1.07.05.04.06.05.05.06l-.04.02-.1.02-.08.02-.1-.04c-.14-.06-.22-.06-.4.03a.68.68 0 0 0-.26.24l-.07.1c-.04.08-.08.18-.07.2.01.03.04.03.14-.02a.85.85 0 0 1 .37-.07c.11 0 .18-.02.22-.03a.34.34 0 0 0 .15-.1.53.53 0 0 0 .05-.18c0-.06.03-.08.12-.1a.42.42 0 0 1 .25.03c.1.03.3.04.4.02a.64.64 0 0 0 .21-.11c.07-.06.07-.05.05.1l-.03.18a.53.53 0 0 1-.13.26c-.08.1-.1.13-.04.13.04 0 .13-.1.17-.2l.05-.1c.02-.03.05-.01.07.03.03.06.06.09.13.15.1.07.22.19.26.25.04.06.04.1.02.13-.08.13-.1.2-.06.33.02.11.02.23 0 .3-.01.04-.02.06-.01.07.01.01.09-.01.15-.05.15-.1.23-.28.2-.44a.28.28 0 0 0-.13-.2c-.05-.03-.1-.1-.1-.13l.02-.01c.05 0 .27.2.36.33.02.04.02 0-.01-.05a.89.89 0 0 0-.14-.2 2.9 2.9 0 0 0-.3-.22c-.1-.07-.1-.1.01-.07.08.02.1.03.14.07.03.04.09.06.12.06.05 0 .15-.04.19-.08a.37.37 0 0 0 .06-.1l.04-.05.03.05c.07.14.15.18.3.17.06-.01.07-.01.11-.06a.26.26 0 0 1 .07-.05c.03-.01.06 0 .06.01 0 .02-.08.1-.16.15a.96.96 0 0 0-.3.29.42.42 0 0 0-.07.14l-.03.1c0 .03-.04.02-.06-.01l-.01-.03-.01.09c0 .09 0 .1-.06.23-.08.17-.1.22-.08.3a1.24 1.24 0 0 0 .17.37l.02.05c.01.03.04.01.05-.03 0-.01.02-.07.05-.11.09-.15.11-.2.12-.29.02-.1 0-.14-.08-.29-.05-.1-.05-.1-.05-.2 0-.14.06-.28.21-.43.08-.08.1-.1.13-.1.05 0 .05.04-.02.08a.3.3 0 0 0-.13.16c-.01.07.02.24.06.32.05.1.18.2.26.21.04 0 .04 0 .01-.08a.2.2 0 0 1 0-.13c.03-.16.04-.28.03-.33a.41.41 0 0 0-.05-.12c-.05-.08-.05-.1.02-.18l.08-.1.14-.13.14-.13c.05-.07.05-.07.06-.06.01 0 .04.04.06.09.04.1.15.22.19.22.04 0 .03-.03-.03-.1a.47.47 0 0 1-.14-.25 14.44 14.44 0 0 0-.06-.34h.04l.23.12a.6.6 0 0 0 .29 0l.18-.05c.2-.06.28-.03.28.11 0 .09.06.18.14.22.09.05.12.06.32.07.2 0 .3.02.4.07.06.03.07.03.06-.01a.62.62 0 0 0-.07-.2 1.78 1.78 0 0 0-.23-.24.42.42 0 0 0-.25-.11c-.13-.02-.18-.02-.27.02-.08.03-.1.03-.13.02a.31.31 0 0 0-.07-.01c-.08 0-.09-.03-.03-.1.05-.05.08-.06.15-.08a.49.49 0 0 0 .22-.13c.07-.07.08-.07.17-.05.1.02.22-.03.31-.13.13-.13.2-.27.24-.42.02-.1.01-.2 0-.22l-.08.05a1.8 1.8 0 0 1-.41.26.48.48 0 0 0-.2.15c-.03.05-.03.05-.03.14 0 .08 0 .1-.02.14a.28.28 0 0 1-.15.14c-.07.02-.1-.01-.06-.08l.03-.1c0-.08.02-.12.07-.16.04-.05.05-.08.04-.15a.6.6 0 0 0-.11-.27.4.4 0 0 0-.33-.2h-.14Zm-5.85.13-.02.02-.02.03.03-.03.01-.02zm4.52.13c.03 0 .1.03.14.07a.3.3 0 0 0 .08.04c.1.03.23.12.28.2a.2.2 0 0 1 .03.12c0 .08-.02.12-.08.15-.07.03-.15.02-.21-.04-.12-.11-.3-.54-.24-.54Zm-.6 0c.02 0 .02.03 0 .07l-.04.11c-.04.1-.1.27-.14.31a.22.22 0 0 1-.08.07c-.05.03-.06.03-.13 0-.09-.03-.1-.05-.1-.14 0-.07.01-.08.05-.14.04-.06.05-.06.2-.14a1.81 1.81 0 0 0 .25-.14zm4.1.04-.03.04a.35.35 0 0 0-.05.05h.03c0-.02.02-.02.03-.02.02 0 .03 0 .03-.04zm-7.63.03-.01.02c0 .04-.07.1-.14.13a.45.45 0 0 1-.25 0 2.81 2.81 0 0 0-.22-.06c-.05-.01-.08-.04-.07-.06.01-.02-.02-.02-.1.01l-.06.03v1.62l.05-.02c.1-.06.2-.16.23-.24.03-.06.04-.08.07-.08.04 0 .06.02.06.1 0 .05 0 .1-.02.14A.68.68 0 0 1 .08 7v1.24l.02-.03.06-.09a3.2 3.2 0 0 0 .3-.6 3.47 3.47 0 0 1 .12-.26l.03-.07-.08.05c-.1.07-.14.09-.18.05-.05-.05-.02-.1.11-.23.1-.1.18-.2.22-.28.03-.07.05-.2.06-.41l.02-.22v-.03H.7c-.05.01-.09 0-.14 0C.45 6.07.42 6.05.38 6c-.03-.04-.03-.05-.03-.12 0-.07 0-.08.03-.13a.4.4 0 0 1 .07-.08c.08-.07.2-.04.18.04-.02.1-.02.13.01.17.03.03.1.08.12.08v-.04a3.22 3.22 0 0 1 .12-.7c.02-.08.04-.12.07-.13.02 0 .02 0 0-.03 0-.02-.02-.02-.02-.02zm7.62.05c-.02 0-.04.02-.07.05-.03.04-.03.06 0 .2.03.15.06.38.06.48 0 .22-.06.4-.19.6-.14.23-.34.37-.53.37-.15 0-.24-.04-.28-.15-.02-.08-.03-.09-.06-.1l-.05.04c-.03.03-.03.04-.03.12 0 .07 0 .1.03.12.03.04.02.06-.02.07l-.12.05a.38.38 0 0 0-.17.11.5.5 0 0 0-.17.43c0 .11.02.16.06.17.02 0 .03 0 .04-.07a.4.4 0 0 1 .07-.19c.03-.05.1-.08.26-.13l.15-.05c.01 0 .02 0 .01.08 0 .1 0 .14.07.2.05.04.12.07.15.05.01 0 .02-.02.01-.08 0-.1.03-.18.16-.33.07-.09.32-.36.35-.37.04-.03.18-.25.21-.35l.02-.03a.3.3 0 0 1-.01.1.44.44 0 0 0-.03.09c0 .03 0 .06-.07.22a13.44 13.44 0 0 0-.18.44c-.08.21-.25.46-.43.64a.82.82 0 0 1-.38.22.93.93 0 0 1-.39.05.89.89 0 0 1-.4-.08.88.88 0 0 1-.5-.5.48.48 0 0 1-.03-.27c0-.09 0-.12-.04-.12-.06 0-.17.1-.23.23a.5.5 0 0 0-.01.43c.03.05.02.08-.02.08s-.22.06-.28.09a.63.63 0 0 0-.33.7c.03.09.05.14.08.16.03.02.04 0 .07-.1.04-.14.07-.2.14-.28a.6.6 0 0 1 .43-.2h.07c0 .01 0 .03-.02.05-.02.02-.02.05-.02.1 0 .13.03.2.14.25.07.03.12.04.15.03.02-.02.02-.03 0-.11-.04-.1-.02-.18.07-.21.17-.08.16-.08.54-.07h.34l.08-.03.16-.07.16-.06a2.21 2.21 0 0 1-.61.4l-.18.09-.5.23c-.1.04-.3.14-.38.2-.13.07-.25.17-.34.28-.12.15-.16.24-.1.28.01.02.02.02.04 0a.6.6 0 0 0 .1-.1 1.58 1.58 0 0 1 .66-.52 6.95 6.95 0 0 0 1.28-.65.82.82 0 0 0-.17.35 1.6 1.6 0 0 1-.1.32c-.12.27-.26.44-.42.52a.33.33 0 0 1-.25.03c-.08-.02-.12-.02-.14 0-.03.04.05.16.14.2.02.02.07.03.1.04.06.02.07.02.15 0 .1-.03.14-.05.2-.1.03-.03.03-.03.05.08.03.1.05.14.14.21.1.1.13.12.17.11.04 0 .04-.03 0-.14-.02-.1-.03-.3-.01-.32l.05.02c.08.07.31.1.4.06.07-.03.17-.13.16-.16 0-.02 0-.03-.05-.02a.68.68 0 0 1-.24-.04.63.63 0 0 1-.18-.21 1.18 1.18 0 0 1-.07-.27.55.55 0 0 1 0-.2c.03-.15.13-.4.21-.52l.08-.1.09-.11A.76.76 0 0 0 7.93 8l.1-.15.16-.27.08-.13-.02.14-.03.26c-.02.19-.03.24-.06.3a.52.52 0 0 1-.26.25c-.08.04-.09.06-.05.09.1.08.3.07.39-.02l.03-.03.03.05a.4.4 0 0 0 .16.16c.08.05.23.05.26 0 .03-.03.01-.05-.04-.09a.85.85 0 0 1-.2-.2 1.29 1.29 0 0 1-.12-.66 3.07 3.07 0 0 1 .2-.99l.04-.14.02-.05v.07l.06.36c0 .05.07.23.1.32.01.03.01.04-.03.12a1.24 1.24 0 0 0-.11.61c0 .2 0 .21.1.49l.07.17-.01.13v.14l.02.02c.05.03.08 0 .1-.1 0-.02 0-.04.01-.03l.09.08c.1.11.16.17.31.3.04.02.08.06.11.1v-.03a3.68 3.68 0 0 1-.52-.48c-.01 0-.02.02-.03.08 0 .03 0 .05-.02.06 0 .02-.04.02-.05 0l-.01-.17v-.15l-.06-.16a.95.95 0 0 1-.09-.35l-.01-.16c-.01-.13.05-.41.12-.56l.05-.08-.03-.05a2.48 2.48 0 0 1-.09-.28 3.07 3.07 0 0 1-.06-.47c0-.07 0-.08-.02-.08s-.03.04-.03.1c0 .02 0 .07-.04.22l-.05.15a2.82 2.82 0 0 0-.15 1.05c0 .12.05.31.09.38.04.08.16.21.23.26.05.03.06.06.03.07a.3.3 0 0 1-.11.01c-.08 0-.1 0-.15-.04a.34.34 0 0 1-.13-.16c-.01-.05-.04-.05-.08 0-.05.04-.07.05-.15.07a.2.2 0 0 1-.12 0c-.08-.03-.12-.05-.12-.07 0-.01.04-.04.1-.06a.52.52 0 0 0 .28-.37 3.96 3.96 0 0 1 .06-.5l.02-.18a6.35 6.35 0 0 1-.23.4c-.1.14-.14.2-.15.24l-.09.12a2.79 2.79 0 0 0-.17.23c-.04.05-.1.17-.13.26a.94.94 0 0 0-.08.37c0 .09.03.25.07.34.02.05.1.16.15.2.05.05.1.06.22.07.08 0 .1 0 .1.02s-.1.11-.15.13a.5.5 0 0 1-.38-.05c-.04-.03-.08-.03-.09-.01 0 .02.01.26.03.34.03.11.02.13-.04.1a.86.86 0 0 1-.2-.2.69.69 0 0 1-.05-.13.28.28 0 0 0-.02-.1l-.06.05a.48.48 0 0 1-.23.09.4.4 0 0 1-.24-.07c-.07-.04-.11-.15-.07-.17l.08.02c.12.02.19.02.29-.03.07-.03.1-.05.17-.13a1.3 1.3 0 0 0 .33-.6c.07-.28.12-.38.2-.47.05-.05.06-.06.04-.07-.02 0-.06.02-.21.14a1.05 1.05 0 0 1-.22.14l-.19.1a6.04 6.04 0 0 1-.7.31.97.97 0 0 0-.22.12 1.7 1.7 0 0 0-.48.44c-.08.08-.1.1-.13.07-.04-.05.09-.24.27-.4a1.9 1.9 0 0 1 .62-.35 9.82 9.82 0 0 0 1.11-.59 16.06 16.06 0 0 1 .28-.24l-.07.04c-.07.04-.31.16-.43.2-.04.01-.1.02-.41.02-.36 0-.36 0-.43.03-.18.06-.2.08-.2.17l.01.1.02.07c0 .03 0 .03-.05.02a.33.33 0 0 1-.18-.1c-.06-.06-.06-.2-.02-.27.02-.03.02-.03.01-.04-.01-.02-.03-.02-.11-.01a.6.6 0 0 0-.42.21.39.39 0 0 0-.11.19l-.04.14c-.02.06-.04.04-.07-.03a.62.62 0 0 1 .06-.56.75.75 0 0 1 .23-.2c.05-.03.18-.08.28-.1.05 0 .05-.03.02-.1a.54.54 0 0 1-.03-.27c.02-.14.13-.31.22-.35.06-.02.07-.01.06.1-.01.1 0 .17.05.29.1.23.27.39.52.5.14.05.22.07.38.07a1 1 0 0 0 .4-.06.85.85 0 0 0 .4-.24 2.12 2.12 0 0 0 .47-.75 6.93 6.93 0 0 0 .22-.63l.03-.11a1 1 0 0 1 .01-.1v-.03c-.02 0-.04.04-.06.12a.92.92 0 0 1-.27.43c-.2.2-.35.37-.4.46-.05.09-.05.1-.06.18 0 .1 0 .1-.03.1a.18.18 0 0 1-.13-.07c-.04-.05-.05-.08-.04-.19V7.2h-.05l-.12.05c-.14.04-.25.09-.28.14a.48.48 0 0 0-.08.2c0 .07-.02.06-.05-.01-.03-.1 0-.3.06-.4a.92.92 0 0 1 .1-.11.37.37 0 0 1 .18-.12.97.97 0 0 1 .12-.04c.04 0 .05-.03.02-.06a.25.25 0 0 1-.05-.15c0-.07.03-.12.07-.12.02 0 .02 0 .04.05.04.14.13.19.3.19.09 0 .11 0 .16-.03.19-.09.31-.2.44-.43.15-.26.17-.54.09-.94-.04-.2-.04-.23-.01-.27l.04-.03c.04 0 .08.16.11.44a11.8 11.8 0 0 0 .06.5l.05.5a.83.83 0 0 0 .28.53l.11.08c.05.02.04.1-.02.1-.03 0-.13-.08-.18-.14l-.06-.07c-.01-.02-.02-.02-.03-.01-.01.01.04.16.13.35l.06.12a7.31 7.31 0 0 0 .4.73v-.03l-.07-.1a5.45 5.45 0 0 1-.5-1.04l.07.07c.12.14.2.17.24.1.02-.05.01-.07-.07-.12a.6.6 0 0 1-.21-.21.73.73 0 0 1-.13-.34 16.33 16.33 0 0 0-.08-.83c-.02-.2-.08-.51-.1-.6-.02-.03-.03-.05-.05-.05zm-3.97.04.01.04.03.14c.02.1.02.12.01.2-.02.23-.09.4-.15.44H4.4c-.08-.04-.14-.1-.14-.16 0-.04.07-.2.14-.3a2.18 2.18 0 0 0 .16-.34c.01-.02.02-.03.03-.02zm3.86.02c-.05.04-.12.22-.12.31 0 .1.05.22.12.31.04.05.07.1.07.12.01.03.01.03.01-.04s-.02-.35-.04-.4a.84.84 0 0 1-.04-.3zm-3.46.04H5l.01.04c0 .04.2.38.25.4l.03.07c.02.06.02.07 0 .12a.17.17 0 0 1-.04.08c-.05.04-.13.04-.2 0-.11-.09-.15-.29-.12-.56.02-.1.03-.15.05-.15Zm-3.9.04v.03l-.02.1A2.5 2.5 0 0 0 1 5.9a1.38 1.38 0 0 0 .17-.3.37.37 0 0 0-.04-.29l-.06-.08zm3.64.37c.01 0 .02.03.03.1 0 .06 0 .1.03.1.01 0 .02-.03.03-.11l.01-.06c.01-.01.03.03.03.07l.02.1c.03.1.02.2-.03.24-.06.05-.15.03-.18-.04-.02-.04-.02-.04 0-.11l.04-.24c0-.03.01-.05.02-.05zm-.78.01v.03c.02.03 0 .11-.03.15l-.04.08a.46.46 0 0 0-.02.2c0 .12 0 .13.03.18.02.05.05.07.12.12a.84.84 0 0 0 .22.1c.03.02.06.01.1-.02.04-.04.1-.08.19-.1a.44.44 0 0 0 .17-.09c.03-.03.03-.03.06 0h.04c.02-.02.05-.01.1.02.02.02.1.05.15.06a.62.62 0 0 1 .21.11l.1-.01c.18-.05.3-.13.33-.24a.51.51 0 0 0 .04-.25l-.07-.23a.13.13 0 0 1-.02-.07v-.03l-.04.03a.34.34 0 0 1-.11.03l-.07.01v.08c.02.1-.02.2-.1.25a.5.5 0 0 1-.22.03.18.18 0 0 0-.08-.02l-.04.05c-.04.06-.1.1-.17.11-.07.01-.12-.01-.17-.08-.06-.09-.07-.1-.11-.07a.32.32 0 0 1-.2 0 .25.25 0 0 1-.13-.11.58.58 0 0 1-.04-.2v-.05l-.06-.01a.32.32 0 0 1-.1-.03zm5.04.01c.12 0 .2.1.2.22 0 .06-.01.1-.07.16a.39.39 0 0 1-.18.1h-.11c-.04-.01-.05-.05-.04-.1 0-.02.02-.05.06-.08.05-.05.06-.06.07-.1v-.1c0-.07.02-.1.07-.1zm.02.02h-.06c-.02.02-.02.04-.01.07a.4.4 0 0 1 0 .1c-.01.04-.02.06-.07.1-.07.07-.09.12-.06.16.02.03.06.03.15 0a.36.36 0 0 0 .19-.12c.03-.04.03-.05.02-.12 0-.1-.02-.13-.08-.17A.23.23 0 0 0 9 5.64zm-.05.02H9c.09 0 .15.06.15.17 0 .06 0 .07-.03.1-.04.07-.1.1-.2.13-.09.02-.08.02-.1 0-.03-.03-.02-.07.04-.12.07-.05.09-.1.09-.2zm-8.4 0c.05 0 .06.02.04.1v.09c0 .04.07.1.11.12.06.03.07.1.02.12-.09.03-.26-.03-.31-.1a.22.22 0 0 1-.03-.16c.03-.1.1-.17.17-.17zm4.22.83-.02.04a.36.36 0 0 1-.24.17c-.05.01-.11-.01-.17-.06-.04-.05-.1-.08-.12-.07a3.47 3.47 0 0 1 .33.26c.07.09.16.25.2.37 0 .04 0 .03.03-.07.02-.07.03-.1.08-.17.06-.08.2-.21.28-.26.01-.01 0-.01-.07-.01-.08 0-.1 0-.14-.02a.27.27 0 0 1-.13-.13zm.51.09-.02.01v.02l.02-.02v-.01zm3.33.04-.03.11-.05.18c-.03.06-.13.45-.14.54-.05.42 0 .76.13.93.07.1.1.13.17.17.06.04.08.09.04.12-.03.02-.14.04-.2.02-.09-.01-.25-.15-.25-.21 0-.02-.01-.02-.03 0-.03.04-.08.06-.15.07a.25.25 0 0 1-.15 0c-.09-.02-.14-.05-.14-.1 0-.03.01-.03.08-.07a.49.49 0 0 0 .26-.25c.03-.06.04-.09.06-.34l.02-.21.01-.05-.02.03a.95.95 0 0 1-.39.6.72.72 0 0 0-.07.09l-.05.08c-.06.08-.1.17-.15.29a.7.7 0 0 0-.07.22.52.52 0 0 0 0 .2c0 .08.05.25.07.29a.6.6 0 0 0 .17.18c.05.03.07.03.16.03h.12c.02 0 .02.07 0 .1-.03.04-.1.1-.16.12-.1.04-.3.02-.4-.05l-.04-.02v.08c0 .1.02.22.04.29v.06c-.03.06-.08.04-.2-.07-.11-.09-.15-.14-.16-.23 0-.04-.02-.07-.02-.07l-.05.03a.47.47 0 0 1-.2.07.23.23 0 0 1-.13 0c-.16-.05-.27-.17-.25-.26.01-.04.04-.05.11-.03l.13.02c.07 0 .08 0 .16-.04.06-.03.1-.05.16-.11.1-.1.15-.17.21-.32.08-.15.08-.17.14-.37l.08-.23c.05-.1.05-.1-.09 0l-.13.09a7.78 7.78 0 0 1-.94.43 1.6 1.6 0 0 0-.3.18.7.7 0 0 1-.07.03 2.2 2.2 0 0 0-.3.33c-.08.1-.1.11-.17.08-.02 0-.02 0-.02.02 0 .01-.01.05-.03.07l-.02.05.06-.03c.13-.05.23-.01.29.1.05.1.03.2-.03.25a.46.46 0 0 1-.1.04l-.07.03.07-.01h.1c.06 0 .12.06.14.11a.3.3 0 0 1 0 .2c-.04.08-.12.13-.17.12-.09-.02-.09-.02-.05 0 .05.03.1.08.13.12.02.04 0 .15-.05.2-.06.08-.1.1-.17.1-.06 0-.07-.01-.12-.05l-.07-.07c-.05-.04-.04-.02 0 .04.1.1.1.2.05.28-.03.05-.13.1-.2.1-.08 0-.12-.01-.16-.1a1.93 1.93 0 0 1-.13-.4c0-.05 0-.05.04-.08A.49.49 0 0 1 5 10.7h.08l.04.02-.02-.03c-.05-.06-.01-.16.06-.19l.03-.01c-.03 0-.05-.05-.05-.12-.01-.06 0-.07.02-.1l.03-.03h-.03c-.03 0-.05-.02-.08-.08a.13.13 0 0 1-.02-.08c0-.03 0-.03-.02-.02-.03 0-.11-.04-.14-.08-.02-.02-.02-.02-.04 0h-.18c-.02 0-.03 0-.03.02-.01.02-.1.07-.14.07-.03 0-.03 0-.03.04 0 .05-.05.12-.1.13l-.04.01.03.03c.02.02.03.03.03.09l-.01.09-.16.05c-.06.01-.01.02.05 0 .11-.01.14 0 .18.07.03.05.03.06.02.09 0 .03 0 .03.02.02.03 0 .07 0 .1.04.03.02.03.04.03.1v.08l.02-.06c.02-.06.05-.08.1-.08s.06 0 .08.03c.02.02.08.17.08.21l.02.1.03.14c0 .07 0 .07-.02.1-.03.04-.09.05-.2.05-.07 0-.1 0-.12-.02-.05-.04-.06-.07-.05-.14.02-.16.02-.16 0-.08-.04.1-.05.11-.1.13-.03.02-.05.02-.12.01-.1 0-.14-.02-.2-.08l-.04-.05-.03.05a.93.93 0 0 1-.33.38 2.36 2.36 0 0 1-.68.34l-.11.05a.47.47 0 0 0-.08.04 4.12 4.12 0 0 0-.79.42l-.05.04.06-.03c.1-.04.24-.07.35-.08h.25c.24 0 .37-.01.46-.06.1-.05.14-.11.1-.24l.01-.08c.04-.06.16-.01.25.1.08.1.1.17.06.26-.02.06-.02.06.03.06.26 0 .52-.21.57-.47.02-.07.03-.1.06-.1.06 0 .11.14.12.3 0 .12 0 .2-.06.3a.7.7 0 0 1-.5.36l-.1.02.01.04c.03.07.04.12.04.24 0 .14-.02.2-.08.32-.07.11-.19.18-.24.13-.02-.02-.02-.03-.02-.11a.6.6 0 0 0-.07-.36.6.6 0 0 0-.15-.2 1.22 1.22 0 0 0-.68-.32c-.14 0-.34.05-.48.1-.22.1-.47.32-.58.53-.02.06-.06.11-.07.13a5.52 5.52 0 0 0-.3.74l.06-.05.24-.28c.13-.12.2-.21.28-.33.04-.08.05-.1.05-.17 0-.06.01-.07.03-.08.03-.02.06-.01.12.03.07.05.1.1.11.2l.02.08h.04l.06-.03a.6.6 0 0 0 .12-.02c.06-.03.1-.04.12-.07.05-.06.1-.16.1-.21 0-.08.06-.1.1-.02a.47.47 0 0 1-.13.55.5.5 0 0 1-.2.14l-.11.05.02.05c.02.03.02.06.02.1 0 .07-.01.1-.06.15-.06.06-.11.05-.13-.04 0-.07-.02-.1-.08-.13-.1-.07-.2-.06-.36 0a.57.57 0 0 0-.26.2l-.01.02h.52c0-.06.03-.06.13-.01H3.5l-.02-.01c-.05-.05-.06-.07-.05-.1 0-.03.03-.04.07-.02.04.01.13.1.13.12v.02h.25c.14-.13.27-.28.28-.33 0-.02 0-.04-.04-.1-.05-.06-.05-.06-.05-.16l.01-.17a.67.67 0 0 0 0-.27c0-.04.02-.08.05-.08.07 0 .2.12.28.24.04.07.05.07.05.18 0 .1 0 .14-.03.22v.03l.02-.02a.69.69 0 0 0 .16-.22.33.33 0 0 0 .04-.15c0-.09 0-.1-.09-.25l-.04-.07v-.12c0-.1 0-.12.03-.2l.07-.13a.77.77 0 0 0 .05-.11c.03-.07.06-.11.1-.11.03 0 .06.04.08.11l.07.15.07.16c.02.07.02.09.01.15 0 .05-.02.11-.05.18-.08.16-.1.3-.04.4l.1.13v-.07c-.01-.14.04-.28.15-.38.08-.07.19-.13.23-.12.04 0 .04.03.02.1a.53.53 0 0 0 0 .26l.02.14a.3.3 0 0 1-.07.2c-.02.03-.03.05-.02.07 0 .05.09.14.24.27l.07.07h.19c.03-.06.07-.1.1-.13.06-.04.1-.05.13-.03.02.03.01.05-.03.1l-.05.06h1.6l.05-.03a.12.12 0 0 1 .1-.02c.02 0 .02.02.02.05h.5a.69.69 0 0 0-.43-.28.32.32 0 0 0-.2.03c-.05.02-.07.05-.1.14-.02.07-.02.07-.06.08-.04 0-.08-.03-.1-.09a.39.39 0 0 1 .01-.2c.02-.04.02-.04 0-.05l-.03-.01c-.07 0-.28-.16-.34-.26a.92.92 0 0 1-.09-.27c-.01-.07 0-.08.02-.17.04-.13.08-.16.12-.11.02.01.02.02 0 .06-.02.11 0 .17.1.25.05.04.2.1.29.11h.04v-.03a.4.4 0 0 1 .07-.18c.05-.07.2-.12.22-.08v.1c0 .08.01.1.04.15.03.07.05.08.17.22a3.58 3.58 0 0 1 .46.55l-.01-.06a.32.32 0 0 1-.03-.08.38.38 0 0 0-.03-.08.22.22 0 0 1-.02-.07l-.04-.1-.12-.28a3.53 3.53 0 0 0-.29-.5.92.92 0 0 0-.2-.2 1.38 1.38 0 0 0-.2-.13 1.6 1.6 0 0 0-.4-.09.91.91 0 0 0-.56.12.74.74 0 0 0-.33.28c-.1.14-.1.15-.12.27a.59.59 0 0 0-.02.2v.11l-.04.02c-.04 0-.1-.05-.15-.12l-.08-.09a.6.6 0 0 1-.07-.25.67.67 0 0 1 .01-.24l.01-.04-.08-.03a.83.83 0 0 1-.38-.24.45.45 0 0 1-.11-.23c-.04-.2-.02-.43.06-.48l.05.02.02.05.04.1c.05.15.14.25.3.33.07.03.2.07.26.07.01 0 .01-.03 0-.07a.25.25 0 0 1-.02-.19c.04-.09.14-.17.25-.2.09-.01.12.04.08.1a.15.15 0 0 0-.02.1c0 .04 0 .05.05.1.03.04.06.06.09.07l.39.02a1.74 1.74 0 0 1 .66.1c.07.02.06 0-.03-.04a1.23 1.23 0 0 1-.12-.08 1 1 0 0 0-.14-.09 1.34 1.34 0 0 1-.2-.11 1.1 1.1 0 0 0-.15-.07 1.49 1.49 0 0 1-.14-.06.81.81 0 0 0-.12-.05 3.97 3.97 0 0 1-.65-.3 1.4 1.4 0 0 1-.36-.35c-.05-.08-.07-.13-.07-.16s0-.04.04-.05c.05-.03.1 0 .15.08a1.05 1.05 0 0 0 .4.36c.13.09.17.1.29.15a8.39 8.39 0 0 1 1.15.57s0-.03-.02-.05a4.27 4.27 0 0 1-.2-.53.85.85 0 0 0-.13-.23c-.12-.16-.23-.25-.35-.28-.08-.02-.1-.02-.27.01-.04.01-.06-.02-.06-.07.03-.18.22-.28.43-.25.07.02.16.05.19.09.02.03.03.02.04-.06.03-.1.05-.15.14-.24.09-.08.15-.11.2-.11.06 0 .06.03.02.15a.65.65 0 0 0-.04.23v.12l.04-.04c.06-.04.16-.07.28-.07.09 0 .1 0 .16.03.1.05.19.17.14.2l-.14.02c-.15.01-.21.03-.26.1a.71.71 0 0 0-.12.3c-.04.22-.04.22-.03.28.03.12.12.32.2.45.34.51.38.58.49.77.05.09.06.1.05.03a6.53 6.53 0 0 1-.04-.47.46.46 0 0 0-.25-.29.32.32 0 0 1-.09-.06l-.02-.03.02-.03c.04-.05.07-.06.16-.07h.15l.09.04c.02.03.03.02.07-.04.05-.07.08-.1.16-.13.1-.04.26-.03.28.03.01.02 0 .06-.04.08-.1.07-.2.2-.26.3a1.56 1.56 0 0 0-.06.85l.08.33.08.28.04.19.02-.13c.02-.1.04-.19.08-.3l.07-.22.01-.06-.04-.09a1.07 1.07 0 0 1-.06-.16 2.1 2.1 0 0 1-.05-.38c0-.1.03-.35.06-.42.06-.15.11-.32.11-.37 0-.03 0-.08-.02-.11v-.1c.03-.03.06-.04.1-.03.03.01.04.03.05.1v.06l.05-.06a120.87 120.87 0 0 0 .46-.43l.02-.02v-.7h-.19a.6.6 0 0 1-.25-.1c-.02-.02-.03-.01-.02.04 0 .07.04.12.11.16.07.03.11.03.21 0 .07 0 .07 0 .1.02v.1c0 .09-.01.13-.06.18a.42.42 0 0 1-.2.1c-.05 0-.17-.04-.24-.1a.18.18 0 0 0-.05-.03v.1c.02.14-.02.3-.08.42-.07.15-.3.3-.36.26-.01-.02-.02-.06 0-.07.02-.01.04-.12.05-.23 0-.09 0-.14-.02-.23a.98.98 0 0 1 0-.23l-.01-.13a.6.6 0 0 0-.14-.01c-.12 0-.13 0-.2-.04a.37.37 0 0 1-.16-.13c-.04-.06-.05-.15-.03-.19.01-.03.03-.03.13.01.06.02.09.03.21.03.2 0 .27-.03.39-.12a2.56 2.56 0 0 1 .14-.12c0-.01-.14-.15-.19-.18a.66.66 0 0 0-.43-.08l-.14.05a.3.3 0 0 1-.1.04c-.03-.01-.05-.06-.03-.12 0-.05.02-.07.07-.12.13-.12.37-.2.47-.14l.04.01v-.06a1.06 1.06 0 0 1-.02-.33.78.78 0 0 0-.03-.45c-.02-.03-.02-.04-.02-.07.01-.03.02-.03.07-.02.07 0 .17.05.23.12.12.12.19.36.17.58 0 .09 0 .09.02.08a.1.1 0 0 0 .03-.04c.02-.03.14-.08.21-.09.06 0 .07 0 .14.03.1.06.16.14.15.27 0 .07-.02.11-.05.11a.2.2 0 0 1-.07-.02c-.06-.04-.12-.04-.19 0A.22.22 0 0 0 9 10c-.03.05-.04.1-.03.1 0 .01.1-.03.12-.05a.7.7 0 0 1 .29-.05h.06v-.7a3.48 3.48 0 0 1-.4-.35l-.1-.12-.02.05c0 .03-.02.06-.03.07-.02.02-.06.02-.1-.01-.02-.03-.02-.03-.01-.17 0-.16 0-.13-.1-.41a.94.94 0 0 1-.06-.41c0-.25.02-.37.12-.58.04-.08.04-.09 0-.2a1.57 1.57 0 0 1-.12-.49zM.9 6.7v.08c-.02.09-.07.3-.12.44l-.04.11.03.05.1.27c.01.11.03.4.01.5a1.8 1.8 0 0 1-.11.44c0 .02 0 .01.07-.04A.4.4 0 0 0 1 8.4c.1-.18.13-.36.13-.7a2.28 2.28 0 0 0-.08-.5l-.07-.27c-.02-.04-.04-.1-.04-.15L.92 6.7zm4.26.11-.01.01v.01h.02V6.8zm3.7.67c-.04 0-.05.02-.08.17-.02.1-.02.15-.02.31 0 .17 0 .21.02.29a1.34 1.34 0 0 0 .65.81v-.02a1.18 1.18 0 0 1-.45-.4 1.59 1.59 0 0 1-.18-.4.83.83 0 0 1-.03-.28c0-.12 0-.19.02-.27.04-.2.06-.24.1-.17a2.71 2.71 0 0 0 .12.27c.04.1.07.15.14.26l.06.1.22.33v-.03l-.16-.24a4.75 4.75 0 0 1-.41-.74Zm0 .03c-.01 0-.02.01-.02.03-.04.17-.06.29-.06.43 0 .11.02.26.05.34a1.3 1.3 0 0 0 .6.7v.01-.52A8.62 8.62 0 0 1 9 7.8a2.28 2.28 0 0 0-.13-.3zm-8.23 0v.02a5.32 5.32 0 0 1-.56.97v.03a6.03 6.03 0 0 0 .58-1c.03 0 .09.28.09.42 0 .18-.04.37-.11.52-.12.27-.3.46-.56.6v.02a1.16 1.16 0 0 0 .46-.4c.14-.2.2-.38.22-.65a.79.79 0 0 0-.02-.3 1.18 1.18 0 0 0-.04-.18c-.02-.03-.04-.05-.06-.04zm2.07.02.01.02c0 .01-.02 0-.02-.02zm-2.05.05c-.02 0-.04.06-.09.15a3.36 3.36 0 0 1-.24.44 4.4 4.4 0 0 1-.25.39v.5L.3 8.9c.12-.1.18-.16.26-.29.1-.19.16-.34.17-.6A1 1 0 0 0 .7 7.7c-.02-.08-.02-.12-.04-.12zm.63.02v.21c0 .21.01.23.06.34.04.07.05.1.11.14.04.04.1.08.15.1.07.05.08.06.08.08 0 .07-.1.12-.23.12a.32.32 0 0 1-.18-.05c-.04-.03-.05-.03-.06 0a.48.48 0 0 1-.13.15l-.14.04c-.09.01-.1 0-.2-.04v.15c.02.08.02.08 0 .12C.73 9 .7 9.02.65 9L.6 8.93l-.03-.06-.04.05a2.7 2.7 0 0 1-.45.44v.7c.15 0 .3 0 .39.06.06.03.07.01.05-.06-.02-.06-.07-.1-.16-.12-.05-.01-.06-.01-.12.02s-.06.03-.09 0C.11 9.95.1 9.87.12 9.8a.28.28 0 0 1 .14-.2c.06-.02.07-.02.15-.02.1.01.14.03.21.1.04.03.04.03.04 0l-.01-.1a.82.82 0 0 1 .1-.44l.1-.12c.07-.08.15-.12.23-.12.05 0 .06.03.02.11a.63.63 0 0 0-.05.27l.02.13c.02.1.02.24 0 .35-.01.09-.01.09.05.06.06-.02.17 0 .29.05.11.06.15.1.2.2.03.07.04.09.02.12s-.08.03-.13 0a.55.55 0 0 0-.45-.03c-.08.04-.19.1-.25.16l-.05.05.03.03c.1.11.22.19.33.21.09.02.25 0 .4-.06.04-.01.06-.01.07 0 .05.04.02.16-.07.24-.1.1-.23.14-.37.14h-.09l.01.05c.02.07 0 .35 0 .45-.03.14 0 .26.06.35.04.04.04.05 0 .07-.03.02-.02.02-.2-.04-.1-.03-.1-.04-.14-.12a1.15 1.15 0 0 0-.06-.1.71.71 0 0 1-.09-.33.8.8 0 0 0-.01-.14l-.06.02a.32.32 0 0 1-.23.05.3.3 0 0 1-.2-.18.44.44 0 0 1-.02-.21c.02-.04.06-.04.13-.01.1.05.2.02.25-.08.03-.06.04-.17.02-.17H.5c0 .05-.26.15-.37.15H.08v.71l.16.15a3.4 3.4 0 0 1 .34.32l.01-.04.03-.06c.03-.04.1-.01.12.05v.09c-.02.06-.02.15 0 .15l.04-.02a.32.32 0 0 1 .26.01c.06.03.15.13.16.17l.02.04.03-.03c.05-.04.07-.05.16-.06.13-.01.24.03.24.09 0 .02-.08.1-.14.14-.15.1-.22.26-.24.57a5.94 5.94 0 0 0 0 .18l.1-.19.32-.47c.12-.17.15-.21.2-.31.08-.18.11-.3.1-.46a.8.8 0 0 0-.08-.35c-.06-.1-.08-.12-.17-.16a.28.28 0 0 0-.15-.02l-.1-.01c-.05-.05.03-.15.16-.21.07-.04.08-.04.16-.03a.5.5 0 0 1 .22.06c.01.01.03.02.04.01.01-.01 0-.2-.04-.3-.02-.08-.02-.1 0-.12.03-.07.12-.04.23.06.06.06.1.13.14.23 0 .05.02.08.03.09l.05-.03c.09-.08.22-.1.37-.05.1.04.14.06.18.14.06.12 0 .18-.12.13-.06-.02-.1-.02-.17 0a.81.81 0 0 0-.27.18l-.07.08a1.43 1.43 0 0 0-.21.44.99.99 0 0 0-.04.13.96.96 0 0 1-.07.2c-.03.06-.03.07 0 .04a4.95 4.95 0 0 1 .88-.44l.23-.1a2.09 2.09 0 0 0 .52-.29.9.9 0 0 0 .19-.23.69.69 0 0 1 .07-.1h.11c.03.03.04.03.04 0 0-.02.04-.06.08-.1l.03-.04a.34.34 0 0 1-.2.09c-.11 0-.18-.07-.23-.21v-.1c.03-.05.06-.07.14-.1.1-.04.1-.05-.01-.03h-.1c-.04-.02-.1-.07-.1-.1s0-.03-.08 0c-.1.03-.11.04-.16.08-.1.1-.05.35.07.42.05.03.06.05.05.08 0 .03-.04.05-.11.05-.1.01-.16 0-.21-.05a.38.38 0 0 1-.06-.48c.02-.03.01-.03-.12-.03s-.14 0-.2-.03a.98.98 0 0 0-.14-.04c-.12-.03-.18-.07-.17-.1 0-.04.24-.15.37-.17.07-.02.2 0 .29.02.02 0 .02 0-.01-.04a.41.41 0 0 1-.07-.38c.03-.08.06-.11.12-.15.05-.03.07-.03.15-.03.08 0 .09 0 .1.02.03.04.03.09 0 .13l-.05.1c-.03.04-.03.06-.04.13 0 .08 0 .1.02.15.03.05.08.11.11.11l.08.03.05.02.02-.06c.02-.05.03-.06.07-.08l.05-.03.1.02.1.01-.05-.01a.6.6 0 0 1-.11-.04c-.05-.03-.07-.04-.09-.08-.03-.06-.02-.1.02-.2.03-.05.04-.06.09-.08.06-.03.16-.04.2-.02l.05.04.03.02-.03-.05a.3.3 0 0 1-.04-.08c-.01-.03-.01-.03-.04-.02-.03.02-.08.01-.1-.02a1.15 1.15 0 0 0-.72-.57 4.8 4.8 0 0 1-.5-.21 6.46 6.46 0 0 1-.74-.41c-.04-.05-.04-.05.02.06l.04.09.03.06.04.1a3 3 0 0 1 .08.25l.07.17c.06.12.08.14.17.23.14.14.2.17.35.18h.15c.04-.02.05-.02.07 0 .03.01.03.02.02.06 0 .05-.03.09-.07.13a.49.49 0 0 1-.25.1.39.39 0 0 1-.28-.09l-.04-.04-.01.06a.46.46 0 0 1-.15.26c-.08.08-.15.11-.2.1-.04 0-.04-.04-.02-.13a.8.8 0 0 0 .04-.29v-.04l-.05.03c-.18.12-.47.09-.53-.06-.03-.07.02-.1.14-.11.1-.01.15-.04.2-.1.08-.08.13-.2.15-.39.03-.18 0-.33-.14-.6a2.15 2.15 0 0 0-.24-.38 10.53 10.53 0 0 0-.33-.5zM4.5 8.8l.01.01v.01H4.5l.01-.02zm3.93.1c-.04 0-.04.03-.01.09.04.09.05.21.04.34a2 2 0 0 0 .01.51h-.04c-.06-.04-.12-.04-.2-.02-.1.02-.2.07-.26.13-.07.05-.1.1-.1.16 0 .07.03.07.11.03.1-.04.17-.06.28-.06.08 0 .12 0 .17.02l.08.02c.03 0 .15.1.2.16.08.1.1.11.06.11l-.08.05a.53.53 0 0 1-.33.17.78.78 0 0 1-.37-.03c-.1-.04-.11-.03-.1.07.03.1.13.2.26.24.06.02.1.02.18.02h.1v.18c0 .12.01.2.03.27v.19a.72.72 0 0 1-.05.21v.04c.03.04.1 0 .23-.1a.5.5 0 0 0 .16-.27.73.73 0 0 0 .03-.25V11l.06.04c.08.07.16.1.24.1.07-.01.14-.05.2-.1.05-.06.08-.2.04-.25-.02-.02-.02-.02-.08 0-.14.02-.24 0-.3-.1a.16.16 0 0 1-.04-.11c0-.06 0-.06.02-.05l.03.02.07.04a.75.75 0 0 0 .36.06v-.02h-.12a.95.95 0 0 0-.1-.01.45.45 0 0 1-.23-.1.43.43 0 0 0-.07-.06l-.13-.13c-.14-.16-.18-.2-.3-.24a.64.64 0 0 0-.5.02.43.43 0 0 1-.07.04c-.02 0-.02-.05 0-.1.05-.16.36-.29.5-.21.06.03.09.02.08-.02-.04-.2-.04-.28-.01-.5a.52.52 0 0 0 0-.2.65.65 0 0 0-.05-.15c-.03-.06-.02-.07.03-.07.14.03.24.13.31.32.04.1.06.26.04.46v.08c.02 0 .04-.02.05-.04.07-.1.15-.15.27-.15.07 0 .08 0 .13.03a.2.2 0 0 1 .1.14c.02.05.01.16 0 .17l-.07-.03c-.05-.02-.07-.02-.12-.02a.26.26 0 0 0-.17.09c-.08.09-.1.17-.06.29.03.08.1.19.15.23.05.04.16.06.29.06h.05v-.01h-.11c-.18-.02-.25-.07-.33-.2-.03-.08-.04-.1 0-.08.02.03.04.03.08 0a.8.8 0 0 1 .3-.07h.06v-.01H9.4a.7.7 0 0 0-.3.06c-.04.03-.07.03-.09 0-.02-.04-.02-.06 0-.08.09-.08.3-.12.44-.1v-.02h-.02a.66.66 0 0 0-.35.06c-.06.03-.09.05-.1.07 0 .03-.01.03-.02.01 0-.02 0-.08.02-.13.07-.14.21-.19.33-.12.05.02.06.02.07.01.03-.02.03-.13.02-.19a.24.24 0 0 0-.12-.15c-.05-.03-.07-.03-.13-.03a.3.3 0 0 0-.25.12c-.05.06-.07.08-.06.04.01-.05.02-.23 0-.32-.03-.27-.16-.46-.35-.5h-.04zm-7.38.01a.3.3 0 0 0-.07.02c-.06.02-.07.04-.15.12-.1.1-.13.18-.16.33a.52.52 0 0 0-.01.21c.02.18.02.17-.05.11a.33.33 0 0 0-.2-.1c-.12-.02-.21.04-.27.15-.03.06-.04.14 0 .19.01.03.03.03.08 0 .07-.03.16-.02.24.03.04.03.07.09.07.15 0 .04 0 .04-.08 0a.59.59 0 0 0-.27-.05h-.1v.03h.05c.16-.01.22 0 .33.05l.08.03v-.06c0-.09-.03-.14-.1-.18-.09-.04-.15-.05-.2-.02-.08.03-.1.03-.1-.03-.02-.1.03-.2.13-.25.04-.03.05-.03.13-.02.1 0 .15.03.22.1.02.03.05.05.06.05.02 0 .02-.02 0-.16a.47.47 0 0 1 0-.19.61.61 0 0 1 .17-.37.34.34 0 0 1 .12-.1c.06-.02.1-.03.11 0 0 0 0 .03-.03.07a.52.52 0 0 0-.03.33c.03.15.03.27 0 .4-.02.13-.01.14.08.11.1-.03.17-.02.3.04.1.05.12.08.16.17.05.1.04.13-.03.1-.2-.09-.32-.1-.46-.05a.95.95 0 0 0-.29.16.25.25 0 0 1-.06.05c-.02 0-.03.01-.03.02s.1.13.15.17c.06.05.16.1.24.12a.6.6 0 0 0 .32-.02c.15-.04.15-.04.16-.02.01.02-.02.1-.05.14a.54.54 0 0 1-.39.16c-.1 0-.13.01-.1.06.02.06.02.26 0 .39l-.02.2c0 .07 0 .1.05.18l.04.1a.93.93 0 0 1-.25-.09.32.32 0 0 1-.05-.07 1.74 1.74 0 0 0-.06-.11.7.7 0 0 1-.08-.31.96.96 0 0 0-.01-.14c-.01-.04-.04-.03-.09 0a.3.3 0 0 1-.18.05c-.07 0-.1-.01-.16-.07-.06-.06-.1-.2-.07-.27 0-.02.04-.02.1 0 .03.03.05.03.1.02.17-.02.25-.19.18-.39a.34.34 0 0 0-.23-.23.4.4 0 0 0-.22-.02v.01c.07-.01.12 0 .24.03.09.03.17.12.2.21.03.14.03.21-.03.3-.03.05-.07.07-.15.07l-.1-.01c-.06-.03-.1-.03-.1 0-.06.1.02.3.14.35.08.03.23.02.29-.04.04-.03.06-.02.07.03a1.03 1.03 0 0 0 .15.53c.05.09.04.08.19.14.14.05.18.03.12-.04a.45.45 0 0 1-.06-.37c.03-.15.03-.36 0-.46 0-.03 0-.03.1-.03.07 0 .12-.01.17-.03a.49.49 0 0 0 .26-.2c.02-.04.02-.12 0-.13-.01 0-.06 0-.1.02-.05.02-.12.04-.17.04a.53.53 0 0 1-.49-.16.6.6 0 0 1-.08-.1c0-.01.08-.08.17-.13a.58.58 0 0 1 .34-.12c.1 0 .14.01.25.06a.3.3 0 0 0 .09.02c.03 0 .03 0 .04-.03 0-.04-.05-.14-.1-.2a.48.48 0 0 0-.1-.07c-.12-.06-.22-.07-.3-.05l-.07.01v-.14a.62.62 0 0 0 0-.26 1.66 1.66 0 0 1-.01-.23c0-.1 0-.11.03-.18.05-.1.05-.13 0-.13zm3.6.44-.04.05-.05.04.01.1.01.12c.01.04 0 .03-.04-.08a.31.31 0 0 0-.07-.1c-.03-.04-.04-.04-.1-.03-.1 0-.12.01-.17.06-.05.04-.07.08-.07.14 0 .06.04.11.13.2.08.09.1.11.02.05a.94.94 0 0 0-.22-.14c-.1-.02-.19.03-.23.12-.03.06-.04.11-.01.16.02.05.08.08.22.12l.18.05.12.02c.05 0 .05 0 .09-.05.04-.06.04-.09-.01-.15-.05-.05-.04-.06 0-.02.06.05.08.05.12.03.06-.02.1-.05.1-.08s0-.03.03 0c.03.02.13.02.16 0l.04-.06a.3.3 0 0 1 .02-.05v.04c0 .06.01.1.08.13.03.02.05.03.07.02a1.14 1.14 0 0 0 .28-.26c.1-.1.09-.22-.01-.28a.59.59 0 0 0-.1-.05l-.08-.02-.04.02a.2.2 0 0 0-.11.13c-.02.06-.03.04-.02-.03 0-.06 0-.08-.02-.12a.16.16 0 0 0-.05-.05.52.52 0 0 0-.13-.02zm.09.02c.1 0 .16.02.18.07.03.04.02.15-.02.28l-.04.16-.02.07h-.08c-.1 0-.1 0-.14-.21-.05-.3-.05-.3.01-.34.04-.03.06-.03.1-.03Zm.4.09c.04 0 .08.01.13.04.08.03.1.07.1.16-.01.05-.01.06-.08.13a2.03 2.03 0 0 1-.27.24.18.18 0 0 1-.07-.04l-.04-.03V9.9c0-.09.08-.31.11-.37.03-.05.07-.08.13-.07zm-.75 0c.06 0 .1.04.12.1.05.1.1.32.1.38 0 .05 0 .05-.05.07-.06.04-.07.03-.12-.01a2.17 2.17 0 0 1-.28-.3c-.04-.08.02-.19.11-.22a.3.3 0 0 1 .12-.02zm1.7.15.08.02c.1.05.18.16.18.28 0 .1-.02.2-.07.25l-.03.05h.04a.93.93 0 0 1 .43.04l.15.04c.1.02.14.04.14.08s-.02.05-.11.06a.92.92 0 0 0-.16.05.76.76 0 0 1-.36.06h-.13c-.02-.01-.02-.01.01.04.06.08.08.16.07.26-.01.14-.05.22-.15.27a.32.32 0 0 1-.2 0c-.05-.01-.04-.06.02-.2.07-.14.08-.18.04-.28-.03-.09-.04-.1-.12-.15-.07-.03-.09-.05-.09-.11 0-.05.03-.1.1-.13s.1-.07.13-.16v-.13c-.03-.09-.04-.1-.1-.18-.05-.05-.06-.06-.06-.09.02-.05.1-.07.2-.07zm-.05.02c-.06 0-.11.03-.12.06 0 .01.02.05.06.08.05.06.06.08.09.16.02.08.02.1.01.14a.25.25 0 0 1-.14.19c-.08.04-.09.06-.09.11 0 .06 0 .07.07.1.08.03.1.07.14.16.03.1.02.16-.04.3-.06.1-.07.13-.04.16.03.04.16.02.22-.02.07-.03.09-.07.1-.17.03-.15 0-.27-.08-.35l-.05-.05.04.01c.23.03.26.03.36 0 .06 0 .14-.03.18-.04l.14-.05c.08-.01.1-.03.1-.05 0-.03-.02-.04-.14-.07a3.6 3.6 0 0 1-.2-.06.57.57 0 0 0-.24-.03c-.11 0-.14 0-.2.03s-.07.02-.02 0c.09-.07.13-.15.14-.29 0-.08 0-.1-.02-.14-.03-.09-.07-.12-.14-.16-.06-.03-.08-.03-.13-.02Zm.03.02c.03 0 .07 0 .1.02.1.04.14.13.15.26 0 .14-.04.22-.14.28-.06.05-.08.06-.06.08l.08-.02c.03-.02.1-.03.15-.04.1-.02.17 0 .32.04l.18.05c.07.01.1.03.12.04v.02l-.08.03a.8.8 0 0 0-.15.04.74.74 0 0 1-.35.06 1.4 1.4 0 0 1-.18-.02.24.24 0 0 0-.08-.01l.05.06c.1.09.12.14.12.28 0 .08 0 .1-.03.15-.02.05-.04.07-.1.1a.29.29 0 0 1-.16.02c-.04-.01-.03-.06.03-.17.04-.1.05-.12.05-.18a.41.41 0 0 0-.06-.22.29.29 0 0 0-.08-.06c-.08-.04-.08-.04-.08-.08 0-.05.01-.07.07-.1.08-.04.1-.06.12-.12.05-.08.05-.12.03-.21a.4.4 0 0 0-.11-.2c-.05-.05-.05-.07 0-.09a.22.22 0 0 1 .1-.01Zm-2.65 0c-.08 0-.1 0-.14.03-.05.04-.09.1-.1.19-.03.11.01.25.1.35.06.06.06.06-.03.02a.66.66 0 0 0-.15-.02c-.13 0-.2.01-.37.08-.1.05-.12.06-.12.08 0 .03.07.07.14.08l.1.03c.12.04.13.05.24.05h.15l.06-.01-.04.04a.4.4 0 0 0-.06.07c-.08.15 0 .38.15.45.04.02.16.02.2 0 .05-.03.05-.05 0-.1a.37.37 0 0 1-.13-.22c-.03-.14.04-.25.19-.3a.3.3 0 0 0 .09-.04l.02-.02v.03c.02.05.06.1.1.12.04.01.13 0 .22-.02l.25-.06c.07-.01.09-.03.09-.1s-.02-.1-.05-.1c-.05-.03-.43-.1-.47-.1-.03 0-.09.02-.1.05l-.02.07-.02.06-.02-.02a.41.41 0 0 0-.1-.05.21.21 0 0 1-.1-.06c-.05-.06-.06-.1-.06-.2s.01-.14.07-.21a.3.3 0 0 0 .04-.08l-.01-.06c-.02-.03-.03-.03-.12-.03zm.05.01a.1.1 0 0 1 .05.02c.03.02.01.08-.04.14a.3.3 0 0 0-.06.22c0 .07 0 .09.03.15.04.07.04.07.19.14.04.02.05.03.05.05 0 .04-.02.06-.08.08-.1.02-.16.07-.19.14-.02.05-.03.07-.02.14 0 .13.07.24.15.28l.03.02-.02.02c-.02.02-.04.02-.1.02h-.1c-.05-.02-.1-.08-.13-.14a.25.25 0 0 1-.04-.16c0-.12.04-.2.14-.25l.05-.04c0-.02-.01-.02-.09 0a.47.47 0 0 1-.19.03c-.12 0-.13 0-.22-.04a.86.86 0 0 0-.14-.04c-.06-.01-.13-.05-.12-.06.02-.02.2-.1.3-.12a.46.46 0 0 1 .18-.02.7.7 0 0 1 .25.06c.03.02.06.02.06 0l-.08-.06A.39.39 0 0 1 3.2 10a.22.22 0 0 1 0-.14c.02-.08.04-.11.08-.15a.3.3 0 0 1 .2-.05zm2.04.1c-.08 0-.1.02-.2.09-.22.17-.27.22-.24.28l.04.07c.03.04.05.04.18 0a.88.88 0 0 1 .13-.02l.1-.03c.16-.05.2-.08.19-.17a.27.27 0 0 0-.1-.2l-.1-.02zM4 9.77c.05 0 .1.01.16.05.09.06.28.24.29.27 0 .03-.02.08-.05.1a.09.09 0 0 1-.08.02 8 8 0 0 0-.36-.1c-.14-.04-.17-.14-.08-.26A.17.17 0 0 1 4 9.77zm1.54 0c.06 0 .1.04.14.11.04.1.03.16-.03.2a1.72 1.72 0 0 1-.48.13c-.05 0-.1-.08-.08-.13.01-.04.25-.24.33-.28a.22.22 0 0 1 .12-.03zm-.77.28c.1 0 .22.04.26.1.06.08.07.13.07.23 0 .09 0 .1-.02.14-.04.08-.11.13-.23.16-.08.02-.08.02-.17 0-.09-.02-.13-.06-.17-.13-.03-.06-.03-.06-.03-.2 0-.11 0-.13.03-.17.04-.08.1-.11.22-.13a.3.3 0 0 1 .04 0zm.04.03c-.1-.02-.22.03-.27.1-.02.03-.03.06-.03.1v.1c-.02.04 0 .14.04.19a.2.2 0 0 0 .14.08c.07.02.1.02.17 0a.3.3 0 0 0 .19-.13c.02-.03.02-.05.02-.14 0-.18-.08-.28-.26-.3Zm.82.1c-.12 0-.4.06-.45.1-.03.01-.03.02-.02.1l.02.08c.01.02.09.04.28.08.21.05.23.05.29 0 .12-.1.08-.33-.08-.36h-.04zm3.75 0c-.08 0-.36.1-.36.12l.04.08c.06.1.13.13.31.13h.07v-.31l-.06-.01zm-5.3 0 .01.02h.04c.01 0 0 0 0 0l-.04-.01zm-.18.02.3.06c.17.03.16.03.16.11 0 .07 0 .07-.02.08a1.75 1.75 0 0 0-.2.05l-.14.03c-.11.03-.2.02-.23-.04-.03-.07-.01-.22.03-.27.02-.02.04-.03.1-.02zm1.71 0a.2.2 0 0 1 .1.02c.07.03.09.06.09.16 0 .09-.02.12-.07.16a.17.17 0 0 1-.05.02c-.04.01-.42-.07-.48-.1-.02-.01-.02-.02-.03-.08v-.08c.01-.02.08-.04.25-.07l.2-.03zm-5.42.03h-.1v.28c.12 0 .17-.02.26-.06.09-.03.1-.04.13 0H.5c0-.03-.03-.08-.09-.13a.28.28 0 0 0-.13-.07.5.5 0 0 0-.1-.02zm8.6.18c.02 0 .07.04.12.1.02.02.03.03.03.09 0 .08.05.15.13.2.04.02.06.02.14.02h.13l.03-.01v.05c.01.07 0 .13-.05.18a.36.36 0 0 1-.17.09c-.05.01-.17-.03-.22-.08-.06-.05-.1-.07-.1-.05l-.01.18c0 .18-.02.26-.08.38a.67.67 0 0 1-.2.2.16.16 0 0 1-.08.03c-.04 0-.04 0 0-.09a.87.87 0 0 0 .02-.35l-.01-.25c0-.13 0-.2-.02-.2 0-.02-.03-.02-.11-.01-.08 0-.12 0-.17-.02-.13-.03-.23-.13-.24-.23-.01-.07 0-.08.08-.04.06.02.1.03.2.03.2.01.35-.03.48-.16a.28.28 0 0 1 .1-.06zm-8.34.03-.08.02a.63.63 0 0 1-.29.07h.14l.13-.04a.3.3 0 0 1 .1-.03c.01 0 .03.05.02.07 0 .02-.07.05-.15.09a.81.81 0 0 1-.24.03v.01c.08 0 .15 0 .22-.02.16-.05.2-.09.19-.16-.01-.02-.02-.04-.04-.04zm4.73.08c-.02 0-.04 0-.05.02-.03.03-.04.08-.04.1.01.05.32.33.37.36.1.04.21-.04.25-.18.02-.07 0-.1-.05-.15-.04-.05-.13-.08-.28-.12a3.91 3.91 0 0 1-.2-.03zm-.82 0c-.06 0-.16.03-.3.07-.15.04-.2.07-.23.11-.05.09.02.25.14.3.08.03.17-.02.34-.16.17-.16.19-.19.13-.27-.03-.04-.04-.04-.08-.04zm-.2 0-.06.02c-.03.02-.03.02 0 .02.01 0 .04 0 .06-.02l.04-.01zm1.02.02c.05 0 .3.05.38.08.07.03.13.08.14.13.01.05-.02.13-.07.19-.05.04-.05.05-.1.04h-.07a3.6 3.6 0 0 1-.33-.3c-.02-.04-.03-.07 0-.11 0-.03.02-.03.05-.03zm-.83 0h.03c.03.01.07.07.07.1l-.04.08c-.07.07-.24.21-.3.24s-.11.03-.17 0a.23.23 0 0 1-.1-.14c-.02-.05-.02-.06 0-.1.02-.04.08-.08.16-.1a8.58 8.58 0 0 0 .35-.08zm3.07.01-.06.02a.81.81 0 0 0-.22.2.46.46 0 0 0-.04.13c0 .04-.02.08-.03.08 0 0-.03 0-.04-.02a.45.45 0 0 0-.09-.06c-.05-.02-.07-.03-.16-.03-.1 0-.12 0-.16.03-.1.04-.18.14-.18.22 0 .05.01.06.12.03l.1-.02.1.02c.08.03.14.06.22.14.07.06.18.2.21.26l.17.43a2.15 2.15 0 0 0 .14.34 3.56 3.56 0 0 0-.98-.52c-.38-.16-.36-.15-.62-.3-.1-.07-.21-.18-.29-.3a.44.44 0 0 0-.07-.09c-.04-.02-.08 0-.1.02-.01.03-.01.03.02.1.06.1.28.35.36.4l.12.07a4.34 4.34 0 0 0 .7.3l.14.06.17.08c.03.03.1.07.15.09.05.02.12.06.15.09l.12.08c.07.03.19.13.18.14l-.07-.03c-.1-.05-.17-.07-.28-.1a2.41 2.41 0 0 0-.54-.03c-.29 0-.33-.02-.4-.08-.08-.07-.1-.14-.05-.22l.02-.08c-.01-.01-.02-.02-.07 0a.31.31 0 0 0-.22.13c-.03.04-.03.06-.03.12 0 .05 0 .08.02.1.04.09.02.1-.1.09a.73.73 0 0 1-.42-.27 1.06 1.06 0 0 1-.1-.23c-.03-.1-.08-.07-.11.05-.03.14 0 .4.05.48a.84.84 0 0 0 .47.34c.05.01.06.04.05.08a.66.66 0 0 0 0 .28c0 .06.02.12.03.14.06.12.18.25.23.25.04 0 .05-.03.04-.1-.01-.1.02-.26.05-.34l.09-.15c.08-.13.18-.21.35-.3.2-.1.25-.1.46-.1.17 0 .2 0 .31.03a.97.97 0 0 1 .45.24 2.23 2.23 0 0 1 .51.84 11.42 11.42 0 0 0 .16.4l.03.13h.02l-.02-.06-.01-.06-.04-.1a1.51 1.51 0 0 0-.11-.28 2.92 2.92 0 0 0-.51-.87l-.1-.09c-.13-.1-.28-.15-.54-.2-.16-.03-.36 0-.53.07a.86.86 0 0 0-.44.33.7.7 0 0 0-.15.46v.13c-.03.04-.12-.05-.23-.22a.66.66 0 0 1-.05-.31l.01-.15c0-.04 0-.05-.14-.1a.78.78 0 0 1-.37-.29 1.01 1.01 0 0 1-.07-.32c0-.1.04-.25.06-.25.01 0 .03.03.04.07a.6.6 0 0 0 .17.3c.14.13.43.23.49.18.02-.02.02-.03-.01-.08-.03-.07-.04-.15-.01-.2.04-.08.15-.16.23-.16.05 0 .05.01.03.05-.04.06-.03.14 0 .2.07.11.1.12.52.13a1.96 1.96 0 0 1 .66.1c.08.02.26.13.28.15.02.02.05.02.05 0a1.9 1.9 0 0 0-.44-.33l-.15-.09a2 2 0 0 1-.16-.09 1.52 1.52 0 0 0-.19-.09 2.7 2.7 0 0 1-.27-.11 3.56 3.56 0 0 1-.65-.3 1.36 1.36 0 0 1-.27-.26c-.12-.14-.15-.22-.11-.25.04-.02.07 0 .13.1.08.12.19.23.3.3a2 2 0 0 0 .51.25l.1.04a3.98 3.98 0 0 1 1.05.58c.02 0 0-.02-.03-.07-.06-.09-.1-.18-.15-.33a1.66 1.66 0 0 0-.28-.6c-.13-.16-.24-.24-.38-.26a.35.35 0 0 0-.16 0c-.1.03-.11.02-.1-.03a.2.2 0 0 1 .07-.12.3.3 0 0 1 .21-.09c.11 0 .19.02.25.07l.06.04c.03.02.05-.01.07-.1.02-.1.04-.14.12-.22.1-.1.18-.13.2-.1l-.03.11a.59.59 0 0 0-.04.24c0 .16 0 .17.08.1.05-.04.11-.06.22-.07.12-.01.24.03.3.11.05.06.05.07-.02.08l-.22.01c-.16.05-.23.2-.29.57-.01.09 0 .14.05.28s.1.23.17.35a14.37 14.37 0 0 1 .56.9c.04.11.08.1.05-.02a2.81 2.81 0 0 1-.05-.43c0-.15-.03-.22-.08-.3a.57.57 0 0 0-.2-.18c-.07-.03-.08-.05-.08-.07 0-.06.16-.1.28-.06l.09.05c.04.03.06.03.07-.01.03-.12.16-.2.3-.2.07 0 .1.01.1.04l-.08.08c-.1.08-.18.2-.22.3-.05.14-.1.4-.08.56a3 3 0 0 0 .13.67c.04.12.12.46.12.5v.02h.04l.01-.09c.02-.25.04-.32.15-.64.03-.08.03-.1-.02-.2a.86.86 0 0 1-.1-.38 1.28 1.28 0 0 1 0-.3c.02-.15.03-.2.07-.32l.08-.23a.45.45 0 0 0 0-.2c-.02-.05-.02-.06 0-.08.04-.05.08 0 .08.08 0 .05.02.09.04.08l.04-.05c.04-.06.17-.2.38-.37l.1-.1v-.02l-.06.06a3 3 0 0 0-.47.46l-.01-.05c0-.05-.03-.12-.05-.13-.03 0-.07.02-.07.05v.1c.03.09.02.14-.07.38-.04.12-.06.17-.07.33-.02.12-.02.17 0 .29 0 .18.04.29.1.4l.04.1-.06.18-.07.21a2.97 2.97 0 0 0-.06.4l-.01-.03-.03-.14a6.1 6.1 0 0 1-.14-.52c-.09-.36-.1-.64-.03-.9.05-.19.12-.29.32-.46.03-.03.04-.05 0-.08l-.1-.02c-.09 0-.1 0-.16.03a.3.3 0 0 0-.15.16l-.02.04-.03-.02c-.12-.08-.3-.09-.38 0-.05.04-.03.06.08.12.08.04.18.14.22.21a15.76 15.76 0 0 0 .09.66v.05l-.03-.05-.11-.2-.08-.13a5.3 5.3 0 0 0-.15-.24 2.4 2.4 0 0 1-.38-.67.47.47 0 0 1-.04-.27c.04-.3.11-.45.23-.51.05-.02.08-.03.18-.03.16 0 .17-.01.14-.07-.05-.1-.17-.16-.3-.16a.42.42 0 0 0-.28.09l-.04.02v-.14c0-.11.01-.16.03-.22.04-.09.04-.14 0-.14zm-5.35.01c-.04.01-.04.05-.01.19l.03.2c0 .09-.02.1-.06.07a.52.52 0 0 0-.1-.04.36.36 0 0 0-.38.08c-.05.04-.06.06-.06.08v.03h.1c.1 0 .11 0 .18.04.07.03.08.05.13.11.1.15.14.4.1.61-.05.17-.12.3-.3.58a6.65 6.65 0 0 0-.41.64l-.04.07v-.05c0-.09.02-.37.04-.46.04-.17.09-.24.25-.36.09-.06.1-.08.09-.11-.02-.03-.08-.05-.18-.05-.1 0-.15.01-.2.06-.03.03-.05.03-.06-.02-.01-.04-.1-.14-.16-.17a.3.3 0 0 0-.25 0l-.06.02a.53.53 0 0 1 0-.18c.02-.06.02-.06 0-.1a.08.08 0 0 0-.06-.03c-.04 0-.05.02-.06.1l-.01.03-.14-.13a3.65 3.65 0 0 0-.37-.34v.02l.07.06a3.7 3.7 0 0 1 .44.42c.02 0 .02 0 .03-.08.01-.05.03-.07.06-.06.03.02.04.06.02.13-.01.09 0 .18.03.24.03.08.1.3.1.42v.29a.99.99 0 0 1-.08.45c-.03.08-.03.1 0 .2.06.15.11.4.13.57 0 .07.03.06.05-.04l.02-.1a10.13 10.13 0 0 0 .17-.7c.03-.24.03-.46 0-.62a1.65 1.65 0 0 0-.1-.3.5.5 0 0 0-.2-.17c-.06-.03-.09-.06-.06-.07l.06-.03a.18.18 0 0 1 .12 0c.1.01.2.1.23.18.02.06.04.06.1.02a.28.28 0 0 1 .08-.05c.1-.03.27 0 .27.05l-.1.09a.58.58 0 0 0-.2.2c-.05.11-.08.28-.1.53 0 .16 0 .18.02.18 0 0 .03-.02.04-.06a.76.76 0 0 1 .05-.1 6.9 6.9 0 0 1 .38-.59c.17-.24.25-.39.3-.55a.94.94 0 0 0-.07-.6c-.08-.15-.16-.2-.33-.2-.06 0-.1-.01-.1-.02-.01-.03.07-.1.14-.13.11-.06.2-.06.34.01.08.04.1.04.11 0a.97.97 0 0 0-.03-.28.56.56 0 0 1-.01-.12c0-.06.07-.04.17.05.05.05.11.14.14.23.03.1.03.1.06.1.01 0 .04 0 .06-.03a.27.27 0 0 1 .2-.07c.08 0 .18.03.24.06.04.03.1.12.1.15 0 .04-.03.04-.1.02-.13-.03-.22 0-.36.09-.11.07-.2.18-.3.33-.05.1-.13.34-.17.48-.02.08-.06.17-.12.26-.04.08-.02.08.08 0 .14-.1.4-.24.67-.36a15.9 15.9 0 0 0 .76-.34l.14-.08c.1-.06.21-.19.31-.34.04-.06.05-.07.08-.08.1 0 .06.12-.11.33a.5.5 0 0 1-.2.16 1.82 1.82 0 0 1-.5.26l-.13.06-.24.11a5.42 5.42 0 0 0-.89.5c-.12.1-.1.11.06.03.2-.1.33-.13.7-.13.28 0 .36-.01.45-.05.08-.04.11-.07.14-.11a.27.27 0 0 0 0-.16.1.1 0 0 1 0-.06c.01-.06.13 0 .21.11.06.09.07.14.04.22-.04.08-.02.1.06.1.1 0 .16-.02.26-.07.18-.1.3-.24.35-.44 0-.03.02-.05.03-.06.02 0 .06.1.07.2l.02.08c.01.02-.03.2-.07.27a.66.66 0 0 1-.49.34.42.42 0 0 0-.09.02c-.02 0-.02.05 0 .1s.04.25.02.32a.58.58 0 0 1-.14.27c-.1.1-.14.08-.12-.05a.61.61 0 0 0-.08-.36.56.56 0 0 0-.15-.2 1.17 1.17 0 0 0-.5-.3l-.14-.04h-.12c-.15.01-.33.05-.47.11-.14.06-.31.2-.43.34A3.75 3.75 0 0 0 1 14.2h.05l.03-.06c.04-.06.15-.2.32-.38.15-.15.24-.27.3-.38a.29.29 0 0 0 .05-.14c0-.06 0-.07.03-.06l.07.03c.06.05.1.1.1.2s0 .11.06.08l.1-.02a.98.98 0 0 0 .2-.07c.05-.03.16-.2.16-.26 0-.09.05.01.06.11v.14c-.04.17-.22.35-.44.42-.06.01-.07.03-.04.06.06.07.07.17.02.23s-.09.07-.09.02c0-.01 0-.04-.02-.07-.01-.04-.02-.06-.07-.09-.12-.08-.22-.08-.4 0a.61.61 0 0 0-.3.24h.02a.6.6 0 0 1 .21-.2c.17-.07.2-.09.26-.09a.3.3 0 0 1 .19.06c.06.03.09.08.09.14 0 .07.05.08.1.02.05-.04.06-.07.06-.12 0-.06-.02-.1-.05-.14-.02-.02-.01-.04.01-.04l.12-.05a.72.72 0 0 0 .28-.24.47.47 0 0 0 .06-.29c0-.09-.04-.18-.06-.18l-.03.07a.43.43 0 0 1-.11.2.25.25 0 0 1-.13.08l-.12.03a.3.3 0 0 0-.07.02c-.05.03-.06.02-.06-.06-.01-.1-.03-.16-.1-.2-.1-.08-.13-.07-.14.04 0 .06 0 .08-.04.14l-.24.31a3.1 3.1 0 0 0-.4.45c0-.02.07-.28.11-.37a6.78 6.78 0 0 1 .29-.59c.06-.13.16-.24.3-.37.14-.11.28-.18.45-.23.13-.03.28-.05.34-.05.05 0 .26.07.36.12.17.08.37.24.44.37.08.14.09.17.1.34l.01.17c.03.04.15-.02.2-.1a.93.93 0 0 0 .07-.14c.03-.08.03-.09.02-.22a.52.52 0 0 0-.02-.2c-.03-.07-.03-.08.02-.08.15 0 .4-.13.5-.26.04-.06.1-.19.11-.27.03-.17-.04-.43-.1-.4-.02 0-.03.03-.04.06l-.05.15a.56.56 0 0 1-.29.28c-.13.07-.26.1-.3.06-.02 0-.02-.01 0-.04.04-.1.03-.16-.03-.25-.07-.1-.17-.17-.23-.15-.02.01-.03.05-.01.1l.01.09c0 .04-.05.12-.11.15-.1.06-.16.06-.5.07h-.33l-.12.03a1.68 1.68 0 0 0-.3.12 1.15 1.15 0 0 1 .32-.23.57.57 0 0 1 .09-.06l.2-.09c.4-.2.64-.3.68-.32a2.05 2.05 0 0 0 .51-.26.74.74 0 0 0 .26-.27c.08-.11.1-.17.09-.21-.01-.03-.06-.05-.1-.03a.33.33 0 0 0-.07.09 1.09 1.09 0 0 1-.28.3l-.06.04c-.09.07-.21.13-.38.2a3.84 3.84 0 0 0-.43.18 3.92 3.92 0 0 0-.76.41l.03-.08a.96.96 0 0 0 .07-.18c.04-.14.12-.35.17-.45.13-.25.3-.4.5-.45.06-.02.07-.02.14 0s.08.02.1.01l.02-.03a.32.32 0 0 0-.08-.16.45.45 0 0 0-.27-.07c-.1 0-.14.01-.2.06-.02.02-.05.04-.06.03-.01 0-.03-.03-.05-.09a1.33 1.33 0 0 0-.06-.14c-.05-.09-.2-.2-.25-.19zm2.45.15c-.03 0-.05.01-.18.14-.19.18-.21.2-.21.27 0 .05 0 .06.04.1.04.03.07.05.12.06.05.02.14.01.18 0a.12.12 0 0 0 .06-.07c.03-.06.07-.27.08-.36.01-.08.01-.08-.02-.1-.02-.03-.04-.04-.07-.04zm.52 0c-.02 0-.04 0-.08.03-.07.03-.08.05-.06.12.07.25.14.42.2.44.06.04.23-.03.27-.1a.22.22 0 0 0 0-.19l-.16-.17c-.09-.1-.13-.13-.17-.13zm-.54.01c.02 0 .04 0 .06.02.03.01.03.02.04.06 0 .06-.03.24-.07.35a.24.24 0 0 1-.05.1c-.03.02-.04.02-.1.02-.1 0-.1 0-.17-.05-.11-.08-.1-.12.11-.33l.18-.17zm.55.01c.03 0 .05.02.16.13l.14.16c.02.04.02.13 0 .17-.01.03-.04.05-.08.07-.1.04-.16.05-.2 0a.46.46 0 0 1-.08-.15 8.5 8.5 0 0 0-.08-.3c0-.03.1-.08.14-.08zm-.3.05c-.04 0-.05.01-.07.04-.03.06-.1.4-.1.47 0 .04.03.07.07.09.07.02.24 0 .27-.03.03-.03.03-.11 0-.25-.07-.27-.1-.32-.16-.32zm.01.02c.05 0 .06.02.1.13.06.25.08.38.05.4l-.05.03a.74.74 0 0 1-.13 0c-.07 0-.08 0-.11-.02-.03-.03-.03-.04-.03-.07a2.66 2.66 0 0 1 .08-.38c.02-.06.04-.09.09-.09zm4.68.83c-.1.06-.22.13-.3.22-.1.1-.22.28-.27.38a1.53 1.53 0 0 0-.12.5c0 .24.06.51.1.51.02 0 .05-.07.06-.1l.08-.19a5.94 5.94 0 0 1 .38-.65l.07-.09v-.03l-.04.06a2.86 2.86 0 0 0-.2.3 4.3 4.3 0 0 0-.34.67c-.01.02-.01.01-.02-.02a1.8 1.8 0 0 1-.08-.52c.02-.13.08-.36.14-.47.04-.09.22-.31.29-.38.08-.07.16-.13.25-.17zm-9.36.03v.03c.13.07.23.14.39.32.1.12.12.14.15.22l.04.12c.04.07.08.32.07.5 0 .14-.05.36-.08.35l-.08-.14a7.06 7.06 0 0 0-.49-.81v.03a6.32 6.32 0 0 0 .16.2 8.53 8.53 0 0 1 .4.73c.03.03.07-.04.1-.2.02-.1.02-.19 0-.38a.89.89 0 0 0-.07-.3l-.05-.14c-.02-.06-.1-.15-.25-.3-.1-.11-.2-.18-.29-.23zm9.36 0-.07.04c-.01 0-.19.14-.22.18-.11.12-.24.32-.3.45a1.3 1.3 0 0 0-.02.8c.02.05.02.06.03.04l.02-.03.08-.2a5.46 5.46 0 0 0 .16-.3l.1-.16.22-.32zm-9.36.04v.52l.11.14a1.65 1.65 0 0 1 .18.28 9.12 9.12 0 0 1 .28.53c.02 0 .05-.13.07-.24a1.79 1.79 0 0 0-.12-.7 1.48 1.48 0 0 0-.52-.53zm.67.45c.03 0 .14.06.19.11.06.06.08.1.11.21.07.22.1.4.08.57a4.38 4.38 0 0 1-.23 1l-.02-.1-.1-.4c-.04-.11-.04-.15 0-.26a.71.71 0 0 0 .06-.33l.01-.21v-.22a1.7 1.7 0 0 0-.1-.37zm.03.03.03.11c.06.21.07.27.05.57a1.13 1.13 0 0 1-.07.46c-.04.05-.04.1-.02.16a2.64 2.64 0 0 1 .13.48 3.3 3.3 0 0 0 .2-.9 1.42 1.42 0 0 0-.07-.6c-.04-.1-.05-.13-.1-.19-.05-.05-.13-.1-.15-.09zm8.66.23a.5.5 0 0 0-.04.07l-.05.09a8.07 8.07 0 0 0-.48.96c-.03.08-.04.13-.03.13l.12-.1c.12-.13.16-.15.2-.1a.1.1 0 0 1 .02.03l-.1.08a.85.85 0 0 0-.36.64h.03a.78.78 0 0 1 .14-.42c.05-.07.15-.17.23-.23.06-.04.08-.07.06-.11-.02-.03-.06-.04-.1-.02a.97.97 0 0 0-.12.1c-.1.08-.11.08-.07 0a.22.22 0 0 0 .02-.05l.04-.1a4.98 4.98 0 0 0 .16-.34l.09-.17.24-.43zm-4.68.02c-.02 0-.02 0-.07.11l-.07.13c-.06.13-.07.15-.07.27v.12l.06.1c.08.14.09.2.05.31a.78.78 0 0 1-.15.26.98.98 0 0 1-.24.19c-.02-.01-.01-.04.05-.1.1-.1.1-.1.1-.27v-.14l-.05-.08a.46.46 0 0 0-.18-.17c-.06-.03-.09-.03-.08.02.02.09.02.19 0 .26l-.01.17v.1l.05.06.04.1c0 .05-.1.17-.27.34h.78a.45.45 0 0 0-.07-.1c-.1-.11-.2-.12-.33-.02-.06.04-.16.08-.18.06-.02-.02 0-.04.06-.07A.85.85 0 0 0 4.3 14l.12-.08c.08-.05.22-.22.27-.32a.71.71 0 0 0 .04-.1c.01-.05.02-.07.04-.07.03 0 .04.02.05.08a.5.5 0 0 0 .1.22c.05.06.2.19.33.29.1.08.12.1.06.1-.04 0-.07 0-.12-.05-.04-.04-.04-.04-.11-.04-.13 0-.2.04-.26.15v.03h.43l.07-.03a.4.4 0 0 1 .07.03h.22l-.01-.02c-.13-.1-.26-.24-.28-.3-.02-.04-.02-.06.04-.14.05-.07.05-.12.03-.28-.03-.17-.03-.2-.01-.27.02-.1 0-.1-.13-.01-.14.08-.2.2-.21.35v.13c.02.06.08.12.13.14.05.02.11.1.1.14 0 .06-.07.01-.16-.12a.77.77 0 0 0-.08-.1.7.7 0 0 1-.15-.19c-.06-.11-.04-.24.04-.41.08-.19.08-.25-.04-.5-.09-.2-.1-.2-.12-.2zm4.68.04-.02.04-.05.08a3.79 3.79 0 0 0-.24.44.73.73 0 0 0-.08.17l-.05.1-.1.25.07-.05c.12-.12.2-.13.23-.05.02.05 0 .1-.06.12-.07.04-.22.2-.27.28a.93.93 0 0 0-.11.33v.03H9l.01-.08a.44.44 0 0 1 .15-.25.61.61 0 0 1 .27-.14zm-9.36 0v.03a10.72 10.72 0 0 0 .17.3 5 5 0 0 0 .2.38l.05.12a4.72 4.72 0 0 0 .1.28l-.06-.05c-.1-.1-.16-.1-.2-.05-.03.04-.02.06.06.12.11.08.24.25.29.38l.04.23h.02a.78.78 0 0 0-.13-.4c-.05-.07-.16-.2-.24-.26-.04-.03-.04-.03-.03-.06.03-.06.07-.04.19.07.12.1.13.1.08-.03a4.6 4.6 0 0 0-.5-1l-.04-.06zm0 .06v1.23c.06.02.1.05.17.1.08.09.16.2.18.3l.01.05h.28a.83.83 0 0 0-.34-.6c-.04-.03-.06-.06-.07-.08 0-.03.01-.07.05-.1.03-.02.09 0 .15.06l.06.04-.02-.06a5.76 5.76 0 0 1-.1-.27 1.12 1.12 0 0 1-.08-.16s0-.02-.02-.03l-.1-.18a2.48 2.48 0 0 0-.16-.3zm6.95.48-.03.02a.47.47 0 0 0-.07.26c.02.07.07.23.1.28.07.1.27.25.35.25.04 0 .04.02.02.06-.04.08-.03.22.02.27.05.04.08.02.1-.09.04-.1.14-.16.3-.14.09 0 .15.03.28.1.06.05.12.1.18.19h.02a.74.74 0 0 0-.46-.31.31.31 0 0 0-.16 0 .33.33 0 0 0-.1.05.29.29 0 0 0-.08.15c-.01.03-.02.04-.04.04s-.03 0-.04-.04a.34.34 0 0 1 0-.23c.03-.04.02-.06-.04-.07a.54.54 0 0 1-.22-.12c-.08-.06-.15-.16-.16-.2a.37.37 0 0 0-.02-.07.41.41 0 0 1-.01-.25c.03-.14.07-.16.06-.04 0 .09 0 .12.07.2.05.06.1.09.25.13.16.04.17.04.18-.05.01-.13.1-.22.18-.23h.04v.07l.01.12c.02.06.08.15.18.26a3.72 3.72 0 0 1 .47.59h.02a2.44 2.44 0 0 0-.46-.6 1.66 1.66 0 0 1-.16-.19c-.03-.05-.03-.07-.04-.16 0-.12-.01-.13-.1-.1-.1.04-.14.11-.15.23l-.01.07h-.04a1.4 1.4 0 0 1-.27-.08.41.41 0 0 1-.15-.16v-.2h-.02zm-2.26.46-.02.05-.03.1c-.04.1-.21.27-.31.34-.1.06-.1.07-.02.05.05-.02.07-.02.12-.01.05 0 .07.02.12.07.05.05.08.1.1.14h.05l.01-.03a.29.29 0 0 1 .3-.18h.07l-.08-.08c-.18-.15-.23-.22-.28-.36l-.03-.09zm.4.37c-.02 0-.01.02.02.05l.05.04c.01 0-.04-.07-.06-.08l-.02-.01zm4.27.15a.4.4 0 0 0-.3.22h.3zm-4.24.04.03.02.03.03c.02 0 .01 0-.03-.03zm-5.12 0v.18h.24a.47.47 0 0 0-.24-.18zm4.22.01-.01.01-.02.02.02-.02.01-.01zm1.73.03c-.04 0-.11.06-.15.13h.07a.74.74 0 0 1 .07-.08l.03-.03-.02-.02zm-1.77 0-.02.01a.25.25 0 0 0-.03.02l.03-.01.02-.01zm-.79.02h-.01c-.02.01-.01.02.06.1l.01.02h.07c-.04-.07-.1-.12-.13-.12zm4.24.1s-.03 0-.04.02h.06c0-.01 0-.02-.02-.02zm-5.92 0-.01.01h.04-.03z"/><path style="fill:none;stroke:#020202;stroke-width:.49095;stroke-linecap:round;stroke-linejoin:miter;stroke-miterlimit:4;stroke-dasharray:none;stroke-dashoffset:36.9212;stroke-opacity:1;paint-order:stroke fill markers;stop-color:#000" d="M.25.25h9.03v13.8H.25z"/></g><g style="display:inline"><text xml:space="preserve" style="font-size:12.6332px;line-height:1.25;font-family:'Shining NFI Demo';-inkscape-font-specification:'Shining NFI Demo';letter-spacing:0;display:inline;fill:#000;fill-opacity:1;stroke:#0d0309;stroke-width:.529167;stroke-miterlimit:4;stroke-dasharray:none;stroke-opacity:1" x="1.86" y="10.7" transform="scale(.88712 1.12724)"><tspan style="font-style:normal;font-variant:normal;font-weight:400;font-stretch:normal;font-family:'Libre Caslon Display';-inkscape-font-specification:'Libre Caslon Display';fill:#000;fill-opacity:1;stroke:#0d0309;stroke-width:.529167;stroke-miterlimit:4;stroke-dasharray:none;stroke-opacity:1" x="1.86" y="10.7" rotate="0 0">S</tspan></text></g><g style="display:inline"><text xml:space="preserve" style="font-size:12.6332px;line-height:1.25;font-family:'Shining NFI Demo';-inkscape-font-specification:'Shining NFI Demo';letter-spacing:0;display:inline;fill:#ededed;fill-opacity:1;stroke-width:.0561189" x="1.86" y="10.7" transform="scale(.88712 1.12724)"><tspan style="font-style:normal;font-variant:normal;font-weight:400;font-stretch:normal;font-family:'Libre Caslon Display';-inkscape-font-specification:'Libre Caslon Display';fill:#ededed;fill-opacity:1;stroke-width:.0561189" x="1.86" y="10.7" rotate="0 0">S</tspan></text></g></svg>
