<?xml version="1.0" encoding="UTF-8" standalone="no"?>
<!-- Created with Inkscape (http://www.inkscape.org/) -->

<svg
   width="36"
   height="54"
   viewBox="0 0 9.5249998 14.2875"
   version="1.1"
   id="svg5"
   inkscape:version="1.1.1 (3bf5ae0d25, 2021-09-20)"
   sodipodi:docname="exodus.svg"
   xmlns:inkscape="http://www.inkscape.org/namespaces/inkscape"
   xmlns:sodipodi="http://sodipodi.sourceforge.net/DTD/sodipodi-0.dtd"
   xmlns="http://www.w3.org/2000/svg"
   xmlns:svg="http://www.w3.org/2000/svg">
  <sodipodi:namedview
     id="namedview7"
     pagecolor="#ffffff"
     bordercolor="#666666"
     borderopacity="1.0"
     inkscape:pageshadow="2"
     inkscape:pageopacity="0"
     inkscape:pagecheckerboard="0"
     inkscape:document-units="mm"
     showgrid="false"
     units="px"
     width="36px"
     inkscape:zoom="2"
     inkscape:cx="29"
     inkscape:cy="-16.25"
     inkscape:window-width="1920"
     inkscape:window-height="954"
     inkscape:window-x="0"
     inkscape:window-y="0"
     inkscape:window-maximized="1"
     inkscape:current-layer="layer1"
     inkscape:snap-global="false" />
  <defs
     id="defs2" />
  <g
     inkscape:label="bg"
     inkscape:groupmode="layer"
     id="layer1"
     style="display:inline">
    <rect
       style="fill:#000000;stroke:#020202;stroke-width:0.161356;stroke-linecap:round;stroke-linejoin:miter;stroke-dashoffset:36.9212;paint-order:stroke fill markers;stop-color:#000000"
       id="rect1289"
       width="9.3636436"
       height="14.126144"
       x="0.08067818"
       y="0.080677792" />
    <rect
       style="fill:#ffffff;stroke:#020202;stroke-width:0.981172;stroke-linecap:round;stroke-linejoin:miter;stroke-miterlimit:4;stroke-dasharray:none;stroke-dashoffset:36.9212;paint-order:stroke fill markers;stop-color:#000000"
       id="rect1289-6"
       width="8.5438309"
       height="13.306328"
       x="0.49058425"
       y="0.49058425" />
    <path
       id="path7777"
       style="fill:#1100b2;stroke-width:0.0369017;fill-opacity:1;opacity:0.6"
       d="m 0.5064296,0.19629474 c 0.36815582,0.15144381 0.37191777,-0.0642938 0,0 z m 0.366903,0 c 0.2776112,0.22777595 0.467938,-0.0777268 0,0 z m 1.2469522,0 C 1.5316636,0.16373755 2.4507617,0.74211054 2.1172388,0.81709076 2.3128184,1.1646706 2.5982303,1.4864852 2.946781,1.7416793 3.2075322,1.4541427 3.5205635,0.87029727 3.3734385,0.43659055 3.1312041,0.43208328 3.27066,0.07015409 2.8942687,0.19629506 c -0.2579946,-1e-7 -0.5159893,-2.1e-7 -0.7739839,-3.2e-7 z m 1.8277945,0 C 4.2374952,0.45354164 3.5095984,1.103866 3.8093756,1.0686595 3.9926437,0.61662031 4.5041391,0.46014192 4.883856,0.42104936 4.5990256,0.20425553 4.017852,0.6609463 4.3993055,0.19629474 c -0.1504087,0 -0.3008175,0 -0.4512262,0 z m 1.2722754,0 c 0.3256242,0.0798291 0.2522726,-0.0308163 0,0 z m 1.0598838,0 c 0.2408852,0.3063973 -0.5506291,0.7267855 0.039272,0.59789642 0.3117426,-0.0298122 0.9855284,-0.74066964 0.3393856,-0.59789642 -0.1262192,0 -0.2524385,0 -0.3786577,0 z m 1.2252484,0 C 7.8160765,0.40450341 7.2172523,0.45416272 7.5494104,0.75285001 7.4579463,1.0954636 7.96671,1.320247 8.1591603,1.6361454 8.6299609,2.0847761 8.8629842,2.7166764 9.2795365,3.2121314 9.3562059,2.8663602 9.101199,2.6205883 8.9956017,2.3127165 8.7240731,1.7906738 9.067034,1.2846963 9.2795366,0.87775179 c 0,-0.22715235 0,-0.4543047 0,-0.68145705 C 9.0256392,0.17432148 8.8254647,0.18373789 8.7381693,0.39821716 8.57595,0.73254982 8.8977932,1.6284671 8.7114562,1.6375995 8.5876707,1.1871922 8.6496332,0.53906314 8.546946,0.19629474 8.0811617,0.15477339 8.5811719,0.95172357 8.4902389,1.2450371 8.5291058,1.4271024 8.6257356,2.0881686 8.4520052,1.5493748 8.3653447,1.0777215 8.2773205,0.64686198 8.0158424,0.26159682 7.9398638,0.12560509 7.6489217,0.22839981 7.5054869,0.19629474 Z m 1.1616848,0 c -0.1540276,0.42586013 0.3403704,-0.12576394 0,0 z m -3.5703245,0.003101 c -0.326551,-0.0161295 -0.3011128,0.31125907 0,0 z m 0.4738741,0.0392742 c -0.2910687,0.10606531 0.4126749,0.54250197 0.1489783,0.0724483 l -0.068064,-0.052305 z m -0.3162618,0.0361733 c -0.2818306,0.009239 -0.4699272,0.20239533 -0.065628,0.2036057 0.2905845,0.20399613 0.4604514,-0.2100858 0.065628,-0.2036057 z m -4.48034565,0.0377238 c -0.24341256,0.2306345 0.0834554,0.63369991 0.0322666,0.1143336 -0.0119601,-0.0299573 0.0120978,-0.0977173 -0.0322666,-0.1143336 z M 1.5001676,0.42315467 C 1.290697,0.57725991 1.2980525,0.85477027 1.0614355,0.90271196 1.0592773,1.1016201 1.2510105,1.824828 0.99676929,1.3164776 1.0256426,1.0314955 0.71033844,0.53825931 0.57479163,0.80559348 0.88060586,1.2278358 0.98219862,1.7929596 1.2922685,2.1884842 1.7210661,2.0523646 1.1698525,1.3102248 1.373371,0.91204456 1.378304,0.739793 1.4842129,0.58902529 1.5001676,0.42315467 Z m 3.509346,0.0434083 C 4.6056357,0.65478751 5.6485269,1.09353 5.2784169,0.58800441 5.2019909,0.5246019 5.1088893,0.4784138 5.0095136,0.46656297 Z m 0.503846,0.045992 c -0.408956,0.27898003 0.340453,0.45366218 0.082167,0.021704 z m 2.8122298,0.002584 c -0.1461291,0.40949381 0.1405248,0.26305699 0,0 z m -3.5987461,0.0186036 c -0.3010055,0.19981335 0.107115,0.47037163 0,0 z m 1.0914063,0.037207 c -0.3480478,0.26851136 0.2268303,0.45488313 0,0 z M 4.8234797,0.60505597 C 4.5240111,0.89999727 5.4714104,1.5785236 5.1480071,1.0954655 5.0270948,0.96552832 5.1087848,0.70179198 4.8234797,0.60505597 Z m -4.57801658,0.0465081 c 0,0.26027698 0,0.52055393 0,0.78083093 C 0.55366506,1.8529875 0.72086729,2.5006827 1.086856,2.8060219 1.6726409,2.6657979 1.0173535,2.5122169 0.9691122,2.4356257 1.205605,2.1912042 0.97427824,2.5326006 1.3446214,2.4891782 1.5030212,2.601317 1.7026933,2.6917306 1.610469,2.4887002 1.9814418,2.8922597 1.5924358,2.1737677 1.9409673,2.3460343 2.1355154,2.6241144 1.7495936,1.9266093 2.0325588,2.1905685 2.013885,1.795706 2.0047221,1.9611353 2.137838,2.0977179 2.2098839,2.2688974 2.2722657,1.9884381 2.3569624,2.0060032 2.4940845,1.7213334 2.7343388,2.3178011 2.6173388,1.8669389 2.8013439,1.9231095 2.8792559,1.9943188 2.7528004,2.1749842 2.7851692,2.2830451 2.3914054,2.2408979 2.4708121,2.4692954 2.1780153,2.2419982 1.8148188,3.002243 2.1895278,2.749625 2.3088705,2.556475 2.5772874,3.1282822 2.6753132,3.1067762 2.3892222,3.1567263 2.0246899,2.6608125 1.8809544,3.0657199 1.9690965,2.7740744 1.8811086,2.8063146 1.6913681,2.9899225 2.0131352,2.5152874 1.1675011,3.3836545 1.5971173,2.8276915 1.4787489,2.8040664 1.230889,3.1362751 1.2992417,2.8996866 1.1287986,3.1179586 1.1103197,2.8189721 0.9332765,3.1170461 1.1353218,2.7735098 0.37419063,3.414393 0.47247805,3.6895103 0.47873642,4.1160206 0.46349561,4.5663401 0.24546317,4.8719783 0.54650984,5.1290757 1.1381942,4.9752976 1.1086418,4.5319883 1.3178018,4.9174389 2.556415,4.712229 2.1131783,4.3323585 1.885206,4.1336274 1.7869724,4.008038 2.1518068,4.1330051 2.6552551,4.1259507 2.5770606,3.325721 2.0809144,3.6234984 1.8517959,3.5282099 2.6463258,3.4095552 2.6040493,3.7221906 3.1102643,4.081073 2.2855063,3.257689 2.8157002,3.7079346 3.1361723,3.9058816 2.2986808,3.1453044 2.6823105,3.4653941 2.9524873,3.7405108 3.0109704,3.6461279 2.7450515,3.3940325 2.5184992,3.1795616 3.0723984,3.6472869 2.8091311,3.3175513 2.6399751,2.8250873 3.2219253,3.8392929 3.0432749,3.3431736 3.3024707,3.2339553 3.3132947,3.8573628 3.0639055,3.5692167 3.2366156,3.7731968 2.3768271,4.4032722 2.925014,4.0172404 3.1649038,3.8967663 2.4741582,4.6010339 2.8190821,4.908754 2.885068,5.260028 3.287253,5.3366971 3.3047085,5.404763 c 0.049694,-0.117126 0.161314,0.392805 0.148313,0.01757 0.1351573,0.4312722 0.085048,-0.3525602 0.158496,0.102832 0.09932,0.4074674 0.383261,0.087932 0.1037237,-0.1081909 0.055831,0.5274001 -0.1626894,-0.1342446 0.1932316,-0.1464024 0.055405,-0.3118656 0.060542,-0.5372 0.096596,-0.06275 C 3.6130084,5.6820152 4.727628,5.4456734 4.814079,5.0635075 4.9565492,4.8539378 4.878366,4.48139 5.1270941,4.8864316 5.4534296,5.1430472 5.9700849,4.8835573 5.5337825,4.5588043 5.6212566,4.0581545 5.097142,3.7708635 4.9340671,3.5066877 5.0673769,3.5166847 4.8890948,3.118995 5.0997565,3.3712334 5.3439813,3.1110512 6.0593406,3.0221001 5.4999241,2.6266366 5.3610186,2.35197 5.1547775,2.8366345 5.3169891,2.4602366 5.4134128,2.2280838 5.7066322,1.9346825 5.4606496,2.3698028 5.327136,2.6533311 5.7493518,1.9369036 5.6040508,2.3653634 5.8143368,2.2443094 5.5544256,2.6764529 5.8193017,2.356808 6.1424099,2.0307432 5.7517129,2.5101359 5.6404861,2.5847764 6.0532823,2.3414161 5.5295229,2.8447831 5.8895625,2.5449854 6.3147108,2.2153214 5.364583,3.0900535 5.9466982,2.6400241 6.2681413,2.4588229 5.4747749,3.1273655 5.9784472,2.8033684 6.2267022,2.5858303 7.0456732,2.6990196 6.4646336,2.2685945 5.9796611,2.2727215 6.0394489,1.4989042 5.6175028,1.5783946 5.7310928,2.1009428 5.3805102,1.7788405 5.3262913,1.7197154 5.3335866,1.9228399 4.7526265,2.2135702 5.2472244,2.1408787 5.4313032,1.9997377 5.0918483,2.5277512 5.375898,2.1444964 5.5717366,1.9074368 5.2498774,2.6660271 5.1110787,2.2632809 4.9188228,2.1463296 4.7680612,2.30056 4.7459617,2.0101373 4.5773225,1.9526522 4.4488415,1.9608004 4.3533809,2.0887269 4.3497713,1.6739483 3.9880092,2.0004546 3.9640966,1.9662064 3.7510762,1.6681851 3.6127495,2.2061338 3.5433345,1.8714091 3.3212729,1.8421604 3.2878239,2.0400625 3.1925664,2.1320876 3.1128325,1.8418787 3.1546908,1.8383452 3.2178894,1.8163444 3.1764551,1.4163775 3.7022685,2.0047286 3.5253654,1.590519 c -0.082,-0.4219533 0.084108,-0.034703 0.071134,-0.1444693 0.080942,-0.4187577 0.1434668,0.3197339 0.2742036,-0.046456 0.1205637,0.06927 0.033178,0.5352486 0.1182083,0.1304631 0.073557,-0.3331576 0.044923,0.2966525 0.1164126,-0.1617715 0.098545,0.1818905 -0.035674,0.5949853 0.079008,0.1519733 0.1473626,-0.28799 -0.00406,0.5257303 0.1570072,0.0098 0.017794,0.4253603 -0.014715,0.141919 0.1379961,0.00767 -0.058926,0.2408512 0.024521,0.2889016 0.052783,0.03783 0.052421,0.1914287 0.1840449,0.1321352 0.2617969,0.4074645 C 4.8588999,1.8398408 4.719483,1.4979892 4.8007811,1.3201891 4.4557198,1.5424608 4.2945213,1.3825382 4.271967,0.98789465 3.9781189,0.8686326 3.9352199,1.5207789 3.5887855,1.1920007 3.2193995,1.055319 3.2220843,1.6469445 3.0850826,1.8788794 2.8732145,2.1048183 2.5275538,1.2378673 2.2934014,1.9160861 2.2070359,1.6794106 2.2853288,1.2056102 1.9383834,1.5672703 1.7153748,1.8728848 1.8054144,2.2962348 1.3448957,2.2585138 0.87313372,2.1252888 0.78206428,1.295199 0.41638032,0.92287999 0.36009103,0.83201349 0.30314765,0.74155155 0.24546312,0.65156407 Z M 5.652369,0.83604903 c -0.4544484,0.19954947 0.3667423,0.48038597 0,0 z m -0.2930048,0.007235 c -0.5942766,0.16489787 0.3547,0.42529457 0.041929,0.007242 z m -0.6423396,0.0485759 c -0.041602,0.26671127 0.4243655,0.35598317 0,0 z M 5.5056073,1.0722103 c -0.5630483,0.3636492 0.2277962,0.2497887 0,0 z m 0.5947966,0.057361 c -0.2263718,0.076 0.5701307,0.3406133 0.1035272,0.4518619 0.017695,0.2491426 0.5681112,0.2514877 0.2756626,0.428151 C 6.8993543,2.2771744 6.8731735,2.8168285 7.071919,3.1558032 7.348958,3.1582633 7.6433497,2.7649126 8.0316094,2.78918 8.0138009,2.5838116 8.3212685,2.5486291 8.2840518,2.3435685 8.8063558,2.2229615 7.9870932,2.0756096 7.8729056,2.2142599 7.5688743,2.1527485 7.404184,2.8348532 7.2415305,2.8007471 7.3164322,2.2830206 7.8774671,1.770783 7.789189,1.3088883 7.4792429,1.6629729 7.2955023,2.1393794 7.1297966,2.5816788 7.0636211,2.2176369 7.3356401,1.5940797 6.9238896,1.4427037 6.8681294,1.0439607 6.6534748,1.1989261 6.5749279,1.2718066 6.4436679,1.1643827 6.266171,1.1298691 6.1004039,1.1295713 Z m 3.1791327,0.1064535 c -0.2475851,0.054941 0.034489,0.1200566 0,0 z M 3.4318323,1.4561662 c 0.1102491,0.1418482 -0.054798,0.2114225 0,0 z m 0.1808665,0.1617472 c -0.04241,0.1129131 0.068158,0.1167701 0,0 z M 0.24546312,1.6778584 C 0.27441041,1.9092622 0.15146272,2.2006536 0.39587523,2.346046 0.56626039,2.5242615 1.0359781,3.3406295 0.83289237,2.6420598 0.73856564,2.2084203 0.31253467,2.0806032 0.24546312,1.6778584 Z M 4.4488245,1.8251359 c -0.081691,0.075382 0.1238215,0.083569 0,0 z m 0.1302252,0.021704 c -0.1301258,0.1462252 0.3307563,0.039473 0,0 z m -1.7006728,0.066663 c 0.1108735,0.1265623 -0.1656655,0.1145446 0,0 z m 1.3063802,0.032556 c 0.065797,0.2398749 -0.1324985,0.1110175 0,0 z M 3.808554,1.9905004 c 0.1666919,0.160308 -0.095222,0.3580995 0,0 z m -0.3539834,0.01912 c 0.1787536,0.384951 -0.1508534,0.1857685 0,0 z m 2.258777,0.055294 c 0.033016,0.2108064 -0.1277777,0.1188954 0,0 z m -2.7905287,0.028939 c 0.26284,0.1434559 -0.2313295,0.2114791 0,0 z m 2.9558932,0.035657 c -0.0085,0.1783228 -0.3021725,0.2639654 0,0 z M 4.2808775,2.211159 c 0.1249175,0.2752208 -0.1838024,0.1381212 0,0 z M 3.9713336,2.231313 c 0.1498677,0.2062106 -0.1445468,0.2545628 0,0 z m 0.625803,0.014986 c 0.096723,0.2147134 -0.1890532,0.1541427 0,0 z m 0.2630329,0.023255 c 0.1104403,0.1817075 -0.2221941,0.1940279 0,0 z M 3.331579,2.2824724 c 0.2367573,0.1194412 -0.070136,0.2939184 0,0 z m 0.2924889,0.0031 c 0.1653663,0.1605965 -0.094465,0.3597246 0,0 z M 3.122291,2.3052099 c 0.1491756,0.09813 -0.1432021,0.087163 0,0 z m -0.4795573,0.03669 c 0.2859372,0.2377189 -0.2391082,0.091609 0,0 z m 0.2371936,0.00878 c 0.2319581,0.2409257 -0.030041,0.3139655 0,0 z m 3.0494261,0.027905 c 0.080421,0.075752 -0.1233563,0.083223 0,0 z m -0.8676455,0.017053 c 0.096438,0.1907868 -0.2488731,0.1642919 -3e-6,2e-7 z M 4.1299804,2.4969296 c 0.1983036,0.1995193 -0.1895557,0.2864271 0,0 z m -1.919261,0.00413 c 0.2631863,0.1049303 -0.068184,0.1614732 0,0 z m 1.599901,0.00362 c 0.1561778,0.310692 -0.098622,0.2599393 0,0 z m 0.6547405,0.00155 c 0.1024524,0.2789826 -0.167643,0.1412265 0,0 z m -2.0494863,0.00775 c 0.4157337,0.3528207 -0.2395178,0.1036493 0,0 z m -2.17041148,0.00672 C 0.20523537,2.7985159 0.90000116,3.4285626 0.66352599,2.8555638 0.55707927,2.6789713 0.40690049,2.6721296 0.24546312,2.5206996 Z m 2.93573998,0.01757 c 0.1733279,0.2147337 -0.1221402,0.2573393 0,0 z m 1.5280719,0.025321 c 0.1492642,0.1711549 -0.1452329,0.1968675 0,0 z m -1.2180147,0.03669 c 0.1979469,0.259511 -0.2184774,0.2429677 0,0 z M 2.6933776,2.614235 c 0.1941435,0.071601 -0.025775,0.2111621 0,0 z m 2.3378397,0.037207 c 0.1390334,0.1518405 -0.2374685,0.2630713 0,0 z m 0.4759405,0.076481 c 0.1060762,0.1402729 -0.2571502,0.1062806 0,0 z M 5.2689296,2.748077 c 0.1211687,0.1395525 -0.235271,0.2677274 -0.034406,0.026961 z m -2.3244069,0.00362 c 0.3434942,0.3294463 -0.2575173,0.1343366 0,0 z m 1.3735605,0.049609 c 0.096447,0.2837498 -0.1706328,0.1956746 0,0 z m 0.2578656,0 c 0.09824,0.2798916 -0.1700063,0.1996411 0,0 z M 4.008026,2.803376 c 0.1415041,0.2540464 -0.176096,0.3235816 0,0 z m -1.4412569,0.00103 c 0.3857066,0.2426681 -0.1401318,0.2210871 0,0 z m 0.6247686,0.019637 c 0.2841906,0.1537309 -0.11654,0.2891807 0,0 z m 0.5183135,0.021704 c 0.2685281,0.2240515 -0.2192925,0.2896132 0,0 z M 4.814177,2.861248 c 0.1341054,0.1719253 -0.2228387,0.1845146 0,0 z m 0.7648125,0.049093 c 0.058079,0.1344912 -0.2633923,0.168305 0,0 z M 3.4132294,2.933078 c 0.2523735,0.1492837 -0.08956,0.3868494 0,0 z m 1.6247057,0.00207 c 0.1583396,0.1404381 -0.3333938,0.3139268 0,0 z M 2.7786422,3.010079 c 0.2514028,0.1250834 -2.478e-4,0.329556 0,0 z m 3.3837721,0.00103 C 5.9725163,3.1160972 5.3250546,3.0788999 5.8533889,3.19301 5.6014593,3.1066263 5.1349613,3.3495474 5.6957655,3.2728544 6.3703418,3.252312 6.0985864,4.1842098 5.5694855,3.939075 5.6502016,4.2655039 5.7644853,4.6613404 6.1164219,4.7050628 5.901852,5.1029525 6.3981081,5.6277367 6.551927,5.0482824 6.849103,4.6107478 6.788982,5.6345824 7.293608,5.3349983 7.6975884,5.1985417 7.0166302,4.93499 7.4300351,4.6580368 7.6591883,4.3647555 7.6281454,3.8633147 7.4504686,3.7824977 7.4569231,3.556861 7.3643318,3.5109783 7.3375342,3.7443973 7.3504204,3.4244375 7.2475532,3.421177 7.2036578,3.645341 7.2238122,3.4096958 7.0202591,3.0622166 7.0956066,3.5367387 7.0711976,3.4127683 6.8900801,2.9875614 6.9526062,3.3567669 6.7909069,3.0591098 6.7413524,3.1073626 6.7943834,3.3765628 6.6799398,3.0162996 6.4815859,3.2147975 6.1624143,3.011109 Z M 3.074232,3.016279 c 0.3154022,0.1620059 -0.1344249,0.2199672 0,0 z m 2.184363,0.030489 c 0.1101195,0.1062188 -0.2006151,0.084198 0,0 z M 2.3182063,3.051938 C 2.2650616,3.1878018 1.8264474,3.2681975 2.1078753,3.32789 1.794686,3.3471763 2.4052955,3.5849638 1.8990703,3.4968878 1.7499564,3.2409453 2.1241941,3.076602 2.3182063,3.051938 Z M 3.8591979,3.084494 C 3.9599674,3.2223384 3.8131749,3.4181323 4.1516811,3.2865516 4.216924,2.7626962 4.3308514,3.6373907 3.9786761,3.3848914 4.3112522,3.709114 3.4576228,3.2261956 3.810417,3.5259313 3.6601101,3.3274916 2.9693714,3.713325 3.4249431,3.4237019 3.6262403,3.3572884 3.8394697,3.3212921 3.8591979,3.084494 Z M 3.5811763,3.11705 c 0.3014045,0.2337698 -0.2192228,0.3228767 0,0 z m 0.9074388,0 c 0.065456,0.2414513 0.2305867,0.3219412 0.2772376,0.055744 0.1283836,0.092292 0.061666,0.4846593 -0.1480679,0.2814379 C 4.9113572,3.9847341 4.2444157,3.252468 4.4886151,3.11705 Z m 1.7802543,0.042375 c 0.1587875,0.1787964 -0.04841,0.1716428 0,0 z m 0.1405599,0.00155 c 0.1180334,0.093187 0.023795,0.2023823 0,0 z m 2.0923779,0.01912 C 8.2670091,3.4831707 7.8208972,2.9643304 7.4759251,3.3422397 7.6586827,3.3371839 8.5636595,3.6456136 7.904944,3.7402645 7.7067549,4.159796 8.5821424,3.9996473 8.3629172,4.3932297 8.5776446,4.5554107 9.4030415,4.8375651 9.2795346,4.3394008 9.2724165,3.9901259 9.3633068,3.5443516 8.9794281,3.3495422 8.6977477,3.8508589 8.8713604,3.2272963 8.5018072,3.180095 Z M 3.3212444,3.19043 c 0.3427395,0.2309132 -0.2305873,0.2473397 0,0 z M 5.7205813,3.3382244 C 5.3032908,3.2336114 5.0007533,3.9059257 5.4355397,3.6446127 5.2159804,4.0754152 5.607035,3.6944267 5.7965733,3.8214726 5.9756988,3.7474071 6.0242099,3.7956647 5.9727589,3.6844576 6.10734,3.4860387 5.9168371,3.3816996 5.7205813,3.3382244 Z M 4.3413375,3.41677 c 0.1991392,0.048766 0.1957237,0.2893589 0,0 z m 0.8733313,0.032039 c -0.1798501,0.092912 -0.096614,0.2648789 0,0 z m 0.2237608,0.012919 c -0.1414309,0.1829424 -0.3107499,0.1617297 -4.2e-6,7e-7 z m 0.5224463,0.1023194 c 0.1139923,0.054949 -0.1608102,0.014533 0,0 z m -3.357417,0.221175 c -0.048403,0.1278124 0.3358177,0.1909884 0,0 z m -0.043407,0.027905 c -0.020069,-0.023022 -0.00285,0.012441 0,0 z m -0.00155,0.00258 c 0.012141,0.271531 0.3099804,0.2524542 0,0 z M 1.5420247,3.873073 c 0.2159761,0.2028714 0.084642,0.2956876 0,0 z M 3.334164,3.877723 C 3.6498557,3.82166 4.0663125,4.2251545 3.6567289,4.1752501 3.7449575,3.8152928 3.450036,4.4228592 3.5909635,3.9688745 3.4864488,4.1919662 3.374922,3.8304034 3.129526,3.962472 3.169896,3.8929988 3.2610027,3.8752279 3.334164,3.877723 Z m -1.9295983,0.00827 c 0.2325082,0.2575017 -0.023076,0.2526314 0,0 z m 4.7438971,0.00568 c -0.075901,0.1441484 -0.2032871,0.131135 0,0 z M 2.5347307,3.952134 C 2.2537341,4.210933 2.1995367,4.4187965 2.5807842,4.5349936 2.1894806,4.3481549 2.8610884,4.497024 2.416988,4.3041621 c 0.055045,-0.029789 0.3646508,0.1574612 0.043948,-0.1157913 0.00842,-0.014626 0.329021,0.1228444 0.05574,-0.074494 0.017042,-0.053113 0.2704109,0.067664 0.027671,-0.1521269 z m 3.6313031,0.03204 c -0.05987,0.1810687 -0.2188913,0.2168167 0,0 z m -4.8818747,0.00103 c 0.1761566,0.1627705 0.020277,0.2787872 3e-6,6e-7 z m -0.1457272,0.03514 c 0.2030656,0.300008 -0.00272,0.2783312 0,0 z M 0.73535503,4.040498 c 0.15073077,0.3181022 0.0295679,0.5373564 0,0 z M 6.3996106,4.08753 C 6.3148739,4.3388807 6.1162062,4.440801 6.3659765,4.1241326 L 6.3996066,4.08753 Z M 3.2933388,4.100449 C 3.2404166,4.1841133 3.0695857,4.4084509 3.2225814,4.4638205 3.0677499,4.2579974 2.9442447,4.3052601 3.2933388,4.100449 Z m -0.1684629,0.2041221 0.00413,-0.0031 z M 1.0397317,4.125254 c 0.1264844,0.1519094 -0.037568,0.269198 0,0 z m -0.15813088,0.00207 c 0.0648955,0.077776 -0.0344258,0.1282707 0,0 z M 0.62011841,4.141277 c 0.14225786,0.228046 -0.049436,0.2091522 0,0 z m -0.0987028,0.00207 c 0.0381259,0.2248163 -0.0466508,0.1215589 0,0 z M 0.24546313,4.241532 C 0.24898468,4.3651804 0.19848422,4.8258792 0.36711211,4.61133 0.45966821,4.4566765 0.35149929,4.3484616 0.24546313,4.241532 Z m 0.67386202,0.033073 c 0.18079535,0.034018 -0.0589291,0.1113696 0,0 z m 3.18223365,0.00103 c 0.0388,0.083262 -0.1206522,0.117497 0,0 z M 3.853512,4.277185 C 3.8724551,4.6208571 2.9828088,4.519434 3.5932281,4.4605385 3.7124189,4.4523206 3.76734,4.3399472 3.853512,4.277185 Z m 1.5001663,5.167e-4 c 0.0299,0.2136306 -0.04053,0.087087 0,0 z m -1.3477214,0.0062 C 3.8885774,4.4714255 3.8001987,4.4869564 3.9738028,4.3015397 Z m 1.1224128,0.033073 c 0.1740653,0.2497501 -0.09929,0.2090948 0,0 z m 1.7042897,0.025321 c -0.037632,0.3151539 -0.1713021,0.2176382 0,0 z m -6.28282224,0.0062 c 0.0638737,0.078124 -0.0337051,0.1284592 0,0 z m 3.76359474,0 c 0.064898,0.07778 -0.034426,0.1282656 0,0 z m 0.1111038,0.037207 c 0.064685,0.079051 -0.035496,0.1261132 0,0 z M 7.4181532,4.38622 c -0.015928,0.2259491 -0.1625131,0.2429394 -0.00982,0.00465 l 0.00982,-0.00465 z M 4.5418414,4.3888 c 0.029742,0.2152178 -0.04044,0.08515 0,0 z M 3.0060198,4.38983 C 2.926971,4.7169331 3.1930614,4.9907701 3.4639973,5.0260991 3.2917927,4.9268352 3.0160493,5.047406 3.0530444,5.0357868 3.0114836,4.8171729 2.9132553,4.6116333 3.0060198,4.38983 Z m 3.384288,0.018603 c 0.089746,0.090507 -0.1578389,0.1061331 0,0 z M 5.3836503,4.459076 c 0.065088,0.078338 -0.034998,0.1275098 0,0 z m 1.8081598,0.1477946 c 0.065366,0.077734 -0.033987,0.1285657 0,0 z M 8.036204,4.6864526 C 7.8196906,4.9999345 7.5055857,5.650724 7.788672,5.852273 8.0873806,5.3656719 7.7855875,6.0755287 8.1460712,6.0212874 8.1000763,5.808265 8.2658713,6.0159825 8.2863171,5.9308276 8.452923,6.0644745 8.2217962,5.4852159 8.1225031,5.6150851 8.151935,5.2059956 8.5410368,6.0770576 8.4850735,5.5750606 8.5380422,5.2034273 8.2325675,5.4579267 8.2905834,5.0791024 8.1501949,4.9833965 8.0085787,5.2870971 8.0086221,4.8816171 8.0010994,4.8141397 8.0229637,4.7509165 8.036204,4.6864526 Z M 2.0830791,4.8275367 C 1.5624219,4.7423296 0.90174699,5.1148113 1.2057591,5.6578977 0.9104454,5.8921012 1.1987267,6.8908668 1.4344194,6.6203795 1.4097433,6.2952319 1.7621706,5.8592056 1.8569161,6.3870956 2.1197133,6.4999909 2.2475706,5.7129601 2.6962959,5.7263088 2.8895215,5.5700535 3.386143,5.6510662 2.9564104,5.461607 2.7557392,5.3256147 2.9785726,5.2665325 2.6559541,5.2477166 2.9382068,4.9760183 2.2454637,4.8157629 2.0830791,4.8275367 Z m 2.9093821,0.080098 C 4.847576,5.1153774 4.4216809,5.9230115 4.8043578,5.3313813 4.9133134,5.1894792 5.0300753,5.4408206 4.9924612,4.9076347 Z m -1.2014782,0.05426 c 0.090078,0.092671 -0.1978165,0.070609 0,0 z m -0.1364245,0.022738 c 0.032566,0.1107698 -0.255468,0.00138 0,0 z m -1.1994118,0.01912 c 0.1143376,0.054809 -0.1610263,0.013903 0,0 z m 0.7580948,0.085783 c 0.030079,0.2126579 -0.040626,0.08804 0,0 z M 0.24546312,5.1649827 C 0.1810245,5.5484111 0.28631362,5.6264077 0.68678018,5.5148335 0.62994436,5.3066218 0.38377711,5.2864364 0.24546312,5.1649827 Z M 5.4932063,5.1763517 C 5.1608778,5.1971541 4.8544806,5.4462449 4.9208277,5.652922 4.3227642,5.6044004 4.9808897,5.7601905 4.9304468,5.7912961 4.5925463,5.7065175 4.4790463,5.8107099 4.8643124,5.9238404 5.108217,6.0375388 5.1773712,6.2353178 5.0994991,6.2508171 5.0684976,6.5843214 5.4485336,6.5186891 5.4770798,6.5685739 5.9526896,6.2982648 5.5298364,7.5308557 5.9568559,7.1194488 6.4197012,6.8436505 6.5274305,6.1351906 6.2350383,5.723103 5.8975883,5.5458785 6.0138031,5.0929113 5.4932063,5.1763517 Z M 5.410524,5.2988258 c 0.2529353,0.027102 -0.2582015,0.025481 0,0 z m -0.1152393,0.073897 c 0.2116495,0.024485 -0.2273096,0.027876 0,0 z m -0.6965976,0.03359 c -0.1495414,0.045697 -0.043833,0.4152579 0,0 z m 3.4540534,0.036173 c 0.1502293,0.2653572 -0.049491,0.4904319 -0.019637,0.091468 z m -2.8380717,0.00362 c 0.5760574,0.1105238 -0.1201506,0.080675 0,0 z m -1.3539231,0.024288 c -0.1312897,0.4388447 0.5272769,0.1139927 0.065431,0.042895 -0.02181,-0.014298 -0.043621,-0.028597 -0.065431,-0.042895 z m 0.6237367,0.018604 c -0.2502963,0.1034523 -5.821e-4,0.2399839 0,0 z M 5.076178,5.51535 c 0.1333631,0.080715 -0.082369,0.1017971 0,0 z M 0.49867731,5.559792 c -0.0985276,0.284069 0.4968592,0.3839384 0.1344996,0.050457 l -0.0900575,-0.039089 z m 3.71708629,0.00155 c -0.2409119,0.2760023 0.2213665,0.2285203 0.08785,0.0093 -0.063404,0.183588 -0.1025978,0.2343163 -0.08785,-0.0093 z m 0.9921875,0.00878 c 0.1501463,-6.089e-4 0.085559,0.137301 0,0 z m -4.96248798,0.077003 c -0.0262079,0.1248903 0.0432735,0.1888682 0.007236,0.01602 z m 8.31783848,0.033073 c -0.2963384,0.4740322 0.6253997,0.260292 0,0 z m 0.3720703,0.064079 C 8.7590967,6.0189962 9.0651525,6.5191343 9.0728267,6.9545348 9.3022217,6.7587809 9.3195243,6.2712268 9.1446623,5.9600263 9.0889579,5.8799814 9.0364307,5.7738451 8.9353719,5.7442769 Z m -6.191869,0.029456 C 2.2862206,5.9929625 1.9517736,6.7726958 2.585372,6.8666894 2.5220345,7.2214409 3.3942033,7.1833125 2.9750134,7.2480622 3.4079347,7.4795756 2.8344865,6.6125638 3.2939215,6.7333633 3.7021909,6.7382644 3.1381975,6.203963 3.3561563,5.9372282 3.1633126,5.7863754 3.0269938,5.9833224 3.0868429,5.8051434 2.8284565,5.9676691 2.9481952,5.899335 2.9258021,5.8032327 2.7650758,5.8386593 2.7262262,5.9163082 2.7435029,5.7737329 Z m 0.8888333,0.037724 C 3.1173311,5.8027379 3.4985431,6.8500532 3.5581608,6.5003326 3.4910516,6.3209386 3.5323186,6.169217 3.5699654,6.0050263 3.6979114,5.975053 3.919598,5.7849345 3.6323362,5.8114569 Z M 4.3124,5.857448 C 4.5386614,6.2613521 4.2917553,5.884555 4.2522106,5.9565861 4.349104,6.2340778 4.3566805,6.485668 4.2015582,6.0548377 4.0582903,5.8645791 4.2128766,6.4059326 4.0752243,5.9953016 3.9959705,6.3305875 4.0038753,5.7805255 3.7555168,6.0050255 3.4929393,6.3170484 3.7282151,6.7730635 4.0657563,6.8068047 4.1222727,7.1466504 3.5914229,7.8445946 4.2503712,7.4358487 4.5633894,7.2971053 4.5368478,6.9487316 4.9071913,7.0098352 5.1449268,6.7181475 4.9022382,6.1942691 4.6348609,5.9452979 4.813465,6.5626058 4.3455622,5.5130203 4.5445165,6.0827625 4.6042945,6.406201 4.4203694,5.7813164 4.3124,5.857448 Z M 3.2333948,5.88432 c -0.09662,0.1828003 -0.1850188,0.099801 0,0 z M 7.6615487,5.926695 C 7.4555712,5.9655935 7.2163867,6.2412206 7.5530266,6.2894633 7.625915,6.0619374 7.9842321,6.2435786 7.6615487,5.926695 Z m -4.3718268,0.0093 c 0.038662,0.084617 -0.1206121,0.1176831 0,0 z M 8.508009,6.0465835 c -0.3609731,0.1984709 0.2929961,0.1425075 0,0 z m -0.2309945,0.022221 c -0.3834585,0.1088835 0.2307905,0.1297859 0,0 z m -5.0312161,0.014469 c 0.055501,0.081532 -0.171336,0.1782554 0,0 z m 4.7914375,0.022738 c -0.2870444,0.2606966 0.204465,0.2897384 0,0 z m 0.6278694,0.043408 C 8.2357499,6.4285381 8.7479382,6.8509442 8.8512394,7.2090809 9.0686734,6.8539394 9.0181272,6.4375583 8.6651053,6.1494195 Z m -0.8190732,0.030489 c -0.149461,0.098597 0.1434566,0.08769 0,0 z m -0.7307024,0.00568 C 6.9698782,6.3547354 6.7222397,6.6392817 7.0983531,6.7270683 7.0593476,6.3859648 7.4689389,6.5961373 7.207313,6.3090933 L 7.1563461,6.2191084 7.115331,6.1855866 Z m 1.1529006,0.043408 c -0.3361187,0.116818 0.1545211,0.2024759 0,0 z m 0.167947,0.024805 c -0.4744215,0.220585 0.3171962,0.089379 0,0 z m -3.9749492,0.013953 c 0.071681,0.055872 -0.043554,0.1665893 0,0 z m 3.2060039,0.029972 c -0.4169482,0.139984 0.1635888,0.1426475 0,0 z m 0.1457272,0.066662 c -0.3823755,0.2223274 0.2309561,0.1555384 0,0 z m 0.247015,0.011369 c -0.4694717,0.186537 0.2210224,0.2058051 8e-7,-1e-6 z M 8.27598,6.438291 c -0.442107,0.2561782 0.150266,0.2097018 0,0 z M 0.52865195,6.468263 c 0.31426263,0.1983851 0.0280415,0.9889059 -0.2083036,0.6050866 -0.16003239,0.115765 -0.0355775,0.4252245 -0.0748853,0.6231855 0,0.3722684 0,0.7445367 0,1.116805 0.4121691,-0.1395286 0.084798,-0.4245368 0.54312032,-0.47594 C 0.93228395,8.0980064 0.66558866,8.0303195 0.98899783,7.8068144 1.1191048,7.5172296 0.57653387,7.6523393 0.86442848,7.3383179 0.92915801,7.0525816 0.92029121,6.4950263 0.52865195,6.468263 Z M 7.5349403,6.512188 c -0.5219182,0.2833992 0.2363351,0.1680108 0,0 z M 1.3513395,6.585569 c 0.1482903,0.1003052 -0.144222,0.086487 0,0 z m 6.6471402,0.026872 c -0.5374838,0.2345335 0.1930736,0.1827853 0,0 z M 7.7240777,6.62691 c -0.3503374,0.1629612 0.1273132,0.1461718 0,0 z M 3.5723922,6.664117 C 3.3533505,6.8382822 2.9956091,6.7202463 3.2374759,7.1276671 3.3166415,7.77363 3.4253593,8.4276326 3.693452,9.0272319 3.2801099,8.8923638 2.9219894,9.8786994 3.4935962,9.5792386 3.8850952,9.5381597 3.3120938,10.238344 3.7517719,10.250484 4.1134561,9.7734522 4.4063003,10.70633 4.7546502,10.840765 4.5490164,10.55308 4.3928211,10.090055 4.194139,9.7535947 3.8496176,9.4372317 4.0011325,9.5334321 3.9521965,9.1636299 4.0478533,9.484929 4.5403878,10.207973 4.3437797,9.4806703 4.3212232,9.2119735 4.4209685,8.8546134 4.386298,9.3259702 4.343013,9.6694965 4.411326,9.7655121 4.5816342,9.4313903 4.9414267,9.1660502 4.2419583,9.8767947 4.4656577,10.122559 4.6691149,10.360781 4.6465727,10.670766 4.8789549,10.879602 5.2074082,11.271835 4.7168629,10.446519 4.7372368,10.263757 4.6172086,9.8866941 5.027861,9.7644464 5.1958939,9.9530568 5.4647796,9.7343185 5.1051172,9.3665912 5.592994,9.3347516 6.1116502,9.32159 5.5634415,8.7294066 5.2681004,8.8534396 5.2892633,8.2862992 4.8349593,8.6666984 4.7044286,8.9046447 4.4749982,8.4589181 4.2351042,8.5568831 4.1693845,8.9389501 4.2373569,8.2791566 3.7278109,9.024015 3.7147188,8.9131745 3.9178876,8.5124021 3.6397886,7.9666027 3.639157,7.4635153 3.598035,7.2034419 3.6398996,6.9064231 3.5723922,6.664117 Z M 8.2258547,6.69874 C 8.0709947,6.872317 7.6257272,7.0131591 8.052736,7.2329625 8.1490343,7.304265 8.5893182,7.6644141 8.3558937,7.3157213 8.6097204,7.7054456 8.536236,7.4255753 8.416541,7.1762298 8.5536407,7.5633103 8.7174095,7.4900507 8.5846718,7.0892987 8.4999978,6.9452123 8.4097313,6.7270147 8.2258547,6.69874 Z M 7.25744,6.7390479 c -0.3516406,0.1619124 0.1489411,0.2269374 0,0 z m -0.5100479,0.0062 c -0.161289,0.1155854 0.09548,0.2755835 -0.2431234,0.2979342 -0.013915,0.3452226 0.4220349,0.2245633 0.3480244,0.00541 0.09339,-0.1292151 0.2673051,-0.2146352 -0.104901,-0.3033441 z m 2.5321445,0.021187 c -0.065879,0.00462 0.035394,0.078584 0,0 z m -1.7957561,0.00362 c -0.4493243,0.2219829 0.07536,0.293914 0,0 z m 0.2418476,0.057878 c -0.4911099,0.243898 0.2520657,0.1937043 0,0 z m 1.5539085,0.09095 C 9.1515589,7.1768153 8.770438,7.3870483 9.1746348,7.2976716 8.7194166,7.4660791 9.4611447,7.4908321 9.2795367,7.1426409 c -0.1433005,0.035401 0.073122,-0.1210485 -10e-8,-0.223758 z m -2.2096835,0.01602 c -0.2392634,0.1405916 -0.025332,0.3522946 0,0 z m 0.4056591,0.056844 c -0.402563,0.2221519 0.2233925,0.2527606 0,0 z m -0.2687161,0.018604 c -0.3201647,0.2370847 0.1596675,0.1832631 0,0 z m -5.3035517,0.10697 c -0.3278945,0.1445967 0.3498875,0.079536 0,0 z M 1.7182425,7.1896679 C 1.3737429,7.3125889 1.7044976,7.6773924 1.9872224,7.4987094 2.2738829,7.8355518 2.1951428,6.9233463 1.8665755,7.3991123 1.7909594,7.5367506 1.877145,7.1645892 1.7182425,7.1896679 Z m 5.9603586,0.00362 C 7.2630211,7.2662842 7.0866351,7.6591217 7.5679749,7.8318916 7.8150227,7.962268 8.3111202,8.0013597 7.8194841,7.8085341 8.1877851,7.9203118 8.1344223,7.8418683 7.863087,7.6992001 8.1402656,7.8230607 8.447851,7.8221237 8.008099,7.6012872 7.8582597,7.5019687 7.8210511,7.2749607 7.6786011,7.1932879 Z m -0.4371816,0.019637 c -0.3770258,0.1907088 0.1800408,0.1895828 0,0 z m -0.24443,0.018604 c -0.2508787,0.2125618 0.1945333,0.1767086 0,0 z m -4.7630159,0.023255 c -0.057194,0.3409137 0.4656103,0.081508 0,0 z m 2.6096595,0.032556 C 4.5472606,7.7197625 5.3646231,8.0664576 5.2751505,8.2481554 5.312197,8.4711317 5.6939219,8.4424068 5.8102806,8.6424466 6.1648496,8.6894676 6.6847194,8.8623765 6.9015281,8.4882572 6.7690412,8.4485389 6.584174,8.3042276 6.2409634,8.3446377 6.9854036,8.2916542 5.9867692,8.255028 5.7012293,8.1043614 4.9255863,7.6760624 6.3379341,8.3706778 6.2600825,8.1353446 5.9228684,8.0981537 5.8720554,7.9239104 6.2320167,8.0480351 6.5513163,8.2023989 6.0189596,7.8512899 6.0858681,7.6030162 5.6668441,7.3011294 6.0123702,8.2158793 5.7297959,7.7254729 5.4933388,7.4857394 5.2016441,7.828378 4.9211027,7.4315038 4.8739146,7.3989966 4.9182324,7.2923726 4.8436331,7.2873399 Z m 1.7053215,0.114205 C 6.4567067,7.4729523 6.4899025,7.9804603 6.7159374,7.6085329 6.8606487,7.4183504 6.6966368,7.4209273 6.5489546,7.4015449 Z m 0.5498386,0.00155 c -0.2409675,0.1396287 0.077995,0.2706718 0,0 z m -0.2304785,0.042892 c -0.1542595,0.2130987 0.1649633,0.1462811 0,0 z m 2.0220992,0.00103 C 8.2735241,7.6070269 9.4109025,8.0098812 9.2795362,7.68518 9.4311298,7.252128 8.7649515,7.6982908 8.8904139,7.4470169 Z m -6.5220823,0.032556 c -0.3531269,0.09012 0.056115,0.2064106 0.02222,0.2015379 C 2.2192449,7.9817927 2.865678,7.5674449 2.3683316,7.4795729 Z m 0.1912038,0.010335 c -0.039671,0.3307468 0.3972016,0.4327074 0,0 z m -0.8164882,0.037207 c -0.2858917,0.1016587 0.00876,0.675184 -0.00106,0.1754044 0.033321,-0.036687 0.1096374,-0.1878869 0.00106,-0.1754044 z m 0.1901692,0.020671 C 1.6608701,7.6847784 1.8315782,8.1754724 1.9803089,7.7104884 2.0282549,7.6407895 2.0747659,7.5218615 1.9332164,7.5477859 Z m 6.8378255,0.00517 c 0.2621572,0.029718 0.4855942,0.095479 0.057754,0.084036 -8.484e-4,-0.032225 -0.1524763,-0.071569 -0.057754,-0.084036 z M 7.042466,7.6320166 C 6.9271253,7.8612853 6.7070281,7.4987402 6.6895139,7.8506117 c 0.1710067,0.2424681 0.5559056,0.325447 0.318992,0.1473508 0.29695,0.1346793 0.4118778,0.056289 0.699976,0.036684 C 7.4176641,8.0315385 7.2707469,7.7511571 7.042466,7.6320166 Z m -0.7079694,0.00465 C 5.8772537,7.8609165 7.0236625,8.3023915 6.5153354,7.8427873 6.4707744,7.7623048 6.4377493,7.6605276 6.3344966,7.6366666 Z m -4.1790725,0.030489 c -0.4883626,0.1061912 -0.030637,0.5227281 0.015037,0.4561991 -0.5588332,0.14714 0.6714626,0.00675 0.1355223,-0.2059195 -0.6884,0.3295615 0.2406154,-0.079623 -0.1505597,-0.2502796 z m 6.4910784,0.047026 C 8.4216628,7.7834482 9.0092559,8.2289583 9.0711713,8.4555885 9.5604448,8.8660449 8.8596627,7.6794054 8.6465025,7.7141816 Z M 2.5672851,7.8211524 C 2.2830885,7.841507 2.7156697,8.078018 2.337845,8.2552292 1.9406081,8.2072198 2.2935362,8.4745095 2.5166541,8.3096365 2.3375812,8.085465 3.02355,8.0247179 2.5672851,7.8211524 Z m -0.4904079,0.01912 c 0.020227,0.074571 -0.197652,0.2247063 -0.0801,0.073897 z m 0.6707585,0.00155 c -0.069896,0.2569695 0.083594,0.410407 0.080614,0.054777 L 2.782006,7.8535918 2.7476339,7.841822 Z M 8.457881,7.8630094 C 8.1603373,7.9439154 7.5039891,8.5847926 7.7844047,8.7366111 8.139191,9.1955072 8.0387313,7.9099909 8.3064687,8.0893533 8.1949566,8.3855476 8.2478016,8.9125851 8.5286762,8.5787298 8.9752048,8.5750101 8.4642931,7.5898526 8.4425482,8.1211298 8.4500103,8.0352273 8.4641909,7.949708 8.457881,7.8630094 Z M 3.104204,7.9059004 C 3.1037516,8.1812739 3.2235853,8.297329 2.992711,8.4928302 2.8989147,8.8803689 3.3534824,8.4118209 3.3889367,8.8159223 3.7044248,8.995811 3.3584461,8.2781679 3.2215034,8.3234463 3.4827126,8.3813001 3.2232735,7.8757023 3.104204,7.9059004 Z m 0.7110677,0.03514 C 3.802367,8.1708769 4.0616905,8.0268777 3.8405256,8.24886 3.870621,8.5913574 4.5171725,8.4166023 4.617733,8.5501791 4.5476892,8.1649816 4.1416327,8.0312158 3.8152717,7.9410404 Z M 1.302246,8.069716 C 0.99662357,8.06271 0.80797369,8.2981414 1.2366349,8.2653416 1.5093906,8.3492466 2.0909995,8.9848991 2.125968,8.6500428 1.7722708,8.7645178 1.6687012,8.0998094 1.302246,8.069716 Z M 7.9101115,8.083152 C 7.7645072,8.1420971 7.3794118,8.435497 7.6567785,8.1468513 7.3507484,8.1691141 6.9893819,8.6097926 7.3850005,8.6568948 7.5458408,8.4531545 7.7653368,8.297423 7.9101115,8.083152 Z M 1.8810221,8.132761 c -0.4244933,0.096905 0.051025,0.2378833 0,0 z m 6.2073736,0.00258 c -0.03331,0.1935127 -0.1769714,0.2020995 0,0 z M 2.6913085,8.153944 c -0.3848802,0.3700814 0.3191409,0.1823918 0,0 z m 4.6787858,0.03359 C 7.1166653,8.1825334 6.7056811,8.1793264 7.052504,8.4237161 7.1773758,8.3745115 7.2667468,8.268991 7.3700943,8.187534 Z M 6.5174322,8.4350683 c 0.2529671,0.027992 -0.258229,0.026335 0,0 z m 2.7621044,0.098702 c -0.3799323,0.1470736 -0.1425979,1.0208749 3e-7,0.3671742 -10e-8,-0.1223914 -2e-7,-0.2447828 -3e-7,-0.3671742 z M 4.4880992,8.7229061 c 0.049438,0.1882692 -0.2121601,0.3014009 0,0 z m 4.1646025,0.053227 C 8.304089,8.8830691 7.9448918,9.4954076 8.2678421,9.654356 8.3979312,9.3712078 8.4354774,9.4611157 8.4754523,9.3719628 8.4476817,9.0796126 8.5653777,9.6972561 8.6206633,9.2939316 8.6889107,9.0596238 8.6482774,9.60175 8.7240143,9.2613749 8.8300768,9.4865721 8.8050606,10.425162 8.9046632,9.712066 9.0588608,9.4503233 8.9271441,9.3079928 8.8253033,9.3161518 9.0612893,8.9023419 8.5014366,9.1317341 8.7017922,8.7926695 L 8.6526992,8.7761335 Z M 8.6123947,8.892405 c 0.035139,0.2958189 -0.1285688,0.4490826 -0.012,0.046698 l 0.00821,-0.031945 z M 1.4686451,9.0246965 C 0.84650187,9.314684 1.7541917,9.48138 1.7252588,9.1017351 1.6070214,9.131381 1.5414361,9.1084317 1.4686451,9.0246965 Z m 0.4785228,0.037207 C 1.4282729,9.3320296 2.4427616,9.4730804 2.1674944,9.1482355 1.9730672,9.2388822 2.0072629,9.1885129 1.9471679,9.0619035 Z M 6.765995,9.1342505 C 6.3802318,9.3943073 7.5713366,9.6811484 7.4135607,9.2838926 7.205553,9.0824883 7.0241496,9.6118232 7.0330078,9.1550595 6.9397751,9.1218676 6.8610222,9.2358731 6.765995,9.1342505 Z M 4.9413013,9.146136 c 0.1801063,0.032998 -0.058003,0.1116901 0,0 z M 1.1492851,9.168874 c -0.29279906,0.041045 -0.23384102,1.09288 -0.05614,0.540667 0.1131377,-0.1855574 0.2543358,-0.3689819 0.05614,-0.540667 z M 6.478676,9.185927 c -0.6199188,0.098839 0.048137,0.5488265 0.103197,0.078662 -0.014716,-0.04288 -0.055387,-0.080833 -0.103197,-0.078662 z M 4.8219293,9.206081 c 0.1391769,0.08764 -0.1962857,0.083676 0,0 z m 4.2416015,0 c -0.1490368,0.1002861 0.1447702,0.086099 0,0 z M 2.4169065,9.249489 C 1.870383,9.5109736 2.9500217,9.8242337 2.600877,9.3533578 2.5147762,9.3661219 2.4848405,9.2641075 2.4169065,9.249489 Z m 6.1401933,0.044442 c 0.065015,0.077925 -0.034846,0.1267026 0,0 z M 0.83664283,9.353359 c -0.1570768,0.134469 -0.28413969,0.3791463 0.04281,0.4378591 0.0212784,-0.1315368 0.0684471,-0.3359743 -0.04281,-0.4378591 z m 0.77049577,0.00258 c -0.80763908,0.1343688 0.4167216,0.036973 0,0 z M 7.6145217,9.369892 C 7.1291708,9.5263606 7.9588399,9.9188087 7.7209763,9.4644592 7.6620343,9.4638439 7.6551049,9.3969281 7.6145217,9.369892 Z M 4.8570686,9.395213 c 0.1753754,0.028188 -0.1762479,0.028084 0,0 z m 1.2479866,0.00413 c -0.6036906,0.2215845 0.3014852,0.4018776 0,0 z M 1.9864427,9.41743 c -0.1419653,0.3416917 0.4743642,0.2871807 0,0 z M 1.5275573,9.46653 C 1.0960776,9.5476238 1.5745101,9.6579441 1.609721,9.759535 1.8315797,9.6559196 1.6272506,9.5222268 1.5275573,9.46653 Z M 1.7838724,9.47015 C 1.4389711,9.4357254 1.9854451,9.6612391 1.9086241,9.8686063 2.2457217,9.9118168 2.0461344,10.409483 2.3058229,9.9436493 2.1766453,9.6533168 1.7641147,9.9196476 1.9569937,9.5911269 1.9149235,9.5348226 1.8600808,9.4743075 1.7838724,9.47015 Z m 4.8508654,0.059945 c -0.407478,0.1856126 0.5036906,0.081151 0,0 z m 1.9001423,0.010852 c -0.6811352,0.2928441 -0.4147793,1.134375 -0.8336426,1.60884 -0.188826,0.37562 0.4572975,1.085013 0.5364489,0.421677 0.5943166,-0.32453 0.380197,0.79053 0.571591,1.129742 0.00373,0.242578 0.504704,0.997672 0.052286,0.560076 C 8.5476272,12.981471 8.0100398,12.723238 7.865669,12.49011 7.6646827,12.541407 7.4959641,12.339308 7.3500769,12.250205 7.1070045,12.246526 6.8573476,11.825403 6.7153528,11.891779 6.5862203,11.813294 6.3304911,11.586695 6.0589802,11.430616 5.9076968,11.373418 5.8145981,11.208031 5.6807911,11.135744 5.5616414,10.915098 4.725678,10.164799 5.0478957,10.829169 c 0.3851179,0.66262 1.08162,1.06061 1.6808941,1.484277 0.3802985,0.218005 0.7889026,0.502814 1.1898887,0.727532 -0.2025008,0.125956 -0.998516,-0.05451 -1.2534525,-0.330654 0.2177786,-0.52965 -0.5575155,0.01018 -0.7932315,-0.07752 -0.5745915,0.148246 -0.096996,-0.816395 -0.5669181,-0.468162 -0.4137861,0.263668 -0.081881,0.763055 -0.021477,0.978467 -0.2784179,0.172844 -0.2500672,0.888011 0.1558605,0.421375 0.2662144,-0.104098 0.7858009,-0.0066 0.2757241,0.170876 -0.5072588,0.243747 -0.2447724,0.291794 0.1188532,0.257488 0.2915581,-0.04078 0.4446997,-0.207363 0.7329715,-0.422388 0.2617051,-0.184979 0.2239542,-0.335723 0.6372347,-0.289652 0.3136996,-0.07249 0.6703122,-0.0047 0.1442972,0.04571 -0.3461671,-0.102332 -0.8160054,0.717513 -0.2962838,0.66634 0.3083824,9.53e-4 0.3570723,0.05771 0.2060552,-0.247005 0.2014472,-0.483614 0.9066219,-0.305416 1.2925083,-0.138157 0.2701602,0.01731 0.827868,0.698089 0.728715,0.1213 C 9.3453096,13.378129 9.1179697,13.188646 9.0838288,12.829246 9.0231782,12.256719 9.1892192,11.586287 8.8082453,11.09742 8.4066845,10.923953 8.6306396,11.026791 8.7753989,10.980123 8.6089685,10.749326 8.3739206,10.367938 8.432082,10.168481 c 0.066262,0.299801 0.4131219,0.791752 0.5392143,0.866619 -0.049482,-0.312738 0.07265,-0.58192 0.055172,-0.09842 0.061782,0.20565 0.1071124,0.966079 0.2132236,0.856516 0.089664,-0.271605 0.015707,-0.582477 0.039843,-0.869808 0,-0.371416 0,-0.742831 0,-1.1142465 C 9.0026141,9.9045365 8.7867695,10.365028 8.6653156,9.8329114 8.614882,9.7515008 8.6643482,9.5486069 8.5348801,9.540947 Z M 7.0450484,9.551282 c -0.4982033,0.00349 0.4667356,0.2256109 0,0 z M 2.8117151,9.586936 C 2.383839,9.6176675 2.9068708,10.289293 3.0244586,9.8932727 2.9993566,9.7975237 2.8951204,9.6591248 2.8117151,9.586936 Z m 3.5253665,0.00258 c -0.4402779,0.1534298 0.4501962,0.071441 3e-7,1e-6 z m -0.4981601,5.17e-4 c -0.4226381,0.1635358 0.093207,0.67451 0,0 z m -3.5589554,0.00413 c -0.353789,0.2237486 0.5525108,0.3664804 0.055516,0.00793 z m 5.0379338,0.01757 c -0.3183834,0.1342396 0.2289002,0.06257 -7e-7,4e-6 z M 7.8351815,9.634987 C 7.52716,9.7901779 8.0907614,10.097125 7.6293884,10.161302 7.389871,10.408584 7.4683923,10.811443 7.7425565,10.382599 7.8770417,10.144848 8.143893,9.9019961 7.8351815,9.634987 Z M 1.2991451,9.651523 c -0.44715442,0.032527 -0.1975478,1.332185 -0.054504,0.562008 0.1544723,-0.2481683 0.398189,-0.3616437 0.054504,-0.562008 z m 5.6239462,0.05116 c -0.1436346,0.059092 0.020473,0.1253095 -0.2148427,0.1986769 0.2402416,0.013672 0.3590237,0.06988 0.263421,-0.1108229 0.2857097,-0.00946 0.1353967,-0.070174 -0.048578,-0.087854 z m 0.5033301,5.168e-4 c -0.2171317,0.026694 -0.00183,0.1813104 0,0 z m -2.8602913,0.019637 c 0.090201,0.092314 -0.1989944,0.069472 0,0 z m 2.0200329,0.00568 c -0.3667624,0.043047 0.2238058,0.166046 0.080032,0.00842 z m -0.4097946,0.00207 c -0.4243475,0.031207 0.1338677,0.07077 0.00737,0.2492861 0.2877621,-0.1470009 0.306637,-0.047138 -0.00737,-0.2492861 z m 1.4112822,0.038241 c -0.3947184,0.1808804 0.3561018,0.1540164 0,0 z M 1.7110061,9.8060348 C 1.3268587,9.919445 2.0846625,10.06855 2.0781166,10.374773 c 0.01246,0.311837 0.27493,-0.249476 -0.025528,-0.207519 -0.1960031,-0.04572 0.00167,-0.2129516 -0.2769842,-0.2966285 l -0.018362,-0.046624 -0.046236,-0.017971 z m 5.5634863,0.029972 c -0.4655025,0.1140506 0.3691265,0.1478516 0,0 z m -6.63370474,0.00258 C 0.36722612,10.034831 0.51833159,10.336154 0.88986904,10.276282 1.143103,10.327058 0.86330864,9.734569 0.64078766,9.8385868 Z M 2.5858906,9.8726928 C 2.1299875,10.016936 2.7296772,10.095186 2.7626221,10.399237 3.1308764,10.33244 2.4758333,10.169079 2.7426842,10.029419 2.6621832,9.9976503 2.6597165,9.8921703 2.5858906,9.8726928 Z m 4.0059556,0.046509 C 6.2750333,9.9618686 5.9571267,10.159346 6.2547596,10.485619 6.1736412,10.116283 6.5787564,10.898336 6.469889,10.296955 6.3207758,9.9968213 6.6781955,9.9928827 6.7039848,9.9651918 l -0.047629,-0.032975 -0.06451,-0.013017 z m 1.1477334,0 c -0.2031621,0.053078 0.2232977,0.1124382 0,2e-6 z m -1.7569973,0.033073 c -0.5286243,-0.0042 0.2290002,0.8219482 0.028832,0.2663482 0.08351,-0.03615 0.1115384,-0.3092929 -0.028832,-0.2663482 z m 1.5296223,0.029972 c -0.4602052,0.1136562 0.3979793,0.06616 0,-4e-6 z m -0.4185787,0.00775 c -0.3984805,0.075909 -0.6396172,0.1503192 -0.4534212,0.6400552 0.068236,-0.540569 0.044425,0.350513 0.1681685,-0.169288 0.070989,-0.356604 0.01157,0.10831 0.00516,0.23385 0.1948446,-0.217454 0.062567,-0.7570188 0.4630302,-0.61654 -0.011017,-0.06516 -0.1267042,-0.08976 -0.1829424,-0.088077 z m -5.466334,0.066663 c -0.4880777,0.01574 -0.5121063,1.015688 0.028342,0.519855 0.3389187,-0.191541 0.2701726,-0.412512 -0.028342,-0.519855 z m 0.7735967,0.0015 c -0.3248121,0.0067 0.051184,0.393812 0.033431,0.33133 0.21434,-0.140364 -0.024897,-0.170412 -0.033431,-0.33133 z m 0.671793,0.0093 c -0.4082353,0.135036 0.072532,0.693737 0.1918436,0.198447 -0.1668449,-0.0213 -0.05262,-0.189188 -0.1918436,-0.198447 z m 4.3547717,0.06098 c -0.4148948,0.06599 -0.4613518,0.721709 -0.2615098,0.472234 -0.059052,0.0962 0.1603039,-0.07666 0.1447237,-0.0242 0.042788,-0.10772 0.2086433,-0.364468 0.1167861,-0.448037 z m -2.808097,0.03721 c 0.069939,0.102511 -0.1305413,0.07138 0,0 z m 2.0629245,0.09043 c 0.029896,0.213416 -0.040543,0.08715 0,0 z M 4.8570686,10.2763 c -0.1003823,0.270371 0.2368745,0.282957 0,0 z m 0.8976201,0.03049 c -0.00999,0.246323 0.3120008,0.720775 0.4123777,0.314712 -0.082044,-0.13438 -0.2957705,-0.169831 -0.4123777,-0.314712 z m -3.1636308,0.06149 c -0.2743535,0.111414 -0.2036465,0.242044 0.047451,0.199282 0.080594,0.321663 0.179328,-0.185965 -0.047451,-0.199282 z m -1.86138611,0.0186 C 0.20586965,10.550612 1.1581246,10.987902 1.0573103,10.496189 0.96291012,10.426831 0.84599108,10.391578 0.72967179,10.38688 Z m -0.48420867,0.07235 c 0,0.236678 0,0.473356 0,0.710034 0.18201132,-0.265192 0.0491377,-0.445305 0,-0.710034 z m 2.61586138,0.03876 c -0.1629735,0.23408 0.1595957,0.458563 0,0 z m -0.8821156,0.0057 c -0.3455588,0.27733 -0.9440651,0.237395 -0.8722988,0.73174 0.3108344,0.443193 0.2183983,-0.394241 0.3159062,-0.370585 0.292275,0.249869 1.0409105,-0.04541 0.5563921,-0.361099 z m 0.2552806,0 c -0.3048944,0.03878 0.089144,0.179835 0.099331,0.273523 0.2705966,-0.137886 0.019401,-0.209525 -0.099331,-0.273523 z m 0.8748818,0.03617 c -0.3367199,0.126012 -0.064476,0.492952 0.1386532,0.165998 -0.062382,-0.04025 -0.066851,-0.15321 -0.1386532,-0.165998 z M 1.1539365,10.62151 C 0.91751076,10.802543 0.56738031,10.874324 0.88625219,11.072125 0.96136932,11.396933 1.3477569,10.723791 1.1539365,10.62151 Z m 4.9914254,0.0279 c 0.1139708,0.05498 -0.1608082,0.01452 0,0 z m 1.3472054,0.03204 c -0.4219569,0.297192 0.5841,0.05016 0,0 z m -4.9356168,0.03772 c -0.3182263,0.09335 0.1147785,0.464841 0.062973,0.01546 l -0.062972,-0.01547 z m 4.0777873,0.0088 c -0.3032207,0.09909 -0.2059565,0.573373 0.1011334,0.313602 0.00587,-0.108958 -0.00626,-0.242321 -0.1011334,-0.313602 z m 0.137459,0.0093 C 6.6379704,11.068492 7.2713067,11.324596 7.0661056,10.934431 6.9889806,10.822581 6.816668,10.681237 6.9329049,10.914263 6.8740923,10.860111 6.8250828,10.796888 6.7721968,10.73727 Z m -0.4216797,0.0047 c -0.746653,0.01299 0.1877328,0.664324 0,0 z m -3.5904778,0.0186 c -0.2357639,0.183772 0.1638933,0.393782 0,0 z m 4.4446904,0.01292 c -0.3105679,0.379779 0.6799145,0.295713 0,0 z m -0.566375,0.03359 c 0.065,0.07791 -0.034826,0.126727 0,0 z m -3.7114003,0.07235 c 0.041761,0.275643 -0.8059233,0.436141 -0.5026604,0.426174 0.2886084,0.02104 0.6893375,-0.0073 0.5026604,-0.426174 z M 2.2970185,10.90424 C 2.1038512,11.07103 1.32612,10.96281 1.9161565,11.161755 2.1664328,11.3339 2.7684738,11.132898 2.3368083,10.977604 l -0.00192,-0.05334 -0.037871,-0.02004 z m 1.0877894,0.04547 c -0.7023249,-0.09724 -0.3072637,1.022698 0.1294159,1.009738 -0.014406,-0.264208 0.4075953,0.594 0.6055781,0.214067 0.2682682,0.339436 0.4535276,0.117637 0.8148246,0.108335 C 5.40798,11.944343 4.3402027,12.375173 4.5661796,11.888698 4.4139056,11.653432 4.3341242,11.715103 4.4360294,11.473252 4.2651602,11.280697 3.9497481,11.3439 3.99872,11.060807 3.8123603,10.962883 3.5905898,10.957339 3.3848079,10.94971 Z m -1.9342497,0.0052 C 1.4175836,11.265053 1.280501,11.756137 1.7143558,11.711 1.8190298,11.45964 1.6962187,11.082178 1.4505582,10.95491 Z m -0.78393133,0.0041 c -0.32517944,0.04377 -0.65653849,0.656065 -0.14720821,0.215711 0.0384512,-0.05947 0.31488083,-0.139474 0.14720821,-0.215711 z m 7.79228873,5.17e-4 c -0.023012,0.144856 -0.5859589,0.15148 -0.051676,0.0041 l 0.051676,-0.0041 z M 6.7644445,11.10519 c -0.035579,0.273789 -0.1176579,0.238563 -0.3264511,0.243874 0.09381,0.204024 0.6823403,0.753355 0.6888512,0.567359 C 6.9278865,11.682731 6.892162,11.358969 6.7644445,11.10519 Z m -5.0281151,0.02842 c -0.040471,0.257366 0.1641155,0.90534 0.4164134,0.632186 C 2.1801116,11.483444 1.9436865,11.28115 1.7363294,11.13361 Z m 5.7882763,0.06511 C 7.2236503,11.477697 7.1362486,12.054858 7.5686109,12.256351 7.856809,12.691391 7.9295097,11.906626 7.6982384,11.7067 7.6454766,11.507837 7.4509246,11.53415 7.5246057,11.19872 Z m -5.4968219,0.06821 c 0.082184,0.293367 0.3389433,0.736313 0.5959035,0.357851 C 2.4884241,11.434497 2.2585139,11.297437 2.0277838,11.26693 Z m -1.08210355,0.02946 c -0.13715232,0.353531 -0.79189223,0.02935 -0.70021721,0.431989 -0.003599,0.279136 -0.0726264,0.706088 0.31262241,0.32702 0.23133601,-0.165522 0.40218806,-0.470612 0.3875948,-0.759009 z m 1.87895445,0.05116 c -0.4242404,-0.04486 -0.3868843,0.126181 -0.050125,0.25735 0.061297,-0.04061 0.2998584,-0.32192 0.050125,-0.25735 z m 4.7087551,0.454236 c 0.1969009,0.410654 0.00678,0.504441 0,0 z m 1.7461468,0.115755 c -0.072548,0.202747 0.028717,0.123626 0,0 z m -0.7575761,0.06356 c -0.043426,0.139643 0.1582791,0.09404 0,0 z m -6.0135849,0.07286 c -0.2881936,-0.0067 -0.8802906,0.405012 -0.2739651,0.145567 -0.032417,0.261843 0.915686,-0.07459 0.273965,-0.145562 z m 5.1629918,0.0021 c 0.1306484,0.268944 -0.033453,0.289237 0,0 z m 0.7968509,0.0677 c -0.2872128,0.01154 -0.5351498,0.551496 -0.1817784,0.598629 0.2609005,-0.353625 0.00976,-0.242324 0.1817784,-0.598629 z m -6.820773,0.0036 c 0.021011,0.237817 -0.01113,0.165226 -0.2594205,0.263032 0.112605,0.240919 0.4305162,0.160564 0.2511191,0.47987 0.1741329,-0.0074 0.3117129,-0.0734 0.422225,0.209496 0.2216033,-0.398354 -0.6304238,-0.508187 -0.2253083,-0.745184 0.072549,-0.08988 -0.1027269,-0.219804 -0.1886153,-0.207214 z m 1.1720221,0.03876 c -0.2703866,0.21895 0.3014239,0.254662 0,0 z m 6.4600692,0.07493 c -0.2074521,0.249851 -0.076529,1.095664 -3e-7,1.019329 10e-8,-0.339776 2e-7,-0.679553 3e-7,-1.019329 z m -6.3102092,0.06356 c -0.095787,0.298485 0.2201868,0.152428 0,0 z m -0.6526715,0.02946 c -0.3471448,0.02224 -0.5934904,0.157459 -0.079581,0.15863 0.067843,0.02627 -0.5074648,0.03476 -0.093772,0.09825 0.2530149,0.06085 1.0711419,-0.133529 0.4291224,-0.229375 -0.084477,-0.01475 -0.1698657,-0.02688 -0.2557691,-0.02751 z m 0.5844593,0.19327 c -0.1538826,0.232337 0.1383854,0.191992 0,0 z m 4.1124107,0.05581 c -0.038455,0.112892 0.2006378,0.01038 0,0 z m -4.2808762,0.02325 c -0.23916,0.07307 -1.036972,0.05932 -0.3728045,0.202824 0.1230458,0.04627 0.6104139,-0.01573 0.3728045,-0.202824 z m -1.8551843,0.01757 c 0.0363722,0.04019 -0.0385971,0.142225 -0.2459778,0.20362 0.23542784,0.134586 0.5550009,0.0437 0.7686602,0.02334 -0.1112981,-0.315953 -0.3640107,0.06647 -0.5226824,-0.226957 z m 3.0587289,0.02274 C 3.261976,12.495392 3.2983958,13.373907 2.727188,13.396163 c -0.1546896,0.230751 -0.1539468,0.729391 0.1367211,0.34816 0.218874,-0.167574 0.2748942,0.296626 0.6092644,0.248552 0.098481,-0.370583 -0.7312587,-0.55581 -0.1042757,-0.417021 0.05618,-0.505484 0.1008637,-0.07484 0.088252,0.15037 0.354715,-0.40054 0.036137,-0.01412 0.089919,0.266647 0.4166422,0.200183 0.3514529,-0.643775 0.7131578,-0.170792 5.671e-4,0.429298 0.4527614,-0.551194 -0.068777,-0.582884 C 3.572976,13.42127 3.8789686,12.885313 4.0436781,12.670477 l -0.1074869,-0.02377 z m -3.27060194,0.02894 c -0.59663557,0.192158 0.44067764,0.05147 0,0 z m 0.91364064,0.0072 c -0.3681001,0.204994 0.1326245,0.24444 0,0 z m 0.6945313,0.03359 c 0.1747244,0.02836 -0.1749685,0.02822 0,0 z M 0.39584171,12.7485 C 0.16259,12.760958 0.23346021,13.344989 0.28143849,13.311078 0.25824994,13.122782 0.72723003,12.818901 0.39584171,12.7485 Z m 5.10356379,0.04651 c 0.1337087,0.236641 1.1671517,0.580751 0.4252222,0.402868 C 5.7889039,13.059971 5.584634,12.972227 5.4994055,12.79501 Z m -4.81520765,0.10542 c -0.42230723,0.06057 -0.41142834,0.908179 -0.006135,0.352785 0.0754485,-0.09611 0.18993806,-0.300064 0.006135,-0.352785 z m 0.35501535,0.0098 c -0.63488051,0.255903 0.5226319,0.256112 0.073357,-0.0017 l -0.073352,0.0017 z m 0.4170283,0.06925 c -0.55064651,0.01322 0.4362455,0.454 0.089872,0.01902 l -0.089872,-0.01903 z m -0.1384909,0.144177 c -0.2723899,0.04925 -0.49467542,0.447344 -0.64544048,0.578259 0.35473398,0.230996 0.57017608,-0.316293 0.44958508,-0.304893 0.1603327,0.07426 0.4728938,-0.209919 0.1958554,-0.273366 z m -0.39894405,0.03101 c -0.3795035,0.02484 -0.38553258,0.720496 -0.009204,0.238526 0.0624052,-0.05201 0.17965982,-0.243922 0.009204,-0.238526 z m 5.42240785,0.02481 c 0.283334,0.156683 -0.032807,0.17476 0,0 z m -0.5250312,0.01654 c 0.1747268,0.02836 -0.1749684,0.02822 0,0 z m 1.9528525,0.05529 c 0.5904778,0.0022 -0.085356,0.118279 0,0 z m -6.1815344,0.01344 c -0.5004818,0.119736 0.5851153,0.416887 0.095545,0.01872 z m 6.6088973,0.04341 c 0.1771221,-0.0039 0.2384714,0.114678 0.018605,0.03049 l -0.059365,-0.02378 z m -7.95093548,0.10697 c -0.0754613,0.320538 0.15436734,0.187578 0,0 z m 1.17718948,0.0031 c -0.4831626,0.08675 -0.039024,0.508244 0.1436604,0.118871 -0.012133,-0.0665 -0.076931,-0.114707 -0.1436604,-0.118871 z m -0.94567906,0.07493 c -0.29979741,0.05354 -0.21392154,0.405924 -0.1922357,0.371039 -0.1508442,0.234881 0.29119963,0.08849 0.41275183,0.1286 0.28554359,0.107367 0.89938623,-0.286691 0.32437303,-0.25316 -0.24824421,0.243281 -0.27560027,-0.0705 -0.62040165,0.02739 0.15314561,-0.02374 0.3141224,-0.230818 0.0755125,-0.273866 z m 7.61917446,0.01085 c -0.4416287,0.127726 0.4001393,0.869112 0.1553997,0.253836 -0.036977,-0.08508 -0.039736,-0.237537 -0.1553997,-0.253836 z m -1.4231699,0.05891 c -0.2612856,0.118097 0.07579,0.0489 0,0 z m 0.1607132,0.03152 c -0.3108849,0.09779 -0.9202426,0.505342 -0.2815958,0.398425 0.1847447,0.03982 0.1856497,-0.291906 0.2815958,-0.398425 z m -5.1335357,0.0072 c -0.501103,0.09966 0.557085,0.409398 0.1126295,0.01377 L 1.700155,13.601629 Z M 1.4608928,13.73552 c -0.46701984,0.08628 0.1760358,0.519867 0.1857276,0.03883 -0.050513,-0.04416 -0.1252233,-0.034 -0.1857276,-0.03883 z m 7.4248697,0.119889 c -0.3967073,0.22526 0.3699311,0.159776 0,0 z m -7.1091265,0.07597 c -0.5764495,0.06915 0.4718882,0.10726 1.2e-6,-2e-5 z m 0.4640554,0.0047 c -0.08487,0.112633 0.3169294,0.04565 0,0 z" />
  </g>
  <g
     inkscape:groupmode="layer"
     id="layer5"
     inkscape:label="Watercolour for Printed Fabric Design: Wey (1882-1883)" />
  <g
     inkscape:groupmode="layer"
     id="layer2"
     inkscape:label="letter outline"
     style="display:inline">
    <g
       aria-label="B"
       transform="scale(0.88712253,1.12724)"
       id="text21789-2"
       style="font-size:12.6332px;line-height:1.25;font-family:'Shining NFI Demo';-inkscape-font-specification:'Shining NFI Demo';letter-spacing:0px;display:inline;fill:#800000;stroke:#800000;stroke-width:0.529167">
      <path
         d="M 6.1653273,6.1968187 Q 7.2644157,6.3484171 7.8455428,6.916911 8.42667,7.485405 8.42667,8.4076286 q 0,1.010656 -0.7074592,1.7054824 -0.6948259,0.682192 -2.1476439,0.682192 H 1.844773 V 10.694238 L 2.8806954,10.593172 V 2.2805268 L 1.844773,2.1794612 V 2.0783956 h 3.1456667 q 1.4907176,0 2.273976,0.5305943 0.7832583,0.5305944 0.7832583,1.5412504 0,0.8085248 -0.4926948,1.3391192 Q 7.0622845,6.0199539 6.1653273,6.1462859 Z M 3.8534517,2.229994 v 3.8783923 h 1.4654512 q 0.8464244,0 1.2127872,-0.4926948 0.378996,-0.4926948 0.378996,-1.4654512 0,-1.9202463 -1.958146,-1.9202463 z m 1.4149184,8.413711 q 1.958146,0 1.958146,-2.1981768 0,-1.1496212 -0.4926948,-1.6675824 Q 6.2411265,6.2599847 5.2683701,6.2599847 H 3.8534517 v 4.3837203 z"
         style="font-family:'Libre Caslon Display';-inkscape-font-specification:'Libre Caslon Display';fill:#000000;stroke:#000000"
         id="path7036" />
    </g>
  </g>
  <g
     inkscape:groupmode="layer"
     id="layer3"
     inkscape:label="letter fill"
     style="display:inline">
    <g
       aria-label="B"
       transform="scale(0.88712254,1.12724)"
       id="text21789"
       style="font-size:12.6332px;line-height:1.25;font-family:'Shining NFI Demo';-inkscape-font-specification:'Shining NFI Demo';letter-spacing:0px;display:inline;fill:#ffffff;stroke-width:0.0561189">
      <path
         d="m 6.165339,6.1968187 q 1.0990883,0.1515984 1.6802155,0.7200923 0.5811272,0.568494 0.5811272,1.4907176 0,1.010656 -0.7074592,1.7054824 -0.694826,0.682192 -2.1476439,0.682192 H 1.8447847 V 10.694238 L 2.880707,10.593172 V 2.2805268 L 1.8447847,2.1794612 V 2.0783956 h 3.1456667 q 1.4907176,0 2.2739759,0.5305943 0.7832584,0.5305944 0.7832584,1.5412504 0,0.8085248 -0.4926948,1.3391192 Q 7.0622961,6.0199539 6.165339,6.1462859 Z M 3.8534634,2.229994 v 3.8783923 h 1.4654512 q 0.8464244,0 1.2127872,-0.4926948 0.3789959,-0.4926948 0.3789959,-1.4654512 0,-1.9202463 -1.9581459,-1.9202463 z m 1.4149184,8.413711 q 1.9581459,0 1.9581459,-2.1981768 0,-1.1496212 -0.4926948,-1.6675824 Q 6.2411382,6.2599847 5.2683818,6.2599847 H 3.8534634 v 4.3837203 z"
         style="font-family:'Libre Caslon Display';-inkscape-font-specification:'Libre Caslon Display'"
         id="path7039" />
    </g>
  </g>
  <g
     inkscape:groupmode="layer"
     id="layer4"
     inkscape:label="frame overlay">
    <rect
       style="display:inline;fill:none;stroke:#020202;stroke-width:0.49095;stroke-linecap:round;stroke-linejoin:miter;stroke-miterlimit:4;stroke-dasharray:none;stroke-dashoffset:36.9212;stroke-opacity:1;paint-order:stroke fill markers;stop-color:#000000;opacity:1"
       id="rect1289-6-6"
       width="9.03405"
       height="13.79655"
       x="0.24547499"
       y="0.24547499" />
  </g>
</svg>
