<?xml version="1.0" encoding="UTF-8" standalone="no"?>
<!-- Created with Inkscape (http://www.inkscape.org/) -->

<svg
   width="36"
   height="54"
   viewBox="0 0 9.5249998 14.2875"
   version="1.1"
   id="svg5"
   inkscape:version="1.1.1 (3bf5ae0d25, 2021-09-20)"
   sodipodi:docname="mocking-datasources.svg"
   xmlns:inkscape="http://www.inkscape.org/namespaces/inkscape"
   xmlns:sodipodi="http://sodipodi.sourceforge.net/DTD/sodipodi-0.dtd"
   xmlns="http://www.w3.org/2000/svg"
   xmlns:svg="http://www.w3.org/2000/svg">
  <sodipodi:namedview
     id="namedview7"
     pagecolor="#ffffff"
     bordercolor="#666666"
     borderopacity="1.0"
     inkscape:pageshadow="2"
     inkscape:pageopacity="0"
     inkscape:pagecheckerboard="0"
     inkscape:document-units="mm"
     showgrid="false"
     units="px"
     width="36px"
     inkscape:zoom="8"
     inkscape:cx="29.625"
     inkscape:cy="20.3125"
     inkscape:window-width="1920"
     inkscape:window-height="954"
     inkscape:window-x="0"
     inkscape:window-y="0"
     inkscape:window-maximized="1"
     inkscape:current-layer="layer1"
     inkscape:snap-global="false" />
  <defs
     id="defs2" />
  <g
     inkscape:label="bg"
     inkscape:groupmode="layer"
     id="layer1"
     style="display:inline">
    <rect
       style="fill:#000000;stroke:#020202;stroke-width:0.161356;stroke-linecap:round;stroke-linejoin:miter;stroke-dashoffset:36.9212;paint-order:stroke fill markers;stop-color:#000000"
       id="rect1289"
       width="9.3636436"
       height="14.126144"
       x="0.08067818"
       y="0.080677792" />
    <path
       id="rect1289-6"
       style="display:inline;fill:#ffffff;stroke:#ffc000;stroke-width:5.22278;stroke-linecap:round;stroke-linejoin:miter;stroke-miterlimit:4;stroke-dasharray:none;stroke-dashoffset:36.9212;stroke-opacity:1;paint-order:stroke fill markers;stop-color:#000000"
       d="M 0.92773438 0.92773438 L 0.92773438 3.7148438 C 0.97222092 3.762515 1.0201419 3.810412 1.0703125 3.8574219 C 2.6071532 3.0991238 2.0351555 2.0387066 1.5527344 0.92773438 L 0.92773438 0.92773438 z M 4.6914062 0.92773438 C 4.7028291 0.93725932 4.7243452 0.93729292 4.7578125 0.92773438 L 4.6914062 0.92773438 z M 6.6914062 0.92773438 C 6.8540087 1.8935068 6.3015365 3.4954106 5.1757812 3.2382812 C 3.0762508 2.1459217 1.2010276 3.7684312 0.92773438 5.7324219 L 0.92773438 6.4296875 C 1.9552433 4.4104141 3.4642444 4.6543002 4.5351562 5.5546875 C 3.3428263 6.0475637 1.977006 6.6946414 0.92773438 7.7226562 L 0.92773438 10.542969 C 2.3108343 10.548624 2.4688034 8.2169411 2.9628906 7.0039062 C 4.2506415 7.0238259 2.9959807 10.179799 4.2167969 7.7285156 C 5.1462923 5.8430356 7.8258115 8.0545922 6.1640625 9.6699219 C 4.6889632 10.022409 4.508381 10.036147 5.4492188 10.980469 C 4.8615027 11.815518 2.0860833 10.908658 0.92773438 10.949219 L 0.92773438 12.441406 C 0.97108089 12.589344 0.96668217 12.665111 0.92773438 12.685547 L 0.92773438 13.712891 C 1.8427794 14.90515 2.6136626 16.663161 2.1835938 14.267578 C 2.6520783 13.254709 0.38768793 14.367341 2.1796875 12.958984 C 2.6033518 14.284422 5.2115093 17.099047 4.0234375 17.902344 C 2.3104358 16.337818 1.7954601 16.827465 3.7597656 18.054688 C 3.2432913 20.054538 2.1872472 18.890636 0.92773438 19.794922 L 0.92773438 22.074219 C 3.111346 23.269366 5.9517191 18.869616 8.4472656 21.841797 C 7.0802751 20.725813 3.3613942 24.278209 4.6699219 25.519531 C 5.3443715 26.88789 2.5330384 26.581403 0.92773438 27.455078 L 0.92773438 28.863281 C 1.5634146 29.16875 1.776492 30.587359 1.4238281 28.382812 C 2.5436772 26.46046 2.8183051 32.00298 2.4433594 33.113281 C 2.3714486 34.959398 0.21650506 37.744235 3.0449219 35.275391 C 4.4459958 37.021506 2.6362763 37.383307 1.1289062 37.666016 C 1.0608163 37.712505 0.9944386 37.751266 0.92773438 37.792969 L 0.92773438 39.746094 C 1.4452159 38.805458 2.3523016 38.537138 2.2421875 40.492188 C 3.3925449 43.725921 3.3242801 39.176791 4.4609375 38.089844 C 3.3920701 36.495012 5.9704897 38.081021 5.859375 35.705078 C 5.9419524 33.547523 4.9690965 29.870167 7.1152344 29.253906 C 7.885592 27.802647 9.1179849 28.834949 10.431641 27.736328 C 10.320349 29.28117 10.335183 30.053672 10.763672 30.388672 C 9.6784353 32.668718 10.679564 33.720958 7.7910156 34.818359 C 5.8708108 34.793037 5.8215319 37.370981 8.0351562 35.84375 C 10.487856 36.335629 10.577002 32.212356 13.091797 34.488281 C 15.49235 34.019983 13.566528 32.307901 13.458984 32.171875 C 15.028931 31.903049 14.998589 32.906675 15.125 33.767578 C 15.183174 33.669802 15.277048 33.56178 15.427734 33.433594 C 16.20782 34.093961 15.545337 34.354283 15.214844 34.205078 C 15.385164 34.75317 15.795847 35.097258 17.097656 34.710938 C 18.339925 35.932923 13.81107 35.059891 15.246094 35.652344 C 16.7161 35.121018 15.039686 36.580287 15.123047 36.494141 C 16.208734 37.895698 13.427117 38.823258 14.671875 36.685547 C 13.608036 34.932606 11.26316 38.170814 9.8066406 36.261719 C 8.4106211 36.138468 7.1817229 36.690953 7.5332031 37.427734 C 6.0119527 35.783886 2.9966415 40.703258 6.4375 38.919922 C 7.5515078 38.12034 11.696417 36.823895 11.273438 38.638672 C 14.514357 39.576195 12.677054 41.752115 13.958984 44.140625 C 11.576733 43.122333 10.90971 44.897064 9.1425781 43.144531 C 6.6904641 44.095551 7.9184749 39.251213 5.7597656 39.673828 C 3.2596251 39.961904 5.526611 41.717946 3.8339844 42.322266 C 3.5262288 44.364314 4.7743594 44.946361 4.3183594 46.21875 C 4.8207028 48.080228 6.6449066 50.419402 5.6523438 46.902344 C 4.6170548 46.018127 5.4341763 43.692906 5.3164062 42.673828 C 8.3094935 42.688946 7.0952626 44.148321 6.6328125 45.53125 C 6.6101731 45.575697 6.5820579 45.64531 6.5566406 45.701172 C 6.5490438 45.695125 6.5466338 45.688066 6.5371094 45.681641 C 6.425258 45.761313 6.4521163 45.80711 6.5019531 45.822266 C 6.0705038 46.84239 5.4502348 49.11761 6.9140625 49.632812 C 6.5975316 50.230621 8.1166991 51.914389 9.59375 53.072266 L 12.226562 53.072266 C 11.221111 52.748995 10.298831 52.027487 9.9726562 51.115234 C 7.6192147 49.670336 9.845849 48.717623 8.5488281 46.697266 C 9.4269277 45.725307 11.38599 45.806098 13.148438 46.183594 C 13.723687 46.144929 14.835164 48.27502 15.580078 48.755859 C 16.467304 48.904794 16.965403 51.395776 17.648438 53.072266 L 18.433594 53.072266 C 18.732873 51.709751 18.567392 50.268179 18.060547 50.302734 C 19.927038 48.966157 16.416585 48.283529 16.402344 46.947266 C 15.024518 45.717048 16.556354 45.053564 15.322266 43.242188 C 14.423028 41.233932 16.733777 40.480565 16.720703 38.15625 C 17.487312 39.22685 18.546591 36.948135 18.712891 36.341797 C 19.67207 38.544558 21.625707 38.235653 21.605469 40.935547 C 23.532778 41.718423 21.634509 44.75724 21.798828 46.294922 C 21.93872 48.251137 18.266867 48.940885 19.705078 50.058594 C 20.024883 50.71043 18.465192 50.508623 19.466797 52.154297 C 19.503024 52.573422 19.554125 52.868853 19.613281 53.072266 L 20.205078 53.072266 C 20.751392 52.130489 21.44382 49.547693 21.845703 48.898438 C 22.678219 49.414343 23.56526 45.897014 24.140625 46.617188 C 25.268023 45.50093 27.071866 45.9462 28.46875 46.3125 C 29.689009 46.101376 29.189484 47.277669 28.755859 48.296875 C 28.750077 48.29234 28.748877 48.29007 28.742188 48.285156 C 28.63223 48.363506 28.653021 48.411785 28.701172 48.427734 C 28.660266 48.524075 28.616581 48.628117 28.580078 48.71875 C 30.186528 50.373268 27.632454 50.749759 27.421875 51.087891 C 27.782598 51.971815 26.944283 52.73336 25.888672 53.072266 L 28.273438 53.072266 C 29.512659 52.217431 31.02727 51.324593 30.769531 49.996094 C 30.091199 49.496425 32.483143 49.562145 31.818359 47.919922 C 31.896482 46.202573 28.924419 43.582546 31.472656 42.851562 C 33.491539 42.30697 31.544761 45.200481 32.660156 46.210938 C 31.411951 47.509613 32.247691 50.953378 33.111328 47.324219 C 33.546668 45.460296 33.26732 44.984748 34.0625 43.386719 C 34.039369 41.803792 32.2391 42.005698 33.117188 40.570312 C 30.062977 37.245145 30.940691 43.531694 28.673828 43.0625 C 28.155453 43.245391 27.814347 43.494639 27.544922 43.71875 C 27.535513 43.710051 27.531283 43.701247 27.517578 43.691406 C 27.443741 43.743261 27.431835 43.780839 27.445312 43.804688 C 27.47672 43.777475 27.511231 43.748709 27.544922 43.720703 C 27.672121 43.836112 27.479019 43.86435 27.445312 43.804688 C 26.929948 44.246442 26.693084 44.511962 25.962891 43.738281 C 22.844546 45.300961 24.35688 42.742169 24.210938 40.876953 C 23.151703 39.319784 27.156152 39.449358 26.195312 37.591797 C 28.146649 38.166568 30.699141 38.406299 32.90625 39.400391 C 32.693715 37.330975 29.835981 37.390879 29.966797 37.048828 C 28.95997 34.860142 25.815299 38.170901 24.419922 36.128906 C 22.771928 35.411348 22.456514 37.426126 22.925781 38.164062 C 21.840863 37.950772 22.179109 36.762513 22.261719 35.949219 C 22.165322 36.391628 20.86279 36.549887 21.767578 35.419922 C 22.116334 35.573068 22.252581 35.733688 22.267578 35.873047 C 22.321202 35.222363 22.166466 34.857486 20.847656 35.544922 C 18.366162 34.28186 24.483872 35.211966 21.878906 32.396484 C 24.104296 32.21094 23.915491 31.89925 22.701172 33.279297 C 23.391144 35.925542 27.027999 31.992006 27.421875 35.361328 C 28.598287 36.340018 33.339435 36.546843 29.820312 34.992188 C 27.132308 34.030048 27.114524 32.937256 26.691406 30.728516 C 25.711416 30.068636 27.38176 29.317235 26.382812 27.650391 C 28.066432 28.744539 29.635922 28.095929 30.462891 29.982422 C 32.431654 30.473265 30.652131 35.411049 32.246094 37.173828 C 32.765461 37.77026 33.867378 36.996611 33.111328 38.333984 C 34.203168 39.590228 34.238384 42.760662 35.072266 41.224609 L 35.072266 37.279297 C 34.561985 37.038524 34.09164 36.841563 33.726562 36.792969 C 34.409928 35.508867 34.712252 34.954948 35.068359 36.201172 C 35.069831 36.201746 35.070798 36.202556 35.072266 36.203125 L 35.072266 33.691406 C 34.706781 32.752941 34.398754 31.791604 34.654297 31.236328 C 34.345827 30.373275 34.709341 28.255461 35.072266 27.761719 L 35.072266 27.214844 C 33.535891 26.796774 31.797175 26.758859 32.035156 25.859375 C 32.566751 25.407228 32.502357 24.741836 32.142578 24.076172 C 32.178597 24.066836 32.204561 24.045436 32.179688 24.003906 C 32.466119 24.043924 33.086873 24.074061 32.634766 23.955078 C 32.348999 23.948842 32.215089 23.952644 32.134766 23.958984 C 32.125884 23.951425 32.123347 23.944013 32.111328 23.935547 C 32.09621 23.946205 32.092236 23.953555 32.082031 23.962891 C 32.081155 23.963081 32.076866 23.962695 32.076172 23.962891 C 31.465505 22.92791 30.17824 21.919574 29.3125 21.728516 C 25.917096 22.487784 31.274536 19.84756 32.533203 21.328125 C 33.537723 22.331035 34.278268 22.515016 35.072266 22.320312 L 35.072266 20.708984 C 34.979055 20.667776 34.938667 20.570882 35.072266 20.425781 L 35.072266 19.835938 C 33.977847 18.361145 32.733086 20.277508 32.623047 17.964844 C 34.671484 16.713393 33.674455 16.418065 32.291016 17.849609 C 31.09474 16.790489 33.351045 14.146133 33.816406 12.931641 C 35.066816 13.141465 34.26015 14.716058 33.730469 13.595703 C 33.733412 15.46879 34.021273 15.654238 34.925781 14.173828 C 34.90245 13.931312 34.958436 13.668043 35.072266 13.4375 L 35.072266 12.791016 C 34.885102 13.022007 34.831569 12.958394 35.072266 12.332031 L 35.072266 11.148438 C 33.766014 10.663785 28.967819 11.659053 31.123047 10.455078 C 30.413062 9.8016205 28.112746 9.0693123 29.419922 7.2167969 C 29.948381 7.3916756 30.194128 7.305521 30.558594 6.8925781 C 31.734279 7.5954546 32.184075 9.9569032 32.193359 7.1582031 C 32.563916 7.2141099 32.818733 7.4892284 33.03125 7.8554688 C 32.832277 7.9971708 33.059663 8.0350147 33.101562 7.9726562 C 33.621524 8.9588795 33.89967 10.493375 35.072266 10.652344 L 35.072266 7.6855469 C 33.919207 6.4709256 31.623376 6.3855739 31.201172 5.2109375 C 32.709309 5.8688848 32.498286 3.652246 34.048828 5.5097656 C 35.508851 7.9625675 34.219676 1.675213 31.980469 2.8613281 C 30.156959 4.0759201 28.45289 2.3051756 28.824219 0.92773438 L 25.962891 0.92773438 C 25.983465 1.6055186 25.689808 1.9782086 25.082031 1.5253906 C 24.761682 3.0047529 23.869082 0.118621 24.265625 2.8554688 C 25.580357 1.3236232 30.898192 2.587994 27.134766 5.046875 C 26.519727 6.2881913 25.78455 7.382233 25.207031 6.8320312 C 23.751919 7.997616 25.352869 5.1498787 23.986328 6.3730469 C 22.894387 5.5125739 25.829584 4.0185627 24.230469 4.3183594 C 25.816953 1.3024659 23.32065 5.2538841 23.101562 6.4609375 C 21.621358 8.0891111 21.44029 6.028753 20.464844 7.1679688 C 21.848166 3.9059088 18.651932 9.7652727 21.005859 7.4179688 C 22.538456 7.6539643 24.604673 5.3949843 23.529297 8.2265625 C 21.840797 9.9872826 19.931755 11.30061 19.097656 13.675781 C 18.420359 14.408919 20.135 18.659399 20.277344 15.408203 C 20.415216 14.297568 19.72681 13.201009 21.039062 14.894531 C 21.438325 16.556676 20.120887 20.050849 22.716797 21.867188 C 23.172712 23.1538 27.730157 25.894228 25.107422 23.068359 C 24.218828 21.092904 24.359949 19.519577 23.923828 17.494141 C 24.304634 16.305094 22.984519 15.559349 22.601562 14.890625 C 22.673808 14.898184 22.762164 14.851383 22.615234 14.748047 C 22.58583 14.768494 22.569124 14.786724 22.556641 14.802734 C 22.377929 14.402698 22.583125 14.025966 23.753906 13.589844 C 26.193502 15.137491 26.854369 10.072899 27.857422 9.7753906 C 30.474571 11.332093 28.622444 14.708793 29.796875 16.296875 C 31.404281 17.18221 30.595988 21.126499 29.908203 19.054688 C 26.481152 16.797588 25.386325 21.660009 26.962891 23.978516 C 28.735082 26.266823 32.156833 27.34415 34.228516 28.302734 C 32.724105 28.952201 30.777435 28.172686 29.427734 27.421875 C 29.395276 27.479099 29.21772 27.454447 29.302734 27.353516 C 28.797547 27.065438 28.38258 26.787091 28.125 26.603516 C 25.898005 25.68542 22.55671 23.856608 20.666016 26.191406 C 18.43641 29.340141 23.836105 30.490224 23.216797 27.472656 C 26.004465 29.24591 21.721152 34.318635 20.376953 30.482422 C 20.860329 31.568793 19.930712 36.194458 17.425781 33.966797 C 15.743828 33.046114 18.138922 28.704839 16.056641 31.664062 C 13.390044 33.538172 12.106666 27.145724 13.783203 27.841797 C 14.156704 31.567385 18.588399 27.16261 15.527344 25.527344 C 13.341195 24.303999 10.483559 25.590258 8.6425781 26.753906 C 6.9411928 27.199709 5.3708723 28.980365 3.4492188 28.253906 C 1.7940465 27.82913 6.6653935 26.985028 7.2910156 25.9375 C 10.773274 25.118006 11.5656 18.003682 7.1269531 18.732422 C 5.2242191 21.865016 4.9462765 16.075925 7.1367188 15.736328 C 5.1399153 14.614768 7.6377977 7.7583039 8.3828125 10.615234 C 9.7890005 12.158038 10.198031 14.420317 12.550781 13.753906 C 15.032919 15.03866 11.020526 17.492108 12.111328 19.908203 C 12.659814 21.78057 8.8521824 26.416313 12.523438 23.347656 C 15.294796 21.400973 15.513459 17.325324 14.949219 15.257812 C 16.160752 11.948214 15.625447 16.415854 16.419922 16.896484 C 17.739997 15.091515 17.19193 12.278926 14.460938 12.642578 C 11.490934 12.471048 8.3693531 10.018834 8.5273438 6.8125 C 10.235353 6.5005881 13.142402 9.900561 11.876953 6.6992188 C 13.051308 6.8613688 16.740183 9.3825695 15.517578 5.7480469 C 16.058866 4.4416951 17.77509 0.027622802 18.785156 3.6113281 C 20.607832 5.4248276 18.6089 3.4650956 19.027344 2.3515625 C 18.307622 3.3704732 17.892042 0.36274591 17.242188 2.2597656 C 16.498167 2.959417 16.293055 1.2237415 16.5 3.3945312 C 15.286046 5.2213789 14.774443 5.8500046 15.142578 7.1699219 C 13.217759 5.6060857 15.301466 8.0242191 12.988281 6.9238281 C 12.097503 6.6278325 11.840503 4.8966935 11.546875 6.7832031 C 10.384652 4.9716888 11.961918 8.6576347 10.119141 6.5722656 C 9.5921834 7.2248063 6.8297841 3.2852514 7.0703125 2.84375 C 8.7077989 1.4355808 12.447003 3.4492687 11.007812 1.9980469 C 10.248619 2.6569891 9.4974278 1.8270263 9.3378906 0.92773438 L 6.6914062 0.92773438 z M 19.027344 2.3515625 C 19.072139 2.2881458 19.118726 2.2120205 19.166016 2.1152344 C 19.103582 2.1880356 19.059126 2.2669767 19.027344 2.3515625 z M 29.302734 27.353516 C 29.34364 27.376646 29.385672 27.398487 29.427734 27.421875 C 29.44153 27.397421 29.430344 27.358002 29.355469 27.304688 C 29.329239 27.323358 29.315539 27.338609 29.302734 27.353516 z M 15.214844 34.205078 C 15.172781 34.069695 15.147386 33.919997 15.125 33.767578 C 14.990426 33.993719 15.06985 34.139627 15.214844 34.205078 z M 10.060547 0.92773438 C 10.066617 0.92791978 10.072255 0.92829124 10.078125 0.92773438 L 10.060547 0.92773438 z M 11.107422 0.92773438 C 11.15612 1.3360448 11.387908 1.5337697 11.410156 0.92773438 L 11.107422 0.92773438 z M 13.457031 0.92773438 C 14.630526 2.2695906 17.587435 3.1442881 14.791016 1.7070312 C 14.203654 1.4787505 13.873446 1.2139107 13.720703 0.92773438 L 13.457031 0.92773438 z M 21.419922 0.92773438 C 21.218304 1.5337714 20.702952 2.0494323 19.841797 2.3320312 C 20.883094 2.2944192 21.493803 1.6700451 21.902344 0.92773438 L 21.419922 0.92773438 z M 24.179688 0.92773438 C 24.278725 1.07802 24.441031 1.0913525 24.341797 0.92773438 L 24.179688 0.92773438 z M 30.515625 0.92773438 C 30.622439 0.978919 30.695845 0.97318129 30.740234 0.92773438 L 30.515625 0.92773438 z M 33.882812 0.92773438 C 33.656618 2.3328255 33.667962 3.7548145 34.835938 3.4570312 C 34.93251 3.3030163 35.009814 3.151796 35.072266 3.0019531 L 35.072266 0.92773438 L 33.882812 0.92773438 z M 31.345703 0.96484375 C 31.071721 1.1547234 31.615062 1.1689496 31.345703 0.96484375 z M 10.314453 1.1953125 C 9.2252061 1.5609553 11.035163 2.1324603 10.314453 1.1953125 z M 17.716797 1.4238281 C 17.440479 1.6206092 17.993114 1.6206092 17.716797 1.4238281 z M 30.119141 1.4238281 C 29.842846 1.6206092 30.395435 1.6206092 30.119141 1.4238281 z M 30.732422 1.4238281 C 30.456127 1.6206092 31.008717 1.6206092 30.732422 1.4238281 z M 30.273438 2.0371094 C 29.997097 2.233898 30.549778 2.233898 30.273438 2.0371094 z M 4.5449219 2.6503906 C 4.2657962 2.8444958 4.8240475 2.8444958 4.5449219 2.6503906 z M 19.246094 2.6503906 C 18.973866 2.8522665 19.522846 2.8371484 19.246094 2.6503906 z M 25.066406 2.8027344 C 24.790085 2.999523 25.342728 2.999523 25.066406 2.8027344 z M 25.679688 2.8027344 C 25.403366 2.999523 25.956009 2.999523 25.679688 2.8027344 z M 10.527344 3.0019531 C 10.64108 3.7886007 12.225321 6.9181456 11.490234 4.1367188 C 11.472597 3.2882997 10.875468 3.555203 10.527344 3.0019531 z M 2.0957031 3.109375 C 1.8165775 3.3034802 2.3748288 3.3034802 2.0957031 3.109375 z M 25.357422 3.5976562 C 25.088335 3.9609822 25.642716 3.8695441 25.357422 3.5976562 z M 25.066406 3.7207031 C 24.790085 3.9174918 25.342728 3.9174918 25.066406 3.7207031 z M 10.365234 3.875 C 10.091253 4.0648948 10.634579 4.0791172 10.365234 3.875 z M 15.419922 4.3339844 C 15.143601 4.5307768 15.696243 4.5307768 15.419922 4.3339844 z M 20.107422 4.4589844 C 18.991815 6.5586779 21.389272 6.59134 20.113281 5.3476562 L 20.115234 4.8984375 L 20.107422 4.4589844 z M 13.734375 4.640625 C 13.458054 4.8374137 14.010696 4.8374137 13.734375 4.640625 z M 25.066406 5.0996094 C 24.790085 5.296398 25.342728 5.296398 25.066406 5.0996094 z M 24.300781 5.2539062 C 24.02446 5.4506949 24.577103 5.4506949 24.300781 5.2539062 z M 14.654297 6.0175781 C 14.377976 6.2143706 14.930618 6.2143706 14.654297 6.0175781 z M 33.949219 6.0175781 C 33.672879 6.2143706 34.225559 6.2143706 33.949219 6.0175781 z M 13.275391 6.3261719 C 13.001878 6.5182664 13.548904 6.5182664 13.275391 6.3261719 z M 24.761719 6.6308594 C 24.485397 6.827648 25.03804 6.827648 24.761719 6.6308594 z M 27.134766 6.8183594 C 27.372818 10.48326 23.457618 12.867924 20.185547 12.791016 C 20.984898 11.072229 20.853256 10.62524 22.791016 9.8867188 C 23.758521 8.4640078 24.213193 7.0582299 26.611328 7.0351562 L 27.134766 6.8183594 z M 29.660156 7.5488281 C 29.383816 7.7456168 29.936496 7.7456168 29.660156 7.5488281 z M 32.724609 7.703125 C 32.453383 7.8887716 32.991077 7.9020415 32.724609 7.703125 z M 12.203125 8.46875 C 11.929132 8.6586788 12.472507 8.6728294 12.203125 8.46875 z M 12.328125 8.890625 C 12.129295 10.217814 14.768355 10.339225 14.576172 11.019531 C 15.163168 11.386663 14.762921 12.152349 15.892578 12.21875 C 15.594452 10.170469 13.509321 10.15352 12.328125 8.890625 z M 31.957031 9.3867188 C 31.680691 9.5835074 32.233371 9.5835074 31.957031 9.3867188 z M 33.183594 10 C 32.909612 10.189895 33.452953 10.204117 33.183594 10 z M 7.7617188 10.152344 C 7.4853975 10.349132 8.03804 10.349132 7.7617188 10.152344 z M 23.074219 10.154297 C 22.795074 10.348402 23.353363 10.348402 23.074219 10.154297 z M 31.957031 10.154297 C 31.67789 10.348402 32.236172 10.348402 31.957031 10.154297 z M 22.3125 10.306641 C 22.036179 10.503429 22.588821 10.503429 22.3125 10.306641 z M 22.769531 10.306641 C 22.49321 10.503429 23.045853 10.503429 22.769531 10.306641 z M 32.876953 10.460938 C 32.600613 10.657726 33.153293 10.657726 32.876953 10.460938 z M 22.925781 10.615234 C 22.646637 10.80934 23.204926 10.80934 22.925781 10.615234 z M 21.927734 10.623047 C 21.482527 10.842845 22.354698 10.755682 21.927734 10.623047 z M 1.9453125 10.765625 C 1.6713345 10.955546 2.2146681 10.969716 1.9453125 10.765625 z M 8.0683594 10.919922 C 7.7990113 11.124054 8.3423411 11.109824 8.0683594 10.919922 z M 14.654297 11.226562 C 14.377976 11.423355 14.930618 11.423355 14.654297 11.226562 z M 8.0683594 11.378906 C 7.7990113 11.583039 8.3423411 11.568809 8.0683594 11.378906 z M 16.923828 11.410156 C 16.601506 11.885171 17.727141 11.891765 16.923828 11.410156 z M 18.757812 11.4375 C 18.462355 11.941913 19.567669 11.532608 18.757812 11.4375 z M 28.216797 11.533203 C 27.884567 13.325946 26.632706 17.444912 24.835938 14.949219 C 23.21355 14.605918 26.589745 17.526007 25.298828 18.855469 C 24.761943 20.500691 25.654565 21.63566 25.787109 19.388672 C 25.309908 16.143647 31.699931 18.563747 28.216797 16.632812 C 25.254525 16.970022 29.935926 13.187544 28.216797 11.533203 z M 7.6835938 11.541016 C 7.2383869 11.760799 8.1105572 11.673651 7.6835938 11.541016 z M 18.048828 11.578125 C 17.633008 12.696274 17.778196 12.609422 17.236328 12.072266 C 18.218707 14.184908 17.075298 12.948521 17.123047 13.279297 C 17.795983 14.970116 19.973327 12.154292 18.357422 13.361328 C 19.252809 9.7895363 17.889907 14.608223 18.048828 11.578125 z M 19.462891 11.691406 C 18.6512 12.845091 19.252254 12.49922 19.462891 11.691406 z M 16.453125 11.722656 C 16.819819 13.161426 17.101469 12.497474 16.453125 11.722656 z M 7.6289062 11.839844 C 6.0986043 14.244423 12.030237 17.082276 7.5722656 16.921875 C 5.227816 18.228887 10.76621 16.406601 10.457031 18.931641 C 10.71872 20.827418 11.559091 21.351028 11.039062 18.970703 C 9.7504647 17.458244 12.504225 15.033175 11.554688 14.876953 C 9.5388606 17.549259 8.3625333 13.403151 7.6289062 11.839844 z M 28.896484 12.757812 C 28.620144 12.954605 29.172825 12.954605 28.896484 12.757812 z M 17.945312 12.931641 C 18.672447 13.045287 17.221859 13.045911 17.945312 12.931641 z M 7.1484375 13.675781 C 6.8721162 13.872577 7.4247588 13.872577 7.1484375 13.675781 z M 13.275391 14.59375 C 12.999069 14.790546 13.551712 14.790546 13.275391 14.59375 z M 18.167969 14.759766 C 17.310261 16.269472 17.234605 18.010087 16.167969 19.695312 C 14.038392 22.528509 19.381525 18.161961 17.376953 20.603516 C 16.688883 22.129389 12.236006 23.575127 12.605469 24.689453 C 15.145329 23.031399 17.525414 26.579498 18.712891 26.986328 C 19.363682 24.52239 22.956416 24.239046 24.248047 24.619141 C 22.681472 22.475148 19.210962 22.290915 18.65625 19.804688 C 20.308487 20.362417 21.341255 21.540343 19.90625 19.226562 C 19.158419 17.830784 18.63561 16.204462 18.167969 14.759766 z M 35.072266 14.773438 C 34.9059 14.861501 34.976378 14.892947 35.072266 14.888672 L 35.072266 14.773438 z M 1.015625 14.8125 C 0.8967702 15.225697 1.8057129 15.226987 1.015625 14.8125 z M 9.5976562 14.900391 C 9.321335 15.097187 9.8739775 15.097187 9.5976562 14.900391 z M 23.074219 14.900391 C 22.797897 15.097187 23.35054 15.097187 23.074219 14.900391 z M 23.533203 14.900391 C 23.256882 15.097187 23.809524 15.097187 23.533203 14.900391 z M 12.96875 15.054688 C 12.692429 15.251484 13.245071 15.251484 12.96875 15.054688 z M 20.779297 15.054688 C 20.502976 15.251484 21.055618 15.251484 20.779297 15.054688 z M 28.128906 15.207031 C 27.862438 15.405959 28.400133 15.392667 28.128906 15.207031 z M 28.851562 15.21875 C 27.766276 15.705183 29.16792 15.425638 28.851562 15.21875 z M 28.283203 15.513672 C 28.006863 15.710468 28.559543 15.710468 28.283203 15.513672 z M 35.023438 15.513672 C 34.848345 15.638364 35.003475 15.683711 35.072266 15.650391 L 35.072266 15.560547 C 35.059594 15.545845 35.0487 15.531664 35.023438 15.513672 z M 15.267578 15.667969 C 14.99408 15.860052 15.54108 15.860052 15.267578 15.667969 z M 3.1679688 15.818359 C 2.8916588 16.015152 3.4442749 16.015152 3.1679688 15.818359 z M 28.128906 15.818359 C 27.859547 16.022492 28.402888 16.008262 28.128906 15.818359 z M 24.761719 16.279297 C 24.485397 16.476093 25.03804 16.476093 24.761719 16.279297 z M 29.355469 16.279297 C 29.079129 16.476093 29.631809 16.476093 29.355469 16.279297 z M 28.896484 16.585938 C 28.62299 16.778021 29.169979 16.778021 28.896484 16.585938 z M 17.103516 16.738281 C 16.827194 16.935077 17.379841 16.935077 17.103516 16.738281 z M 20.626953 16.738281 C 20.352971 16.928184 20.896297 16.942414 20.626953 16.738281 z M 25.052734 16.765625 C 24.793179 17.113549 25.317407 17.06166 25.052734 16.765625 z M 6.5371094 16.892578 C 6.2607995 17.089374 6.8134193 17.089374 6.5371094 16.892578 z M 19.246094 16.892578 C 18.976749 17.09671 19.520075 17.08248 19.246094 16.892578 z M 16.642578 17.197266 C 16.366257 17.394062 16.918899 17.394062 16.642578 17.197266 z M 19.554688 17.197266 C 19.278366 17.394062 19.831009 17.394062 19.554688 17.197266 z M 16.029297 17.351562 C 15.752976 17.548355 16.305618 17.548355 16.029297 17.351562 z M 24.912109 17.351562 C 24.635788 17.548355 25.188431 17.548355 24.912109 17.351562 z M 2.3867188 17.378906 C 2.1282709 17.745282 2.6644536 17.655511 2.3867188 17.378906 z M 33.748047 17.380859 C 33.853159 17.912209 34.317942 17.505535 33.748047 17.380859 z M 16.796875 17.505859 C 16.523377 17.697943 17.070377 17.697943 16.796875 17.505859 z M 0.92773438 17.533203 L 0.92773438 17.972656 C 1.0232611 17.959712 1.0735776 17.820749 0.92773438 17.533203 z M 29.935547 17.5625 C 29.640086 18.066923 30.745401 17.657608 29.935547 17.5625 z M 2.7089844 17.658203 C 2.4326745 17.854999 2.9852943 17.854999 2.7089844 17.658203 z M 24.300781 17.658203 C 24.02446 17.854999 24.577103 17.854999 24.300781 17.658203 z M 16.712891 17.810547 C 16.366603 18.062566 17.238571 18.194087 16.712891 17.810547 z M 19.554688 17.810547 C 19.278366 18.007343 19.831009 18.007343 19.554688 17.810547 z M 28.283203 17.810547 C 28.006863 18.007343 28.559543 18.007343 28.283203 17.810547 z M 3.1679688 17.964844 C 2.8916588 18.16164 3.4442749 18.16164 3.1679688 17.964844 z M 26.75 17.964844 C 26.48354 18.163772 27.021234 18.150479 26.75 17.964844 z M 27.978516 17.964844 C 27.705021 18.156927 28.25201 18.156927 27.978516 17.964844 z M 29.660156 17.964844 C 29.386662 18.156927 29.93365 18.156927 29.660156 17.964844 z M 2.3671875 18.023438 C 2.1651415 18.569598 2.6875932 18.430454 2.3671875 18.023438 z M 33.933594 18.027344 C 33.216014 18.866802 34.358529 18.859754 33.933594 18.027344 z M 28.589844 18.117188 C 28.320484 18.32132 28.863825 18.30709 28.589844 18.117188 z M 1.0917969 18.119141 C 0.74702421 18.370135 1.6165673 18.500947 1.0917969 18.119141 z M 8.984375 18.269531 C 8.7150307 18.473664 9.2583567 18.459434 8.984375 18.269531 z M 25.066406 18.269531 C 24.790085 18.466324 25.342728 18.466324 25.066406 18.269531 z M 26.599609 18.269531 C 26.323288 18.466324 26.875931 18.466324 26.599609 18.269531 z M 29.966797 18.269531 C 29.692815 18.459434 30.236156 18.473664 29.966797 18.269531 z M 11.744141 18.576172 C 11.470159 18.766074 12.013485 18.780304 11.744141 18.576172 z M 26.291016 18.576172 C 26.021671 18.780304 26.564997 18.766074 26.291016 18.576172 z M 35.023438 18.578125 C 34.848975 18.699427 35.001389 18.745169 35.072266 18.714844 L 35.072266 18.625 C 35.059486 18.610671 35.048575 18.595602 35.023438 18.578125 z M 26.599609 18.730469 C 26.323288 18.927265 26.875931 18.927265 26.599609 18.730469 z M 26.291016 18.884766 C 26.021671 19.088898 26.564997 19.074668 26.291016 18.884766 z M 34.638672 19.044922 C 34.188428 19.26079 35.066766 19.180758 34.638672 19.044922 z M 25.986328 19.492188 C 25.710007 19.688984 26.262649 19.688984 25.986328 19.492188 z M 2.0449219 19.804688 C 2.9912336 20.782462 1.4049107 20.59428 2.0449219 19.804688 z M 34.291016 19.837891 C 35.080184 20.124277 33.776037 20.743893 34.291016 19.837891 z M 15.341797 19.962891 C 14.89659 20.182674 15.76876 20.095526 15.341797 19.962891 z M 21.224609 19.982422 C 20.962733 20.330301 21.492585 20.270543 21.224609 19.982422 z M 19.248047 20.105469 C 18.974065 20.295371 19.517391 20.309601 19.248047 20.105469 z M 17.089844 20.132812 C 16.830288 20.480737 17.35452 20.428806 17.089844 20.132812 z M 1.2109375 20.285156 C 2.0973501 20.774034 0.80063932 21.257697 1.2109375 20.285156 z M 16.796875 20.414062 C 16.51773 20.60819 17.07602 20.60819 16.796875 20.414062 z M 21.087891 20.414062 C 20.811138 20.600809 21.360119 20.615927 21.087891 20.414062 z M 30.578125 21.025391 C 30.30183 21.222183 30.854465 21.222183 30.578125 21.025391 z M 30.886719 21.179688 C 30.612737 21.36959 31.156078 21.38382 30.886719 21.179688 z M 30.761719 21.494141 C 31.536208 22.21696 34.659025 24.22256 35.072266 25.496094 L 35.072266 24.486328 C 34.30663 23.940473 32.302072 21.509244 30.761719 21.494141 z M 5.8554688 21.509766 C 3.8064629 21.893492 1.8987389 23.877899 1.2226562 25.140625 C 1.5128778 23.958855 1.1930401 23.292564 0.92773438 23.445312 L 0.92773438 26.40625 C 1.2863725 26.113326 1.6511873 25.936545 1.9960938 25.982422 C 4.6260493 24.842863 -0.16742689 26.378972 2.1210938 24.738281 C 3.098828 23.431692 4.6958012 22.206279 5.8554688 21.509766 z M 25.220703 21.792969 C 24.943951 21.979715 25.492931 21.994833 25.220703 21.792969 z M 7.4316406 21.966797 C 9.6693889 22.396846 8.680435 23.459694 7.0878906 22.240234 C 6.1179739 22.356595 7.2003373 21.993473 7.4316406 21.966797 z M 29.365234 22.052734 C 30.824855 22.568302 25.732484 23.195911 28.464844 22.210938 L 28.923828 22.111328 L 29.365234 22.052734 z M 34.408203 22.710938 C 34.129062 22.90502 34.687344 22.90502 34.408203 22.710938 z M 20.212891 23.054688 C 21.646992 24.852027 18.587243 25.733041 18.826172 23.1875 C 19.911956 24.530473 19.223468 23.277315 20.212891 23.054688 z M 16.417969 23.072266 C 17.119208 24.248613 18.496229 22.56921 17.433594 24.546875 C 15.693842 25.702414 16.061692 23.71829 16.417969 23.072266 z M 4.0859375 23.78125 C 3.8096276 23.978046 4.3622474 23.978046 4.0859375 23.78125 z M 33.490234 23.935547 C 33.213894 24.132339 33.766575 24.132339 33.490234 23.935547 z M 3.4726562 24.089844 C 3.1935192 24.283926 3.7517819 24.283972 3.4726562 24.089844 z M 16.949219 24.089844 C 16.675721 24.281927 17.222717 24.281927 16.949219 24.089844 z M 19.705078 24.089844 C 19.438618 24.288772 19.976312 24.275479 19.705078 24.089844 z M 9.5976562 24.855469 C 9.321335 25.052261 9.8739775 25.052261 9.5976562 24.855469 z M 14.898438 25.386719 C 15.477513 25.964052 14.827383 28.199122 15.501953 28.976562 C 14.091743 28.372306 13.773925 25.072671 12.652344 27.189453 C 12.246719 26.382538 9.9851374 27.607464 12.277344 26.242188 C 13.20737 24.750711 14.468924 27.113917 14.898438 25.386719 z M 33.03125 25.46875 C 32.757756 25.660829 33.304744 25.660829 33.03125 25.46875 z M 21.865234 25.476562 C 22.386747 26.936299 24.061441 25.071043 25.300781 26.681641 C 26.557764 27.033434 23.602363 27.165753 23.5625 26.785156 C 23.0746 25.07123 21.33011 31.357837 21.693359 28.103516 C 22.944251 27.112411 20.629079 25.800095 21.865234 25.476562 z M 34.160156 25.521484 C 33.598396 25.519868 34.209349 25.78284 35.072266 26.205078 L 35.072266 25.605469 C 34.634993 25.549787 34.336939 25.521993 34.160156 25.521484 z M 33.644531 25.775391 C 33.368191 25.972183 33.920871 25.972183 33.644531 25.775391 z M 33.949219 25.927734 C 33.675725 26.119814 34.222713 26.119814 33.949219 25.927734 z M 34.255859 26.078125 C 33.979565 26.274917 34.5322 26.274917 34.255859 26.078125 z M 7.1484375 26.388672 C 6.8749358 26.580751 7.4219392 26.580751 7.1484375 26.388672 z M 17.408203 26.537109 C 17.131882 26.733906 17.684524 26.733906 17.408203 26.537109 z M 17.103516 26.845703 C 16.830018 27.037782 17.377017 27.037782 17.103516 26.845703 z M 17.408203 26.845703 C 17.134705 27.037782 17.681705 27.037782 17.408203 26.845703 z M 19.476562 26.855469 C 19.031356 27.075252 19.903526 26.988104 19.476562 26.855469 z M 18.328125 27.457031 C 18.058781 27.661164 18.602107 27.646934 18.328125 27.457031 z M 32.570312 27.916016 C 32.293972 28.112812 32.846653 28.112812 32.570312 27.916016 z M 17.640625 28.080078 C 17.1991 28.301551 18.065303 28.218492 17.640625 28.080078 z M 26.904297 28.376953 C 26.625152 28.571036 27.183441 28.571036 26.904297 28.376953 z M 3.8925781 28.542969 C 4.9802819 29.170475 5.0855231 33.285597 3.5722656 30.197266 C 2.0211997 29.21585 2.7764881 28.702178 3.8925781 28.542969 z M 33.310547 28.722656 C 33.353817 28.720259 33.400451 28.720804 33.447266 28.722656 C 33.497197 28.724657 33.549536 28.729185 33.603516 28.736328 C 35.900118 28.935702 31.008444 33.340557 32.552734 29.947266 C 32.411757 29.263868 32.661488 28.758622 33.310547 28.722656 z M 23.533203 28.837891 C 23.254059 29.031973 23.812348 29.031973 23.533203 28.837891 z M 27.419922 28.849609 C 26.254039 29.876331 30.08019 32.795256 27.816406 31.142578 C 26.183685 30.823332 31.81873 33.720712 28.974609 33.896484 C 30.380441 34.489228 31.520366 35.39454 30.486328 33.201172 C 30.674097 29.722666 30.250823 31.902952 29.599609 31.951172 C 28.955014 30.627784 29.276332 28.102714 28.625 30.824219 C 28.003724 30.749521 27.436563 29.397082 27.419922 28.849609 z M 9.7148438 28.875 C 9.0187451 32.032613 8.2440248 29.678633 7.8085938 29.451172 C 8.2249567 30.614776 7.7623509 31.407526 7.2929688 32.298828 C 6.4516089 28.662403 6.9349715 33.853634 6.4179688 34.871094 C 7.5943104 34.166764 9.0349279 33.290535 7.0703125 33.765625 C 7.3445044 32.559314 11.236292 30.427377 8.8554688 31.259766 C 9.2904576 30.565929 10.055395 29.762981 9.7148438 28.875 z M 1.7519531 29.902344 C 1.4577766 29.895803 1.1841718 29.931544 0.92773438 29.998047 L 0.92773438 35.339844 C 1.0857386 35.23949 1.2532494 34.814424 1.4140625 33.908203 C 1.7018422 32.591614 1.6827772 31.242687 1.7519531 29.904297 L 1.7519531 29.902344 z M 20.472656 29.908203 C 20.196335 30.104999 20.748978 30.104999 20.472656 29.908203 z M 7.609375 30.216797 C 7.3302304 30.410879 7.8885196 30.410879 7.609375 30.216797 z M 21.632812 30.791016 C 21.598568 30.791314 21.579282 30.793485 21.570312 30.796875 C 21.462679 30.837339 23.015453 31.072199 22.373047 30.845703 C 21.961873 30.80552 21.735546 30.790119 21.632812 30.791016 z M 34.869141 30.828125 C 34.5928 31.024921 35.145462 31.024921 34.869141 30.828125 z M 19.080078 30.855469 C 18.820523 31.203393 19.344751 31.151504 19.080078 30.855469 z M 8.5273438 31.441406 C 8.803665 31.638202 8.2510225 31.638202 8.5273438 31.441406 z M 18.480469 32.054688 C 18.201324 32.24877 18.759613 32.24877 18.480469 32.054688 z M 9.5976562 32.972656 C 9.3241583 33.164739 9.871158 33.164739 9.5976562 32.972656 z M 9.2949219 33.277344 C 9.0186006 33.47414 9.5712431 33.47414 9.2949219 33.277344 z M 21.769531 33.447266 C 23.311343 34.228868 20.59405 34.909799 21.769531 33.447266 z M 30.105469 33.609375 C 30.37007 33.905501 29.845936 33.957167 30.105469 33.609375 z M 26.445312 34.041016 C 26.168991 34.237816 26.721634 34.237816 26.445312 34.041016 z M 20.548828 34.205078 C 20.990357 34.426596 20.124142 34.343484 20.548828 34.205078 z M 7.4570312 34.349609 C 7.1835295 34.541685 7.7305292 34.541685 7.4570312 34.349609 z M 23.228516 34.349609 C 22.955014 34.541685 23.502014 34.541685 23.228516 34.349609 z M 14.806641 34.65625 C 14.530319 34.85305 15.082962 34.85305 14.806641 34.65625 z M 1.4824219 35.115234 C 1.2130587 35.319329 1.756396 35.305156 1.4824219 35.115234 z M 14.193359 35.115234 C 13.917038 35.312034 14.469681 35.312034 14.193359 35.115234 z M 27.058594 35.574219 C 26.782272 35.771019 27.334915 35.771019 27.058594 35.574219 z M 18.941406 37.412109 C 18.665085 37.608909 19.217728 37.608909 18.941406 37.412109 z M 26.904297 38.332031 C 26.627976 38.528831 27.180618 38.528831 26.904297 38.332031 z M 28.283203 38.332031 C 28.006863 38.528831 28.559543 38.528831 28.283203 38.332031 z M 18.712891 38.492188 C 18.268369 38.71363 19.139169 38.627873 18.712891 38.492188 z M 26.904297 38.640625 C 26.625152 38.834704 27.183441 38.834704 26.904297 38.640625 z M 9.1484375 38.666016 C 6.9245582 38.790967 7.0928401 39.519977 8.2949219 41.011719 C 8.3190353 42.811617 8.9105939 41.373609 8.5605469 40.074219 C 9.8085828 40.761734 11.554038 42.936898 12.578125 42.740234 C 11.320054 41.814401 10.198782 40.91648 11.806641 40.261719 C 10.727767 40.547527 8.4255635 39.439806 9.1484375 38.666016 z M 28.220703 38.669922 C 29.570773 40.400534 25.428303 39.902717 25.681641 40.591797 C 29.245989 40.273674 24.061106 42.505274 25.302734 42.902344 C 26.495756 42.446691 27.260608 40.62402 27.537109 42.244141 C 27.712162 40.685452 29.611301 39.340899 28.958984 41.783203 C 29.183035 41.296302 31.322343 38.347325 29.232422 39.023438 L 28.736328 38.853516 L 28.220703 38.669922 z M 28.958984 41.783203 C 28.940767 41.822775 28.932701 41.849963 28.943359 41.853516 C 28.950465 41.827437 28.952295 41.808564 28.958984 41.783203 z M 18.796875 38.855469 C 18.243475 40.013807 18.847321 44.076814 17.90625 40.761719 C 15.503728 38.482452 19.764445 44.753786 18.257812 45.431641 C 16.158384 42.991925 18.574388 48.079595 19.087891 48.328125 C 19.032868 46.963413 21.989636 42.853738 19.306641 45.53125 C 18.612968 43.744951 20.592587 40.375427 20.572266 39.769531 C 19.14316 40.288041 19.06354 44.045183 19.052734 40.5625 C 18.831401 40.067677 19.24953 39.192822 18.796875 38.855469 z M 27.185547 39.283203 C 26.862809 39.756196 27.996056 39.762931 27.185547 39.283203 z M 26.904297 39.404297 C 26.627976 39.601097 27.180618 39.601097 26.904297 39.404297 z M 1.4375 39.439453 C 1.167845 39.632462 1.011458 39.791971 0.92773438 39.921875 L 0.92773438 40.267578 C 1.1442077 40.398498 1.7227351 40.144744 1.4375 39.439453 z M 17.716797 39.708984 C 17.440476 39.905784 17.993118 39.905784 17.716797 39.708984 z M 19.554688 39.708984 C 19.278366 39.905784 19.831009 39.905784 19.554688 39.708984 z M 25.220703 39.708984 C 24.944382 39.905784 25.497024 39.905784 25.220703 39.708984 z M 30.65625 39.708984 C 29.950364 40.112358 30.118137 40.508596 30.65625 39.708984 z M 20.933594 40.017578 C 20.654449 40.211695 21.212738 40.211695 20.933594 40.017578 z M 26.291016 40.017578 C 26.011871 40.211695 26.57016 40.211695 26.291016 40.017578 z M 12.005859 40.183594 C 11.932567 40.208917 11.872959 40.235527 11.808594 40.261719 C 11.880458 40.242443 11.946169 40.215682 12.005859 40.183594 z M 24.828125 40.324219 C 24.488659 40.578014 25.352781 40.706291 24.828125 40.324219 z M 30.273438 40.324219 C 29.997097 40.521019 30.549778 40.521019 30.273438 40.324219 z M 10.517578 40.626953 C 10.793899 40.823753 10.241257 40.823753 10.517578 40.626953 z M 16.488281 40.626953 C 16.218933 40.831085 16.762263 40.816874 16.488281 40.626953 z M 33.949219 40.626953 C 33.672879 40.823753 34.225559 40.823753 33.949219 40.626953 z M 29.892578 40.638672 C 29.442507 40.854332 30.320271 40.774659 29.892578 40.638672 z M 1.1113281 40.783203 C 1.0569312 40.783798 1.00042 40.788581 0.94140625 40.796875 C 1.0073467 42.143977 1.3472024 43.391707 0.92773438 42.296875 L 0.92773438 46.828125 C 0.98168055 46.762302 1.0352878 46.691857 1.0878906 46.617188 C 1.0066383 47.555433 3.4270112 47.451724 4.0429688 47.650391 C 2.4224063 47.052035 3.7084546 43.892863 2.53125 43.773438 C 2.3119421 44.323679 2.7976325 40.764774 1.1113281 40.783203 z M 28.574219 40.808594 C 28.308061 41.155819 28.855317 41.102943 28.574219 40.808594 z M 11.283203 40.9375 C 11.010945 41.139365 11.55997 41.124284 11.283203 40.9375 z M 24.880859 40.994141 C 24.683576 41.525648 25.191295 41.418854 24.880859 40.994141 z M 12.355469 41.085938 C 12.079147 41.282738 12.63179 41.282738 12.355469 41.085938 z M 16.183594 41.085938 C 15.907272 41.282738 16.459915 41.282738 16.183594 41.085938 z M 16.796875 41.085938 C 16.520554 41.282738 17.073196 41.282738 16.796875 41.085938 z M 21.087891 41.240234 C 20.811569 41.437034 21.364212 41.437034 21.087891 41.240234 z M 21.546875 41.240234 C 21.270554 41.437034 21.823196 41.437034 21.546875 41.240234 z M 28.283203 41.240234 C 28.006863 41.437034 28.559543 41.437034 28.283203 41.240234 z M 10.044922 41.443359 C 9.4925061 42.725591 10.831357 42.116951 10.044922 41.443359 z M 12.96875 41.546875 C 12.692429 41.743675 13.245071 41.743675 12.96875 41.546875 z M 16.337891 41.853516 C 16.064389 42.045553 16.611389 42.045553 16.337891 41.853516 z M 21.697266 41.853516 C 21.423764 42.045553 21.970764 42.045553 21.697266 41.853516 z M 20.271484 42.035156 C 20.376574 42.56655 20.841381 42.159843 20.271484 42.035156 z M 9.7519531 42.619141 C 9.4756319 42.815941 10.028274 42.815941 9.7519531 42.619141 z M 15.880859 42.619141 C 15.604538 42.815941 16.157181 42.815941 15.880859 42.619141 z M 35.072266 42.673828 C 35.015199 42.893071 35.00727 43.089893 35.072266 43.236328 L 35.072266 42.673828 z M 21.392578 42.773438 C 21.119076 42.965475 21.666076 42.965475 21.392578 42.773438 z M 30.578125 43.539062 C 30.30183 43.735863 30.854465 43.735863 30.578125 43.539062 z M 34.5625 43.691406 C 34.289006 43.883444 34.835994 43.883444 34.5625 43.691406 z M 35.072266 44.105469 C 34.698161 44.330345 34.185747 44.626825 34.492188 45.601562 C 35.64447 47.241647 33.486434 46.495091 33.939453 48.039062 C 34.319661 47.813871 34.699628 47.612719 35.072266 47.449219 L 35.072266 44.105469 z M 6.3847656 44.457031 C 6.1084557 44.653831 6.6610755 44.653831 6.3847656 44.457031 z M 31.957031 44.611328 C 31.683537 44.803366 32.230525 44.803366 31.957031 44.611328 z M 31.269531 44.621094 C 30.824031 44.841289 31.696912 44.753566 31.269531 44.621094 z M 16.720703 44.775391 C 16.275363 44.995359 17.14772 44.907939 16.720703 44.775391 z M 31.806641 44.917969 C 31.532659 45.107814 32.076 45.122101 31.806641 44.917969 z M 31.160156 44.974609 C 30.954112 45.502281 31.475936 45.403367 31.160156 44.974609 z M 16.875 45.080078 C 16.425418 45.297477 17.302106 45.219014 16.875 45.080078 z M 31.806641 45.222656 C 31.532659 45.412502 32.076 45.426789 31.806641 45.222656 z M 20.701172 45.384766 C 20.259505 45.606435 21.125916 45.523096 20.701172 45.384766 z M 21.09375 45.53125 C 20.54664 45.825033 21.371466 45.94111 21.09375 45.53125 z M 31.191406 45.53125 C 30.917912 45.723288 31.4649 45.723288 31.191406 45.53125 z M 21.392578 45.685547 C 21.113434 45.879626 21.671723 45.879626 21.392578 45.685547 z M 11.130859 45.990234 C 10.854538 46.187034 11.407181 46.187034 11.130859 45.990234 z M 20.779297 45.990234 C 20.502976 46.187034 21.055618 46.187034 20.779297 45.990234 z M 6.2304688 46.142578 C 5.9541626 46.339378 6.5067787 46.339378 6.2304688 46.142578 z M 11.589844 46.144531 C 11.310699 46.33861 11.868988 46.33861 11.589844 46.144531 z M 25.066406 46.144531 C 24.787262 46.33861 25.345551 46.33861 25.066406 46.144531 z M 26.445312 46.144531 C 26.166168 46.33861 26.724457 46.33861 26.445312 46.144531 z M 11.285156 46.294922 C 11.011175 46.484768 11.554504 46.499054 11.285156 46.294922 z M 24.761719 46.294922 C 24.485397 46.491722 25.03804 46.491722 24.761719 46.294922 z M 26.138672 46.294922 C 25.862351 46.491722 26.414993 46.491722 26.138672 46.294922 z M 26.75 46.294922 C 26.480656 46.499054 27.023982 46.484768 26.75 46.294922 z M 27.517578 46.294922 C 27.241253 46.491722 27.793918 46.491722 27.517578 46.294922 z M 17.546875 46.449219 C 17.256993 47.114306 17.997505 47.243475 17.546875 46.449219 z M 26.445312 46.449219 C 26.168991 46.646019 26.721634 46.646019 26.445312 46.449219 z M 21.087891 46.603516 C 20.811138 46.7903 21.360119 46.80538 21.087891 46.603516 z M 25.373047 46.603516 C 25.100819 46.80538 25.649799 46.7903 25.373047 46.603516 z M 25.832031 46.603516 C 25.559803 46.80538 26.108783 46.7903 25.832031 46.603516 z M 28.742188 46.603516 C 28.463047 46.797594 29.021328 46.797594 28.742188 46.603516 z M 29.050781 46.603516 C 28.77404 46.7903 29.323028 46.80538 29.050781 46.603516 z M 10.845703 46.607422 C 10.094678 46.613091 12.038096 46.818435 11.349609 46.619141 C 11.116893 46.609692 10.95299 46.606666 10.845703 46.607422 z M 17.255859 46.755859 C 16.979538 46.952659 17.532181 46.952659 17.255859 46.755859 z M 10.503906 46.783203 C 10.244366 47.130995 10.768609 47.079291 10.503906 46.783203 z M 16.642578 46.910156 C 16.366257 47.106956 16.918899 47.106956 16.642578 46.910156 z M 19.708984 46.910156 C 19.435003 47.100002 19.978329 47.114289 19.708984 46.910156 z M 20.013672 46.910156 C 19.737351 47.106956 20.289993 47.106956 20.013672 46.910156 z M 25.832031 46.910156 C 25.562687 47.114289 26.106013 47.100002 25.832031 46.910156 z M 9.6757812 46.916016 C 9.2311285 47.137572 10.102095 47.051625 9.6757812 46.916016 z M 11.208984 46.916016 C 10.764378 47.137572 11.635307 47.051625 11.208984 46.916016 z M 23.994141 47.214844 C 23.717819 47.411644 24.270462 47.411644 23.994141 47.214844 z M 24.453125 47.214844 C 24.176804 47.411644 24.729446 47.411644 24.453125 47.214844 z M 25.525391 47.214844 C 25.249069 47.411644 25.801712 47.411644 25.525391 47.214844 z M 27.460938 47.214844 C 27.197724 47.715669 26.831818 48.291118 26.521484 48.695312 C 26.525604 48.670746 26.509073 48.637189 26.445312 48.591797 C 26.258815 48.724609 26.446846 48.765238 26.505859 48.71875 C 25.964955 49.416901 25.602058 49.556633 26.279297 47.724609 C 26.164558 47.641157 22.909208 52.939242 24 48.828125 C 23.959181 47.710095 22.123939 51.55571 21.927734 51.037109 C 20.12712 53.632628 23.703745 51.007079 25.126953 52.101562 C 27.11022 51.534176 22.603743 51.319543 24.904297 50.820312 C 25.589819 50.313773 30.177878 49.145953 26.550781 49.666016 C 26.897848 48.921063 27.752999 48.082555 27.460938 47.214844 z M 28.423828 47.240234 C 28.164296 47.588027 28.68852 47.536323 28.423828 47.240234 z M 27.980469 47.351562 C 27.286312 47.469597 28.742792 47.821002 27.980469 47.351562 z M 11.712891 47.369141 C 11.304126 48.541172 12.618855 50.257308 10.933594 48.207031 C 9.0070737 45.938139 12.19121 50.741142 10.75 49.595703 C 8.7762472 48.334811 10.336625 50.069613 11.757812 50.443359 C 11.967746 50.960648 12.565767 50.691744 11.919922 50.480469 C 12.101105 50.514107 12.277427 50.522475 12.441406 50.496094 C 12.365668 50.613788 12.678392 50.603327 12.552734 50.470703 C 12.582215 50.462766 12.612203 50.455895 12.640625 50.445312 C 16.167088 51.152141 10.328478 51.716573 13.107422 52.066406 C 13.457765 51.869039 13.94337 51.844197 14.433594 51.875 C 14.36529 51.981129 14.612141 51.98389 14.570312 51.886719 C 15.83937 51.990731 17.064212 52.392513 15.996094 51.068359 C 14.837919 51.380359 13.588073 46.15162 14.005859 49.935547 C 15.279964 51.838675 12.166736 49.318463 12.123047 48.353516 C 11.777674 48.185478 12.126298 47.493971 11.712891 47.369141 z M 33.490234 47.517578 C 33.213894 47.714378 33.766575 47.714378 33.490234 47.517578 z M 9.5976562 47.523438 C 9.3185117 47.717516 9.8768008 47.717516 9.5976562 47.523438 z M 13.582031 47.523438 C 13.302887 47.717516 13.861176 47.717516 13.582031 47.523438 z M 18.175781 47.671875 C 17.89946 47.868675 18.452103 47.868675 18.175781 47.671875 z M 26.75 47.671875 C 26.480656 47.876007 27.023982 47.861721 26.75 47.671875 z M 28.742188 47.671875 C 28.465847 47.868675 29.018528 47.868675 28.742188 47.671875 z M 25.654297 47.732422 C 25.145287 48.039849 25.736577 48.436945 25.654297 47.732422 z M 19.703125 47.746094 C 19.505267 48.170584 19.88619 48.47925 19.703125 47.746094 z M 23.980469 47.853516 C 23.71275 48.219525 24.265003 48.129988 23.980469 47.853516 z M 28.359375 47.892578 C 27.195359 48.344024 28.309444 48.635588 28.359375 47.892578 z M 2.7304688 47.900391 C 2.1207995 47.898524 1.544832 48.303914 1.2734375 49.130859 C 1.1505342 49.107025 1.0374996 49.095624 0.92773438 49.089844 L 0.92773438 50.474609 C 1.6040533 50.295191 2.0126524 50.67788 1.6171875 52.339844 C 2.2685611 52.14562 2.4243251 52.532307 2.421875 53.072266 L 7.2617188 53.072266 C 6.090848 52.136699 3.4362343 53.9044 3.5761719 50.753906 C 3.9682714 50.206529 4.0191272 51.666188 4.8085938 51.851562 C 4.6863865 51.984148 5.0035504 51.990362 4.9140625 51.867188 C 5.1351233 51.884951 5.4071158 51.810353 5.7519531 51.582031 C 7.996116 50.947278 3.7243174 50.806676 4.5429688 49.453125 C 4.1557778 48.428164 3.4214272 47.902506 2.7304688 47.900391 z M 35.072266 47.912109 C 33.245333 48.415188 33.533504 50.97616 32.007812 51.064453 C 29.616764 52.341794 34.092238 51.400669 34.378906 51.138672 C 34.102979 52.138154 33.314516 52.894967 32.826172 53.072266 L 35.072266 53.072266 L 35.072266 47.912109 z M 33.490234 47.978516 C 33.213894 48.175316 33.766575 48.175316 33.490234 47.978516 z M 34.408203 47.978516 C 34.131863 48.175316 34.684543 48.175316 34.408203 47.978516 z M 9.7519531 47.980469 C 9.4728086 48.174547 10.031098 48.174547 9.7519531 47.980469 z M 23.382812 47.980469 C 23.103668 48.174547 23.661957 48.174547 23.382812 47.980469 z M 24.761719 47.980469 C 24.482574 48.174547 25.040863 48.174547 24.761719 47.980469 z M 25.066406 47.980469 C 24.787262 48.174547 25.345551 48.174547 25.066406 47.980469 z M 26.75 47.980469 C 26.477772 48.182371 27.026752 48.167253 26.75 47.980469 z M 24.427734 48.039062 C 23.920216 48.356883 24.519834 48.729265 24.427734 48.039062 z M 20 48.160156 C 19.74046 48.507948 20.264703 48.456244 20 48.160156 z M 4.0546875 48.34375 C 3.7551902 48.851564 4.8711596 48.43427 4.0546875 48.34375 z M 4.5449219 48.439453 C 4.2657962 48.63357 4.8240475 48.63357 4.5449219 48.439453 z M 4.8515625 48.439453 C 4.5724368 48.63357 5.1306882 48.63357 4.8515625 48.439453 z M 18.175781 48.439453 C 17.896637 48.63357 18.454926 48.63357 18.175781 48.439453 z M 1.40625 48.449219 C 0.95597031 48.664992 1.8340094 48.585093 1.40625 48.449219 z M 0.92773438 48.458984 L 0.92773438 48.544922 C 1.0054691 48.510879 1.0225694 48.478789 0.92773438 48.458984 z M 19.095703 48.591797 C 18.819382 48.788597 19.372024 48.788597 19.095703 48.591797 z M 19.708984 48.591797 C 19.435003 48.781643 19.978329 48.795929 19.708984 48.591797 z M 18.511719 48.59375 C 18.330521 48.879331 19.327627 48.914178 18.511719 48.59375 z M 33.716797 48.603516 C 32.350356 48.949834 33.535875 49.248798 33.716797 48.603516 z M 10.212891 48.898438 C 9.9337461 49.092516 10.492035 49.092516 10.212891 48.898438 z M 12.814453 48.898438 C 12.535309 49.092516 13.093598 49.092516 12.814453 48.898438 z M 27.365234 48.898438 C 27.08609 49.092516 27.644379 49.092516 27.365234 48.898438 z M 10.503906 48.925781 C 10.242045 49.273573 10.771905 49.213895 10.503906 48.925781 z M 9.4492188 49.050781 C 9.1752257 49.240703 9.7186008 49.254876 9.4492188 49.050781 z M 14.806641 49.050781 C 14.530319 49.247581 15.082962 49.247581 14.806641 49.050781 z M 13.429688 49.205078 C 13.153366 49.401878 13.706009 49.401878 13.429688 49.205078 z M 22.386719 49.367188 C 21.941379 49.587156 22.813735 49.499736 22.386719 49.367188 z M 22.005859 49.664062 C 21.729538 49.860863 22.282181 49.860862 22.005859 49.664062 z M 28.742188 49.664062 C 28.465847 49.860863 29.018528 49.860862 28.742188 49.664062 z M 5.7617188 49.748047 C 5.0964251 50.29019 7.4133666 50.867547 5.7617188 49.748047 z M 9.1386719 49.818359 C 8.8595273 50.012438 9.4178164 50.012438 9.1386719 49.818359 z M 22.615234 49.818359 C 22.33609 50.012438 22.894379 50.012438 22.615234 49.818359 z M 3.8574219 49.828125 C 4.3077231 50.043974 3.4296005 49.963999 3.8574219 49.828125 z M 5.1601562 49.96875 C 4.8861821 50.158709 5.4295118 50.172844 5.1601562 49.96875 z M 9.7519531 49.96875 C 9.4756319 50.16555 10.028278 50.16555 9.7519531 49.96875 z M 21.697266 49.96875 C 21.420944 50.16555 21.973587 50.16555 21.697266 49.96875 z M 32.894531 49.96875 C 32.454033 50.225569 32.907873 50.39053 32.894531 49.96875 z M 34.103516 49.96875 C 34.372875 50.172882 33.829534 50.158596 34.103516 49.96875 z M 19.095703 50.123047 C 18.819382 50.319847 19.372024 50.319847 19.095703 50.123047 z M 9.4492188 50.275391 C 9.1752257 50.465312 9.7186008 50.479485 9.4492188 50.275391 z M 10.365234 50.275391 C 10.091253 50.465236 10.634579 50.479523 10.365234 50.275391 z M 27.757812 50.279297 C 27.23416 50.65937 28.095468 50.532487 27.757812 50.279297 z M 34.177734 50.287109 C 34.628134 50.503109 33.749553 50.422908 34.177734 50.287109 z M 9.9707031 50.298828 C 9.1692509 51.076681 10.4168 50.389234 9.9707031 50.298828 z M 21.34375 50.308594 C 21.46841 50.878486 21.875115 50.413702 21.34375 50.308594 z M 26.736328 50.308594 C 26.468057 50.656915 27.020227 50.594591 26.736328 50.308594 z M 31.880859 50.441406 C 31.435355 50.661639 32.30833 50.573916 31.880859 50.441406 z M 27.349609 50.458984 C 27.089963 50.807495 27.614093 50.754808 27.349609 50.458984 z M 6.5371094 50.585938 C 6.2607995 50.782738 6.8134193 50.782738 6.5371094 50.585938 z M 11.046875 50.585938 C 10.700591 50.837994 11.57255 50.96948 11.046875 50.585938 z M 31.330078 50.613281 C 31.063833 50.961111 31.610995 50.907442 31.330078 50.613281 z M 25.908203 50.626953 C 24.846255 50.824547 26.975798 50.951652 25.908203 50.626953 z M 11.4375 50.740234 C 11.158355 50.934313 11.716645 50.934313 11.4375 50.740234 z M 12.509766 50.740234 C 12.230621 50.934313 12.78891 50.934313 12.509766 50.740234 z M 26.445312 50.740234 C 26.166168 50.934313 26.724457 50.934313 26.445312 50.740234 z M 26.8125 50.740234 C 26.819908 50.861633 27.255879 51.470605 26.8125 50.740234 z M 31.957031 50.740234 C 31.683537 50.932272 32.230525 50.932272 31.957031 50.740234 z M 21.378906 50.767578 C 21.116947 51.116051 21.646708 51.055465 21.378906 50.767578 z M 16.783203 50.917969 C 16.523561 51.266479 17.047687 51.21383 16.783203 50.917969 z M 27.810547 50.917969 C 28.075193 51.214133 27.551014 51.265685 27.810547 50.917969 z M 12.814453 51.044922 C 12.538132 51.241722 13.090774 51.241722 12.814453 51.044922 z M 25.679688 51.044922 C 25.403366 51.241722 25.956009 51.241722 25.679688 51.044922 z M 31.039062 51.044922 C 30.762722 51.241722 31.315357 51.241722 31.039062 51.044922 z M 1.3320312 51.199219 C 1.0585446 51.391257 1.6055141 51.391257 1.3320312 51.199219 z M 25.986328 51.199219 C 25.71283 51.391257 26.25983 51.391257 25.986328 51.199219 z M 30.732422 51.199219 C 30.458928 51.391257 31.005916 51.391257 30.732422 51.199219 z M 6.84375 51.351562 C 6.5674401 51.548363 7.1200599 51.548362 6.84375 51.351562 z M 27.058594 51.351562 C 26.782272 51.548363 27.334915 51.548362 27.058594 51.351562 z M 19.095703 51.503906 C 18.819382 51.700706 19.372024 51.700706 19.095703 51.503906 z M 26.138672 51.503906 C 25.862351 51.700706 26.414993 51.700706 26.138672 51.503906 z M 1.3183594 51.53125 C 1.0522277 51.859048 1.5867398 51.844459 1.3183594 51.53125 z M 7.1347656 51.53125 C 6.8612034 51.87496 7.4191184 51.829719 7.1347656 51.53125 z M 1.0234375 51.658203 C 0.74995278 51.850241 1.2969203 51.850241 1.0234375 51.658203 z M 1.6367188 51.658203 C 1.3632321 51.850241 1.9102129 51.850241 1.6367188 51.658203 z M 7.609375 51.658203 C 7.3358733 51.850241 7.8828767 51.850241 7.609375 51.658203 z M 26.75 51.658203 C 26.48354 51.85712 27.021234 51.843891 26.75 51.658203 z M 12.050781 51.964844 C 11.77446 52.161644 12.327103 52.161644 12.050781 51.964844 z M 26.138672 51.964844 C 25.862351 52.161644 26.414993 52.161644 26.138672 51.964844 z M 26.445312 51.964844 C 26.168991 52.161644 26.721634 52.161644 26.445312 51.964844 z M 27.058594 51.964844 C 26.782272 52.161644 27.334915 52.161644 27.058594 51.964844 z M 33.03125 51.964844 C 32.75491 52.161644 33.30759 52.161644 33.03125 51.964844 z M 23.369141 51.992188 C 23.109498 52.340698 23.633624 52.288011 23.369141 51.992188 z M 22.769531 52.117188 C 22.496033 52.309225 23.043033 52.309225 22.769531 52.117188 z M 23.6875 52.269531 C 23.411179 52.466331 23.963821 52.466331 23.6875 52.269531 z M 29.660156 52.269531 C 29.383816 52.466331 29.936496 52.466331 29.660156 52.269531 z M 30.273438 52.423828 C 29.997097 52.620628 30.549778 52.620628 30.273438 52.423828 z M 24.300781 52.578125 C 24.02446 52.774925 24.577103 52.774925 24.300781 52.578125 z M 19.082031 52.605469 C 18.846669 52.849475 19.308308 52.991589 19.082031 52.605469 z M 31.736328 52.708984 C 31.404756 52.723513 31.099885 52.879223 30.84375 53.072266 L 32.658203 53.072266 C 32.343693 52.794286 32.030079 52.696113 31.736328 52.708984 z M 12.814453 52.732422 C 12.535309 52.926501 13.093598 52.926501 12.814453 52.732422 z M 15.726562 52.732422 C 15.447418 52.926501 16.005707 52.926501 15.726562 52.732422 z M 18.789062 52.732422 C 18.51231 52.919206 19.061291 52.934286 18.789062 52.732422 z M 23.382812 52.732422 C 23.103668 52.926501 23.661957 52.926501 23.382812 52.732422 z M 16.300781 52.839844 C 16.146736 52.838504 15.974035 52.9116 15.787109 53.072266 L 16.75 53.072266 C 16.621882 52.929844 16.472321 52.841336 16.300781 52.839844 z M 22.615234 52.882812 C 22.338913 53.079612 22.891559 53.079612 22.615234 52.882812 z M 23.6875 52.882812 C 23.411179 53.079612 23.963821 53.079612 23.6875 52.882812 z M 24.300781 52.882812 C 24.02446 53.079612 24.577103 53.079612 24.300781 52.882812 z M 29.046875 52.882812 C 28.777516 53.086945 29.320857 53.072658 29.046875 52.882812 z M 29.355469 52.882812 C 29.079129 53.079612 29.631809 53.079612 29.355469 52.882812 z M 29.814453 52.882812 C 29.538113 53.079612 30.090793 53.079612 29.814453 52.882812 z M 13.503906 52.892578 C 13.06223 53.11421 13.928695 53.030984 13.503906 52.892578 z M 21.257812 52.917969 C 21.099811 52.913699 20.975577 52.959508 20.898438 53.072266 L 21.855469 53.072266 C 21.632115 52.985326 21.425076 52.922489 21.257812 52.917969 z M 8.8359375 53.035156 C 8.8161299 53.049264 8.8087741 53.060181 8.796875 53.072266 L 8.875 53.072266 C 8.8631009 53.060181 8.8557451 53.049264 8.8359375 53.035156 z M 23.994141 53.037109 C 23.975348 53.050494 23.968677 53.060702 23.957031 53.072266 L 24.03125 53.072266 C 24.019604 53.060702 24.012933 53.050494 23.994141 53.037109 z "
       transform="scale(0.26458333)" />
  </g>
  <g
     inkscape:groupmode="layer"
     id="layer2"
     inkscape:label="letter outline"
     style="display:inline">
    <g
       aria-label="I"
       transform="scale(0.88712253,1.12724)"
       id="text21789-2"
       style="font-size:12.6332px;line-height:1.25;font-family:'Shining NFI Demo';-inkscape-font-specification:'Shining NFI Demo';letter-spacing:0px;display:inline;stroke:#000000;stroke-width:0.529167">
      <path
         d="M 3.84618,1.9789273 H 6.8907811 V 2.0799929 L 5.8548588,2.1810585 v 8.3126455 l 1.0359223,0.101066 v 0.101065 H 3.84618 V 10.59477 L 4.8821024,10.493704 V 2.1810585 L 3.84618,2.0799929 Z"
         style="font-family:'Libre Caslon Display';-inkscape-font-specification:'Libre Caslon Display'"
         id="path8369" />
    </g>
  </g>
  <g
     inkscape:groupmode="layer"
     id="layer3"
     inkscape:label="letter fill"
     style="display:inline">
    <g
       aria-label="I"
       transform="scale(0.88712253,1.12724)"
       id="text21789"
       style="font-size:12.6332px;line-height:1.25;font-family:'Shining NFI Demo';-inkscape-font-specification:'Shining NFI Demo';letter-spacing:0px;display:inline;fill:#ffffff;stroke-width:0.0561189">
      <path
         d="M 3.84618,1.9789273 H 6.8907811 V 2.0799929 L 5.8548588,2.1810585 v 8.3126455 l 1.0359223,0.101066 v 0.101065 H 3.84618 V 10.59477 L 4.8821024,10.493704 V 2.1810585 L 3.84618,2.0799929 Z"
         style="font-family:'Libre Caslon Display';-inkscape-font-specification:'Libre Caslon Display'"
         id="path8372" />
    </g>
  </g>
  <g
     inkscape:groupmode="layer"
     id="layer4"
     inkscape:label="frame overlay"
     style="display:inline">
    <rect
       style="display:inline;fill:none;stroke:#020202;stroke-width:0.49095;stroke-linecap:round;stroke-linejoin:miter;stroke-miterlimit:4;stroke-dasharray:none;stroke-dashoffset:36.9212;stroke-opacity:1;paint-order:stroke fill markers;stop-color:#000000"
       id="rect1289-6-6"
       width="9.03405"
       height="13.79655"
       x="0.24547501"
       y="0.2454751" />
  </g>
</svg>
