<?xml version="1.0" encoding="UTF-8" standalone="no"?>
<!-- Created with Inkscape (http://www.inkscape.org/) -->

<svg
   width="36"
   height="54"
   viewBox="0 0 9.5249998 14.2875"
   version="1.1"
   id="svg5"
   inkscape:version="1.1.1 (3bf5ae0d25, 2021-09-20)"
   sodipodi:docname="nacar.svg"
   xmlns:inkscape="http://www.inkscape.org/namespaces/inkscape"
   xmlns:sodipodi="http://sodipodi.sourceforge.net/DTD/sodipodi-0.dtd"
   xmlns="http://www.w3.org/2000/svg"
   xmlns:svg="http://www.w3.org/2000/svg">
  <sodipodi:namedview
     id="namedview7"
     pagecolor="#ffffff"
     bordercolor="#666666"
     borderopacity="1.0"
     inkscape:pageshadow="2"
     inkscape:pageopacity="0"
     inkscape:pagecheckerboard="0"
     inkscape:document-units="mm"
     showgrid="false"
     units="px"
     width="36px"
     inkscape:zoom="0.70710678"
     inkscape:cx="130.10765"
     inkscape:cy="361.33156"
     inkscape:window-width="1920"
     inkscape:window-height="954"
     inkscape:window-x="0"
     inkscape:window-y="0"
     inkscape:window-maximized="1"
     inkscape:current-layer="layer1"
     inkscape:snap-global="true" />
  <defs
     id="defs2" />
  <g
     inkscape:label="bg"
     inkscape:groupmode="layer"
     id="layer1"
     style="display:inline;opacity:0.7">
    <rect
       style="fill:#000000;stroke:#020202;stroke-width:0.161356;stroke-linecap:round;stroke-linejoin:miter;stroke-dashoffset:36.9212;paint-order:stroke fill markers;stop-color:#000000"
       id="rect1289"
       width="9.3636436"
       height="14.126144"
       x="0.08067818"
       y="0.080677792" />
    <rect
       style="fill:#ffffff;stroke:#020202;stroke-width:0.981172;stroke-linecap:round;stroke-linejoin:miter;stroke-miterlimit:4;stroke-dasharray:none;stroke-dashoffset:36.9212;paint-order:stroke fill markers;stop-color:#000000"
       id="rect1289-6"
       width="8.5438309"
       height="13.306328"
       x="0.49058425"
       y="0.49058425" />
    <path
       id="path2155"
       style="fill:#4171b4;fill-opacity:1;stroke-width:0.0598435"
       d="M 0.92773438 0.92773438 L 0.92773438 1.2558594 L 0.98242188 1.2011719 C 1.0283616 1.1552875 1.0473568 1.0457625 1.046875 0.92773438 L 0.92773438 0.92773438 z M 2.4765625 0.92773438 C 2.5988689 1.1144776 2.719215 1.280217 2.8125 1.3847656 C 3.1351583 1.7463625 3.3046875 2.0414457 3.3046875 2.25 C 3.3046875 2.6468466 3.6809391 2.8808151 3.8359375 2.5800781 C 4.0103438 2.2416781 4.3136436 1.9853706 4.6308594 1.90625 L 4.9121094 1.8359375 L 5.125 1.90625 C 5.5206372 2.036827 5.7364961 2.5026107 5.5585938 2.8417969 C 5.3508331 3.2379084 4.9496875 3.5193128 3.9628906 3.9570312 C 3.5240269 4.1516981 3.2685276 4.3758535 3.0917969 4.7246094 L 2.9453125 5.0136719 L 2.953125 5.7636719 L 2.9609375 6.515625 L 3.1640625 6.515625 C 3.4629513 6.515625 3.7641741 6.3692107 4.0878906 6.0664062 L 4.375 5.796875 L 4.5527344 5.796875 C 4.6752667 5.796875 4.7718667 5.8474534 4.8613281 5.9609375 L 4.9902344 6.1269531 L 4.9609375 6.3535156 C 4.9111573 6.7267598 4.6636538 6.9825037 4.1015625 7.2421875 C 3.522637 7.5096522 3.3061261 7.7145953 3.0507812 8.2421875 L 2.8671875 8.6230469 L 2.9042969 9.1484375 C 2.9248197 9.4374776 2.9695125 9.7473067 3.0039062 9.8378906 L 3.0683594 10.001953 L 3.40625 9.9667969 C 3.8609084 9.9198714 4.1639934 9.7014523 4.3984375 9.2519531 C 4.7802303 8.5199286 5.2667431 8.2296299 5.5820312 8.5449219 C 5.9268035 8.889693 5.6872568 9.4516285 5.0605469 9.7675781 C 4.6980788 9.9503077 4.3710483 10.470612 4.2636719 11.035156 L 4.1953125 11.392578 L 4.2792969 11.980469 C 4.3334575 12.361119 4.3996091 12.602817 4.4648438 12.667969 L 4.5644531 12.769531 L 4.9394531 12.767578 L 5.3144531 12.767578 L 5.625 12.568359 C 5.8390044 12.43102 6.0011871 12.260001 6.1484375 12.017578 C 6.8100514 10.928454 7.7245849 11.323097 7.1484375 12.449219 L 6.9238281 12.888672 L 6.9296875 13.337891 C 6.9414645 14.206106 7.2908964 14.470395 7.9335938 14.09375 C 8.4339654 13.800514 8.8691406 13.079979 8.8691406 12.542969 C 8.8692313 12.019309 9.2047244 11.482422 9.5332031 11.482422 C 9.7959937 11.482422 9.8867188 11.623186 9.8867188 12.035156 L 9.8867188 12.398438 L 9.6816406 12.763672 C 9.5691203 12.964318 9.3914621 13.209838 9.2871094 13.308594 C 8.9409538 13.636128 8.7353743 14.310711 8.8222656 14.833984 C 8.8468703 14.982096 8.8847067 15.25801 8.90625 15.447266 L 8.9453125 15.791016 L 9.0722656 15.791016 C 9.2415091 15.790486 9.4987937 15.614067 9.7167969 15.349609 L 9.8945312 15.132812 L 10.158203 15.132812 L 10.419922 15.132812 L 10.482422 15.248047 C 10.625001 15.514466 10.436867 15.930297 9.8789062 16.582031 C 9.5807015 16.930364 9.5659703 17.2208 9.7929688 18.238281 C 9.9535647 18.95816 10.006589 19.000118 10.494141 18.791016 C 10.8822 18.624586 11.167199 18.297431 11.296875 17.869141 C 11.49626 17.210595 11.979089 16.865819 12.279297 17.166016 C 12.502629 17.389321 12.48931 17.569455 12.197266 18.333984 C 12.085618 18.62664 12.066287 19.80351 12.169922 20 C 12.207831 20.071893 12.364205 20.268835 12.517578 20.4375 C 12.670959 20.60617 12.875938 20.895006 12.972656 21.080078 C 13.313978 21.733279 13.955224 21.137059 14.125 20.009766 C 14.189365 19.581928 14.187245 19.446708 14.107422 18.808594 L 14.0625 18.443359 L 14.158203 18.255859 C 14.449673 17.692218 15.014365 17.900164 15.150391 18.621094 L 15.220703 18.994141 L 15.15625 19.162109 C 15.035419 19.479955 15.117756 20.156261 15.328125 20.582031 C 15.368037 20.662797 15.634152 20.950161 15.919922 21.220703 C 16.738787 21.995986 17.246094 21.570058 17.246094 20.111328 L 17.246094 19.609375 L 17.037109 19.125 C 16.710426 18.371137 16.772621 17.884766 17.195312 17.884766 C 17.43975 17.884766 17.683252 18.147438 17.876953 18.619141 C 18.12125 19.213918 18.796677 19.777161 19.207031 19.728516 L 19.363281 19.710938 L 19.589844 19.171875 L 19.816406 18.632812 L 19.818359 18.195312 L 19.820312 17.755859 L 19.630859 17.326172 C 19.520006 17.076131 19.428803 16.760647 19.414062 16.568359 L 19.388672 16.238281 L 19.5 16.101562 C 19.573663 16.010601 19.681036 15.960811 19.814453 15.957031 L 20.015625 15.951172 L 20.123047 16.095703 C 20.273926 16.295682 20.359122 16.84535 20.351562 17.585938 L 20.34375 18.214844 L 20.466797 18.560547 C 20.623969 19.002422 21.086199 19.65198 21.333984 19.779297 C 21.439278 19.833401 21.681286 19.982851 21.871094 20.111328 C 22.060875 20.239855 22.241248 20.329256 22.271484 20.310547 C 22.399951 20.231161 22.524829 19.860856 22.554688 19.470703 L 22.585938 19.052734 L 22.423828 18.693359 C 22.050411 17.865478 22.020973 17.461322 22.314453 17.230469 C 22.71664 16.914112 23.13647 17.377499 23.285156 18.300781 C 23.437747 19.248279 24.229127 20.252845 25.076172 20.576172 C 25.230282 20.634993 25.513078 20.743978 25.705078 20.818359 L 26.054688 20.953125 L 26.142578 20.863281 C 26.447015 20.558855 26.390105 19.567233 26.039062 19.074219 C 25.755511 18.675968 25.60761 18.330126 25.601562 18.050781 L 25.595703 17.769531 L 25.753906 17.609375 L 25.912109 17.451172 L 26.126953 17.492188 L 26.339844 17.53125 L 26.611328 17.910156 C 26.760128 18.118687 26.882812 18.316803 26.882812 18.349609 C 26.882812 18.951267 28.234349 20.090035 29.111328 20.226562 L 29.513672 20.289062 L 29.96875 20.193359 C 30.219586 20.141504 30.525376 20.099609 30.648438 20.099609 C 30.796217 20.099609 30.908884 20.059582 30.980469 19.980469 L 31.089844 19.861328 L 31.029297 19.296875 L 30.96875 18.732422 L 30.775391 18.429688 C 30.562974 18.098672 29.970285 17.59247 29.626953 17.449219 C 29.234676 17.285539 29.089512 16.875328 29.335938 16.628906 C 29.505861 16.458967 29.648226 16.479678 29.929688 16.714844 C 30.877548 17.506755 32.386442 17.194344 33.390625 15.998047 C 34.176589 15.061725 34.195726 14.980868 33.71875 14.677734 C 33.529498 14.557458 33.239649 14.333149 33.074219 14.177734 C 32.225669 13.38065 31.047014 13.326917 30.261719 14.050781 C 29.616671 14.645357 29.036508 14.60627 29.037109 13.96875 C 29.037431 13.620743 29.207771 13.384747 29.689453 13.070312 C 30.258438 12.698884 30.469085 12.30121 30.470703 11.595703 L 30.472656 11.201172 L 30.365234 11.105469 C 29.616922 10.428255 27.67237 10.860768 27.173828 11.816406 C 27.029877 12.092348 26.684165 12.330387 26.375 12.365234 L 26.109375 12.394531 L 25.927734 12.212891 L 25.744141 12.029297 L 25.744141 11.761719 L 25.744141 11.492188 L 25.888672 11.322266 C 25.967475 11.228613 26.207942 11.04813 26.423828 10.921875 C 26.639711 10.795614 26.865283 10.620265 26.923828 10.533203 C 27.234316 10.071591 27.268496 9.8724118 27.060547 9.765625 C 25.935854 9.1880527 25.253446 9.3255362 24.722656 10.234375 L 24.490234 10.632812 L 24.222656 10.789062 C 24.075459 10.875342 23.879594 10.960109 23.787109 10.978516 L 23.619141 11.013672 L 23.455078 10.884766 L 23.291016 10.755859 L 23.291016 10.503906 C 23.291016 10.188121 23.50765 9.8537536 23.78125 9.7460938 C 24.19498 9.5833201 24.699223 8.9520574 24.65625 8.6503906 L 24.638672 8.5195312 L 24.074219 8.2402344 C 23.764328 8.0860939 23.446255 7.9436328 23.367188 7.9238281 C 22.978452 7.8262936 22.352678 7.7874679 21.986328 7.8378906 L 21.585938 7.8925781 L 20.927734 8.2207031 C 19.689013 8.8387012 19.008413 8.7547033 18.71875 7.9492188 L 18.605469 7.6347656 L 18.712891 7.4375 C 18.979986 6.9415289 20.074718 6.7007908 20.861328 6.9648438 C 21.165028 7.0667965 21.437931 7.1132812 21.71875 7.1132812 L 22.130859 7.1132812 L 22.378906 6.9941406 C 22.515158 6.9283013 22.650522 6.875 22.677734 6.875 C 22.78395 6.875 23.394599 6.1739315 23.486328 5.9472656 C 23.828954 5.1004009 23.820671 4.8963383 23.431641 4.6035156 L 23.15625 4.3964844 L 22.791016 4.375 L 22.423828 4.3535156 L 21.978516 4.5078125 C 21.46278 4.6859643 21.275216 4.6970352 21.085938 4.5644531 C 20.604055 4.2269311 20.972129 3.6879053 21.871094 3.4121094 C 22.784813 3.1317864 23.236219 2.6487724 23.326172 1.8535156 L 23.365234 1.5 L 23.179688 1.4023438 C 23.077138 1.3493094 22.775429 1.2268527 22.509766 1.1289062 L 22.027344 0.94921875 L 21.65625 0.95117188 C 21.172342 0.95289118 20.881623 1.0899662 20.392578 1.5449219 L 20.001953 1.9082031 L 19.818359 1.9082031 C 19.315583 1.9082031 19.228828 1.5152511 19.568359 0.92773438 L 17.496094 0.92773438 C 17.319077 1.2698522 17.093924 1.3419987 16.847656 1.0957031 L 16.693359 0.94140625 L 16.695312 0.92773438 L 11.414062 0.92773438 C 10.995613 1.2872979 10.405993 1.5620792 9.78125 1.5625 C 9.5353728 1.5626587 9.6426245 1.6505637 10.021484 1.7597656 C 10.526259 1.9052699 10.913784 1.8968587 11.408203 1.7304688 L 11.822266 1.5917969 L 12.351562 1.6269531 L 12.880859 1.6601562 L 13.193359 1.8046875 C 13.36546 1.8834906 13.607029 2.0417748 13.730469 2.1582031 L 13.955078 2.3710938 L 13.955078 2.6328125 C 13.954398 2.7770396 13.903618 3.0029622 13.84375 3.1347656 L 13.734375 3.375 L 13.441406 3.5332031 C 13.080662 3.7288126 12.505663 3.8828125 12.132812 3.8828125 C 11.75379 3.8828125 11.832778 3.9719274 12.349609 4.1289062 L 12.771484 4.2578125 L 13.128906 4.2207031 C 13.324769 4.2002219 13.691265 4.1009625 13.943359 4 L 14.400391 3.8164062 L 14.912109 3.8046875 C 15.535221 3.7913004 15.817556 3.8819217 16.03125 4.1621094 L 16.191406 4.3710938 L 16.191406 4.7402344 C 16.189539 5.541851 15.59846 6.0082747 14.490234 6.0800781 C 13.870868 6.1202016 13.835642 6.1793681 14.318359 6.3828125 L 14.644531 6.5195312 L 15.091797 6.4746094 C 16.326958 6.3497538 17.271068 6.5617323 17.6875 7.0566406 L 17.845703 7.2421875 L 17.845703 7.5097656 C 17.845703 8.0316764 17.456933 8.4483159 16.761719 8.671875 L 16.34375 8.8066406 L 15.927734 8.7675781 C 15.439646 8.7222162 15.389567 8.7932452 15.796875 8.9492188 L 16.080078 9.0566406 L 16.619141 9.0410156 C 16.915365 9.0321715 17.454365 9.0188621 17.816406 9.0117188 L 18.474609 8.9980469 L 18.833984 9.1132812 C 20.727925 9.7148755 19.368483 11.395297 17.304688 11.003906 C 16.917248 10.930425 16.86834 10.966274 17.099609 11.152344 C 17.367937 11.368257 17.942036 11.537757 18.275391 11.5 L 18.554688 11.46875 L 19.015625 11.630859 C 19.283204 11.725805 19.625681 11.90704 19.830078 12.0625 L 20.183594 12.332031 L 20.451172 12.890625 C 20.75985 13.53376 20.842672 13.610629 21.615234 13.976562 C 22.431019 14.362968 22.61628 14.434221 23.232422 14.591797 C 23.380538 14.629675 23.702378 14.738774 23.949219 14.833984 C 24.495912 15.044855 24.90112 15.148982 25.820312 15.314453 L 26.525391 15.441406 L 27.826172 15.451172 C 28.691181 15.45833 29.321123 15.433499 29.707031 15.376953 L 30.287109 15.292969 L 30.378906 15.369141 C 30.617942 15.567525 30.476356 15.85191 30.083984 15.958984 C 29.952328 15.994916 29.656181 16.075833 29.425781 16.138672 C 28.520962 16.385316 26.298467 16.532332 25.525391 16.396484 C 25.333648 16.362775 24.907284 16.290028 24.578125 16.236328 C 23.243665 16.01867 22.424155 15.707033 20.787109 14.791016 L 20.097656 14.40625 L 19.716797 14.476562 C 18.662569 14.675482 17.100816 13.707383 16.650391 12.574219 C 16.509603 12.220248 16.44963 12.27339 16.492188 12.714844 L 16.53125 13.128906 L 16.412109 13.457031 C 16.345136 13.640844 16.209078 13.861383 16.103516 13.957031 L 15.914062 14.128906 L 15.591797 14.101562 L 15.267578 14.076172 L 15.068359 13.880859 C 14.958413 13.774293 14.757119 13.466055 14.621094 13.195312 L 14.375 12.703125 L 14.386719 12.228516 L 14.400391 11.751953 L 14.287109 11.498047 C 14.117598 11.120338 14.093189 11.176355 14.123047 11.902344 L 14.150391 12.5625 L 14.039062 12.6875 C 13.295524 13.509664 12.191838 12.805432 11.941406 11.347656 C 11.843365 10.776863 11.851493 10.648182 12.019531 10.064453 C 12.125093 9.6978276 12.090361 9.4935967 11.958984 9.7089844 C 11.606226 10.287346 10.930194 10.763672 10.464844 10.763672 L 10.253906 10.763672 L 10.128906 10.605469 L 10.003906 10.445312 L 10.013672 9.9550781 L 10.025391 9.4648438 L 9.9082031 9.2910156 C 9.843989 9.1959896 9.7281355 8.985665 9.6503906 8.8242188 L 9.5097656 8.53125 L 9.4804688 7.9804688 L 9.453125 7.4296875 L 9.5507812 7.1367188 C 9.6044883 6.975593 9.7276774 6.7242916 9.8261719 6.5761719 C 9.9246664 6.4280613 10.004742 6.2513673 10.003906 6.1855469 L 10.001953 6.0664062 L 9.7792969 6.3144531 C 8.7287167 7.4796093 7.647759 6.8996064 7.6445312 5.1699219 L 7.6425781 4.5097656 L 7.8320312 4.1210938 C 8.0150738 3.7461004 8.1593926 3.0436473 8.0527344 3.046875 C 8.0242367 3.0477254 7.9502904 3.1617551 7.8867188 3.3007812 C 7.7366828 3.6288121 7.1691996 4.1828717 6.8144531 4.3496094 C 5.8811366 4.7883286 5.2742051 3.8655169 5.9355469 3.0136719 C 6.0426587 2.8757165 6.1757812 2.0529207 6.1757812 1.5273438 L 6.1757812 0.96289062 L 6.1582031 0.92773438 L 2.4765625 0.92773438 z M 28.861328 0.92773438 L 29.001953 1.0644531 L 29.265625 1.3242188 L 29.580078 1.3945312 C 29.998559 1.4887738 30.582071 1.4077684 30.976562 1.2011719 L 31.28125 1.0429688 L 31.761719 1.0410156 L 32.242188 1.0410156 L 32.564453 1.2070312 C 32.741259 1.2987566 32.904301 1.3520616 32.927734 1.3261719 C 32.961962 1.2883171 33.003661 1.127953 33.044922 0.92773438 L 28.861328 0.92773438 z M 8.2753906 1.0332031 C 8.105116 1.044976 8.0137496 1.3205042 8.1914062 1.4199219 C 8.2470409 1.4510274 8.3279693 1.46382 8.3710938 1.4472656 C 8.4844418 1.4037799 8.4710211 1.0900079 8.3535156 1.0449219 C 8.326492 1.0345521 8.2997156 1.0315213 8.2753906 1.0332031 z M 9.0585938 1.7285156 C 8.8427449 1.7285156 8.7305476 1.9844614 8.8808594 2.1347656 C 8.9898232 2.2437634 9.1568558 2.2217879 9.2285156 2.0878906 L 9.2929688 1.9667969 L 9.2285156 1.8476562 C 9.1932904 1.7818169 9.1166851 1.7285156 9.0585938 1.7285156 z M 32.697266 1.9492188 C 32.66586 1.9612956 32.630874 1.9875211 32.59375 2.0234375 C 32.506783 2.1075547 31.874277 2.2070312 31.429688 2.2070312 C 30.320899 2.2070312 29.530599 2.8315107 29.417969 3.796875 L 29.382812 4.0917969 L 29.509766 4.2519531 C 29.66637 4.4499399 30.096957 4.6015625 30.503906 4.6015625 L 30.814453 4.6015625 L 31.287109 4.3613281 L 31.759766 4.1230469 L 32.154297 4.1230469 L 32.548828 4.1230469 L 32.751953 4.2597656 C 33.000911 4.4275551 33.021468 4.5163265 32.867188 4.7675781 C 32.736318 4.9807182 32.654401 5.0246822 32.126953 5.1699219 L 31.775391 5.265625 L 31.398438 5.6367188 C 30.998518 6.0298425 30.89324 6.2612117 30.892578 6.7363281 L 30.890625 6.9863281 L 31.048828 7.109375 L 31.207031 7.234375 L 31.556641 7.234375 C 32.082112 7.234375 32.761751 6.8759898 33.537109 6.1914062 L 33.640625 6.0996094 L 33.603516 5.9042969 C 33.583106 5.7966416 33.473 5.451356 33.357422 5.1386719 C 33.241882 4.8259889 33.136717 4.4232155 33.125 4.2421875 C 33.006371 2.4118536 32.917105 1.8646809 32.697266 1.9492188 z M 9.5722656 2.578125 C 9.4795973 2.6086415 9.4082031 2.7100167 9.4082031 2.8652344 C 9.4082031 2.9507991 9.4390196 3.0523046 9.4785156 3.0917969 C 9.5943506 3.2076281 9.7559549 3.1764477 9.8613281 3.015625 L 9.9589844 2.8652344 L 9.8613281 2.7148438 C 9.7776721 2.5871766 9.664934 2.5476085 9.5722656 2.578125 z M 10.408203 3.7128906 C 10.354931 3.708212 10.304688 3.7416765 10.304688 3.8183594 C 10.304688 3.9039959 10.344043 3.9433594 10.429688 3.9433594 C 10.515218 3.9433594 10.547187 3.9096941 10.533203 3.8378906 C 10.518161 3.7598906 10.461476 3.7175692 10.408203 3.7128906 z M 11.103516 4.6269531 C 11.023638 4.6405864 10.948535 4.6954757 10.898438 4.7890625 L 10.835938 4.9082031 L 10.933594 5.0566406 L 11.03125 5.2070312 L 11.191406 5.1875 L 11.349609 5.1699219 L 11.408203 5.0039062 L 11.466797 4.8378906 L 11.341797 4.7128906 C 11.269145 4.6402368 11.183394 4.6133199 11.103516 4.6269531 z M 12.001953 5.9179688 C 11.7423 5.9179687 11.617852 6.2135666 11.800781 6.3964844 C 11.944857 6.5405713 11.975347 6.5417541 12.146484 6.421875 C 12.38382 6.2556393 12.286967 5.9179688 12.001953 5.9179688 z M 12.9375 7.1074219 L 12.75 7.125 C 12.517257 7.1482252 12.425226 7.3377787 12.556641 7.5253906 C 12.672101 7.6902037 12.913588 7.6905182 13.001953 7.5253906 L 13.070312 7.3984375 L 13.003906 7.2519531 L 12.9375 7.1074219 z M 33.429688 7.6835938 L 32.863281 7.9667969 C 32.552011 8.1224265 32.157175 8.2810281 31.984375 8.3203125 C 31.294876 8.4770404 32.319137 9.3070237 33.638672 9.6601562 C 33.945044 9.7421304 34.23877 9.8335997 34.292969 9.8652344 C 34.347167 9.8968615 34.453265 9.9247804 34.527344 9.9257812 L 34.662109 9.9277344 L 34.662109 8.90625 L 34.662109 7.8867188 L 34.4375 7.7910156 C 34.314072 7.7383366 34.03567 7.6926805 33.820312 7.6894531 L 33.429688 7.6835938 z M 13.455078 8.2539062 C 13.403147 8.2537652 13.344799 8.2840665 13.296875 8.3417969 L 13.222656 8.4316406 L 13.296875 8.5214844 C 13.423829 8.6744668 13.648399 8.530006 13.576172 8.3417969 C 13.553948 8.2838688 13.507009 8.2540473 13.455078 8.2539062 z M 14.378906 9.1367188 C 14.330171 9.1272124 14.273895 9.1308912 14.210938 9.1542969 L 14.076172 9.2050781 L 14.076172 9.3769531 C 14.076172 9.4712637 14.093313 9.566045 14.115234 9.5878906 C 14.200194 9.6728582 14.433618 9.6226317 14.496094 9.5058594 C 14.593705 9.3234726 14.525111 9.1652379 14.378906 9.1367188 z M 15.085938 9.9394531 C 14.956256 9.9202202 14.828671 10.05207 14.882812 10.222656 C 14.933118 10.381077 15.129842 10.381453 15.214844 10.222656 L 15.28125 10.099609 L 15.208984 10.013672 C 15.171945 9.9690412 15.129165 9.9458641 15.085938 9.9394531 z M 15.878906 10.765625 C 15.735776 10.765625 15.66639 10.856212 15.714844 10.982422 C 15.766056 11.115809 15.956216 11.054865 15.978516 10.898438 L 15.998047 10.765625 L 15.878906 10.765625 z M 16.857422 11.59375 C 16.826127 11.59375 16.791013 11.622827 16.779297 11.658203 C 16.767505 11.693576 16.802543 11.722656 16.857422 11.722656 C 16.912263 11.722656 16.947263 11.69358 16.935547 11.658203 C 16.923793 11.622831 16.888792 11.59375 16.857422 11.59375 z M 3.0351562 13.568359 L 2.4960938 13.658203 C 1.8708648 13.763269 1.339789 14.05759 0.92773438 14.449219 L 0.92773438 18.113281 C 0.95327741 18.127141 0.97333552 18.145157 1 18.158203 L 1.328125 18.318359 L 1.5527344 18.277344 C 2.2990437 18.140855 2.7129319 17.486499 2.4648438 16.833984 C 2.4222447 16.721925 2.421039 16.613198 2.4648438 16.480469 C 2.6774044 15.836404 3.6305265 16.207966 4.0703125 17.107422 L 4.2304688 17.4375 L 4.2304688 18.095703 L 4.2304688 18.753906 L 4.0234375 19.232422 C 3.6644578 20.060716 2.4999763 21.356808 1.5410156 21.994141 C 1.3788637 22.101912 1.1070219 22.281197 0.92773438 22.400391 L 0.92773438 23.507812 C 1.3221679 23.527256 1.3530737 23.930903 0.92773438 24.529297 L 0.92773438 24.857422 C 1.0318906 24.776567 1.1597125 24.643628 1.3085938 24.457031 L 1.6445312 24.033203 L 2.0234375 23.861328 C 2.8406961 23.490759 3.3791666 23.929789 3.0234375 24.675781 C 2.8351944 25.070536 3.1552036 24.970514 3.6523438 24.480469 C 3.8096327 24.325418 4.1109144 24.098037 4.3222656 23.974609 L 4.7070312 23.75 L 4.953125 23.75 C 5.7030059 23.75 5.5187589 24.604979 4.6191406 25.300781 C 4.2920301 25.553764 4.8115584 25.501898 5.5429688 25.208984 L 5.8964844 25.066406 L 6.5234375 25.066406 C 7.2186325 25.066406 7.5434766 25.139667 7.7636719 25.34375 L 7.9121094 25.480469 L 7.9121094 25.693359 L 7.9121094 25.908203 L 7.6601562 26.181641 C 7.5214816 26.332092 7.2557739 26.531377 7.0703125 26.625 C 6.7520763 26.78566 6.5759364 26.825421 5.4433594 26.990234 C 4.9479389 27.062352 4.8641859 27.142831 5.1171875 27.308594 C 5.2825947 27.416972 5.5162797 27.814475 5.5800781 28.097656 L 5.625 28.302734 L 5.5371094 28.390625 C 5.3343831 28.59335 4.2099433 28.444267 3.796875 28.160156 C 3.6735715 28.075355 3.4534252 27.922775 3.3085938 27.822266 C 3.1262807 27.695746 2.9759023 27.640625 2.8164062 27.640625 C 2.5604566 27.640625 2.5112172 27.735286 2.7246094 27.816406 C 2.9301174 27.894536 3.2441406 28.2808 3.2441406 28.455078 C 3.2441406 29.038936 2.5940986 29.170219 1.9785156 28.710938 C 1.7714958 28.556457 1.6095085 28.478858 1.515625 28.490234 L 1.3710938 28.507812 L 1.2226562 28.867188 C 1.1418877 29.064674 1.0517206 29.279879 1.0214844 29.345703 L 0.96679688 29.464844 L 1.3945312 30.292969 L 1.8203125 31.121094 L 1.9492188 31.082031 C 2.0197599 31.060412 2.2785497 30.988773 2.5253906 30.921875 L 2.9746094 30.800781 L 3.7226562 30.896484 C 4.9581726 31.057606 5.5008213 31.09196 5.7128906 31.023438 L 5.90625 30.960938 L 5.9257812 30.736328 L 5.9433594 30.509766 L 5.7246094 30.017578 C 5.3838472 29.249943 5.3774778 29.227663 5.4199219 29.058594 C 5.5562608 28.51536 6.2124548 28.771086 6.8535156 29.617188 C 7.3857185 30.319603 8.2195341 30.512985 9.4082031 30.212891 C 9.7993238 30.114169 10.243829 30.033203 10.396484 30.033203 L 10.673828 30.033203 L 10.632812 29.839844 C 10.489561 29.163308 10.146108 28.768038 9.4804688 28.513672 C 8.476785 28.130136 8.1402294 27.42784 8.8339844 27.164062 L 8.9980469 27.101562 L 9.3378906 27.197266 C 9.5245577 27.250451 9.8158081 27.371685 9.984375 27.466797 C 10.793659 27.923388 11.849922 27.504454 12.582031 26.435547 C 12.791084 26.13032 13.091865 25.737103 13.25 25.5625 C 13.56166 25.218341 13.581956 25.149223 13.449219 24.892578 C 13.230312 24.469258 12.693078 24.181325 11.958984 24.095703 L 11.412109 24.03125 L 10.994141 24.214844 C 10.141559 24.585615 9.7675781 24.495503 9.7675781 23.919922 C 9.7675781 23.673827 10.01429 23.457073 10.505859 23.275391 C 11.315245 22.976245 11.795523 22.153912 11.644531 21.326172 L 11.591797 21.027344 L 10.849609 21.009766 C 9.7562941 20.98467 9.5173808 21.094422 8.8398438 21.921875 C 8.1959823 22.708203 7.6749434 22.924932 7.3085938 22.558594 L 7.1328125 22.382812 L 7.1328125 22.103516 C 7.1328125 21.692018 7.2763798 21.498619 7.75 21.263672 C 8.2995546 20.991055 8.6347799 20.703342 8.84375 20.326172 L 9.0195312 20.009766 L 9.0136719 19.470703 C 9.0063056 18.782206 8.8451775 18.488329 8.5976562 18.714844 C 8.5663882 18.743459 8.2855889 18.81596 7.9746094 18.875 L 7.4082031 18.982422 L 7.1425781 19.226562 C 6.9606732 19.393559 6.8043686 19.62696 6.6503906 19.960938 C 6.281796 20.760441 5.6522151 20.914871 5.2714844 20.298828 L 5.1445312 20.091797 L 5.1757812 19.818359 L 5.2050781 19.546875 L 5.7148438 19.060547 C 6.4094945 18.398149 6.6815472 17.810073 6.7207031 16.882812 C 6.7540915 16.092228 6.1410362 14.854852 5.4296875 14.275391 L 5.1015625 14.007812 L 4.6074219 13.857422 C 4.3349595 13.775289 3.868505 13.677473 3.5722656 13.638672 L 3.0351562 13.568359 z M 23.212891 23.451172 C 22.970305 23.451172 22.725348 24.019656 22.630859 24.800781 L 22.558594 25.402344 L 22.65625 25.740234 C 22.710411 25.926623 22.875847 26.249989 23.023438 26.457031 C 23.570456 27.224398 23.721024 27.474004 23.753906 27.675781 L 23.787109 27.882812 L 23.679688 28.001953 C 23.500319 28.200156 23.374001 28.141053 23.021484 27.699219 C 22.658238 27.243958 22.516499 27.129132 22.207031 27.039062 L 22.005859 26.980469 L 21.910156 27.095703 C 21.29692 27.839979 22.154676 31.350891 23.220703 32.458984 C 23.38639 32.63121 24.063719 33.537757 24.314453 33.923828 C 24.432008 34.104856 24.697809 34.522441 24.90625 34.851562 C 25.114683 35.180706 25.362543 35.562841 25.457031 35.701172 C 27.146903 38.175097 27.749484 41.710621 26.611328 42.478516 L 26.394531 42.623047 L 26.023438 42.626953 L 25.650391 42.630859 L 25.488281 42.525391 C 25.399651 42.467299 25.28071 42.348433 25.222656 42.259766 L 25.117188 42.097656 L 25.121094 41.617188 L 25.123047 41.134766 L 25.470703 40.441406 L 25.816406 39.748047 L 25.867188 39.296875 C 25.982214 38.271172 25.639634 37.448811 24.837891 36.826172 C 24.710747 36.727417 24.460362 36.529434 24.28125 36.386719 C 24.102157 36.244042 23.926153 36.146047 23.890625 36.167969 C 23.779235 36.236817 23.549072 36.640097 23.503906 36.845703 C 23.367605 37.466302 22.624559 37.659179 22.357422 37.142578 L 22.259766 36.953125 L 22.292969 36.560547 C 22.328814 36.141643 22.454713 35.808685 22.791016 35.244141 C 23.141 34.656383 23.288953 33.680835 23.107422 33.160156 L 23.044922 32.974609 L 23.107422 32.855469 C 23.150168 32.77591 23.152966 32.721833 23.113281 32.697266 C 23.080135 32.677007 23.052734 32.689838 23.052734 32.724609 C 23.052734 32.836483 22.954688 32.791027 22.890625 32.650391 C 22.804841 32.462125 21.464994 31.482272 21.392578 31.554688 C 21.377687 31.569586 21.348471 31.794618 21.326172 32.054688 C 21.255627 32.875601 20.618116 33.294878 20.263672 32.753906 L 20.164062 32.603516 L 20.267578 31.746094 L 20.373047 30.888672 L 20.251953 30.615234 C 19.934779 29.89822 18.743338 29.197266 17.84375 29.197266 C 17.812002 29.197266 17.787109 29.38289 17.787109 29.611328 L 17.787109 30.027344 L 17.935547 30.441406 C 18.170516 31.092853 18.125564 31.349609 17.775391 31.349609 L 17.609375 31.349609 L 17.460938 31.125 C 17.379451 31.001595 17.272055 30.786894 17.222656 30.646484 C 16.985941 29.973339 16.458261 29.665192 15.244141 29.492188 C 14.278789 29.354628 14.102942 29.313206 13.935547 29.189453 C 13.690675 29.00841 13.614883 29.077243 13.423828 29.646484 C 13.33569 29.909116 13.175105 30.284942 13.066406 30.482422 L 12.869141 30.841797 L 12.835938 31.470703 L 12.804688 32.097656 L 12.957031 32.470703 C 13.305628 33.32496 13.688704 33.698685 14.769531 34.240234 C 15.514805 34.613644 15.715483 34.98182 15.365234 35.332031 L 15.21875 35.478516 L 14.980469 35.478516 L 14.742188 35.478516 L 14.453125 35.232422 C 14.294801 35.09693 14.112714 34.923675 14.046875 34.845703 C 13.970464 34.755183 13.78966 34.668008 13.548828 34.607422 L 13.171875 34.513672 L 12.867188 34.578125 C 12.699138 34.614182 12.441416 34.6969 12.294922 34.761719 L 12.029297 34.880859 L 12.070312 34.986328 C 12.093254 35.044178 12.258124 35.532523 12.4375 36.072266 C 12.76596 37.060465 12.864215 37.259104 13.203125 37.625 C 13.429141 37.869026 13.635938 37.975188 14.396484 38.238281 C 15.0835 38.475934 15.414801 38.72082 15.519531 39.070312 L 15.589844 39.302734 L 15.513672 39.488281 C 15.41291 39.731494 15.2712 39.79868 14.966797 39.75 L 14.716797 39.710938 L 14.337891 39.365234 C 13.777935 38.857776 13.162709 38.70406 12.550781 38.916016 L 12.310547 38.998047 L 12.291016 39.132812 C 12.279866 39.206472 12.372012 39.52545 12.496094 39.841797 L 12.720703 40.416016 L 13.115234 40.806641 L 13.509766 41.195312 L 13.837891 41.308594 C 15.147123 41.762511 15.910746 42.748226 15.388672 43.308594 C 15.21365 43.496436 14.981085 43.471653 14.640625 43.228516 C 14.267109 42.961605 13.993561 42.887308 13.566406 42.9375 L 13.226562 42.978516 L 13.267578 43.246094 C 13.320987 43.602246 13.448949 43.815745 14.066406 44.578125 C 14.389019 44.976453 14.622211 45.434391 14.798828 46.013672 L 14.935547 46.460938 L 14.935547 47.148438 L 14.935547 47.837891 L 14.828125 48.060547 C 14.355979 49.045923 13.474757 49.319677 12.662109 48.732422 L 12.533203 48.638672 L 12.269531 49.017578 C 12.124246 49.225448 11.98834 49.440232 11.966797 49.496094 C 11.87952 49.723523 11.360516 50.448398 11.195312 50.574219 C 11.09799 50.648373 10.93244 50.780372 10.828125 50.867188 L 10.638672 51.025391 L 10.712891 51.115234 C 10.754012 51.164784 10.874566 51.237583 10.980469 51.277344 C 11.497425 51.471528 11.564732 51.577208 11.507812 52.113281 L 11.472656 52.439453 L 11.238281 52.488281 C 11.109554 52.514889 10.920747 52.589074 10.818359 52.652344 C 10.715961 52.715651 10.299951 52.851746 9.8925781 52.955078 L 9.4296875 53.072266 L 11.503906 53.072266 C 11.527262 53.022755 11.554191 52.974627 11.574219 52.923828 L 11.667969 52.685547 L 11.943359 52.652344 C 12.117822 52.63167 12.251901 52.576032 12.308594 52.501953 C 12.425381 52.349377 12.774268 51.831185 12.900391 51.623047 C 12.954816 51.533208 13.083172 51.417165 13.183594 51.365234 L 13.365234 51.271484 L 13.570312 51.339844 C 13.68758 51.378546 13.888562 51.534987 14.039062 51.707031 L 14.300781 52.007812 L 14.353516 51.927734 C 14.38224 51.883401 14.407628 51.617651 14.410156 51.337891 C 14.41945 50.32833 14.549289 49.965115 14.939453 49.867188 L 15.095703 49.828125 L 15.482422 50.025391 C 15.970019 50.275471 15.981861 50.259696 15.8125 49.566406 C 15.472528 48.174644 15.91577 47.697294 16.644531 48.669922 C 16.884871 48.990713 16.947863 48.975643 16.947266 48.597656 L 16.947266 48.316406 L 16.689453 47.806641 C 16.54723 47.526177 16.382348 47.121003 16.324219 46.90625 L 16.21875 46.515625 L 16.289062 46.251953 C 16.457403 45.626763 16.869051 45.463621 17.447266 45.792969 L 17.796875 45.992188 L 17.912109 46.251953 C 18.070812 46.606503 18.191481 46.49751 18.052734 46.125 C 17.8389 45.550909 17.753336 45.371423 17.537109 45.046875 C 17.196616 44.53583 16.948882 43.488781 17.099609 43.197266 C 17.290283 42.828531 17.995988 42.935186 18.576172 43.419922 C 19.161046 43.908562 18.827309 43.221337 18.138672 42.519531 L 17.619141 41.990234 L 17.541016 41.712891 C 17.366031 41.087908 17.492511 40.614604 17.869141 40.480469 L 18.027344 40.421875 L 18.363281 40.537109 C 18.547786 40.599812 18.760838 40.698738 18.835938 40.757812 C 18.910999 40.816887 18.985701 40.865234 19.001953 40.865234 C 19.018167 40.865234 18.927358 40.561687 18.800781 40.191406 C 18.369473 38.930163 18.380845 38.011084 18.833984 37.558594 L 19 37.394531 L 19.251953 37.394531 C 19.742645 37.394531 20.143833 37.856226 20.449219 38.771484 L 20.597656 39.220703 L 20.597656 39.8125 L 20.597656 40.404297 L 20.728516 40.238281 C 21.109874 39.753474 21.917445 39.726811 22.080078 40.193359 C 22.293043 40.804282 22.041323 41.513646 21.359375 42.224609 C 20.602003 43.01419 20.523477 43.24777 21.125 42.917969 C 21.626014 42.643265 22.172821 42.471961 22.576172 42.462891 L 22.931641 42.453125 L 23.095703 42.619141 L 23.261719 42.783203 L 23.257812 43.101562 L 23.255859 43.421875 L 22.992188 43.880859 C 22.648976 44.48072 22.216793 44.841049 21.628906 45.015625 C 21.235148 45.132556 20.860536 45.351928 20.601562 45.619141 C 20.369197 45.858952 20.385406 45.943461 20.638672 45.8125 C 21.221959 45.510894 22.565681 45.527856 22.664062 45.837891 C 22.684094 45.900933 22.723985 45.953125 22.751953 45.953125 C 22.861937 45.953125 22.880954 46.307474 22.78125 46.517578 C 22.5718 46.958963 21.677652 47.507812 21.169922 47.507812 C 20.925043 47.507812 20.485391 47.641075 20.128906 47.822266 C 19.656065 48.062606 19.704667 48.334042 20.191406 48.173828 C 21.386655 47.780406 22.800955 48.262012 22.652344 49.011719 C 22.510793 49.725845 21.299479 50.375924 20.103516 50.378906 L 19.517578 50.380859 L 19.179688 50.5 C 18.793888 50.635598 18.407127 50.885491 18.314453 51.058594 L 18.251953 51.175781 L 18.363281 51.140625 C 19.127396 50.895069 19.355041 50.848915 19.820312 50.847656 L 20.330078 50.845703 L 20.734375 51.009766 C 20.958656 51.100021 21.193385 51.2433 21.261719 51.330078 L 21.386719 51.486328 L 21.351562 51.666016 C 21.306435 51.90066 21.101673 52.066124 20.478516 52.371094 L 19.970703 52.619141 L 19.521484 52.623047 L 19.072266 52.625 L 18.773438 52.480469 L 18.474609 52.337891 L 17.875 52.332031 L 17.277344 52.326172 L 17.097656 52.445312 C 16.696803 52.709501 16.789486 52.829995 17.361328 52.789062 L 17.773438 52.759766 L 18.207031 52.890625 C 18.389021 52.945902 18.538271 53.007488 18.671875 53.072266 L 22.386719 53.072266 C 23.078818 52.445564 23.729025 51.791769 24.009766 51.398438 C 24.157893 51.190904 24.349449 50.937871 24.435547 50.835938 C 24.857501 50.336552 26.261441 47.93853 26.523438 47.269531 C 26.594341 47.088507 26.686109 46.858525 26.728516 46.759766 C 27.056378 45.996006 27.33897 45.08723 27.449219 44.439453 C 27.500847 44.135934 27.570634 43.751632 27.603516 43.585938 C 27.636398 43.420239 27.676288 43.030296 27.691406 42.71875 C 27.706638 42.4072 27.734253 42.02545 27.753906 41.871094 C 27.956572 40.285178 27.240473 37.499347 26.195312 35.808594 C 25.991842 35.479457 25.750575 35.061899 25.658203 34.880859 C 25.445404 34.463713 25.023227 33.822149 24.597656 33.265625 C 23.910149 32.366577 23.988118 31.532023 24.769531 31.419922 L 25.056641 31.378906 L 25.066406 30.511719 L 25.074219 29.644531 L 25.1875 29.345703 L 25.298828 29.046875 L 25.498047 29.027344 C 26.018854 28.977067 26.697487 30.220133 26.701172 31.230469 C 26.702192 31.510237 26.731231 31.902129 26.765625 32.099609 C 26.80017 32.29709 26.854151 32.687036 26.884766 32.966797 C 26.97264 33.766568 27.037809 34.172232 27.136719 34.525391 C 27.187138 34.705436 27.247232 34.956753 27.269531 35.085938 C 27.321689 35.386425 27.477268 35.779297 27.544922 35.779297 C 27.658383 35.779297 27.669008 35.452322 27.568359 35.042969 C 27.510117 34.806121 27.463948 34.572798 27.464844 34.523438 C 27.465751 34.474084 27.441148 34.297373 27.410156 34.132812 C 27.27209 33.40212 27.178453 32.547879 27.111328 31.380859 L 27.039062 30.125 L 27.105469 29.076172 L 27.171875 28.029297 L 27.359375 27.523438 C 27.798775 26.338686 28.42811 25.70826 29.253906 25.623047 L 29.574219 25.589844 L 29.84375 25.693359 C 30.273898 25.857634 30.358853 26.174439 30.0625 26.515625 C 29.169496 27.543659 30.26697 28.876268 31.494141 28.253906 C 32.086347 27.953575 32.447266 27.277365 32.447266 26.46875 L 32.447266 26.017578 L 32.273438 25.607422 C 31.787235 24.464843 31.026712 23.8467 29.917969 23.689453 L 29.494141 23.628906 L 28.951172 23.720703 C 28.185107 23.852115 27.759363 24.070144 27.224609 24.599609 L 26.78125 25.037109 L 26.53125 25.564453 C 26.393411 25.853833 26.226411 26.235008 26.160156 26.412109 C 25.958575 26.950883 25.516372 27.269196 25.203125 27.101562 C 24.980019 26.982152 24.938517 26.803422 24.9375 25.964844 L 24.9375 25.15625 L 24.763672 24.861328 C 24.455304 24.336672 23.481275 23.451172 23.212891 23.451172 z M 1.3964844 26.025391 L 1.3027344 26.119141 C 1.251106 26.170807 1.2089844 26.235477 1.2089844 26.263672 C 1.2089844 26.291905 1.251106 26.356537 1.3027344 26.408203 L 1.3964844 26.503906 L 1.5117188 26.441406 C 1.5752904 26.407425 1.6289062 26.327191 1.6289062 26.263672 C 1.6289062 26.20018 1.5752526 26.119953 1.5117188 26.085938 L 1.3964844 26.025391 z M 2.4921875 26.083984 C 2.3870788 26.083984 2.3274524 26.188229 2.3691406 26.296875 C 2.4099973 26.403492 2.565657 26.411083 2.6015625 26.308594 C 2.6398869 26.198757 2.5837277 26.083984 2.4921875 26.083984 z M 3.7226562 26.121094 L 3.65625 26.1875 C 3.6195886 26.224139 3.606985 26.282605 3.6289062 26.318359 C 3.6510543 26.35417 3.6935539 26.382812 3.7226562 26.382812 C 3.8149523 26.382812 3.8581145 26.256548 3.7890625 26.1875 L 3.7226562 26.121094 z M 34.662109 28.650391 L 34.476562 28.759766 C 34.066578 28.999577 33.573884 29.522889 33.148438 30.171875 C 32.2255 31.579745 31.996592 32.135978 31.765625 33.544922 C 31.600558 34.552019 31.582255 34.598157 31.232422 34.849609 C 31.096605 34.947242 30.783282 35.205258 30.535156 35.423828 C 30.28703 35.642383 29.894462 35.942808 29.664062 36.091797 C 28.960061 36.547079 28.135051 37.525245 28.046875 38.007812 L 28.005859 38.232422 L 28.111328 38.232422 C 28.169038 38.232422 28.381742 38.127748 28.583984 38 C 29.23339 37.58986 30.765494 36.905433 31.160156 36.849609 C 31.324724 36.826327 31.836079 36.738769 32.296875 36.654297 C 32.757671 36.569787 33.390445 36.4833 33.703125 36.462891 C 34.015805 36.442557 34.359836 36.399691 34.466797 36.367188 L 34.662109 36.308594 L 34.662109 35.744141 L 34.662109 35.179688 L 34.583984 35.179688 C 34.541075 35.179688 34.224683 35.275904 33.880859 35.392578 C 33.537021 35.509214 33.119639 35.647704 32.955078 35.699219 C 32.790499 35.750734 32.602911 35.815404 32.537109 35.84375 C 31.736534 36.190219 31.244535 36.304549 31.132812 36.169922 L 31.058594 36.082031 L 31.232422 35.916016 C 31.676913 35.493143 32.510842 35.012144 33.927734 34.361328 L 34.662109 34.023438 L 34.662109 33.583984 L 34.662109 33.146484 L 34.548828 33.146484 C 34.393437 33.146484 33.724343 33.403589 33.222656 33.65625 L 32.804688 33.865234 L 32.652344 33.828125 C 32.56772 33.806884 32.468302 33.72278 32.431641 33.642578 L 32.365234 33.498047 L 32.427734 33.066406 L 32.488281 32.636719 L 32.806641 32.068359 L 33.126953 31.5 L 33.894531 30.746094 L 34.662109 29.990234 L 34.662109 29.320312 L 34.662109 28.650391 z M 19.882812 29.136719 C 19.851064 29.136719 19.840477 29.177202 19.859375 29.226562 C 19.878348 29.275923 19.903165 29.316406 19.916016 29.316406 C 19.928866 29.316406 19.939453 29.275923 19.939453 29.226562 C 19.939453 29.177206 19.914561 29.136719 19.882812 29.136719 z M 0.92773438 32.03125 L 0.92773438 36.673828 C 1.4957015 36.413875 2.0141774 36.460805 2.1992188 36.945312 L 2.3027344 37.212891 L 2.2734375 37.677734 L 2.2441406 38.142578 L 2.0234375 38.517578 C 1.9013021 38.723884 1.6408653 39.07266 1.4453125 39.292969 C 1.2206952 39.545978 1.0898438 39.746955 1.0898438 39.837891 L 1.0898438 39.982422 L 1.2539062 39.943359 C 1.3444222 39.92227 1.6331647 39.888416 1.8964844 39.869141 L 2.375 39.833984 L 2.4960938 39.966797 C 2.8114424 40.316539 2.1947748 41.642578 1.7167969 41.642578 C 1.6941953 41.642578 1.5493663 41.728472 1.3964844 41.832031 C 1.2418473 41.936819 1.0547389 42.013364 0.92773438 42.027344 L 0.92773438 42.380859 L 1.0253906 42.291016 L 1.3105469 42.203125 C 2.1735037 41.937991 2.9824342 42.264509 2.8476562 42.824219 C 2.7079233 43.404482 1.96306 44.168185 1.4589844 44.248047 C 1.2999439 44.273249 1.1129662 44.348663 0.92773438 44.439453 L 0.92773438 44.814453 C 2.5418183 44.180739 2.8129646 45.397304 0.99609375 46.472656 C 0.972237 46.486776 0.95142223 46.506506 0.92773438 46.521484 L 0.92773438 47.09375 C 1.4002706 46.888771 1.7202521 46.920369 1.9121094 47.205078 L 2.046875 47.40625 L 2.0429688 47.742188 C 2.0364188 48.224327 1.9488325 48.407291 1.4785156 48.925781 C 1.1811291 49.253639 1.0253399 49.427628 0.92773438 49.574219 L 0.92773438 51.818359 L 0.9921875 51.925781 C 1.2629361 52.371483 1.8798089 52.84236 2.4824219 53.072266 L 3.7636719 53.072266 C 4.3341039 52.894732 4.8546891 52.515064 5.0722656 52.025391 L 5.2324219 51.667969 L 5.2519531 51.158203 C 5.3197692 49.495963 5.4131593 49.340629 6.1347656 49.697266 C 6.6676412 49.960634 6.7148438 49.943375 6.7148438 49.478516 L 6.7148438 49.111328 L 6.4746094 48.839844 C 6.3430062 48.690311 6.2070246 48.461114 6.171875 48.330078 L 6.1074219 48.091797 L 6.1777344 47.919922 C 6.2253829 47.804911 6.3525472 47.698393 6.5625 47.595703 L 6.875 47.443359 L 7.0488281 47.509766 C 7.1447147 47.546125 7.2834943 47.631931 7.3574219 47.701172 C 7.5569431 47.888047 7.5894314 47.787854 7.4746094 47.339844 C 7.1068349 45.904765 8.1522066 44.93327 8.6933594 46.207031 C 8.8335458 46.537086 8.889141 46.390115 8.8378906 45.818359 C 8.8106024 45.513907 8.7854784 45.076103 8.7832031 44.845703 L 8.7792969 44.425781 L 9.0019531 44.0625 C 9.3722183 43.457194 9.6216999 43.437629 10.148438 43.974609 L 10.488281 44.322266 L 10.429688 44.947266 C 10.397108 45.291104 10.342673 45.641901 10.310547 45.726562 C 10.20257 46.010556 10.373745 46.03047 10.666016 45.769531 C 10.777965 45.669601 10.936066 45.572766 11.015625 45.552734 L 11.160156 45.515625 L 11.265625 45.65625 C 11.707187 46.241646 11.588097 47.262528 11.011719 47.832031 C 10.604206 48.234687 10.145885 48.824219 10.242188 48.824219 C 10.274918 48.824219 10.403262 48.786206 10.527344 48.738281 C 11.003863 48.554294 12.258049 48.373973 12.376953 48.472656 C 12.490339 48.566729 12.580078 48.482484 12.580078 48.279297 C 12.580078 47.836763 12.820545 47.3353 13.271484 46.84375 C 14.149261 45.886921 13.872978 44.695312 12.773438 44.695312 L 12.484375 44.695312 L 12.236328 44.859375 C 12.100741 44.949895 11.90066 45.094711 11.791016 45.181641 C 11.681375 45.26857 11.506949 45.359316 11.404297 45.380859 L 11.21875 45.419922 L 11.060547 45.232422 C 10.717426 44.824649 10.811498 44.501357 11.392578 44.09375 C 13.019903 42.95225 13.22557 41.522391 11.962891 40.130859 L 11.488281 39.607422 L 11.056641 39.402344 L 10.626953 39.199219 L 10.378906 38.830078 C 10.243259 38.628085 10.123423 38.434721 10.111328 38.398438 C 10.023379 38.134581 9.0285933 39.234957 8.9726562 39.658203 C 8.9538342 39.800654 8.8974326 39.947777 8.8476562 39.986328 C 8.7109129 40.09228 8.6153922 40.540505 8.6171875 41.064453 L 8.6191406 41.533203 L 8.5039062 41.648438 C 8.3631604 41.789263 8.1669206 41.795666 8.0214844 41.664062 L 7.9121094 41.564453 L 7.9121094 41.271484 C 7.9121094 41.110136 7.9418542 40.858705 7.9785156 40.712891 C 8.0749692 40.329949 8.0000524 39.970981 7.7441406 39.585938 C 7.4413211 39.130331 7.4711988 39.122772 6.7402344 39.849609 C 6.0578256 40.528171 5.9909559 40.629602 5.875 41.166016 L 5.8046875 41.496094 L 5.8730469 42.052734 C 6.0314431 43.355454 5.2919018 44.060889 4.9804688 42.904297 C 4.9010684 42.609422 4.5973117 42.242305 4.5078125 42.332031 C 4.3063372 42.534141 3.8409909 44.307162 3.84375 44.861328 C 3.8461651 45.336067 4.1470445 46.515444 4.3105469 46.689453 L 4.4394531 46.828125 L 4.4394531 47.167969 C 4.4394531 47.362682 4.4919484 47.641755 4.5605469 47.822266 C 4.7176996 48.235678 4.7148484 48.246602 4.4726562 48.201172 C 4.3457019 48.177361 4.1357095 48.199898 3.9296875 48.259766 C 3.504362 48.383394 3.2375388 48.3367 3.0429688 48.105469 L 2.8945312 47.929688 L 2.8554688 47.554688 C 2.8336609 47.348299 2.8103568 46.625908 2.8046875 45.951172 L 2.7949219 44.724609 L 2.9023438 44.066406 C 3.1398115 42.602675 3.7824084 41.420409 4.8710938 40.443359 C 5.1437111 40.198699 5.5623564 39.810504 5.8027344 39.582031 L 6.2402344 39.166016 L 6.4296875 38.773438 L 6.6171875 38.380859 L 6.6640625 37.753906 C 6.6890074 37.40831 6.7273228 36.957673 6.75 36.751953 L 6.7910156 36.376953 L 6.6777344 36.376953 C 6.5243082 36.377747 6.0294328 36.628727 5.6816406 36.880859 L 5.3945312 37.087891 L 5.2148438 37.025391 C 4.6939719 36.843811 4.8007149 36.410126 5.5429688 35.689453 L 6.0371094 35.210938 L 6.1464844 34.910156 L 6.2558594 34.611328 L 6.2714844 33.826172 C 6.2805552 33.385861 6.2605149 32.947055 6.2246094 32.830078 L 6.1601562 32.621094 L 5.9375 32.554688 C 5.8145671 32.51795 5.6440489 32.486328 5.5585938 32.486328 C 5.4731311 32.486328 5.2599847 32.433884 5.0859375 32.369141 C 4.9119054 32.304435 4.587773 32.209491 4.3652344 32.158203 L 3.9609375 32.064453 L 3.5878906 32.162109 C 3.3825565 32.215287 3.124551 32.296291 3.015625 32.341797 C 2.8217844 32.422754 2.046875 33.117848 2.046875 33.210938 C 2.046875 33.236873 1.9507718 33.421837 1.8339844 33.621094 L 1.6210938 33.982422 L 1.4550781 33.982422 C 1.3630088 33.982422 1.2387993 33.930545 1.1796875 33.865234 L 1.0722656 33.746094 L 1.0664062 32.982422 L 1.0585938 32.21875 L 0.92773438 32.03125 z M 34.412109 37.277344 C 34.159598 37.257735 33.62381 37.326512 32.328125 37.525391 C 31.803024 37.605985 30.287487 38.106955 29.574219 38.435547 C 28.494011 38.933201 28.040588 39.586107 29.085938 39.138672 C 29.534114 38.946853 30.127299 38.736067 30.355469 38.6875 C 30.605432 38.634277 31.105921 38.91304 31.572266 39.365234 C 32.467182 40.232984 33.19147 39.821769 32.861328 38.632812 L 32.798828 38.404297 L 32.892578 38.257812 L 32.988281 38.113281 L 33.193359 38.113281 L 33.396484 38.113281 L 33.509766 38.277344 C 33.638107 38.464986 33.943359 39.143554 33.943359 39.240234 C 33.943359 39.459296 34.267207 40.270968 34.435547 40.474609 L 34.630859 40.712891 L 34.648438 39.042969 L 34.664062 37.373047 L 34.587891 37.324219 C 34.549188 37.299652 34.49628 37.28388 34.412109 37.277344 z M 19.859375 40.900391 C 19.790169 40.904302 19.745874 40.97813 19.78125 41.070312 C 19.801055 41.121865 19.84571 41.164062 19.880859 41.164062 C 19.983776 41.164063 20.024038 40.977774 19.933594 40.921875 C 19.907052 40.905472 19.882444 40.899087 19.859375 40.900391 z M 20.005859 42.044922 L 19.916016 42.117188 C 19.867222 42.157704 19.841233 42.230364 19.859375 42.277344 C 19.877403 42.324285 19.931649 42.361328 19.978516 42.361328 C 20.091259 42.361328 20.152933 42.191995 20.070312 42.109375 L 20.005859 42.044922 z M 19.980469 43.201172 L 19.900391 43.267578 C 19.815994 43.337613 19.792515 43.511265 19.859375 43.578125 C 19.944717 43.663467 20.113074 43.612099 20.152344 43.488281 C 20.181068 43.397724 20.162498 43.335789 20.087891 43.28125 L 19.980469 43.201172 z M 19.9375 44.527344 C 19.857734 44.499186 19.751586 44.533673 19.677734 44.654297 L 19.611328 44.763672 L 19.726562 44.849609 C 19.89717 44.976299 19.993531 44.954806 20.037109 44.78125 C 20.070932 44.646491 20.017266 44.555501 19.9375 44.527344 z M 19.583984 45.742188 C 19.463493 45.780425 19.408107 46.058498 19.501953 46.152344 C 19.565487 46.216029 19.730358 46.19933 19.808594 46.121094 C 19.978763 45.950939 19.81223 45.669734 19.583984 45.742188 z M 30.25 46.431641 L 29.929688 46.492188 C 29.562522 46.561818 29.527711 46.581402 28.646484 47.240234 C 28.284428 47.510913 27.787894 47.846309 27.541016 47.984375 C 26.965171 48.306489 27.027839 48.226827 26.488281 49.304688 C 26.039243 50.201713 25.580073 50.951747 25.060547 51.636719 C 24.7117 52.096631 24.548828 52.379853 24.548828 52.523438 L 24.548828 52.646484 L 24.773438 52.71875 C 25.084875 52.820179 25.333436 52.93248 25.560547 53.072266 L 28.185547 53.072266 C 27.920536 52.821685 27.507651 52.583649 26.998047 52.447266 C 26.209619 52.23627 25.992332 51.923687 26.371094 51.544922 L 26.517578 51.398438 L 26.853516 51.398438 L 27.189453 51.398438 L 27.628906 51.582031 C 27.886288 51.68917 28.204371 51.882668 28.396484 52.050781 C 28.585121 52.215856 28.898243 52.409255 29.134766 52.505859 L 29.544922 52.673828 L 30.054688 52.667969 C 30.533837 52.663358 31.609485 52.554577 31.658203 52.505859 C 31.935639 52.228427 31.103456 51.378667 30.296875 51.115234 C 29.667213 50.90959 29.409185 50.765621 29.269531 50.542969 L 29.150391 50.351562 L 29.177734 50.125 C 29.225613 49.732787 29.527462 49.537358 30.113281 49.521484 L 30.443359 49.513672 L 30.712891 49.679688 C 30.860988 49.771757 31.074341 49.914456 31.1875 49.996094 C 31.720497 50.380623 32.321353 50.398576 33.345703 50.0625 C 34.04097 49.834406 34.074386 49.796443 33.890625 49.443359 C 33.645145 48.971727 33.232922 48.671841 32.574219 48.490234 L 32.191406 48.384766 L 31.826172 48.460938 C 31.625086 48.502399 31.433273 48.555889 31.400391 48.580078 C 31.283834 48.665911 30.844985 48.765625 30.580078 48.765625 L 30.310547 48.765625 L 30.154297 48.621094 C 29.818955 48.310303 29.869271 47.977427 30.304688 47.615234 C 31.114852 46.941318 31.151381 46.7016 30.478516 46.5 L 30.25 46.431641 z M 19.394531 47.039062 C 19.214059 47.064586 19.162289 47.316503 19.314453 47.427734 L 19.417969 47.501953 L 19.529297 47.443359 C 19.741404 47.329815 19.633208 47.005425 19.394531 47.039062 z M 18.869141 48.298828 C 18.790001 48.285907 18.707254 48.300469 18.650391 48.347656 C 18.544261 48.435712 18.53602 48.743733 18.638672 48.785156 C 18.830815 48.862712 18.986807 48.818949 19.054688 48.669922 L 19.125 48.515625 L 19.0625 48.416016 C 19.023074 48.353086 18.948281 48.311749 18.869141 48.298828 z M 9.4121094 48.357422 C 9.3768842 48.34563 9.3476562 48.380668 9.3476562 48.435547 C 9.3476563 48.490426 9.3765818 48.525388 9.4121094 48.513672 C 9.4473346 48.50188 9.4765625 48.466917 9.4765625 48.435547 C 9.4765625 48.404252 9.4476369 48.369138 9.4121094 48.357422 z M 9.2167969 49.484375 L 9.1035156 49.544922 C 8.9754652 49.613448 8.9511673 49.839839 9.0605469 49.949219 C 9.1803201 50.068992 9.3463978 50.030891 9.421875 49.865234 L 9.4921875 49.708984 L 9.3554688 49.595703 L 9.2167969 49.484375 z M 18.248047 49.609375 C 18.197836 49.606942 18.14499 49.637147 18.074219 49.701172 C 17.949041 49.814297 17.931358 50.023155 18.037109 50.128906 C 18.27745 50.369262 18.639082 49.971714 18.410156 49.71875 C 18.346263 49.648205 18.298258 49.611808 18.248047 49.609375 z M 8.6132812 50.626953 C 8.5539805 50.61758 8.4910281 50.647644 8.4238281 50.714844 C 8.3117651 50.826831 8.3029422 50.986536 8.4023438 51.085938 L 8.4023438 51.087891 C 8.5082461 51.193755 8.6561721 51.174924 8.7773438 51.041016 L 8.8847656 50.921875 L 8.7851562 50.771484 C 8.7282744 50.684669 8.672582 50.636326 8.6132812 50.626953 z M 17.585938 50.679688 C 17.321975 50.679687 17.225891 50.910081 17.40625 51.109375 C 17.527724 51.243662 17.628665 51.248288 17.751953 51.125 C 17.915758 50.961188 17.810706 50.679688 17.585938 50.679688 z M 25.085938 51.039062 C 25.052942 51.039063 25.027344 51.081524 25.027344 51.132812 C 25.027344 51.183836 25.053056 51.209863 25.085938 51.189453 C 25.118933 51.169119 25.146484 51.126695 25.146484 51.095703 C 25.146484 51.064711 25.118819 51.039062 25.085938 51.039062 z M 16.814453 51.546875 C 16.655229 51.548456 16.540299 51.709386 16.666016 51.865234 C 16.749921 51.969285 16.949612 51.93285 17.03125 51.798828 L 17.097656 51.689453 L 16.980469 51.603516 C 16.925269 51.562534 16.867528 51.546348 16.814453 51.546875 z M 7.84375 51.689453 L 7.7578125 51.759766 C 7.6677842 51.834468 7.6417099 52.065538 7.7148438 52.138672 C 7.7383146 52.162124 7.8266287 52.173889 7.9101562 52.164062 L 8.0605469 52.146484 L 8.0800781 51.986328 L 8.0976562 51.824219 L 7.9707031 51.755859 L 7.84375 51.689453 z M 16.023438 52.380859 C 15.772023 52.31776 15.635822 52.575275 15.822266 52.761719 C 15.909346 52.848761 15.910423 52.8487 16.054688 52.771484 C 16.120716 52.736146 16.169922 52.647905 16.169922 52.564453 L 16.169922 52.417969 L 16.023438 52.380859 z M 6.890625 52.666016 C 6.847425 52.680416 6.7995185 52.728284 6.7851562 52.771484 C 6.7701893 52.816272 6.7930276 52.837006 6.8378906 52.822266 C 6.8810906 52.807866 6.9289972 52.76195 6.9433594 52.71875 C 6.9583263 52.673585 6.935488 52.651275 6.890625 52.666016 z M 5.9277344 53.050781 L 5.9140625 53.072266 L 5.953125 53.072266 L 5.9277344 53.050781 z "
       transform="scale(0.26458333)" />
  </g>
  <g
     inkscape:groupmode="layer"
     id="layer2"
     inkscape:label="letter outline"
     style="display:inline">
    <g
       id="g2086">
      <g
         aria-label="L"
         transform="scale(0.88712254,1.12724)"
         id="text21789-2-5"
         style="font-size:12.6332px;line-height:1.25;font-family:'Shining NFI Demo';-inkscape-font-specification:'Shining NFI Demo';letter-spacing:0px;display:inline;stroke:#000000;stroke-width:0.529167">
        <path
           d="M 3.1513539,10.493704 2.1154315,10.59477 v 0.101065 H 8.3056993 L 8.6215293,7.9417976 8.4699309,7.9165312 7.6108733,10.076808 q -0.1136988,0.277931 -0.252664,0.378996 -0.1389651,0.08843 -0.4421619,0.08843 H 4.1241102 V 2.1810585 L 5.2231986,2.0799929 V 1.9789273 H 2.1154315 v 0.1010656 l 1.0359224,0.1010656 z"
           style="font-family:'Libre Caslon Display';-inkscape-font-specification:'Libre Caslon Display'"
           id="path2182" />
      </g>
      <g
         aria-label="L"
         transform="scale(0.88712252,1.12724)"
         id="text21789-3"
         style="font-size:12.6332px;line-height:1.25;font-family:'Shining NFI Demo';-inkscape-font-specification:'Shining NFI Demo';letter-spacing:0px;display:inline;fill:#ffffff;stroke-width:0.0561189">
        <path
           d="M 3.151354,10.493704 2.1154316,10.59477 v 0.101065 H 8.3056994 L 8.6215294,7.9417976 8.469931,7.9165312 7.6108735,10.076808 q -0.1136988,0.277931 -0.252664,0.378996 -0.1389652,0.08843 -0.442162,0.08843 H 4.1241103 V 2.1810585 L 5.2231987,2.0799929 V 1.9789273 H 2.1154316 V 2.0799929 L 3.151354,2.1810585 Z"
           style="font-family:'Libre Caslon Display';-inkscape-font-specification:'Libre Caslon Display'"
           id="path2185" />
      </g>
    </g>
  </g>
  <g
     inkscape:groupmode="layer"
     id="layer3"
     inkscape:label="letter fill"
     style="display:inline">
    <rect
       style="display:inline;fill:none;stroke:#020202;stroke-width:0.49095;stroke-linecap:round;stroke-linejoin:miter;stroke-miterlimit:4;stroke-dasharray:none;stroke-dashoffset:36.9212;stroke-opacity:1;paint-order:stroke fill markers;stop-color:#000000"
       id="rect1289-6-6"
       width="9.03405"
       height="13.79655"
       x="0.24547499"
       y="0.24547499" />
  </g>
</svg>
