<?xml version="1.0" encoding="UTF-8" standalone="no"?>
<!-- Created with Inkscape (http://www.inkscape.org/) -->

<svg
   width="160mm"
   height="160mm"
   viewBox="0 0 160 160"
   version="1.1"
   id="svg973"
   sodipodi:docname="exodus.svg"
   inkscape:version="1.1.1 (3bf5ae0d25, 2021-09-20)"
   xmlns:inkscape="http://www.inkscape.org/namespaces/inkscape"
   xmlns:sodipodi="http://sodipodi.sourceforge.net/DTD/sodipodi-0.dtd"
   xmlns="http://www.w3.org/2000/svg"
   xmlns:svg="http://www.w3.org/2000/svg">
  <sodipodi:namedview
     id="namedview975"
     pagecolor="#ffffff"
     bordercolor="#666666"
     borderopacity="1.0"
     inkscape:pageshadow="2"
     inkscape:pageopacity="0.0"
     inkscape:pagecheckerboard="0"
     inkscape:document-units="mm"
     showgrid="false"
     fit-margin-top="0"
     fit-margin-left="0"
     fit-margin-right="0"
     fit-margin-bottom="0"
     inkscape:zoom="2.4274755"
     inkscape:cx="106.28326"
     inkscape:cy="341.30108"
     inkscape:window-width="1920"
     inkscape:window-height="954"
     inkscape:window-x="0"
     inkscape:window-y="0"
     inkscape:window-maximized="1"
     inkscape:current-layer="layer1" />
  <defs
     id="defs970" />
  <g
     inkscape:label="Layer 1"
     inkscape:groupmode="layer"
     id="layer1"
     transform="translate(-40.740792,-49.39412)">
    <text
       xml:space="preserve"
       style="font-size:84.599px;line-height:1.25;font-family:'Shining NFI Demo';-inkscape-font-specification:'Shining NFI Demo';stroke-width:1.58623"
       x="429.10867"
       y="-77.136681"
       id="text43211"><tspan
         sodipodi:role="line"
         id="tspan43209"
         style="stroke-width:1.58623"
         x="429.10867"
         y="-77.136681" /></text>
    <text
       xml:space="preserve"
       style="font-size:84.599px;line-height:1.25;font-family:'Shining NFI Demo';-inkscape-font-specification:'Shining NFI Demo';stroke-width:1.58623"
       x="-324.09338"
       y="-77.136681"
       id="text893"
       transform="scale(-1,1)"><tspan
         sodipodi:role="line"
         id="tspan891"
         style="stroke-width:1.58623"
         x="-324.09338"
         y="-77.136681" /></text>
    <rect
       style="fill:none;stroke:#0d0a0c;stroke-width:2.96254;stroke-linecap:round;stroke-linejoin:miter;stroke-miterlimit:4;stroke-dasharray:none;stroke-opacity:1;paint-order:stroke fill markers;stop-color:#000000"
       id="rect1259"
       width="157.037"
       height="157.03746"
       x="42.222061"
       y="50.875389" />
    <path
       d="m 47.292795,147.89958 c -0.900299,-3.59053 -0.789841,-7.1518 0.331349,-10.68382 1.121202,-3.53202 3.037239,-6.60963 5.748092,-9.23282 2.752915,-2.59841 6.017482,-4.37105 9.793722,-5.31791 l 51.838432,-12.78611 c 0.26971,-0.0676 0.43791,0.0315 0.50459,0.29747 22.42252,88.57557 -3.80724,-15.183825 9.7657,38.94711 0.0667,0.26602 -0.0348,0.4328 -0.30453,0.50042 l -51.738402,13.18502 c -3.809946,0.95532 -7.541528,0.93693 -11.194741,-0.0552 -3.627824,-1.03383 -6.765085,-2.82669 -9.411788,-5.3786 -2.612987,-2.56037 -4.390475,-5.71893 -5.332453,-9.47568 z"
       style="font-size:13.856px;line-height:0.65;font-family:Koulen;-inkscape-font-specification:Koulen;font-variation-settings:normal;fill:none;fill-opacity:1;stroke:#9c9c9c;stroke-width:0.777003;stroke-linecap:butt;stroke-linejoin:miter;stroke-miterlimit:4;stroke-dasharray:none;stroke-dashoffset:0;stroke-opacity:1;paint-order:stroke fill markers;stop-color:#000000"
       id="path15282"
       sodipodi:nodetypes="csccccccccccc" />
    <g
       id="g15258"
       style="fill:none;fill-opacity:1;stroke:#b2b2b2;stroke-width:0.79556;stroke-miterlimit:4;stroke-dasharray:none;stroke-opacity:1"
       transform="matrix(0.94734347,-0.23753939,0.23753939,0.94734347,-29.207593,36.032228)">
      <g
         id="g15242"
         style="fill:none;fill-opacity:1;stroke:#b2b2b2;stroke-width:0.79556;stroke-miterlimit:4;stroke-dasharray:none;stroke-opacity:1">
        <g
           aria-label=" u"
           transform="matrix(-7.7805385,0,0,-7.8907318,-9.698504,-509.7965)"
           id="g15232"
           style="font-size:13.856px;line-height:0.65;font-family:'Shining NFI Demo';-inkscape-font-specification:'Shining NFI Demo';font-variation-settings:normal;fill:none;fill-opacity:1;stroke:#b2b2b2;stroke-width:0.101534;stroke-linecap:butt;stroke-linejoin:miter;stroke-miterlimit:4;stroke-dasharray:none;stroke-dashoffset:0;stroke-opacity:1;paint-order:stroke fill markers;stop-color:#000000">
          <path
             d="m -17.436552,-71.399056 c -0.487125,0 -0.938166,-0.126292 -1.353125,-0.378875 -0.414958,-0.252583 -0.746473,-0.590865 -0.994546,-1.014844 -0.243563,-0.428489 -0.365344,-0.895317 -0.365344,-1.400484 l 0.02706,-6.928 c 0,-0.03608 0.01804,-0.05412 0.05412,-0.05412 12.0238333,-0.02679 -2.059985,0 5.283943,0 0.03609,0 0.05413,0.01804 0.05413,0.05412 l 0.02706,6.928 c 0,0.509677 -0.121781,0.97876 -0.365344,1.40725 -0.248073,0.423979 -0.577333,0.76226 -0.987781,1.014843 -0.410448,0.248073 -0.870511,0.37211 -1.380188,0.37211 z"
             style="font-family:Koulen;-inkscape-font-specification:Koulen;font-variation-settings:normal;fill:none;fill-opacity:1;stroke:#b2b2b2;stroke-width:0.101534;stroke-linecap:butt;stroke-linejoin:miter;stroke-miterlimit:4;stroke-dasharray:none;stroke-dashoffset:0;stroke-opacity:1;paint-order:stroke fill markers;stop-color:#000000;stop-opacity:1"
             id="path15230"
             sodipodi:nodetypes="csccccccccccc" />
        </g>
        <g
           aria-label=" u"
           transform="matrix(-7.6623346,1.3510763,-1.3702112,-7.7708539,-118.93797,-476.83559)"
           id="g15236"
           style="font-size:13.856px;line-height:0.65;font-family:'Shining NFI Demo';-inkscape-font-specification:'Shining NFI Demo';font-variation-settings:normal;fill:none;fill-opacity:1;stroke:#b2b2b2;stroke-width:0.101534;stroke-linecap:butt;stroke-linejoin:miter;stroke-miterlimit:4;stroke-dasharray:none;stroke-dashoffset:0;stroke-opacity:1;paint-order:stroke fill markers;stop-color:#000000">
          <path
             d="m -17.436552,-71.399056 c -0.487125,0 -0.938166,-0.126292 -1.353125,-0.378875 -0.414958,-0.252583 -0.746473,-0.590865 -0.994546,-1.014844 -0.243563,-0.428489 -0.365344,-0.895317 -0.365344,-1.400484 l 0.02706,-6.928 c 0,-0.03608 0.01804,-0.05412 0.05412,-0.05412 12.0238333,-0.02679 -2.059985,0 5.283943,0 0.03609,0 0.05413,0.01804 0.05413,0.05412 l 0.02706,6.928 c 0,0.509677 -0.121781,0.97876 -0.365344,1.40725 -0.248073,0.423979 -0.577333,0.76226 -0.987781,1.014843 -0.410448,0.248073 -0.870511,0.37211 -1.380188,0.37211 z"
             style="font-family:Koulen;-inkscape-font-specification:Koulen;font-variation-settings:normal;fill:none;fill-opacity:1;stroke:#b2b2b2;stroke-width:0.101534;stroke-linecap:butt;stroke-linejoin:miter;stroke-miterlimit:4;stroke-dasharray:none;stroke-dashoffset:0;stroke-opacity:1;paint-order:stroke fill markers;stop-color:#000000;stop-opacity:1"
             id="path15234"
             sodipodi:nodetypes="csccccccccccc" />
        </g>
        <g
           aria-label=" u"
           transform="matrix(-7.6623346,1.3510763,-1.3702112,-7.7708539,-118.93797,-476.83559)"
           id="g15240"
           style="font-size:13.856px;line-height:0.65;font-family:'Shining NFI Demo';-inkscape-font-specification:'Shining NFI Demo';font-variation-settings:normal;fill:none;fill-opacity:1;stroke:#b2b2b2;stroke-width:0.101534;stroke-linecap:butt;stroke-linejoin:miter;stroke-miterlimit:4;stroke-dasharray:none;stroke-dashoffset:0;stroke-opacity:1;paint-order:stroke fill markers;stop-color:#000000">
          <path
             d="m -17.436552,-71.399056 c -0.487125,0 -0.938166,-0.126292 -1.353125,-0.378875 -0.414958,-0.252583 -0.746473,-0.590865 -0.994546,-1.014844 -0.243563,-0.428489 -0.365344,-0.895317 -0.365344,-1.400484 l 0.02706,-6.928 c 0,-0.03608 0.01804,-0.05412 0.05412,-0.05412 12.0238333,-0.02679 -2.059985,0 5.283943,0 0.03609,0 0.05413,0.01804 0.05413,0.05412 l 0.02706,6.928 c 0,0.509677 -0.121781,0.97876 -0.365344,1.40725 -0.248073,0.423979 -0.577333,0.76226 -0.987781,1.014843 -0.410448,0.248073 -0.870511,0.37211 -1.380188,0.37211 z"
             style="font-family:Koulen;-inkscape-font-specification:Koulen;font-variation-settings:normal;fill:none;fill-opacity:1;stroke:#b2b2b2;stroke-width:0.101534;stroke-linecap:butt;stroke-linejoin:miter;stroke-miterlimit:4;stroke-dasharray:none;stroke-dashoffset:0;stroke-opacity:1;paint-order:stroke fill markers;stop-color:#000000;stop-opacity:1"
             id="path15238"
             sodipodi:nodetypes="csccccccccccc" />
        </g>
      </g>
      <g
         id="g15256"
         transform="rotate(-20,126.1819,130.71783)"
         style="fill:none;fill-opacity:1;stroke:#b2b2b2;stroke-width:0.79556;stroke-miterlimit:4;stroke-dasharray:none;stroke-opacity:1">
        <g
           aria-label=" u"
           transform="matrix(-7.7805385,0,0,-7.8907318,-9.698504,-509.7965)"
           id="g15246"
           style="font-size:13.856px;line-height:0.65;font-family:'Shining NFI Demo';-inkscape-font-specification:'Shining NFI Demo';font-variation-settings:normal;fill:none;fill-opacity:1;stroke:#b2b2b2;stroke-width:0.101534;stroke-linecap:butt;stroke-linejoin:miter;stroke-miterlimit:4;stroke-dasharray:none;stroke-dashoffset:0;stroke-opacity:1;paint-order:stroke fill markers;stop-color:#000000">
          <path
             d="m -17.436552,-71.399056 c -0.487125,0 -0.938166,-0.126292 -1.353125,-0.378875 -0.414958,-0.252583 -0.746473,-0.590865 -0.994546,-1.014844 -0.243563,-0.428489 -0.365344,-0.895317 -0.365344,-1.400484 l 0.02706,-6.928 c 0,-0.03608 0.01804,-0.05412 0.05412,-0.05412 12.0238333,-0.02679 -2.059985,0 5.283943,0 0.03609,0 0.05413,0.01804 0.05413,0.05412 l 0.02706,6.928 c 0,0.509677 -0.121781,0.97876 -0.365344,1.40725 -0.248073,0.423979 -0.577333,0.76226 -0.987781,1.014843 -0.410448,0.248073 -0.870511,0.37211 -1.380188,0.37211 z"
             style="font-family:Koulen;-inkscape-font-specification:Koulen;font-variation-settings:normal;fill:none;fill-opacity:1;stroke:#b2b2b2;stroke-width:0.101534;stroke-linecap:butt;stroke-linejoin:miter;stroke-miterlimit:4;stroke-dasharray:none;stroke-dashoffset:0;stroke-opacity:1;paint-order:stroke fill markers;stop-color:#000000;stop-opacity:1"
             id="path15244"
             sodipodi:nodetypes="csccccccccccc" />
        </g>
        <g
           aria-label=" u"
           transform="matrix(-7.6623346,1.3510763,-1.3702112,-7.7708539,-118.93797,-476.83559)"
           id="g15250"
           style="font-size:13.856px;line-height:0.65;font-family:'Shining NFI Demo';-inkscape-font-specification:'Shining NFI Demo';font-variation-settings:normal;fill:none;fill-opacity:1;stroke:#b2b2b2;stroke-width:0.101534;stroke-linecap:butt;stroke-linejoin:miter;stroke-miterlimit:4;stroke-dasharray:none;stroke-dashoffset:0;stroke-opacity:1;paint-order:stroke fill markers;stop-color:#000000">
          <path
             d="m -17.436552,-71.399056 c -0.487125,0 -0.938166,-0.126292 -1.353125,-0.378875 -0.414958,-0.252583 -0.746473,-0.590865 -0.994546,-1.014844 -0.243563,-0.428489 -0.365344,-0.895317 -0.365344,-1.400484 l 0.02706,-6.928 c 0,-0.03608 0.01804,-0.05412 0.05412,-0.05412 12.0238333,-0.02679 -2.059985,0 5.283943,0 0.03609,0 0.05413,0.01804 0.05413,0.05412 l 0.02706,6.928 c 0,0.509677 -0.121781,0.97876 -0.365344,1.40725 -0.248073,0.423979 -0.577333,0.76226 -0.987781,1.014843 -0.410448,0.248073 -0.870511,0.37211 -1.380188,0.37211 z"
             style="font-family:Koulen;-inkscape-font-specification:Koulen;font-variation-settings:normal;fill:none;fill-opacity:1;stroke:#b2b2b2;stroke-width:0.101534;stroke-linecap:butt;stroke-linejoin:miter;stroke-miterlimit:4;stroke-dasharray:none;stroke-dashoffset:0;stroke-opacity:1;paint-order:stroke fill markers;stop-color:#000000;stop-opacity:1"
             id="path15248"
             sodipodi:nodetypes="csccccccccccc" />
        </g>
        <g
           aria-label=" u"
           transform="matrix(-7.6623346,1.3510763,-1.3702112,-7.7708539,-118.93797,-476.83559)"
           id="g15254"
           style="font-size:13.856px;line-height:0.65;font-family:'Shining NFI Demo';-inkscape-font-specification:'Shining NFI Demo';font-variation-settings:normal;fill:none;fill-opacity:1;stroke:#b2b2b2;stroke-width:0.101534;stroke-linecap:butt;stroke-linejoin:miter;stroke-miterlimit:4;stroke-dasharray:none;stroke-dashoffset:0;stroke-opacity:1;paint-order:stroke fill markers;stop-color:#000000">
          <path
             d="m -17.436552,-71.399056 c -0.487125,0 -0.938166,-0.126292 -1.353125,-0.378875 -0.414958,-0.252583 -0.746473,-0.590865 -0.994546,-1.014844 -0.243563,-0.428489 -0.365344,-0.895317 -0.365344,-1.400484 l 0.02706,-6.928 c 0,-0.03608 0.01804,-0.05412 0.05412,-0.05412 12.0238333,-0.02679 -2.059985,0 5.283943,0 0.03609,0 0.05413,0.01804 0.05413,0.05412 l 0.02706,6.928 c 0,0.509677 -0.121781,0.97876 -0.365344,1.40725 -0.248073,0.423979 -0.577333,0.76226 -0.987781,1.014843 -0.410448,0.248073 -0.870511,0.37211 -1.380188,0.37211 z"
             style="font-family:Koulen;-inkscape-font-specification:Koulen;font-variation-settings:normal;fill:none;fill-opacity:1;stroke:#b2b2b2;stroke-width:0.101534;stroke-linecap:butt;stroke-linejoin:miter;stroke-miterlimit:4;stroke-dasharray:none;stroke-dashoffset:0;stroke-opacity:1;paint-order:stroke fill markers;stop-color:#000000;stop-opacity:1"
             id="path15252"
             sodipodi:nodetypes="csccccccccccc" />
        </g>
      </g>
    </g>
    <path
       d="m 60.346024,85.43022 c 2.171796,-2.9976 4.970883,-5.202131 8.397272,-6.613588 3.426371,-1.411451 7.015559,-1.921929 10.767551,-1.531449 3.760032,0.43862 7.216372,1.8 10.36903,4.084137 l 43.115823,31.49179 c 0.22517,0.16314 0.25733,0.35571 0.0964,0.57776 -53.439902,74.11192 9.18424,-12.67649 -23.55795,32.51567 -0.16089,0.22209 -0.35391,0.25153 -0.57908,0.0884 L 65.597977,114.88418 c -3.180812,-2.30452 -5.565328,-5.1749 -7.153558,-8.61114 -1.539974,-3.44361 -2.183153,-6.99932 -1.929543,-10.667146 0.281764,-3.647441 1.55882,-7.039358 3.83116,-10.175749 z"
       style="font-size:13.856px;line-height:0.65;font-family:Koulen;-inkscape-font-specification:Koulen;font-variation-settings:normal;fill:none;fill-opacity:1;stroke:#adadad;stroke-width:0.777003;stroke-linecap:butt;stroke-linejoin:miter;stroke-miterlimit:4;stroke-dasharray:none;stroke-dashoffset:0;stroke-opacity:1;paint-order:stroke fill markers;stop-color:#000000"
       id="path15260"
       sodipodi:nodetypes="csccccccccccc" />
    <g
       aria-label=" u"
       transform="matrix(-3.3220948,6.8343828,-6.9311761,-3.3691446,-499.50991,-24.819511)"
       id="g15264"
       style="font-size:13.856px;line-height:0.65;font-family:'Shining NFI Demo';-inkscape-font-specification:'Shining NFI Demo';font-variation-settings:normal;fill:none;fill-opacity:1;stroke:#000000;stroke-width:0.101534;stroke-linecap:butt;stroke-linejoin:miter;stroke-miterlimit:4;stroke-dasharray:none;stroke-dashoffset:0;stroke-opacity:1;paint-order:stroke fill markers;stop-color:#000000">
      <path
         d="m -17.436552,-71.399056 c -0.487125,0 -0.938166,-0.126292 -1.353125,-0.378875 -0.414958,-0.252583 -0.746473,-0.590865 -0.994546,-1.014844 -0.243563,-0.428489 -0.365344,-0.895317 -0.365344,-1.400484 l 0.02706,-6.928 c 0,-0.03608 0.01804,-0.05412 0.05412,-0.05412 12.0238333,-0.02679 -2.059985,0 5.283943,0 0.03609,0 0.05413,0.01804 0.05413,0.05412 l 0.02706,6.928 c 0,0.509677 -0.121781,0.97876 -0.365344,1.40725 -0.248073,0.423979 -0.577333,0.76226 -0.987781,1.014843 -0.410448,0.248073 -0.870511,0.37211 -1.380188,0.37211 z"
         style="font-family:Koulen;-inkscape-font-specification:Koulen;font-variation-settings:normal;fill:none;fill-opacity:1;stroke:#000000;stroke-width:0.101534;stroke-linecap:butt;stroke-linejoin:miter;stroke-miterlimit:4;stroke-dasharray:none;stroke-dashoffset:0;stroke-opacity:1;paint-order:stroke fill markers;stop-color:#000000;stop-opacity:1"
         id="path15262"
         sodipodi:nodetypes="csccccccccccc" />
    </g>
    <path
       d="m 53.295394,96.56616 c 1.618275,-3.329203 3.992033,-5.986288 7.121265,-7.971294 3.129225,-1.984993 6.575236,-3.11097 10.338039,-3.377951 3.779066,-0.220955 7.419305,0.519555 10.920706,2.221533 L 129.6047,110.96482 c 0.25007,0.12155 0.31518,0.30563 0.19527,0.55222 -39.75863,82.26574 6.84347,-14.078714 -17.55376,36.11249 -0.11989,0.24666 -0.30486,0.30917 -0.55494,0.18761 l -48.109085,-23.1565 c -3.532667,-1.71718 -6.379389,-4.12988 -8.540189,-7.23813 -2.114553,-3.12387 -3.365408,-6.51388 -3.752556,-10.17002 -0.355885,-3.64096 0.31276,-7.2031 2.005959,-10.686434 z"
       style="font-size:13.856px;line-height:0.65;font-family:Koulen;-inkscape-font-specification:Koulen;font-variation-settings:normal;fill:none;fill-opacity:1;stroke:#a8a8a8;stroke-width:0.777003;stroke-linecap:butt;stroke-linejoin:miter;stroke-miterlimit:4;stroke-dasharray:none;stroke-dashoffset:0;stroke-opacity:1;paint-order:stroke fill markers;stop-color:#000000"
       id="path15266"
       sodipodi:nodetypes="csccccccccccc" />
    <path
       d="m 48.975097,108.98961 c 1.015576,-3.55963 2.891869,-6.58856 5.628872,-9.086782 2.736992,-2.498229 5.935133,-4.205494 9.594397,-5.121822 3.683284,-0.873864 7.396815,-0.776687 11.140569,0.291424 l 51.286445,14.84612 c 0.26739,0.0763 0.36347,0.24625 0.28825,0.5099 -24.86931,87.91996 4.29475,-15.053184 -11.01621,38.61205 -0.0752,0.26372 -0.24654,0.3574 -0.51393,0.28111 L 63.984207,134.87097 c -3.777176,-1.07765 -6.999618,-2.95937 -9.667335,-5.64517 -2.624878,-2.70923 -4.445395,-5.83053 -5.461552,-9.3639 -0.982753,-3.52383 -0.942793,-7.14797 0.119802,-10.8724 z"
       style="font-size:13.856px;line-height:0.65;font-family:Koulen;-inkscape-font-specification:Koulen;font-variation-settings:normal;fill:none;fill-opacity:1;stroke:#ababab;stroke-width:0.777003;stroke-linecap:butt;stroke-linejoin:miter;stroke-miterlimit:4;stroke-dasharray:none;stroke-dashoffset:0;stroke-opacity:1;paint-order:stroke fill markers;stop-color:#000000"
       id="path15268"
       sodipodi:nodetypes="csccccccccccc" />
    <g
       aria-label=" u"
       transform="matrix(-0.78425137,7.5584425,-7.6654904,-0.7953585,-514.82507,196.87076)"
       id="g15272"
       style="font-size:13.856px;line-height:0.65;font-family:'Shining NFI Demo';-inkscape-font-specification:'Shining NFI Demo';font-variation-settings:normal;fill:none;fill-opacity:1;stroke:#000000;stroke-width:0.101534;stroke-linecap:butt;stroke-linejoin:miter;stroke-miterlimit:4;stroke-dasharray:none;stroke-dashoffset:0;stroke-opacity:1;paint-order:stroke fill markers;stop-color:#000000">
      <path
         d="m -17.436552,-71.399056 c -0.487125,0 -0.938166,-0.126292 -1.353125,-0.378875 -0.414958,-0.252583 -0.746473,-0.590865 -0.994546,-1.014844 -0.243563,-0.428489 -0.365344,-0.895317 -0.365344,-1.400484 l 0.02706,-6.928 c 0,-0.03608 0.01804,-0.05412 0.05412,-0.05412 12.0238333,-0.02679 -2.059985,0 5.283943,0 0.03609,0 0.05413,0.01804 0.05413,0.05412 l 0.02706,6.928 c 0,0.509677 -0.121781,0.97876 -0.365344,1.40725 -0.248073,0.423979 -0.577333,0.76226 -0.987781,1.014843 -0.410448,0.248073 -0.870511,0.37211 -1.380188,0.37211 z"
         style="font-family:Koulen;-inkscape-font-specification:Koulen;font-variation-settings:normal;fill:none;fill-opacity:1;stroke:#000000;stroke-width:0.101534;stroke-linecap:butt;stroke-linejoin:miter;stroke-miterlimit:4;stroke-dasharray:none;stroke-dashoffset:0;stroke-opacity:1;paint-order:stroke fill markers;stop-color:#000000;stop-opacity:1"
         id="path15270"
         sodipodi:nodetypes="csccccccccccc" />
    </g>
    <g
       aria-label=" u"
       transform="matrix(-0.78425137,7.5584425,-7.6654904,-0.7953585,-514.82507,196.87076)"
       id="g15276"
       style="font-size:13.856px;line-height:0.65;font-family:'Shining NFI Demo';-inkscape-font-specification:'Shining NFI Demo';font-variation-settings:normal;fill:none;fill-opacity:1;stroke:#a6a6a6;stroke-width:0.101534;stroke-linecap:butt;stroke-linejoin:miter;stroke-miterlimit:4;stroke-dasharray:none;stroke-dashoffset:0;stroke-opacity:1;paint-order:stroke fill markers;stop-color:#000000">
      <path
         d="m -17.436552,-71.399056 c -0.487125,0 -0.938166,-0.126292 -1.353125,-0.378875 -0.414958,-0.252583 -0.746473,-0.590865 -0.994546,-1.014844 -0.243563,-0.428489 -0.365344,-0.895317 -0.365344,-1.400484 l 0.02706,-6.928 c 0,-0.03608 0.01804,-0.05412 0.05412,-0.05412 12.0238333,-0.02679 -2.059985,0 5.283943,0 0.03609,0 0.05413,0.01804 0.05413,0.05412 l 0.02706,6.928 c 0,0.509677 -0.121781,0.97876 -0.365344,1.40725 -0.248073,0.423979 -0.577333,0.76226 -0.987781,1.014843 -0.410448,0.248073 -0.870511,0.37211 -1.380188,0.37211 z"
         style="font-family:Koulen;-inkscape-font-specification:Koulen;font-variation-settings:normal;fill:none;fill-opacity:1;stroke:#a6a6a6;stroke-width:0.101534;stroke-linecap:butt;stroke-linejoin:miter;stroke-miterlimit:4;stroke-dasharray:none;stroke-dashoffset:0;stroke-opacity:1;paint-order:stroke fill markers;stop-color:#000000;stop-opacity:1"
         id="path15274"
         sodipodi:nodetypes="csccccccccccc" />
    </g>
    <path
       d="m 45.535838,134.8369 c -0.263129,-3.6923 0.464061,-7.18029 2.181548,-10.46396 1.717499,-3.28367 4.138843,-5.9818 7.264028,-8.09442 3.162292,-2.08089 6.68509,-3.2597 10.568376,-3.53645 l 53.27117,-3.5902 c 0.27736,-0.0198 0.42578,0.10709 0.44527,0.38056 6.70088,91.12354 -1.11276,-15.614264 2.85424,40.05122 0.0195,0.27354 -0.10943,0.42017 -0.38679,0.43994 l -53.241933,4.00043 c -3.917967,0.27922 -7.589663,-0.38689 -11.015088,-1.99831 -3.393193,-1.64807 -6.17147,-3.95848 -8.334819,-6.93122 -2.12869,-2.97521 -3.330697,-6.39445 -3.60601,-10.2577 z"
       style="font-size:13.856px;line-height:0.65;font-family:Koulen;-inkscape-font-specification:Koulen;font-variation-settings:normal;fill:none;fill-opacity:1;stroke:#a1a1a1;stroke-width:0.777003;stroke-linecap:butt;stroke-linejoin:miter;stroke-miterlimit:4;stroke-dasharray:none;stroke-dashoffset:0;stroke-opacity:1;paint-order:stroke fill markers;stop-color:#000000"
       id="path15278"
       sodipodi:nodetypes="csccccccccccc" />
    <path
       d="m 51.968888,160.19353 c -1.510106,-3.37964 -2.019735,-6.90599 -1.528906,-10.57905 0.490833,-3.67305 1.84334,-7.03662 4.057502,-10.0907 2.259874,-3.03697 5.167035,-5.34956 8.721491,-6.93778 l 48.830605,-21.5935 c 0.25386,-0.11345 0.43673,-0.045 0.54857,0.20532 37.46285,83.33628 -6.38604,-14.292023 16.38043,36.65963 0.11186,0.25039 0.0409,0.43227 -0.21299,0.5457 l -48.662835,21.96898 c -3.586179,1.6024 -7.264261,2.23226 -11.034254,1.88959 -3.752233,-0.38815 -7.15316,-1.609 -10.202783,-3.66255 -3.017898,-2.06772 -5.316856,-4.86965 -6.896876,-8.40575 z"
       style="font-size:13.856px;line-height:0.65;font-family:Koulen;-inkscape-font-specification:Koulen;font-variation-settings:normal;fill:none;fill-opacity:1;stroke:#969696;stroke-width:0.777003;stroke-linecap:butt;stroke-linejoin:miter;stroke-miterlimit:4;stroke-dasharray:none;stroke-dashoffset:0;stroke-opacity:1;paint-order:stroke fill markers;stop-color:#000000"
       id="path15284"
       sodipodi:nodetypes="csccccccccccc" />
    <path
       d="m 58.087578,171.86751 c -2.074036,-3.06606 -3.188264,-6.45033 -3.342708,-10.15282 -0.154444,-3.7025 0.593436,-7.24982 2.243627,-10.64198 1.698177,-3.38326 4.159599,-6.16554 7.384251,-8.34686 l 44.339082,-29.74479 c 0.23031,-0.1558 0.42229,-0.12012 0.5759,0.10695 51.36491,75.56485 -8.77081,-12.96597 22.49745,33.25825 0.15366,0.22716 0.11527,0.41861 -0.11499,0.57439 L 87.561532,177.0061 c -3.253451,2.20078 -6.766281,3.45977 -10.538505,3.77696 -3.762629,0.26932 -7.323888,-0.34243 -10.683772,-1.83521 -3.331108,-1.51227 -6.081688,-3.87241 -8.25174,-7.08042 z"
       style="font-size:13.856px;line-height:0.65;font-family:Koulen;-inkscape-font-specification:Koulen;font-variation-settings:normal;fill:none;fill-opacity:1;stroke:#000000;stroke-width:0.777003;stroke-linecap:butt;stroke-linejoin:miter;stroke-miterlimit:4;stroke-dasharray:none;stroke-dashoffset:0;stroke-opacity:1;paint-order:stroke fill markers;stop-color:#000000"
       id="path15286"
       sodipodi:nodetypes="csccccccccccc" />
    <path
       d="m 58.087578,171.86751 c -2.074036,-3.06606 -3.188264,-6.45033 -3.342708,-10.15282 -0.154444,-3.7025 0.593436,-7.24982 2.243627,-10.64198 1.698177,-3.38326 4.159599,-6.16554 7.384251,-8.34686 l 44.339082,-29.74479 c 0.23031,-0.1558 0.42229,-0.12012 0.5759,0.10695 51.36491,75.56485 -8.77081,-12.96597 22.49745,33.25825 0.15366,0.22716 0.11527,0.41861 -0.11499,0.57439 L 87.561532,177.0061 c -3.253451,2.20078 -6.766281,3.45977 -10.538505,3.77696 -3.762629,0.26932 -7.323888,-0.34243 -10.683772,-1.83521 -3.331108,-1.51227 -6.081688,-3.87241 -8.25174,-7.08042 z"
       style="font-size:13.856px;line-height:0.65;font-family:Koulen;-inkscape-font-specification:Koulen;font-variation-settings:normal;fill:none;fill-opacity:1;stroke:#919191;stroke-width:0.777003;stroke-linecap:butt;stroke-linejoin:miter;stroke-miterlimit:4;stroke-dasharray:none;stroke-dashoffset:0;stroke-opacity:1;paint-order:stroke fill markers;stop-color:#000000"
       id="path15288"
       sodipodi:nodetypes="csccccccccccc" />
    <path
       d="m 66.268082,181.65976 c -2.574934,-2.65933 -4.259918,-5.79871 -5.054943,-9.41813 -0.795024,-3.61942 -0.674491,-7.24272 0.361577,-10.86991 1.084884,-3.62674 3.025772,-6.79417 5.822662,-9.5023 l 38.500342,-36.99231 c 0.19976,-0.19341 0.395,-0.19163 0.58572,0.005 63.70625,65.49744 -10.889078,-11.24595 27.9309,28.84635 0.19076,0.19702 0.18628,0.39221 -0.0135,0.58564 l -38.214266,37.28775 c -2.821858,2.73231 -6.0627,4.58217 -9.72253,5.54957 -3.658746,0.91843 -7.27208,0.93457 -10.84015,0.0479 -3.5431,-0.91085 -6.661726,-2.75751 -9.355875,-5.53997 z"
       style="font-size:13.856px;line-height:0.65;font-family:Koulen;-inkscape-font-specification:Koulen;font-variation-settings:normal;fill:none;fill-opacity:1;stroke:#8c8c8c;stroke-width:0.777003;stroke-linecap:butt;stroke-linejoin:miter;stroke-miterlimit:4;stroke-dasharray:none;stroke-dashoffset:0;stroke-opacity:1;paint-order:stroke fill markers;stop-color:#000000"
       id="path15290"
       sodipodi:nodetypes="csccccccccccc" />
    <path
       d="m 76.010509,190.53702 c -2.997612,-2.1718 -5.202134,-4.97089 -6.613588,-8.39727 -1.411454,-3.42638 -1.921931,-7.01557 -1.531461,-10.76756 0.43863,-3.76004 1.80001,-7.21638 4.084147,-10.36903 L 103.4414,117.88733 c 0.16313,-0.22517 0.35571,-0.25732 0.57775,-0.0964 74.11193,53.4399 -12.676477,-9.18424 32.51568,23.55795 0.22208,0.1609 0.25153,0.35391 0.0884,0.57908 l -31.15876,43.35712 c -2.30452,3.18081 -5.1749,5.56532 -8.611155,7.15356 -3.4436,1.53997 -6.999308,2.18315 -10.667144,1.92954 -3.647431,-0.28177 -7.039358,-1.55882 -10.175739,-3.83116 z"
       style="font-size:13.856px;line-height:0.65;font-family:Koulen;-inkscape-font-specification:Koulen;font-variation-settings:normal;fill:none;fill-opacity:1;stroke:#000000;stroke-width:0.777003;stroke-linecap:butt;stroke-linejoin:miter;stroke-miterlimit:4;stroke-dasharray:none;stroke-dashoffset:0;stroke-opacity:1;paint-order:stroke fill markers;stop-color:#000000"
       id="path15292"
       sodipodi:nodetypes="csccccccccccc" />
    <path
       d="m 76.010509,190.53702 c -2.997612,-2.1718 -5.202134,-4.97089 -6.613588,-8.39727 -1.411454,-3.42638 -1.921931,-7.01557 -1.531461,-10.76756 0.43863,-3.76004 1.80001,-7.21638 4.084147,-10.36903 L 103.4414,117.88733 c 0.16313,-0.22517 0.35571,-0.25732 0.57775,-0.0964 74.11193,53.4399 -12.676477,-9.18424 32.51568,23.55795 0.22208,0.1609 0.25153,0.35391 0.0884,0.57908 l -31.15876,43.35712 c -2.30452,3.18081 -5.1749,5.56532 -8.611155,7.15356 -3.4436,1.53997 -6.999308,2.18315 -10.667144,1.92954 -3.647431,-0.28177 -7.039358,-1.55882 -10.175739,-3.83116 z"
       style="font-size:13.856px;line-height:0.65;font-family:Koulen;-inkscape-font-specification:Koulen;font-variation-settings:normal;fill:none;fill-opacity:1;stroke:#878787;stroke-width:0.777003;stroke-linecap:butt;stroke-linejoin:miter;stroke-miterlimit:4;stroke-dasharray:none;stroke-dashoffset:0;stroke-opacity:1;paint-order:stroke fill markers;stop-color:#000000"
       id="path15294"
       sodipodi:nodetypes="csccccccccccc" />
    <path
       d="m 87.495005,196.94899 c -3.329194,-1.61828 -5.986286,-3.99203 -7.971282,-7.12126 -1.984994,-3.12922 -3.110973,-6.57525 -3.377952,-10.33804 -0.220966,-3.77907 0.519546,-7.4193 2.221534,-10.9207 l 23.526365,-47.9293 c 0.12156,-0.25007 0.30563,-0.31519 0.55223,-0.19527 82.26574,39.75863 -14.078726,-6.84347 36.11249,17.55375 0.24665,0.1199 0.30916,0.30487 0.1876,0.55495 L 115.5895,186.6622 c -1.71717,3.53266 -4.12988,6.37939 -7.23813,8.54019 -3.12387,2.11455 -6.51388,3.3654 -10.17003,3.75255 -3.640949,0.35589 -7.203097,-0.31276 -10.686418,-2.00595 z"
       style="font-size:13.856px;line-height:0.65;font-family:Koulen;-inkscape-font-specification:Koulen;font-variation-settings:normal;fill:none;fill-opacity:1;stroke:#828282;stroke-width:0.777003;stroke-linecap:butt;stroke-linejoin:miter;stroke-miterlimit:4;stroke-dasharray:none;stroke-dashoffset:0;stroke-opacity:1;paint-order:stroke fill markers;stop-color:#000000"
       id="path15296"
       sodipodi:nodetypes="csccccccccccc" />
    <path
       d="m 99.686093,201.95876 c -3.559627,-1.01558 -6.588557,-2.89187 -9.086788,-5.62887 -2.498218,-2.73699 -4.205484,-5.93513 -5.121811,-9.5944 -0.873864,-3.68328 -0.776688,-7.39681 0.291423,-11.14057 l 14.846123,-51.28644 c 0.0763,-0.2674 0.24625,-0.36347 0.5099,-0.28826 87.91996,24.86932 -15.053185,-4.29475 38.61205,11.01622 0.26372,0.0752 0.3574,0.24654 0.28111,0.51393 l -14.45064,51.39928 c -1.07765,3.77718 -2.95937,6.99962 -5.64517,9.66734 -2.70924,2.62488 -5.83053,4.44539 -9.3639,5.46155 -3.52383,0.98275 -7.14798,0.94279 -10.872406,-0.1198 z"
       style="font-size:13.856px;line-height:0.65;font-family:Koulen;-inkscape-font-specification:Koulen;font-variation-settings:normal;fill:none;fill-opacity:1;stroke:#000000;stroke-width:0.777003;stroke-linecap:butt;stroke-linejoin:miter;stroke-miterlimit:4;stroke-dasharray:none;stroke-dashoffset:0;stroke-opacity:1;paint-order:stroke fill markers;stop-color:#000000"
       id="path15298"
       sodipodi:nodetypes="csccccccccccc" />
    <path
       d="m 99.686093,201.95876 c -3.559627,-1.01558 -6.588557,-2.89187 -9.086788,-5.62887 -2.498218,-2.73699 -4.205484,-5.93513 -5.121811,-9.5944 -0.873864,-3.68328 -0.776688,-7.39681 0.291423,-11.14057 l 14.846123,-51.28644 c 0.0763,-0.2674 0.24625,-0.36347 0.5099,-0.28826 87.91996,24.86932 -15.053185,-4.29475 38.61205,11.01622 0.26372,0.0752 0.3574,0.24654 0.28111,0.51393 l -14.45064,51.39928 c -1.07765,3.77718 -2.95937,6.99962 -5.64517,9.66734 -2.70924,2.62488 -5.83053,4.44539 -9.3639,5.46155 -3.52383,0.98275 -7.14798,0.94279 -10.872406,-0.1198 z"
       style="font-size:13.856px;line-height:0.65;font-family:Koulen;-inkscape-font-specification:Koulen;font-variation-settings:normal;fill:none;fill-opacity:1;stroke:#7d7d7d;stroke-width:0.777003;stroke-linecap:butt;stroke-linejoin:miter;stroke-miterlimit:4;stroke-dasharray:none;stroke-dashoffset:0;stroke-opacity:1;paint-order:stroke fill markers;stop-color:#000000"
       id="path15300"
       sodipodi:nodetypes="csccccccccccc" />
    <path
       d="m 112.33993,204.52335 c -3.68191,-0.38202 -6.99063,-1.70384 -9.92618,-3.96545 -2.935539,-2.2616 -5.17223,-5.11469 -6.710061,-8.55925 -1.500144,-3.47559 -2.049324,-7.14956 -1.647539,-11.02191 l 5.714777,-53.0853 c 0.02869,-0.27657 0.179398,-0.40071 0.452113,-0.37241 90.90276,9.22434 -15.570288,-1.61555 39.93837,4.14394 0.27278,0.0283 0.39479,0.18074 0.36609,0.4573 l -5.30571,53.12774 c -0.40537,3.90693 -1.69894,7.40717 -3.88069,10.50075 -2.21226,3.05544 -4.97002,5.39032 -8.27325,7.00459 -3.29967,1.57971 -6.87568,2.16971 -10.72804,1.76999 z"
       style="font-size:13.856px;line-height:0.65;font-family:Koulen;-inkscape-font-specification:Koulen;font-variation-settings:normal;fill:none;fill-opacity:1;stroke:#787878;stroke-width:0.777003;stroke-linecap:butt;stroke-linejoin:miter;stroke-miterlimit:4;stroke-dasharray:none;stroke-dashoffset:0;stroke-opacity:1;paint-order:stroke fill markers;stop-color:#000000"
       id="path15302"
       sodipodi:nodetypes="csccccccccccc" />
    <path
       d="m 125.50925,205.06141 c -3.69231,0.26314 -7.1803,-0.46405 -10.46398,-2.18154 -3.28367,-1.7175 -5.9818,-4.13885 -8.09441,-7.26403 -2.08089,-3.1623 -3.2597,-6.68509 -3.53644,-10.56838 l -3.590214,-53.27117 c -0.01975,-0.27736 0.10709,-0.42578 0.380574,-0.44527 91.12353,-6.70088 -15.614269,1.11276 40.0512,-2.85424 0.27355,-0.0195 0.42019,0.10944 0.43995,0.3868 l 4.00043,53.24193 c 0.27921,3.91796 -0.38689,7.58966 -1.99831,11.01508 -1.64808,3.3932 -3.95849,6.17147 -6.93122,8.33482 -2.97521,2.12869 -6.39445,3.3307 -10.2577,3.60601 z"
       style="font-size:13.856px;line-height:0.65;font-family:Koulen;-inkscape-font-specification:Koulen;font-variation-settings:normal;fill:none;fill-opacity:1;stroke:#000000;stroke-width:0.777003;stroke-linecap:butt;stroke-linejoin:miter;stroke-miterlimit:4;stroke-dasharray:none;stroke-dashoffset:0;stroke-opacity:1;paint-order:stroke fill markers;stop-color:#000000"
       id="path15304"
       sodipodi:nodetypes="csccccccccccc" />
    <path
       d="m 125.50925,205.06141 c -3.69231,0.26314 -7.1803,-0.46405 -10.46398,-2.18154 -3.28367,-1.7175 -5.9818,-4.13885 -8.09441,-7.26403 -2.08089,-3.1623 -3.2597,-6.68509 -3.53644,-10.56838 l -3.590214,-53.27117 c -0.01975,-0.27736 0.10709,-0.42578 0.380574,-0.44527 91.12353,-6.70088 -15.614269,1.11276 40.0512,-2.85424 0.27355,-0.0195 0.42019,0.10944 0.43995,0.3868 l 4.00043,53.24193 c 0.27921,3.91796 -0.38689,7.58966 -1.99831,11.01508 -1.64808,3.3932 -3.95849,6.17147 -6.93122,8.33482 -2.97521,2.12869 -6.39445,3.3307 -10.2577,3.60601 z"
       style="font-size:13.856px;line-height:0.65;font-family:Koulen;-inkscape-font-specification:Koulen;font-variation-settings:normal;fill:none;fill-opacity:1;stroke:#737373;stroke-width:0.777003;stroke-linecap:butt;stroke-linejoin:miter;stroke-miterlimit:4;stroke-dasharray:none;stroke-dashoffset:0;stroke-opacity:1;paint-order:stroke fill markers;stop-color:#000000"
       id="path15306"
       sodipodi:nodetypes="csccccccccccc" />
    <path
       d="m 138.42841,202.59117 c -3.59052,0.9003 -7.15179,0.78984 -10.68382,-0.33136 -3.53202,-1.12119 -6.60963,-3.03722 -9.23283,-5.74809 -2.5984,-2.7529 -4.37104,-6.01747 -5.3179,-9.79372 l -12.78611,-51.83842 c -0.0676,-0.26971 0.0315,-0.43791 0.29747,-0.50459 88.57558,-22.42252 -15.183819,3.80723 38.94711,-9.7657 0.26602,-0.0667 0.4328,0.0348 0.50043,0.30452 l 13.18502,51.7384 c 0.95532,3.80996 0.93692,7.54154 -0.0552,11.19475 -1.03382,3.62782 -2.82669,6.76509 -5.3786,9.41179 -2.56037,2.61299 -5.71893,4.39048 -9.47568,5.33245 z"
       style="font-size:13.856px;line-height:0.65;font-family:Koulen;-inkscape-font-specification:Koulen;font-variation-settings:normal;fill:none;fill-opacity:1;stroke:#6e6e6e;stroke-width:0.777003;stroke-linecap:butt;stroke-linejoin:miter;stroke-miterlimit:4;stroke-dasharray:none;stroke-dashoffset:0;stroke-opacity:1;paint-order:stroke fill markers;stop-color:#000000"
       id="path15308"
       sodipodi:nodetypes="csccccccccccc" />
    <path
       d="m 150.98754,198.59262 c -3.37963,1.5101 -6.90598,2.01973 -10.57904,1.5289 -3.67306,-0.49083 -7.03662,-1.84334 -10.0907,-4.0575 -3.03698,-2.25987 -5.34956,-5.16704 -6.93778,-8.72149 l -21.5935,-48.8306 c -0.11345,-0.25386 -0.045,-0.43673 0.20532,-0.54857 83.33629,-37.46286 -14.292028,6.38604 36.65962,-16.38044 0.2504,-0.11186 0.43228,-0.0409 0.5457,0.213 l 21.96899,48.66283 c 1.6024,3.58618 2.23227,7.26426 1.88959,11.03426 -0.38815,3.75223 -1.60899,7.15315 -3.66254,10.20278 -2.06774,3.0179 -4.86965,5.31685 -8.40576,6.89687 z"
       style="font-size:13.856px;line-height:0.65;font-family:Koulen;-inkscape-font-specification:Koulen;font-variation-settings:normal;fill:none;fill-opacity:1;stroke:#000000;stroke-width:0.777003;stroke-linecap:butt;stroke-linejoin:miter;stroke-miterlimit:4;stroke-dasharray:none;stroke-dashoffset:0;stroke-opacity:1;paint-order:stroke fill markers;stop-color:#000000"
       id="path15310"
       sodipodi:nodetypes="csccccccccccc" />
    <path
       d="m 150.98754,198.59262 c -3.37963,1.5101 -6.90598,2.01973 -10.57904,1.5289 -3.67306,-0.49083 -7.03662,-1.84334 -10.0907,-4.0575 -3.03698,-2.25987 -5.34956,-5.16704 -6.93778,-8.72149 l -21.5935,-48.8306 c -0.11345,-0.25386 -0.045,-0.43673 0.20532,-0.54857 83.33629,-37.46286 -14.292028,6.38604 36.65962,-16.38044 0.2504,-0.11186 0.43228,-0.0409 0.5457,0.213 l 21.96899,48.66283 c 1.6024,3.58618 2.23227,7.26426 1.88959,11.03426 -0.38815,3.75223 -1.60899,7.15315 -3.66254,10.20278 -2.06774,3.0179 -4.86965,5.31685 -8.40576,6.89687 z"
       style="font-size:13.856px;line-height:0.65;font-family:Koulen;-inkscape-font-specification:Koulen;font-variation-settings:normal;fill:none;fill-opacity:1;stroke:#696969;stroke-width:0.777003;stroke-linecap:butt;stroke-linejoin:miter;stroke-miterlimit:4;stroke-dasharray:none;stroke-dashoffset:0;stroke-opacity:1;paint-order:stroke fill markers;stop-color:#000000"
       id="path15312"
       sodipodi:nodetypes="csccccccccccc" />
    <path
       d="m 162.05155,192.23679 c -3.06606,2.07404 -6.45034,3.18827 -10.15283,3.34271 -3.70249,0.15445 -7.24981,-0.59344 -10.64198,-2.24363 -3.38326,-1.69817 -6.16553,-4.1596 -8.34685,-7.38425 l -29.7448,-44.33908 c -0.15579,-0.23031 -0.12011,-0.42229 0.10696,-0.57589 75.56485,-51.364914 -12.965979,8.77079 33.25825,-22.49746 0.22715,-0.15366 0.41859,-0.11537 0.57439,0.115 l 30.08544,44.10865 c 2.20079,3.25345 3.45977,6.76628 3.77696,10.5385 0.26932,3.76262 -0.34242,7.32389 -1.83521,10.68378 -1.51226,3.3311 -3.8724,6.08168 -7.08042,8.25174 z"
       style="font-size:13.856px;line-height:0.65;font-family:Koulen;-inkscape-font-specification:Koulen;font-variation-settings:normal;fill:none;fill-opacity:1;stroke:#636363;stroke-width:0.777003;stroke-linecap:butt;stroke-linejoin:miter;stroke-miterlimit:4;stroke-dasharray:none;stroke-dashoffset:0;stroke-opacity:1;paint-order:stroke fill markers;stop-color:#000000"
       id="path15314"
       sodipodi:nodetypes="csccccccccccc" />
    <path
       d="m 172.4857,184.1839 c -2.65934,2.57494 -5.79871,4.25992 -9.41814,5.05495 -3.61942,0.79502 -7.24273,0.67449 -10.86991,-0.36158 -3.62674,-1.08489 -6.79416,-3.02577 -9.50229,-5.82266 l -36.99231,-38.50034 c -0.19343,-0.19977 -0.19163,-0.39501 0.005,-0.58572 65.49744,-63.706256 -11.245962,10.88907 28.84634,-27.9309 0.19702,-0.19077 0.39221,-0.18628 0.58564,0.0135 l 37.28776,38.21426 c 2.73231,2.82186 4.58216,6.0627 5.54957,9.72253 0.91843,3.65875 0.93457,7.27208 0.0479,10.84015 -0.91085,3.5431 -2.7575,6.66173 -5.53996,9.35587 z"
       style="font-size:13.856px;line-height:0.65;font-family:Koulen;-inkscape-font-specification:Koulen;font-variation-settings:normal;fill:none;fill-opacity:1;stroke:#000000;stroke-width:0.777003;stroke-linecap:butt;stroke-linejoin:miter;stroke-miterlimit:4;stroke-dasharray:none;stroke-dashoffset:0;stroke-opacity:1;paint-order:stroke fill markers;stop-color:#000000"
       id="path15316"
       sodipodi:nodetypes="csccccccccccc" />
    <path
       d="m 172.4857,184.1839 c -2.65934,2.57494 -5.79871,4.25992 -9.41814,5.05495 -3.61942,0.79502 -7.24273,0.67449 -10.86991,-0.36158 -3.62674,-1.08489 -6.79416,-3.02577 -9.50229,-5.82266 l -36.99231,-38.50034 c -0.19343,-0.19977 -0.19163,-0.39501 0.005,-0.58572 65.49744,-63.706256 -11.245962,10.88907 28.84634,-27.9309 0.19702,-0.19077 0.39221,-0.18628 0.58564,0.0135 l 37.28776,38.21426 c 2.73231,2.82186 4.58216,6.0627 5.54957,9.72253 0.91843,3.65875 0.93457,7.27208 0.0479,10.84015 -0.91085,3.5431 -2.7575,6.66173 -5.53996,9.35587 z"
       style="font-size:13.856px;line-height:0.65;font-family:Koulen;-inkscape-font-specification:Koulen;font-variation-settings:normal;fill:none;fill-opacity:1;stroke:#5e5e5e;stroke-width:0.777003;stroke-linecap:butt;stroke-linejoin:miter;stroke-miterlimit:4;stroke-dasharray:none;stroke-dashoffset:0;stroke-opacity:1;paint-order:stroke fill markers;stop-color:#000000"
       id="path15318"
       sodipodi:nodetypes="csccccccccccc" />
    <path
       d="m 180.79452,173.98731 c -2.1718,2.99761 -4.97089,5.20213 -8.39728,6.6136 -3.42637,1.41144 -7.01556,1.92193 -10.76755,1.53145 -3.76004,-0.43863 -7.21638,-1.80001 -10.36903,-4.08415 l -43.11583,-31.49179 c -0.22517,-0.16313 -0.25732,-0.35571 -0.0964,-0.57776 53.43991,-74.111916 -9.184239,12.6765 23.55795,-32.51567 0.1609,-0.22208 0.35391,-0.25153 0.57908,-0.0884 l 43.35713,31.15875 c 3.1808,2.30454 5.56531,5.17491 7.15355,8.61116 1.53997,3.4436 2.18315,6.99931 1.92954,10.66715 -0.28177,3.64743 -1.55881,7.03935 -3.83116,10.17574 z"
       style="font-size:13.856px;line-height:0.65;font-family:Koulen;-inkscape-font-specification:Koulen;font-variation-settings:normal;fill:none;fill-opacity:1;stroke:#595959;stroke-width:0.777003;stroke-linecap:butt;stroke-linejoin:miter;stroke-miterlimit:4;stroke-dasharray:none;stroke-dashoffset:0;stroke-opacity:1;paint-order:stroke fill markers;stop-color:#000000"
       id="path15320"
       sodipodi:nodetypes="csccccccccccc" />
    <path
       d="m 187.84515,162.85138 c -1.61828,3.32919 -3.99203,5.98629 -7.12126,7.97128 -3.12922,1.98499 -6.57524,3.11097 -10.33805,3.37795 -3.77906,0.22097 -7.4193,-0.51954 -10.9207,-2.22153 l -47.9293,-23.52637 c -0.25007,-0.12156 -0.31517,-0.30563 -0.19527,-0.55223 39.75863,-82.265733 -6.84346,14.07873 17.55377,-36.11249 0.11989,-0.24664 0.30486,-0.30916 0.55493,-0.1876 l 48.10909,23.1565 c 3.53266,1.71717 6.37939,4.12987 8.5402,7.23813 2.11454,3.12386 3.36539,6.51387 3.75254,10.17002 0.3559,3.64095 -0.31276,7.2031 -2.00595,10.68642 z"
       style="font-size:13.856px;line-height:0.65;font-family:Koulen;-inkscape-font-specification:Koulen;font-variation-settings:normal;fill:none;fill-opacity:1;stroke:#000000;stroke-width:0.777003;stroke-linecap:butt;stroke-linejoin:miter;stroke-miterlimit:4;stroke-dasharray:none;stroke-dashoffset:0;stroke-opacity:1;paint-order:stroke fill markers;stop-color:#000000"
       id="path15322"
       sodipodi:nodetypes="csccccccccccc" />
    <path
       d="m 187.84515,162.85138 c -1.61828,3.32919 -3.99203,5.98629 -7.12126,7.97128 -3.12922,1.98499 -6.57524,3.11097 -10.33805,3.37795 -3.77906,0.22097 -7.4193,-0.51954 -10.9207,-2.22153 l -47.9293,-23.52637 c -0.25007,-0.12156 -0.31517,-0.30563 -0.19527,-0.55223 39.75863,-82.265733 -6.84346,14.07873 17.55377,-36.11249 0.11989,-0.24664 0.30486,-0.30916 0.55493,-0.1876 l 48.10909,23.1565 c 3.53266,1.71717 6.37939,4.12987 8.5402,7.23813 2.11454,3.12386 3.36539,6.51387 3.75254,10.17002 0.3559,3.64095 -0.31276,7.2031 -2.00595,10.68642 z"
       style="font-size:13.856px;line-height:0.65;font-family:Koulen;-inkscape-font-specification:Koulen;font-variation-settings:normal;fill:none;fill-opacity:1;stroke:#545454;stroke-width:0.777003;stroke-linecap:butt;stroke-linejoin:miter;stroke-miterlimit:4;stroke-dasharray:none;stroke-dashoffset:0;stroke-opacity:1;paint-order:stroke fill markers;stop-color:#000000"
       id="path15324"
       sodipodi:nodetypes="csccccccccccc" />
    <path
       d="m 193.09431,151.01704 c -1.01559,3.55963 -2.89187,6.58855 -5.62887,9.08678 -2.73701,2.49822 -5.93514,4.20549 -9.59441,5.12181 -3.68329,0.87387 -7.39682,0.7767 -11.14057,-0.29141 L 115.44401,150.0881 c -0.26738,-0.0763 -0.36346,-0.24626 -0.28825,-0.50991 24.86932,-87.91995 -4.29475,15.05319 11.01622,-38.61204 0.0752,-0.26372 0.24654,-0.35741 0.51393,-0.28112 l 51.39929,14.45064 c 3.77717,1.07764 6.99962,2.95937 9.66732,5.64518 2.62489,2.70922 4.44541,5.83052 5.46156,9.3639 0.98275,3.52383 0.94279,7.14797 -0.11981,10.8724 z"
       style="font-size:13.856px;line-height:0.65;font-family:Koulen;-inkscape-font-specification:Koulen;font-variation-settings:normal;fill:none;fill-opacity:1;stroke:#4f4f4f;stroke-width:0.777003;stroke-linecap:butt;stroke-linejoin:miter;stroke-miterlimit:4;stroke-dasharray:none;stroke-dashoffset:0;stroke-opacity:1;paint-order:stroke fill markers;stop-color:#000000"
       id="path15326"
       sodipodi:nodetypes="csccccccccccc" />
    <path
       d="m 195.91101,138.14122 c -0.38203,3.68192 -1.70385,6.99063 -3.96546,9.92618 -2.26159,2.93554 -5.11468,5.17222 -8.55924,6.71005 -3.4756,1.50016 -7.14957,2.04934 -11.02192,1.64755 l -53.0853,-5.71477 c -0.27657,-0.0287 -0.40071,-0.1794 -0.37241,-0.45211 9.22434,-90.902754 -1.61555,15.57028 4.14394,-39.93838 0.0283,-0.27278 0.18074,-0.39479 0.4573,-0.36609 l 53.12775,5.30571 c 3.90692,0.40538 7.40716,1.69894 10.50073,3.8807 3.05546,2.21226 5.39032,4.97 7.00461,8.27324 1.5797,3.29966 2.16971,6.87568 1.76999,10.72804 z"
       style="font-size:13.856px;line-height:0.65;font-family:Koulen;-inkscape-font-specification:Koulen;font-variation-settings:normal;fill:none;fill-opacity:1;stroke:#000000;stroke-width:0.777003;stroke-linecap:butt;stroke-linejoin:miter;stroke-miterlimit:4;stroke-dasharray:none;stroke-dashoffset:0;stroke-opacity:1;paint-order:stroke fill markers;stop-color:#000000"
       id="path15328"
       sodipodi:nodetypes="csccccccccccc" />
    <path
       d="m 195.91101,138.14122 c -0.38203,3.68192 -1.70385,6.99063 -3.96546,9.92618 -2.26159,2.93554 -5.11468,5.17222 -8.55924,6.71005 -3.4756,1.50016 -7.14957,2.04934 -11.02192,1.64755 l -53.0853,-5.71477 c -0.27657,-0.0287 -0.40071,-0.1794 -0.37241,-0.45211 9.22434,-90.902754 -1.61555,15.57028 4.14394,-39.93838 0.0283,-0.27278 0.18074,-0.39479 0.4573,-0.36609 l 53.12775,5.30571 c 3.90692,0.40538 7.40716,1.69894 10.50073,3.8807 3.05546,2.21226 5.39032,4.97 7.00461,8.27324 1.5797,3.29966 2.16971,6.87568 1.76999,10.72804 z"
       style="font-size:13.856px;line-height:0.65;font-family:Koulen;-inkscape-font-specification:Koulen;font-variation-settings:normal;fill:none;fill-opacity:1;stroke:#4a4a4a;stroke-width:0.777003;stroke-linecap:butt;stroke-linejoin:miter;stroke-miterlimit:4;stroke-dasharray:none;stroke-dashoffset:0;stroke-opacity:1;paint-order:stroke fill markers;stop-color:#000000"
       id="path15330"
       sodipodi:nodetypes="csccccccccccc" />
    <path
       d="m 195.72169,124.98939 c 0.26313,3.6923 -0.46405,7.18028 -2.18154,10.46396 -1.71749,3.28367 -4.13884,5.9818 -7.26403,8.09442 -3.16229,2.08089 -6.68508,3.2597 -10.56838,3.53645 l -53.27117,3.5902 c -0.27735,0.0198 -0.42577,-0.10709 -0.44527,-0.38056 -6.70088,-91.123542 1.11276,15.61426 -2.85424,-40.05122 -0.0195,-0.27355 0.10945,-0.42017 0.3868,-0.43994 l 53.24193,-4.00043 c 3.91796,-0.27922 7.58966,0.38689 11.01509,1.9983 3.39318,1.64808 6.17146,3.95849 8.33482,6.93123 2.12868,2.97521 3.33069,6.39445 3.606,10.2577 z"
       style="font-size:13.856px;line-height:0.65;font-family:Koulen;-inkscape-font-specification:Koulen;font-variation-settings:normal;fill:none;fill-opacity:1;stroke:#454545;stroke-width:0.777003;stroke-linecap:butt;stroke-linejoin:miter;stroke-miterlimit:4;stroke-dasharray:none;stroke-dashoffset:0;stroke-opacity:1;paint-order:stroke fill markers;stop-color:#000000"
       id="path15332"
       sodipodi:nodetypes="csccccccccccc" />
    <path
       d="m 193.96475,111.9267 c 0.90029,3.59052 0.78983,7.15179 -0.33136,10.68382 -1.1212,3.53202 -3.03723,6.60962 -5.74809,9.23283 -2.7529,2.5984 -6.01748,4.37103 -9.79372,5.3179 l -51.83843,12.7861 c -0.26971,0.0676 -0.4379,-0.0315 -0.50459,-0.29746 -22.42252,-88.575561 3.80723,15.18382 -9.7657,-38.94711 -0.0667,-0.26601 0.0348,-0.4328 0.30452,-0.50043 l 51.73841,-13.185018 c 3.80996,-0.955319 7.54153,-0.936916 11.19474,0.0552 3.62784,1.033815 6.7651,2.826675 9.41179,5.378594 2.61299,2.56037 4.39048,5.71894 5.33245,9.47568 z"
       style="font-size:13.856px;line-height:0.65;font-family:Koulen;-inkscape-font-specification:Koulen;font-variation-settings:normal;fill:none;fill-opacity:1;stroke:#000000;stroke-width:0.777003;stroke-linecap:butt;stroke-linejoin:miter;stroke-miterlimit:4;stroke-dasharray:none;stroke-dashoffset:0;stroke-opacity:1;paint-order:stroke fill markers;stop-color:#000000"
       id="path15334"
       sodipodi:nodetypes="csccccccccccc" />
    <path
       d="m 193.96475,111.9267 c 0.90029,3.59052 0.78983,7.15179 -0.33136,10.68382 -1.1212,3.53202 -3.03723,6.60962 -5.74809,9.23283 -2.7529,2.5984 -6.01748,4.37103 -9.79372,5.3179 l -51.83843,12.7861 c -0.26971,0.0676 -0.4379,-0.0315 -0.50459,-0.29746 -22.42252,-88.575561 3.80723,15.18382 -9.7657,-38.94711 -0.0667,-0.26601 0.0348,-0.4328 0.30452,-0.50043 l 51.73841,-13.185018 c 3.80996,-0.955319 7.54153,-0.936916 11.19474,0.0552 3.62784,1.033815 6.7651,2.826675 9.41179,5.378594 2.61299,2.56037 4.39048,5.71894 5.33245,9.47568 z"
       style="font-size:13.856px;line-height:0.65;font-family:Koulen;-inkscape-font-specification:Koulen;font-variation-settings:normal;fill:none;fill-opacity:1;stroke:#404040;stroke-width:0.777003;stroke-linecap:butt;stroke-linejoin:miter;stroke-miterlimit:4;stroke-dasharray:none;stroke-dashoffset:0;stroke-opacity:1;paint-order:stroke fill markers;stop-color:#000000"
       id="path15336"
       sodipodi:nodetypes="csccccccccccc" />
    <path
       d="m 189.62673,99.927103 c 1.51011,3.379637 2.01974,6.905977 1.52891,10.579037 -0.49083,3.67306 -1.84334,7.03663 -4.0575,10.09071 -2.25988,3.03697 -5.16704,5.34955 -8.72149,6.93777 l -48.83061,21.59351 c -0.25386,0.11345 -0.43673,0.045 -0.54857,-0.20533 -37.462853,-83.336268 6.38604,14.29203 -16.38043,-36.65962 -0.11186,-0.25039 -0.0409,-0.43227 0.21299,-0.5457 l 48.66284,-21.968986 c 3.58617,-1.602402 7.26425,-2.232264 11.03425,-1.889589 3.75223,0.388152 7.15316,1.608989 10.20279,3.66254 3.01789,2.067736 5.31685,4.869653 6.89687,8.40576 z"
       style="font-size:13.856px;line-height:0.65;font-family:Koulen;-inkscape-font-specification:Koulen;font-variation-settings:normal;fill:none;fill-opacity:1;stroke:#3b3b3b;stroke-width:0.777003;stroke-linecap:butt;stroke-linejoin:miter;stroke-miterlimit:4;stroke-dasharray:none;stroke-dashoffset:0;stroke-opacity:1;paint-order:stroke fill markers;stop-color:#000000"
       id="path15338"
       sodipodi:nodetypes="csccccccccccc" />
    <g
       aria-label=" u"
       transform="matrix(-4.2577018,-6.2942098,6.3833528,-4.3180024,565.03376,-329.79749)"
       id="g15342"
       style="font-size:13.856px;line-height:0.65;font-family:'Shining NFI Demo';-inkscape-font-specification:'Shining NFI Demo';font-variation-settings:normal;fill:none;fill-opacity:1;stroke:#000000;stroke-width:0.101534;stroke-linecap:butt;stroke-linejoin:miter;stroke-miterlimit:4;stroke-dasharray:none;stroke-dashoffset:0;stroke-opacity:1;paint-order:stroke fill markers;stop-color:#000000">
      <path
         d="m -17.436552,-71.399056 c -0.487125,0 -0.938166,-0.126292 -1.353125,-0.378875 -0.414958,-0.252583 -0.746473,-0.590865 -0.994546,-1.014844 -0.243563,-0.428489 -0.365344,-0.895317 -0.365344,-1.400484 l 0.02706,-6.928 c 0,-0.03608 0.01804,-0.05412 0.05412,-0.05412 12.0238333,-0.02679 -2.059985,0 5.283943,0 0.03609,0 0.05413,0.01804 0.05413,0.05412 l 0.02706,6.928 c 0,0.509677 -0.121781,0.97876 -0.365344,1.40725 -0.248073,0.423979 -0.577333,0.76226 -0.987781,1.014843 -0.410448,0.248073 -0.870511,0.37211 -1.380188,0.37211 z"
         style="font-family:Koulen;-inkscape-font-specification:Koulen;font-variation-settings:normal;fill:none;fill-opacity:1;stroke:#000000;stroke-width:0.101534;stroke-linecap:butt;stroke-linejoin:miter;stroke-miterlimit:4;stroke-dasharray:none;stroke-dashoffset:0;stroke-opacity:1;paint-order:stroke fill markers;stop-color:#000000;stop-opacity:1"
         id="path15340"
         sodipodi:nodetypes="csccccccccccc" />
    </g>
    <g
       aria-label=" u"
       transform="matrix(-4.2577018,-6.2942098,6.3833528,-4.3180024,565.03376,-329.79749)"
       id="g15346"
       style="font-size:13.856px;line-height:0.65;font-family:'Shining NFI Demo';-inkscape-font-specification:'Shining NFI Demo';font-variation-settings:normal;fill:none;fill-opacity:1;stroke:#363636;stroke-width:0.101534;stroke-linecap:butt;stroke-linejoin:miter;stroke-miterlimit:4;stroke-dasharray:none;stroke-dashoffset:0;stroke-opacity:1;paint-order:stroke fill markers;stop-color:#000000">
      <path
         d="m -17.436552,-71.399056 c -0.487125,0 -0.938166,-0.126292 -1.353125,-0.378875 -0.414958,-0.252583 -0.746473,-0.590865 -0.994546,-1.014844 -0.243563,-0.428489 -0.365344,-0.895317 -0.365344,-1.400484 l 0.02706,-6.928 c 0,-0.03608 0.01804,-0.05412 0.05412,-0.05412 12.0238333,-0.02679 -2.059985,0 5.283943,0 0.03609,0 0.05413,0.01804 0.05413,0.05412 l 0.02706,6.928 c 0,0.509677 -0.121781,0.97876 -0.365344,1.40725 -0.248073,0.423979 -0.577333,0.76226 -0.987781,1.014843 -0.410448,0.248073 -0.870511,0.37211 -1.380188,0.37211 z"
         style="font-family:Koulen;-inkscape-font-specification:Koulen;font-variation-settings:normal;fill:none;fill-opacity:1;stroke:#363636;stroke-width:0.101534;stroke-linecap:butt;stroke-linejoin:miter;stroke-miterlimit:4;stroke-dasharray:none;stroke-dashoffset:0;stroke-opacity:1;paint-order:stroke fill markers;stop-color:#000000;stop-opacity:1"
         id="path15344"
         sodipodi:nodetypes="csccccccccccc" />
    </g>
    <path
       d="m 174.90918,78.299898 c 2.57494,2.659332 4.25991,5.798708 5.05494,9.418138 0.79504,3.619418 0.6745,7.242721 -0.36158,10.869904 -1.08488,3.62674 -3.02577,6.79417 -5.82266,9.5023 l -38.50034,36.99231 c -0.19976,0.19342 -0.395,0.19162 -0.58572,-0.005 -63.706251,-65.497419 10.88908,11.24597 -27.9309,-28.84633 -0.19076,-0.19703 -0.18628,-0.39221 0.0135,-0.58564 l 38.21426,-37.287763 c 2.82186,-2.732308 6.06271,-4.582161 9.72254,-5.549571 3.65874,-0.918432 7.27208,-0.934559 10.84015,-0.04789 3.5431,0.91085 6.66172,2.757498 9.35588,5.539952 z"
       style="font-size:13.856px;line-height:0.65;font-family:Koulen;-inkscape-font-specification:Koulen;font-variation-settings:normal;fill:none;fill-opacity:1;stroke:#303030;stroke-width:0.777003;stroke-linecap:butt;stroke-linejoin:miter;stroke-miterlimit:4;stroke-dasharray:none;stroke-dashoffset:0;stroke-opacity:1;paint-order:stroke fill markers;stop-color:#000000"
       id="path15348"
       sodipodi:nodetypes="csccccccccccc" />
    <path
       d="m 165.16675,69.422658 c 2.99761,2.171794 5.20214,4.970893 6.6136,8.397271 1.41146,3.42638 1.92193,7.015566 1.53145,10.767548 -0.43863,3.760035 -1.80001,7.216375 -4.08414,10.369043 l -31.49179,43.11583 c -0.16314,0.22517 -0.35572,0.25732 -0.57774,0.0965 -74.111919,-53.4399 12.67648,9.18424 -32.51567,-23.55795 -0.2221,-0.1609 -0.25154,-0.35392 -0.0884,-0.57909 l 31.15875,-43.35711 c 2.30453,-3.180803 5.17491,-5.565329 8.61116,-7.153562 3.4436,-1.539971 6.99932,-2.183152 10.66715,-1.929532 3.64744,0.281763 7.03935,1.55881 10.17574,3.831161 z"
       style="font-size:13.856px;line-height:0.65;font-family:Koulen;-inkscape-font-specification:Koulen;font-variation-settings:normal;fill:none;fill-opacity:1;stroke:#242424;stroke-width:0.777003;stroke-linecap:butt;stroke-linejoin:miter;stroke-miterlimit:4;stroke-dasharray:none;stroke-dashoffset:0;stroke-opacity:1;paint-order:stroke fill markers;stop-color:#000000"
       id="path15350"
       sodipodi:nodetypes="csccccccccccc" />
    <path
       d="m 165.16675,69.422658 c 2.99761,2.171794 5.20214,4.970893 6.6136,8.397271 1.41146,3.42638 1.92193,7.015566 1.53145,10.767548 -0.43863,3.760035 -1.80001,7.216375 -4.08414,10.369043 l -31.49179,43.11583 c -0.16314,0.22517 -0.35572,0.25732 -0.57774,0.0965 -74.111919,-53.4399 12.67648,9.18424 -32.51567,-23.55795 -0.2221,-0.1609 -0.25154,-0.35392 -0.0884,-0.57909 l 31.15875,-43.35711 c 2.30453,-3.180803 5.17491,-5.565329 8.61116,-7.153562 3.4436,-1.539971 6.99932,-2.183152 10.66715,-1.929532 3.64744,0.281763 7.03935,1.55881 10.17574,3.831161 z"
       style="font-size:13.856px;line-height:0.65;font-family:Koulen;-inkscape-font-specification:Koulen;font-variation-settings:normal;fill:none;fill-opacity:1;stroke:#2b2b2b;stroke-width:0.777003;stroke-linecap:butt;stroke-linejoin:miter;stroke-miterlimit:4;stroke-dasharray:none;stroke-dashoffset:0;stroke-opacity:1;paint-order:stroke fill markers;stop-color:#000000"
       id="path15352"
       sodipodi:nodetypes="csccccccccccc" />
    <path
       d="m 153.77324,62.339095 c 3.32919,1.618278 5.98629,3.992034 7.97129,7.121266 1.98499,3.129227 3.11097,6.575236 3.37796,10.338039 0.22095,3.779066 -0.51956,7.419302 -2.22154,10.920703 L 139.37457,138.6484 c -0.12156,0.25007 -0.30563,0.31518 -0.5522,0.19537 -82.26574,-39.758629 14.07873,6.84346 -36.11249,-17.55376 -0.24665,-0.1199 -0.30916,-0.30487 -0.1876,-0.55494 l 23.15649,-48.109083 c 1.71717,-3.532665 4.12988,-6.379387 7.23812,-8.540188 3.12388,-2.114552 6.51388,-3.365407 10.17004,-3.752558 3.64095,-0.355885 7.2031,0.31276 10.68643,2.005959 z"
       style="font-size:13.856px;line-height:0.65;font-family:Koulen;-inkscape-font-specification:Koulen;font-variation-settings:normal;fill:none;fill-opacity:1;stroke:#262626;stroke-width:0.777003;stroke-linecap:butt;stroke-linejoin:miter;stroke-miterlimit:4;stroke-dasharray:none;stroke-dashoffset:0;stroke-opacity:1;paint-order:stroke fill markers;stop-color:#000000"
       id="path15354"
       sodipodi:nodetypes="csccccccccccc" />
    <path
       d="m 141.58215,57.329323 c 3.55964,1.015573 6.58856,2.891869 9.08679,5.62887 2.49822,2.736994 4.20548,5.935135 5.12181,9.594399 0.87386,3.683284 0.77669,7.396815 -0.29142,11.140569 l -14.84612,51.286449 c -0.0763,0.26738 -0.24626,0.36346 -0.50991,0.28825 -87.919954,-24.86932 15.05319,4.29475 -38.61204,-11.01622 -0.26372,-0.0752 -0.35741,-0.24655 -0.28112,-0.51393 l 14.45064,-51.399276 c 1.07765,-3.777177 2.95937,-6.999618 5.64518,-9.667336 2.70922,-2.624877 5.83052,-4.445395 9.36389,-5.461552 3.52384,-0.982753 7.14798,-0.942793 10.87241,0.119802 z"
       style="font-size:13.856px;line-height:0.65;font-family:Koulen;-inkscape-font-specification:Koulen;font-variation-settings:normal;fill:none;fill-opacity:1;stroke:#000000;stroke-width:0.777003;stroke-linecap:butt;stroke-linejoin:miter;stroke-miterlimit:4;stroke-dasharray:none;stroke-dashoffset:0;stroke-opacity:1;paint-order:stroke fill markers;stop-color:#000000"
       id="path15356"
       sodipodi:nodetypes="csccccccccccc" />
    <path
       d="m 141.58215,57.329323 c 3.55964,1.015573 6.58856,2.891869 9.08679,5.62887 2.49822,2.736994 4.20548,5.935135 5.12181,9.594399 0.87386,3.683284 0.77669,7.396815 -0.29142,11.140569 l -14.84612,51.286449 c -0.0763,0.26738 -0.24626,0.36346 -0.50991,0.28825 -87.919954,-24.86932 15.05319,4.29475 -38.61204,-11.01622 -0.26372,-0.0752 -0.35741,-0.24655 -0.28112,-0.51393 l 14.45064,-51.399276 c 1.07765,-3.777177 2.95937,-6.999618 5.64518,-9.667336 2.70922,-2.624877 5.83052,-4.445395 9.36389,-5.461552 3.52384,-0.982753 7.14798,-0.942793 10.87241,0.119802 z"
       style="font-size:13.856px;line-height:0.65;font-family:Koulen;-inkscape-font-specification:Koulen;font-variation-settings:normal;fill:none;fill-opacity:1;stroke:#212121;stroke-width:0.777003;stroke-linecap:butt;stroke-linejoin:miter;stroke-miterlimit:4;stroke-dasharray:none;stroke-dashoffset:0;stroke-opacity:1;paint-order:stroke fill markers;stop-color:#000000"
       id="path15358"
       sodipodi:nodetypes="csccccccccccc" />
    <g
       aria-label=" u"
       transform="matrix(-7.5584425,-0.78425127,0.7953584,-7.6654903,53.591911,-505.75145)"
       id="g15362"
       style="font-size:13.856px;line-height:0.65;font-family:'Shining NFI Demo';-inkscape-font-specification:'Shining NFI Demo';font-variation-settings:normal;fill:none;fill-opacity:1;stroke:#1a1a1a;stroke-width:0.101534;stroke-linecap:butt;stroke-linejoin:miter;stroke-miterlimit:4;stroke-dasharray:none;stroke-dashoffset:0;stroke-opacity:1;paint-order:stroke fill markers;stop-color:#000000">
      <path
         d="m -17.436552,-71.399056 c -0.487125,0 -0.938166,-0.126292 -1.353125,-0.378875 -0.414958,-0.252583 -0.746473,-0.590865 -0.994546,-1.014844 -0.243563,-0.428489 -0.365344,-0.895317 -0.365344,-1.400484 l 0.02706,-6.928 c 0,-0.03608 0.01804,-0.05412 0.05412,-0.05412 12.0238333,-0.02679 -2.059985,0 5.283943,0 0.03609,0 0.05413,0.01804 0.05413,0.05412 l 0.02706,6.928 c 0,0.509677 -0.121781,0.97876 -0.365344,1.40725 -0.248073,0.423979 -0.577333,0.76226 -0.987781,1.014843 -0.410448,0.248073 -0.870511,0.37211 -1.380188,0.37211 z"
         style="font-family:Koulen;-inkscape-font-specification:Koulen;font-variation-settings:normal;fill:none;fill-opacity:1;stroke:#1a1a1a;stroke-width:0.101534;stroke-linecap:butt;stroke-linejoin:miter;stroke-miterlimit:4;stroke-dasharray:none;stroke-dashoffset:0;stroke-opacity:1;paint-order:stroke fill markers;stop-color:#000000;stop-opacity:1"
         id="path15360"
         sodipodi:nodetypes="csccccccccccc" />
    </g>
    <g
       aria-label=" u"
       transform="matrix(-7.5797965,0.5401729,-0.54782328,-7.6871469,-55.851663,-484.74236)"
       id="g15366"
       style="font-size:13.856px;line-height:0.65;font-family:'Shining NFI Demo';-inkscape-font-specification:'Shining NFI Demo';font-variation-settings:normal;fill:none;fill-opacity:1;stroke:#000000;stroke-width:0.101534;stroke-linecap:butt;stroke-linejoin:miter;stroke-miterlimit:4;stroke-dasharray:none;stroke-dashoffset:0;stroke-opacity:1;paint-order:stroke fill markers;stop-color:#000000">
      <path
         d="m -17.436552,-71.399056 c -0.487125,0 -0.938166,-0.126292 -1.353125,-0.378875 -0.414958,-0.252583 -0.746473,-0.590865 -0.994546,-1.014844 -0.243563,-0.428489 -0.365344,-0.895317 -0.365344,-1.400484 l 0.02706,-6.928 c 0,-0.03608 0.01804,-0.05412 0.05412,-0.05412 12.0238333,-0.02679 -2.059985,0 5.283943,0 0.03609,0 0.05413,0.01804 0.05413,0.05412 l 0.02706,6.928 c 0,0.509677 -0.121781,0.97876 -0.365344,1.40725 -0.248073,0.423979 -0.577333,0.76226 -0.987781,1.014843 -0.410448,0.248073 -0.870511,0.37211 -1.380188,0.37211 z"
         style="font-family:Koulen;-inkscape-font-specification:Koulen;font-variation-settings:normal;fill:none;fill-opacity:1;stroke:#000000;stroke-width:0.101534;stroke-linecap:butt;stroke-linejoin:miter;stroke-miterlimit:4;stroke-dasharray:none;stroke-dashoffset:0;stroke-opacity:1;paint-order:stroke fill markers;stop-color:#000000;stop-opacity:1"
         id="path15364"
         sodipodi:nodetypes="csccccccccccc" />
    </g>
    <g
       aria-label=" u"
       transform="matrix(-7.5797965,0.5401729,-0.54782328,-7.6871469,-55.851663,-484.74236)"
       id="g15370"
       style="font-size:13.856px;line-height:0.65;font-family:'Shining NFI Demo';-inkscape-font-specification:'Shining NFI Demo';font-variation-settings:normal;fill:none;fill-opacity:1;stroke:#121212;stroke-width:0.101534;stroke-linecap:butt;stroke-linejoin:miter;stroke-miterlimit:4;stroke-dasharray:none;stroke-dashoffset:0;stroke-opacity:1;paint-order:stroke fill markers;stop-color:#000000">
      <path
         d="m -17.436552,-71.399056 c -0.487125,0 -0.938166,-0.126292 -1.353125,-0.378875 -0.414958,-0.252583 -0.746473,-0.590865 -0.994546,-1.014844 -0.243563,-0.428489 -0.365344,-0.895317 -0.365344,-1.400484 l 0.02706,-6.928 c 0,-0.03608 0.01804,-0.05412 0.05412,-0.05412 12.0238333,-0.02679 -2.059985,0 5.283943,0 0.03609,0 0.05413,0.01804 0.05413,0.05412 l 0.02706,6.928 c 0,0.509677 -0.121781,0.97876 -0.365344,1.40725 -0.248073,0.423979 -0.577333,0.76226 -0.987781,1.014843 -0.410448,0.248073 -0.870511,0.37211 -1.380188,0.37211 z"
         style="font-family:Koulen;-inkscape-font-specification:Koulen;font-variation-settings:normal;fill:none;fill-opacity:1;stroke:#121212;stroke-width:0.101534;stroke-linecap:butt;stroke-linejoin:miter;stroke-miterlimit:4;stroke-dasharray:none;stroke-dashoffset:0;stroke-opacity:1;paint-order:stroke fill markers;stop-color:#000000;stop-opacity:1"
         id="path15368"
         sodipodi:nodetypes="csccccccccccc" />
    </g>
    <g
       aria-label=" u"
       transform="matrix(-7.3708424,1.8481844,-1.8743596,-7.4752333,-159.49226,-444.61632)"
       id="g15374"
       style="font-size:13.856px;line-height:0.65;font-family:'Shining NFI Demo';-inkscape-font-specification:'Shining NFI Demo';font-variation-settings:normal;fill:none;fill-opacity:1;stroke:#0a0a0a;stroke-width:0.101534;stroke-linecap:butt;stroke-linejoin:miter;stroke-miterlimit:4;stroke-dasharray:none;stroke-dashoffset:0;stroke-opacity:1;paint-order:stroke fill markers;stop-color:#000000">
      <path
         d="m -17.436552,-71.399056 c -0.487125,0 -0.938166,-0.126292 -1.353125,-0.378875 -0.414958,-0.252583 -0.746473,-0.590865 -0.994546,-1.014844 -0.243563,-0.428489 -0.365344,-0.895317 -0.365344,-1.400484 l 0.02706,-6.928 c 0,-0.03608 0.01804,-0.05412 0.05412,-0.05412 12.0238333,-0.02679 -2.059985,0 5.283943,0 0.03609,0 0.05413,0.01804 0.05413,0.05412 l 0.02706,6.928 c 0,0.509677 -0.121781,0.97876 -0.365344,1.40725 -0.248073,0.423979 -0.577333,0.76226 -0.987781,1.014843 -0.410448,0.248073 -0.870511,0.37211 -1.380188,0.37211 z"
         style="font-family:Koulen;-inkscape-font-specification:Koulen;font-variation-settings:normal;fill:none;fill-opacity:1;stroke:#0a0a0a;stroke-width:0.101534;stroke-linecap:butt;stroke-linejoin:miter;stroke-miterlimit:4;stroke-dasharray:none;stroke-dashoffset:0;stroke-opacity:1;paint-order:stroke fill markers;stop-color:#000000;stop-opacity:1"
         id="path15372"
         sodipodi:nodetypes="csccccccccccc" />
    </g>
    <g
       aria-label=" u"
       transform="matrix(-6.9379288,3.1000396,-3.1439445,-7.0361886,-255.15004,-387.44234)"
       id="g15378"
       style="font-size:13.856px;line-height:0.65;font-family:'Shining NFI Demo';-inkscape-font-specification:'Shining NFI Demo';font-variation-settings:normal;fill:none;fill-opacity:1;stroke:#000000;stroke-width:0.101534;stroke-linecap:butt;stroke-linejoin:miter;stroke-miterlimit:4;stroke-dasharray:none;stroke-dashoffset:0;stroke-opacity:1;paint-order:stroke fill markers;stop-color:#000000">
      <path
         d="m -17.436552,-71.399056 c -0.487125,0 -0.938166,-0.126292 -1.353125,-0.378875 -0.414958,-0.252583 -0.746473,-0.590865 -0.994546,-1.014844 -0.243563,-0.428489 -0.365344,-0.895317 -0.365344,-1.400484 l 0.02706,-6.928 c 0,-0.03608 0.01804,-0.05412 0.05412,-0.05412 12.0238333,-0.02679 -2.059985,0 5.283943,0 0.03609,0 0.05413,0.01804 0.05413,0.05412 l 0.02706,6.928 c 0,0.509677 -0.121781,0.97876 -0.365344,1.40725 -0.248073,0.423979 -0.577333,0.76226 -0.987781,1.014843 -0.410448,0.248073 -0.870511,0.37211 -1.380188,0.37211 z"
         style="font-family:Koulen;-inkscape-font-specification:Koulen;font-variation-settings:normal;fill:none;fill-opacity:1;stroke:#000000;stroke-width:0.101534;stroke-linecap:butt;stroke-linejoin:miter;stroke-miterlimit:4;stroke-dasharray:none;stroke-dashoffset:0;stroke-opacity:1;paint-order:stroke fill markers;stop-color:#000000;stop-opacity:1"
         id="path15376"
         sodipodi:nodetypes="csccccccccccc" />
    </g>
    <path
       d="m 90.298192,60.880879 c 3.379633,-1.510107 6.905981,-2.019735 10.579038,-1.528904 3.67306,0.490831 7.03663,1.843338 10.09071,4.0575 3.03697,2.259874 5.34955,5.167037 6.93777,8.721491 l 21.59351,48.830604 c 0.11345,0.25386 0.045,0.43673 -0.20533,0.54857 -83.336271,37.46285 14.29203,-6.38604 -36.65962,16.38043 -0.25039,0.11186 -0.43227,0.0409 -0.5457,-0.21299 L 80.119584,89.014746 c -1.602402,-3.586177 -2.232265,-7.264258 -1.889589,-11.034254 0.388151,-3.752233 1.608989,-7.153157 3.662542,-10.202781 2.067734,-3.0179 4.869651,-5.316855 8.405757,-6.896878 z"
       style="font-size:13.856px;line-height:0.65;font-family:Koulen;-inkscape-font-specification:Koulen;font-variation-settings:normal;fill:none;fill-opacity:1;stroke:#050505;stroke-width:0.777003;stroke-linecap:butt;stroke-linejoin:miter;stroke-miterlimit:4;stroke-dasharray:none;stroke-dashoffset:0;stroke-opacity:1;paint-order:stroke fill markers;stop-color:#000000"
       id="path15380"
       sodipodi:nodetypes="csccccccccccc" />
    <g
       aria-label=" u"
       transform="matrix(-6.2942099,4.2577017,-4.3180023,-6.3833528,-339.04759,-313.90496)"
       id="g15384"
       style="font-size:13.856px;line-height:0.65;font-family:'Shining NFI Demo';-inkscape-font-specification:'Shining NFI Demo';font-variation-settings:normal;fill:none;fill-opacity:1;stroke:#000000;stroke-width:0.101534;stroke-linecap:butt;stroke-linejoin:miter;stroke-miterlimit:4;stroke-dasharray:none;stroke-dashoffset:0;stroke-opacity:0.975601;paint-order:stroke fill markers;stop-color:#000000">
      <path
         d="m -17.436552,-71.399056 c -0.487125,0 -0.938166,-0.126292 -1.353125,-0.378875 -0.414958,-0.252583 -0.746473,-0.590865 -0.994546,-1.014844 -0.243563,-0.428489 -0.365344,-0.895317 -0.365344,-1.400484 l 0.02706,-6.928 c 0,-0.03608 0.01804,-0.05412 0.05412,-0.05412 12.0238333,-0.02679 -2.059985,0 5.283943,0 0.03609,0 0.05413,0.01804 0.05413,0.05412 l 0.02706,6.928 c 0,0.509677 -0.121781,0.97876 -0.365344,1.40725 -0.248073,0.423979 -0.577333,0.76226 -0.987781,1.014843 -0.410448,0.248073 -0.870511,0.37211 -1.380188,0.37211 z"
         style="font-family:Koulen;-inkscape-font-specification:Koulen;font-variation-settings:normal;fill:none;fill-opacity:1;stroke:#000000;stroke-width:0.101534;stroke-linecap:butt;stroke-linejoin:miter;stroke-miterlimit:4;stroke-dasharray:none;stroke-dashoffset:0;stroke-opacity:0.975601;paint-order:stroke fill markers;stop-color:#000000;stop-opacity:1"
         id="path15382"
         sodipodi:nodetypes="csccccccccccc" />
    </g>
    <path
       d="m 66.773885,74.193881 c 2.72395,-2.637488 5.939616,-4.363426 9.646978,-5.177769 3.707365,-0.814334 7.418713,-0.690877 11.134022,0.370366 3.714869,1.111252 6.959249,3.0993 9.733191,5.964143 l 37.891144,39.435819 c 0.19812,0.20462 0.19629,0.4046 -0.005,0.59995 -67.088884,65.25419 11.51921,-11.15366 -29.54724,28.60955 -0.20182,0.19541 -0.40177,0.19075 -0.59988,-0.0138 l -38.193778,-39.1428 c -2.798697,-2.89042 -4.693491,-6.210006 -5.684414,-9.958765 -0.940728,-3.747654 -0.957267,-7.448776 -0.04904,-11.103541 0.932975,-3.629197 2.824493,-6.823588 5.674556,-9.583206 z"
       style="font-size:13.856px;line-height:0.65;font-family:Koulen;-inkscape-font-specification:Koulen;font-variation-settings:normal;fill:#fcffff;fill-opacity:1;stroke:#ffffff;stroke-width:3.35662;stroke-linecap:butt;stroke-linejoin:miter;stroke-miterlimit:4;stroke-dasharray:none;stroke-dashoffset:0;stroke-opacity:1;paint-order:stroke fill markers;stop-color:#000000"
       id="path15386"
       sodipodi:nodetypes="csccccccccccc" />
    <path
       d="m 84.45982,60.495117 c 2.659333,-2.574934 5.798709,-4.259918 9.418139,-5.054945 3.619421,-0.795024 7.242721,-0.674491 10.869901,0.36158 3.62674,1.084884 6.79417,3.025771 9.5023,5.822661 l 36.99231,38.500337 c 0.19342,0.19976 0.19162,0.395 -0.005,0.58572 -65.497429,63.70625 11.24596,-10.889078 -28.84634,27.9309 -0.19703,0.19077 -0.39221,0.18628 -0.58564,-0.0135 L 84.517408,90.4136 c -2.732307,-2.821859 -4.58216,-6.062703 -5.549569,-9.722531 -0.918434,-3.658746 -0.934561,-7.272082 -0.04789,-10.840152 0.91085,-3.543101 2.757498,-6.661724 5.539955,-9.355873 z"
       style="font-size:13.856px;line-height:0.65;font-family:Koulen;-inkscape-font-specification:Koulen;font-variation-settings:normal;fill:#ffffff;fill-opacity:1;stroke:#000000;stroke-width:3.277;stroke-linecap:butt;stroke-linejoin:miter;stroke-miterlimit:4;stroke-dasharray:none;stroke-dashoffset:0;stroke-opacity:1;paint-order:stroke fill markers;stop-color:#000000"
       id="path15390"
       sodipodi:nodetypes="csccccccccccc" />
    <path
       d="m 52.890743,90.534297 c 2.659331,-2.574944 5.798709,-4.259918 9.41813,-5.054943 3.619418,-0.795034 7.242721,-0.674501 10.869904,0.36158 3.626739,1.084884 6.794178,3.025769 9.502307,5.822658 l 36.992306,38.500338 c 0.19341,0.19976 0.19163,0.395 -0.005,0.58571 -65.497435,63.70627 11.24595,-10.88907 -28.846345,27.93091 -0.197019,0.19077 -0.39221,0.18628 -0.585641,-0.0135 L 52.948331,120.45278 c -2.732308,-2.82186 -4.58217,-6.0627 -5.549571,-9.72254 -0.918432,-3.65874 -0.934571,-7.27208 -0.0479,-10.840141 0.91085,-3.543101 2.757506,-6.661736 5.539952,-9.355882 z"
       style="font-size:13.856px;line-height:0.65;font-family:Koulen;-inkscape-font-specification:Koulen;font-variation-settings:normal;fill:#fffcfc;fill-opacity:1;stroke:#000000;stroke-width:3.277;stroke-linecap:butt;stroke-linejoin:miter;stroke-miterlimit:4;stroke-dasharray:none;stroke-dashoffset:0;stroke-opacity:1;paint-order:stroke fill markers;stop-color:#000000"
       id="path15392"
       sodipodi:nodetypes="csccccccccccc" />
    <g
       id="g22194"
       transform="matrix(0.54906618,0,0,0.54906618,300.84899,330.01942)">
      <g
         id="g22182">
        <g
           style="fill:currentColor"
           id="g22176"
           transform="matrix(2.1111505,0,0,2.1111505,84.724438,67.208144)" />
        <g
           style="fill:currentColor"
           id="g22180"
           transform="matrix(2.1111505,0,0,2.1111505,107.8765,62.344557)" />
      </g>
      <g
         id="g22192"
         transform="translate(9.0206527,28.081346)">
        <g
           style="fill:currentColor"
           id="g22186"
           transform="matrix(2.1111505,0,0,2.1111505,84.724438,67.208144)" />
        <g
           style="fill:currentColor"
           id="g22190"
           transform="matrix(2.1111505,0,0,2.1111505,107.8765,62.344557)" />
      </g>
    </g>
    <g
       id="g22216"
       transform="matrix(0.54906618,0,0,0.54906618,321.12522,308.88729)">
      <g
         id="g22204">
        <g
           style="fill:currentColor"
           id="g22198"
           transform="matrix(2.1111505,0,0,2.1111505,84.724438,67.208144)" />
        <g
           style="fill:currentColor"
           id="g22202"
           transform="matrix(2.1111505,0,0,2.1111505,107.8765,62.344557)" />
      </g>
      <g
         id="g22214"
         transform="translate(9.0206527,28.081346)">
        <g
           style="fill:currentColor"
           id="g22208"
           transform="matrix(2.1111505,0,0,2.1111505,84.724438,67.208144)" />
        <g
           style="fill:currentColor"
           id="g22212"
           transform="matrix(2.1111505,0,0,2.1111505,107.8765,62.344557)" />
      </g>
    </g>
    <g
       id="g22238"
       transform="matrix(0.54906618,0,0,0.54906618,331.02719,339.7433)">
      <g
         id="g22226">
        <g
           style="fill:currentColor"
           id="g22220"
           transform="matrix(2.1111505,0,0,2.1111505,84.724438,67.208144)" />
        <g
           style="fill:currentColor"
           id="g22224"
           transform="matrix(2.1111505,0,0,2.1111505,107.8765,62.344557)" />
      </g>
      <g
         id="g22236"
         transform="translate(9.0206527,28.081346)">
        <g
           style="fill:currentColor"
           id="g22230"
           transform="matrix(2.1111505,0,0,2.1111505,84.724438,67.208144)" />
        <g
           style="fill:currentColor"
           id="g22234"
           transform="matrix(2.1111505,0,0,2.1111505,107.8765,62.344557)" />
      </g>
    </g>
    <g
       id="g22260"
       transform="matrix(0.54906618,0,0,0.54906618,310.70301,360.76997)">
      <g
         id="g22248">
        <g
           style="fill:currentColor"
           id="g22242"
           transform="matrix(2.1111505,0,0,2.1111505,84.724438,67.208144)" />
        <g
           style="fill:currentColor"
           id="g22246"
           transform="matrix(2.1111505,0,0,2.1111505,107.8765,62.344557)" />
      </g>
      <g
         id="g22258"
         transform="translate(9.0206527,28.081346)">
        <g
           style="fill:currentColor"
           id="g22252"
           transform="matrix(2.1111505,0,0,2.1111505,84.724438,67.208144)" />
        <g
           style="fill:currentColor"
           id="g22256"
           transform="matrix(2.1111505,0,0,2.1111505,107.8765,62.344557)" />
      </g>
    </g>
    <g
       id="g22306"
       transform="matrix(0.54906618,0,0,0.54906618,275.55785,335.59228)">
      <g
         id="g22282">
        <g
           id="g22270">
          <g
             style="fill:currentColor"
             id="g22264"
             transform="matrix(2.1111505,0,0,2.1111505,84.724438,67.208144)" />
          <g
             style="fill:currentColor"
             id="g22268"
             transform="matrix(2.1111505,0,0,2.1111505,107.8765,62.344557)" />
        </g>
        <g
           id="g22280"
           transform="translate(9.0206527,28.081346)">
          <g
             style="fill:currentColor"
             id="g22274"
             transform="matrix(2.1111505,0,0,2.1111505,84.724438,67.208144)" />
          <g
             style="fill:currentColor"
             id="g22278"
             transform="matrix(2.1111505,0,0,2.1111505,107.8765,62.344557)" />
        </g>
      </g>
      <g
         id="g22304"
         transform="translate(17.946871,56.005189)">
        <g
           id="g22292">
          <g
             style="fill:currentColor"
             id="g22286"
             transform="matrix(2.1111505,0,0,2.1111505,84.724438,67.208144)" />
          <g
             style="fill:currentColor"
             id="g22290"
             transform="matrix(2.1111505,0,0,2.1111505,107.8765,62.344557)" />
        </g>
        <g
           id="g22302"
           transform="translate(9.0206527,28.081346)">
          <g
             style="fill:currentColor"
             id="g22296"
             transform="matrix(2.1111505,0,0,2.1111505,84.724438,67.208144)" />
          <g
             style="fill:currentColor"
             id="g22300"
             transform="matrix(2.1111505,0,0,2.1111505,107.8765,62.344557)" />
        </g>
      </g>
    </g>
    <g
       id="g22328"
       transform="matrix(0.54906618,0,0,0.54906618,278.20246,301.85239)">
      <g
         id="g22316">
        <g
           style="fill:currentColor"
           id="g22310"
           transform="matrix(2.1111505,0,0,2.1111505,84.724438,67.208144)" />
        <g
           style="fill:currentColor"
           id="g22314"
           transform="matrix(2.1111505,0,0,2.1111505,107.8765,62.344557)" />
      </g>
      <g
         id="g22326"
         transform="translate(9.0206527,28.081346)">
        <g
           style="fill:currentColor"
           id="g22320"
           transform="matrix(2.1111505,0,0,2.1111505,84.724438,67.208144)" />
        <g
           style="fill:currentColor"
           id="g22324"
           transform="matrix(2.1111505,0,0,2.1111505,107.8765,62.344557)" />
      </g>
    </g>
    <g
       id="g22768"
       transform="matrix(0.54906618,0,0,0.54906618,435.89412,331.05147)">
      <g
         id="g22760">
        <g
           style="fill:currentColor"
           id="g22756"
           transform="matrix(2.1111505,0,0,2.1111505,84.724438,67.208144)" />
        <g
           style="fill:currentColor"
           id="g22758"
           transform="matrix(2.1111505,0,0,2.1111505,107.8765,62.344557)" />
      </g>
      <g
         id="g22766"
         transform="translate(9.0206527,28.081346)">
        <g
           style="fill:currentColor"
           id="g22762"
           transform="matrix(2.1111505,0,0,2.1111505,84.724438,67.208144)" />
        <g
           style="fill:currentColor"
           id="g22764"
           transform="matrix(2.1111505,0,0,2.1111505,107.8765,62.344557)" />
      </g>
    </g>
    <g
       id="g22782"
       transform="matrix(0.54906618,0,0,0.54906618,456.17035,309.91934)">
      <g
         id="g22774">
        <g
           style="fill:currentColor"
           id="g22770"
           transform="matrix(2.1111505,0,0,2.1111505,84.724438,67.208144)" />
        <g
           style="fill:currentColor"
           id="g22772"
           transform="matrix(2.1111505,0,0,2.1111505,107.8765,62.344557)" />
      </g>
      <g
         id="g22780"
         transform="translate(9.0206527,28.081346)">
        <g
           style="fill:currentColor"
           id="g22776"
           transform="matrix(2.1111505,0,0,2.1111505,84.724438,67.208144)" />
        <g
           style="fill:currentColor"
           id="g22778"
           transform="matrix(2.1111505,0,0,2.1111505,107.8765,62.344557)" />
      </g>
    </g>
    <g
       id="g22796"
       transform="matrix(0.54906618,0,0,0.54906618,466.07232,340.77535)">
      <g
         id="g22788">
        <g
           style="fill:currentColor"
           id="g22784"
           transform="matrix(2.1111505,0,0,2.1111505,84.724438,67.208144)" />
        <g
           style="fill:currentColor"
           id="g22786"
           transform="matrix(2.1111505,0,0,2.1111505,107.8765,62.344557)" />
      </g>
      <g
         id="g22794"
         transform="translate(9.0206527,28.081346)">
        <g
           style="fill:currentColor"
           id="g22790"
           transform="matrix(2.1111505,0,0,2.1111505,84.724438,67.208144)" />
        <g
           style="fill:currentColor"
           id="g22792"
           transform="matrix(2.1111505,0,0,2.1111505,107.8765,62.344557)" />
      </g>
    </g>
    <g
       id="g22810"
       transform="matrix(0.54906618,0,0,0.54906618,445.74814,361.80202)">
      <g
         id="g22802">
        <g
           style="fill:currentColor"
           id="g22798"
           transform="matrix(2.1111505,0,0,2.1111505,84.724438,67.208144)" />
        <g
           style="fill:currentColor"
           id="g22800"
           transform="matrix(2.1111505,0,0,2.1111505,107.8765,62.344557)" />
      </g>
      <g
         id="g22808"
         transform="translate(9.0206527,28.081346)">
        <g
           style="fill:currentColor"
           id="g22804"
           transform="matrix(2.1111505,0,0,2.1111505,84.724438,67.208144)" />
        <g
           style="fill:currentColor"
           id="g22806"
           transform="matrix(2.1111505,0,0,2.1111505,107.8765,62.344557)" />
      </g>
    </g>
    <g
       id="g22840"
       transform="matrix(0.54906618,0,0,0.54906618,410.60298,336.62433)">
      <g
         id="g22824">
        <g
           id="g22816">
          <g
             style="fill:currentColor"
             id="g22812"
             transform="matrix(2.1111505,0,0,2.1111505,84.724438,67.208144)" />
          <g
             style="fill:currentColor"
             id="g22814"
             transform="matrix(2.1111505,0,0,2.1111505,107.8765,62.344557)" />
        </g>
        <g
           id="g22822"
           transform="translate(9.0206527,28.081346)">
          <g
             style="fill:currentColor"
             id="g22818"
             transform="matrix(2.1111505,0,0,2.1111505,84.724438,67.208144)" />
          <g
             style="fill:currentColor"
             id="g22820"
             transform="matrix(2.1111505,0,0,2.1111505,107.8765,62.344557)" />
        </g>
      </g>
      <g
         id="g22838"
         transform="translate(17.946871,56.005189)">
        <g
           id="g22830">
          <g
             style="fill:currentColor"
             id="g22826"
             transform="matrix(2.1111505,0,0,2.1111505,84.724438,67.208144)" />
          <g
             style="fill:currentColor"
             id="g22828"
             transform="matrix(2.1111505,0,0,2.1111505,107.8765,62.344557)" />
        </g>
        <g
           id="g22836"
           transform="translate(9.0206527,28.081346)">
          <g
             style="fill:currentColor"
             id="g22832"
             transform="matrix(2.1111505,0,0,2.1111505,84.724438,67.208144)" />
          <g
             style="fill:currentColor"
             id="g22834"
             transform="matrix(2.1111505,0,0,2.1111505,107.8765,62.344557)" />
        </g>
      </g>
    </g>
    <g
       id="g22854"
       transform="matrix(0.54906618,0,0,0.54906618,413.24759,302.88444)">
      <g
         id="g22846">
        <g
           style="fill:currentColor"
           id="g22842"
           transform="matrix(2.1111505,0,0,2.1111505,84.724438,67.208144)" />
        <g
           style="fill:currentColor"
           id="g22844"
           transform="matrix(2.1111505,0,0,2.1111505,107.8765,62.344557)" />
      </g>
      <g
         id="g22852"
         transform="translate(9.0206527,28.081346)">
        <g
           style="fill:currentColor"
           id="g22848"
           transform="matrix(2.1111505,0,0,2.1111505,84.724438,67.208144)" />
        <g
           style="fill:currentColor"
           id="g22850"
           transform="matrix(2.1111505,0,0,2.1111505,107.8765,62.344557)" />
      </g>
    </g>
    <g
       id="g22860"
       transform="matrix(0.54906618,0,0,0.54906618,438.59962,297.34499)">
      <g
         style="fill:currentColor"
         id="g22856"
         transform="matrix(2.1111505,0,0,2.1111505,84.724438,67.208144)" />
      <g
         style="fill:currentColor"
         id="g22858"
         transform="matrix(2.1111505,0,0,2.1111505,107.8765,62.344557)" />
    </g>
    <g
       id="g22992"
       transform="matrix(0.54906618,0,0,0.54906618,183.45858,321.84625)">
      <g
         id="g22984">
        <g
           style="fill:currentColor"
           id="g22980"
           transform="matrix(2.1111505,0,0,2.1111505,84.724438,67.208144)" />
        <g
           style="fill:currentColor"
           id="g22982"
           transform="matrix(2.1111505,0,0,2.1111505,107.8765,62.344557)" />
      </g>
      <g
         id="g22990"
         transform="translate(9.0206527,28.081346)">
        <g
           style="fill:currentColor"
           id="g22986"
           transform="matrix(2.1111505,0,0,2.1111505,84.724438,67.208144)" />
        <g
           style="fill:currentColor"
           id="g22988"
           transform="matrix(2.1111505,0,0,2.1111505,107.8765,62.344557)" />
      </g>
    </g>
    <g
       id="g23006"
       transform="matrix(0.54906618,0,0,0.54906618,203.73481,300.71412)">
      <g
         id="g22998">
        <g
           style="fill:currentColor"
           id="g22994"
           transform="matrix(2.1111505,0,0,2.1111505,84.724438,67.208144)" />
        <g
           style="fill:currentColor"
           id="g22996"
           transform="matrix(2.1111505,0,0,2.1111505,107.8765,62.344557)" />
      </g>
      <g
         id="g23004"
         transform="translate(9.0206527,28.081346)">
        <g
           style="fill:currentColor"
           id="g23000"
           transform="matrix(2.1111505,0,0,2.1111505,84.724438,67.208144)" />
        <g
           style="fill:currentColor"
           id="g23002"
           transform="matrix(2.1111505,0,0,2.1111505,107.8765,62.344557)" />
      </g>
    </g>
    <g
       id="g23020"
       transform="matrix(0.54906618,0,0,0.54906618,213.63678,331.57013)">
      <g
         id="g23012">
        <g
           style="fill:currentColor"
           id="g23008"
           transform="matrix(2.1111505,0,0,2.1111505,84.724438,67.208144)" />
        <g
           style="fill:currentColor"
           id="g23010"
           transform="matrix(2.1111505,0,0,2.1111505,107.8765,62.344557)" />
      </g>
      <g
         id="g23018"
         transform="translate(9.0206527,28.081346)">
        <g
           style="fill:currentColor"
           id="g23014"
           transform="matrix(2.1111505,0,0,2.1111505,84.724438,67.208144)" />
        <g
           style="fill:currentColor"
           id="g23016"
           transform="matrix(2.1111505,0,0,2.1111505,107.8765,62.344557)" />
      </g>
    </g>
    <g
       id="g23034"
       transform="matrix(0.54906618,0,0,0.54906618,193.3126,352.5968)">
      <g
         id="g23026">
        <g
           style="fill:currentColor"
           id="g23022"
           transform="matrix(2.1111505,0,0,2.1111505,84.724438,67.208144)" />
        <g
           style="fill:currentColor"
           id="g23024"
           transform="matrix(2.1111505,0,0,2.1111505,107.8765,62.344557)" />
      </g>
      <g
         id="g23032"
         transform="translate(9.0206527,28.081346)">
        <g
           style="fill:currentColor"
           id="g23028"
           transform="matrix(2.1111505,0,0,2.1111505,84.724438,67.208144)" />
        <g
           style="fill:currentColor"
           id="g23030"
           transform="matrix(2.1111505,0,0,2.1111505,107.8765,62.344557)" />
      </g>
    </g>
    <g
       id="g23064"
       transform="matrix(0.54906618,0,0,0.54906618,158.16744,327.41911)">
      <g
         id="g23048">
        <g
           id="g23040">
          <g
             style="fill:currentColor"
             id="g23036"
             transform="matrix(2.1111505,0,0,2.1111505,84.724438,67.208144)" />
          <g
             style="fill:currentColor"
             id="g23038"
             transform="matrix(2.1111505,0,0,2.1111505,107.8765,62.344557)" />
        </g>
        <g
           id="g23046"
           transform="translate(9.0206527,28.081346)">
          <g
             style="fill:currentColor"
             id="g23042"
             transform="matrix(2.1111505,0,0,2.1111505,84.724438,67.208144)" />
          <g
             style="fill:currentColor"
             id="g23044"
             transform="matrix(2.1111505,0,0,2.1111505,107.8765,62.344557)" />
        </g>
      </g>
      <g
         id="g23062"
         transform="translate(17.946871,56.005189)">
        <g
           id="g23054">
          <g
             style="fill:currentColor"
             id="g23050"
             transform="matrix(2.1111505,0,0,2.1111505,84.724438,67.208144)" />
          <g
             style="fill:currentColor"
             id="g23052"
             transform="matrix(2.1111505,0,0,2.1111505,107.8765,62.344557)" />
        </g>
        <g
           id="g23060"
           transform="translate(9.0206527,28.081346)">
          <g
             style="fill:currentColor"
             id="g23056"
             transform="matrix(2.1111505,0,0,2.1111505,84.724438,67.208144)" />
          <g
             style="fill:currentColor"
             id="g23058"
             transform="matrix(2.1111505,0,0,2.1111505,107.8765,62.344557)" />
        </g>
      </g>
    </g>
    <g
       id="g23078"
       transform="matrix(0.54906618,0,0,0.54906618,160.81205,293.67922)">
      <g
         id="g23070">
        <g
           style="fill:currentColor"
           id="g23066"
           transform="matrix(2.1111505,0,0,2.1111505,84.724438,67.208144)" />
        <g
           style="fill:currentColor"
           id="g23068"
           transform="matrix(2.1111505,0,0,2.1111505,107.8765,62.344557)" />
      </g>
      <g
         id="g23076"
         transform="translate(9.0206527,28.081346)">
        <g
           style="fill:currentColor"
           id="g23072"
           transform="matrix(2.1111505,0,0,2.1111505,84.724438,67.208144)" />
        <g
           style="fill:currentColor"
           id="g23074"
           transform="matrix(2.1111505,0,0,2.1111505,107.8765,62.344557)" />
      </g>
    </g>
    <path
       id="path24540"
       style="font-size:13.856px;line-height:0.65;font-family:Koulen;-inkscape-font-specification:Koulen;font-variation-settings:normal;fill:#000000;fill-opacity:1;stroke:#000000;stroke-width:3.277;stroke-linecap:butt;stroke-linejoin:miter;stroke-miterlimit:4;stroke-dasharray:none;stroke-dashoffset:0;stroke-opacity:1;paint-order:stroke fill markers;stop-color:#000000"
       d="m 61.291735,89.70059 9.726022,5.34437 c 0.291931,0.164764 0.469042,0.477243 0.460436,0.81235 2.7e-4,-0.0062 6.03e-4,-0.0124 10e-4,-0.0186 l -10e-4,-0.001 c 0.114448,-0.405243 0.492993,-0.678229 0.913641,-0.65887 l 15.06988,0.69091 -4.527888,-4.71237 c -2.708132,-2.796901 -5.875523,-4.738016 -9.502264,-5.822914 -0.14922,-0.04262 -0.29831,-0.06019 -0.447517,-0.09972 -8.453409,-0.880071 -5.926357,-1.123691 -11.69231,4.465844 z m -12.260233,5.96656 c -0.588021,1.18809 -1.092878,2.41369 -1.427819,3.716582 -0.211127,0.849568 -0.363564,1.702188 -0.472324,2.556928 l 6.628019,3.64165 c 0.119192,0.0653 0.222159,0.15664 0.301273,0.26717 0.106035,0.14885 0.164581,0.32629 0.16795,0.50901 0.120092,-0.39516 0.492209,-0.65911 0.904854,-0.64183 l 21.130492,0.96893 c 0.794011,0.0353 1.161004,1.00298 0.590145,1.55599 l -4.323767,4.19148 9.726022,5.34384 c 0.2666,0.15407 0.43671,0.43299 0.451652,0.74054 0.119802,-0.39401 0.490239,-0.65767 0.901752,-0.64183 l 21.131009,0.96894 c 0.79374,0.0358 1.1603,1.00312 0.58963,1.55596 l -4.32377,4.19147 9.72602,5.34387 c 0.15484,0.0931 0.2783,0.23044 0.35451,0.39428 0.12061,-0.3924 0.48997,-0.65468 0.9002,-0.63923 l 8.02845,0.36796 c 0.0494,-0.13195 0.0419,-0.2649 -0.0899,-0.40103 l -9.14104,-9.51415 -4.46536,-0.20463 c -0.79377,-0.0358 -1.16035,-1.00315 -0.58963,-1.55599 l 1.74098,-1.68775 -7.736999,-8.05273 c -0.177879,0.1956 -0.432318,0.30376 -0.696596,0.2961 l -21.131011,-0.96893 c -0.793735,-0.0358 -1.160296,-1.00312 -0.589627,-1.55596 L 81.640385,102.22231 71.915397,96.88 c -0.325294,-0.187744 -0.501041,-0.556711 -0.441835,-0.9276 -0.05895,0.465857 -0.464041,0.809484 -0.933276,0.79168 L 49.409258,95.77515 c -0.132302,-0.0079 -0.261252,-0.0448 -0.377756,-0.108 z m 42.549341,4.49017 -1.792655,1.73786 7.334435,4.02973 z m -37.369295,6.39857 c -0.0043,0.0222 -0.0095,0.0443 -0.0155,0.0662 -0.114096,0.40585 -0.493026,0.67939 -0.914157,0.6599 l -6.182566,-0.28372 c 0.113866,1.07178 0.280876,2.14599 0.551902,3.22567 0.628484,2.37765 1.669331,4.55959 3.042709,6.58358 l 8.291486,0.38033 c 0.793746,0.0358 1.160312,1.00313 0.589626,1.55597 l -3.878315,3.75999 1.421617,1.45727 7.859469,4.31808 c 0.290472,0.16375 0.467534,0.47381 0.460954,0.80719 1.41e-4,-0.004 3.13e-4,-0.009 5.16e-4,-0.0129 l -0.0016,-0.002 c 0.114686,-0.40523 0.493465,-0.67802 0.914157,-0.65836 l 21.130493,0.96893 c 0.793759,0.0358 1.160332,1.00314 0.589629,1.55598 l -4.323768,4.19148 9.726022,5.34384 c 0.214588,0.12335 0.369375,0.32912 0.428398,0.56949 0.12496,-0.38247 0.487177,-0.63672 0.889352,-0.62426 l 14.008448,0.64233 c 2.05298,-1.99808 0.50372,-0.49 7.3303,-7.13081 l -4.61987,-2.53836 c -0.15449,-0.0929 -0.27775,-0.22987 -0.35399,-0.39325 -0.12171,0.39194 -0.49167,0.65314 -0.90175,0.63664 l -21.130495,-0.96893 c -0.793734,-0.0358 -1.160295,-1.00312 -0.589626,-1.55596 l 4.323249,-4.19148 -9.724469,-5.34283 c -0.332,-0.19465 -0.504818,-0.57779 -0.430983,-0.95549 -0.02701,0.48766 -0.435678,0.86616 -0.923975,0.85577 L 60.647848,118.5076 c -0.793736,-0.0358 -1.1603,-1.00312 -0.58963,-1.55596 l 4.323768,-4.19148 -9.724988,-5.34284 c -0.302584,-0.17683 -0.476058,-0.5123 -0.44545,-0.86143 z m 11.221538,22.63532 c -0.0609,0.464 -0.465123,0.80528 -0.932762,0.78753 l -1.58078,-0.0723 8.947774,9.16946 3.733105,-3.61889 -9.724988,-5.34284 c -0.32371,-0.18694 -0.499393,-0.55349 -0.442349,-0.92292 z m 8.608258,12.11294 9.69605,9.93685 13.86427,0.63564 c 1.450732,-1.39809 5.378776,-5.20079 5.250846,-5.06741 l -8.536434,-4.68963 c -0.213759,-0.13382 -0.362074,-0.35067 -0.409278,-0.59841 -0.116686,0.40121 -0.492595,0.67061 -0.910022,0.65217 z m 28.814776,5.50717 c -0.639,0.63497 -2.956489,2.89523 -5.185209,5.06841 l 0.0078,5.3e-4 c -1.165535,1.13512 5.516179,-5.36588 5.198649,-5.05706 z"
       sodipodi:nodetypes="cccccccccccccccccccccccccccccccccccccccccccccccccccccccccccccccccccccccccccccccccccccccccccccscccccccccccccc" />
    <g
       style="fill:currentColor"
       id="g24522"
       transform="matrix(1.0920698,-1.4461648,1.4461648,1.0920698,262.4379,432.93962)" />
    <path
       id="path24520"
       style="font-size:13.856px;line-height:0.65;font-family:Koulen;-inkscape-font-specification:Koulen;font-variation-settings:normal;fill:#ffffff;fill-opacity:1;stroke:#000000;stroke-width:3.277;stroke-linecap:butt;stroke-linejoin:miter;stroke-miterlimit:4;stroke-dasharray:none;stroke-dashoffset:0;stroke-opacity:1;paint-order:stroke fill markers;stop-color:#000000"
       d="m 93.557036,56.017793 c -0.147796,0.02942 -0.295646,0.0368 -0.443389,0.06924 -3.287604,0.722154 -6.158272,2.217367 -8.653743,4.408011 a 0.90609175,0.90609175 0 0 1 -0.195336,0.359145 0.90609175,0.90609175 0 0 1 -0.324012,0.231511 0.90609175,0.90609175 0 0 1 0.352949,0.02016 0.90609175,0.90609175 0 0 1 0.489892,0.342609 l 6.496238,8.995331 3.629236,-4.805919 a 0.90609175,0.90609175 0 0 1 1.616446,0.394283 l 3.555873,20.851971 a 0.90609175,0.90609175 0 0 1 -0.732795,1.021635 0.90609175,0.90609175 0 0 1 0.998405,0.311097 l 6.49623,8.995304 3.62871,-4.805885 a 0.90609175,0.90609175 0 0 1 1.61697,0.39428 l 3.55585,20.851964 a 0.90609175,0.90609175 0 0 1 -0.52192,0.97306 0.90609175,0.90609175 0 0 1 0.43407,0.30334 l 6.49624,8.99531 3.62924,-4.80589 a 0.90609175,0.90609175 0 0 1 1.61644,0.39428 l 0.62995,3.69485 c 4.59838,-4.43317 4.07416,-3.89781 0.0108,0.0636 l 0.001,0.006 c -1.38383,1.34776 6.25022,-6.08018 6.02805,-5.86425 l -2.70423,-3.74396 -3.62923,4.80592 a 0.90609175,0.90609175 0 0 1 -1.61645,-0.39431 l -3.55584,-20.851949 a 0.90609175,0.90609175 0 0 1 0.51054,-0.95964 0.90609175,0.90609175 0 0 1 -0.61804,-0.35502 l -6.49727,-8.996334 -3.62923,4.805389 a 0.90609175,0.90609175 0 0 1 -1.61645,-0.39378 l -3.55587,-20.851944 a 0.90609175,0.90609175 0 0 1 0.54158,-0.98806 l 0.001,0.001 a 0.90609175,0.90609175 0 0 1 0.0119,-0.0026 0.90609175,0.90609175 0 0 1 -0.85627,-0.357584 l -6.49779,-8.996362 -3.62871,4.805389 a 0.90609175,0.90609175 0 0 1 -1.616974,-0.394283 z m 12.937694,1.359615 1.88775,11.069611 a 0.90609175,0.90609175 0 0 1 -0.63254,1.007692 0.90609175,0.90609175 0 0 1 0.44599,-0.0021 0.90609175,0.90609175 0 0 1 0.48987,0.342609 l 6.49626,8.995304 3.62871,-4.805389 a 0.90609175,0.90609175 0 0 1 1.61695,0.393779 l 3.55587,20.851967 a 0.90609175,0.90609175 0 0 1 -0.53536,0.9834 0.90609175,0.90609175 0 0 1 0.64439,0.33226 l 6.49573,8.995329 3.62924,-4.80541 a 0.90609175,0.90609175 0 0 1 1.61645,0.39431 l 2.11613,12.40853 c 1.55398,-1.5127 0.84913,-0.82582 8.42844,-8.19899 a 0.90609175,0.90609175 0 0 1 0.51313,-0.73948 0.90609175,0.90609175 0 0 1 -0.79065,-0.35708 l -6.49777,-8.996339 -3.62874,4.805389 a 0.90609175,0.90609175 0 0 1 -1.61695,-0.394309 l -3.24736,-19.0443 -9.00202,-9.368922 -1.55806,2.062903 a 0.90609175,0.90609175 0 0 1 -1.61641,-0.394246 l -1.03095,-6.044591 -4.4173,-4.597665 c -2.06261,-2.130187 -4.39534,-3.757163 -6.9908,-4.894262 z m -22.584146,3.715543 a 0.90609175,0.90609175 0 0 1 -0.197921,0.03461 c -0.0055,0.0053 -0.01161,0.0092 -0.01705,0.01447 l 0.0015,10e-4 a 0.90609175,0.90609175 0 0 1 0.213426,-0.05011 z m -0.713652,0.596847 c -2.486912,2.570216 -4.190103,5.496216 -5.041554,8.808244 -0.886669,3.568092 -0.870381,7.181427 0.04806,10.840164 0.163253,0.617617 0.388001,1.206156 0.601515,1.799908 l 4.135665,5.726774 3.628718,-4.805389 a 0.90609175,0.90609175 0 0 1 1.616956,0.394282 l 2.304251,13.51184 12.163077,12.464869 a 0.90609175,0.90609175 0 0 1 0.89916,0.75189 l 0.0352,0.20569 11.65664,11.94604 -1.31722,-7.72409 a 0.90609175,0.90609175 0 0 1 0.524,-0.97152 0.90609175,0.90609175 0 0 1 -0.43513,-0.30335 l -6.4978,-8.99633 -3.62871,4.80539 a 0.90609175,0.90609175 0 0 1 -1.61644,-0.39428 L 98.717443,88.897961 a 0.90609175,0.90609175 0 0 1 0.525542,-0.973588 0.90609175,0.90609175 0 0 1 -0.790126,-0.357584 l -6.497293,-8.996362 -3.629231,4.805388 A 0.90609175,0.90609175 0 0 1 86.709894,82.981533 L 83.15404,62.129562 a 0.90609175,0.90609175 0 0 1 0.04289,-0.439764 z m 63.360478,35.001483 1.1715,6.869859 a 0.90609175,0.90609175 0 0 1 -0.10647,0.56949 c 2.94489,-2.86465 -1.04727,1.01819 2.85049,-2.77297 0.19661,-0.19071 0.1986,-0.38624 0.005,-0.586 z m 0.69194,7.802119 a 0.90609175,0.90609175 0 0 1 -0.2558,0.0899 0.90609175,0.90609175 0 0 1 0.1845,-0.0207 c 0.0701,-0.0682 6e-4,-4.8e-4 0.0713,-0.0692 z" />
  </g>
</svg>
